<?xml version="1.0" encoding="utf-8"?>
<!-- Generator: Adobe Illustrator 23.0.3, SVG Export Plug-In . SVG Version: 6.00 Build 0)  -->
<svg version="1.1" id="Layer_1" xmlns="http://www.w3.org/2000/svg" xmlns:xlink="http://www.w3.org/1999/xlink" x="0px" y="0px"
	 viewBox="0 0 1920 1080" style="enable-background:new 0 0 1920 1080;" xml:space="preserve">
<style type="text/css">
	.st0{fill:#FFFFFF;}
	.st1{fill:#A9DADC;}
	.st2{fill:#70CBD1;}
	.st3{fill:none;}
	.st4{fill:#FFEFCF;}
	.st5{fill:#EB5624;}
	.st6{fill:#EAC331;}
	.st7{fill:#424143;}
	.st8{fill:#C7842A;}
	.st9{opacity:0.41;}
	.st10{opacity:0.5;}
	.st11{fill:#868686;}
	.st12{fill:#FFEDC7;}
	.st13{fill:#BFAC8F;}
	.st14{fill:#F2F8EE;}
</style>
<g>
	<polygon class="st14" points="1920,1080 0,1080 0,405.2 407.8,317.8 500.9,350.5 716.9,275.5 862,316.3 987.3,240.2 1266.4,310.2 
		1339.1,307.4 1523.8,398 1705.5,382 1920,473.9 	"/>
	<g>
		<path id="XMLID_5206_" class="st1" d="M1903.6,465.8c-22.4-9.3-75.9-30.9-98-33.8c-28.4-3.6-88.4-60.5-135.4-61.9
			c-47-1.5-149.8,39.4-166.8,21.7c-17-17.8-133.6-85.4-170.2-82.1c-36.6,3.3-119.4-2.2-163.4-21.7c-44-19.4-190.5-56.4-190.5-56.4
			l-140,86.4l-33.6-11.8c0,0-87.8-30.9-130.1-18.8C633.2,299.6,478,344.1,478,344.1s-78-39.6-82.5-29.6
			c-4.5,10-391.8,85.1-391.8,85.1l104.5,3.9c34.5-6.9,68.6-17,102-23.8c10.4-3,19.4-0.3,28.9,0.5c-5.4,14.1-23.6,20-39.8,26.7
			c0,0-98.9,51.3,297.3-38.3c6.8-1.4,17.1-4.4,22.2,1.9c-17.1,4.4-28.4,11.3-34.2,22.6c25.8,0.2,45.5-15.8,71.3-15.6
			c-1.3,5.8-8,20.9,9.6,14.6c45.1-13.9,92.4-37.3,133.6-20.1c5.9,2.5-19.3,14.1-31,22.9c-22.8,13.4-52.8,18.8-80,26.4
			c0,0,181.4-25.4,225-39.7c10.4-3,219.4-63,394-2c51.4,20.7,161.9,62.8,183.1,17.4c39.7-4.5,64.4,29,95.5,19.8
			c14-4.7-18.6-17.3-25.5-29.6C1516.5,421.6,1677.5,390.5,1903.6,465.8z"/>
		<g id="XMLID_5191_">
			<path id="XMLID_5205_" class="st2" d="M1488.3,393.8c-30.2-19.1-67.4-33.3-102.7-48.6c-16.6-7.2-30.6-16.8-50.3-21.3
				c-4.4-1-8.1-3.1-12.5-4c-7.4-1.4-11.2-1-5.6,4.5c1.7,1.7-1.1,5-1.7,7.5c-2.7,12.7,4.4,20.4,24.7,27.4c2.7,0.9,4.5,3.2,7.3,3.7
				c5.8,0.9,7.2,3.4,4.1,5.3c-3,1.9-8.5,2.3-13,3.4c-4.3-6.8-17.5-3.4-25.2-8.2c-6.4-4-12.8-8.2-16.9-12.7
				c-8.3-9.2-26.1-12.1-34.3-21c-10.1,0.7-20.4,1-30.3,2.3c-6.9,0.9-13.2,3.4-19.8,5.1c-2.1,0.5-4.3,0.7-6.5,1.1
				c2.1,0.7,4.2,1.4,6.2,2.1c19.8,7.1,32.1,18.5,44.5,29.7c1.4,1.2,0.7,3.6-0.2,5.2c-0.3,0.5-5,0.8-6.8,0.1
				c-19.5-6.8-43.6-6.5-61.9-15.4c-11.1-5.3-24.2-9.1-35-14.5c-14.7-7.5-28.1-16-42.1-24c-18-10.4-37-20.3-53.8-31.3
				c-8.7-5.7-15.2-13.1-20.2-20.4c-5.2-7.6-14.5-12-24.5-16.6c-4.4-2-8.3-4.6-13.1-6.1c-4.6-1.5-7.5-4.8-15.9-1
				c-27.7,12.6-51.4,27.2-73.4,43.3c-22.1,16.2-42,33.7-72,45.4c-6,2.3-10.1,6.3-15.5,9.3c-9.1,5.1-17.9,10.4-27.8,14.7
				c-9.2,4.1-19.3,7.6-29.8,10.4c-12.3,3.2-24.7,7-39.3,4.9c-5.7-0.8-12.1,0.3-18.2,0.6c3.8-3.3,8.9-6.4,11.1-10.1
				c4.3-7.2,14.3-10.6,23.3-14.8c27.2-12.8,54.3-25.6,81.5-38.4c1-0.5,1.5-1.3,2.2-2c-1.4-0.5-2.7-1.2-4.2-1.3
				c-5-0.6-10.2-0.8-15.1-1.6c-18.1-3.1-33.8-0.9-48.6,6.3c-5.9,2.9-14.4,4-21.9,5.6c-14.5,3-29,5.6-41.6,11.5
				c-11.1,5.2-25.5,5.2-38.8,5.5c-8,0.2-13.7-0.1-18.5,5c-3.5,3.7-10.9,6.1-17.1,8.7c-2.4,1-6.1,0.8-9.2,0.9c-1.5,0-3.1-0.5-4.6-0.8
				c0.8-1,1.2-2.4,2.6-3c15.3-7,29.4-15.3,44.8-21.6c22.5-9.2,44.3-20.2,73-23c8.4-0.8,16-4.4,23.9-6.9c0.8-0.3,1-2.8,0.5-2.9
				c-7.3-2-14.6-3.9-22.2-5.4c-4.9-1-9.3-1.4-11,3.4c-0.6,1.7-8.1,2.5-12.4,3.7c-14.7,4-29.9,7.3-43.5,13c-13.9,5.8-30.5,7.8-47,9.6
				c-6.2,0.7-13.8,0.9-17.9,3.2c-20.7,11.6-50,15.4-68.9,29.2c-8,5.8-23.4,8.8-36.3,10.9c-22.9,3.7-42.7,11.3-63.1,17.7
				c-17.2,5.4-33.9,11.4-52.7,14.2c-14.6,2.2-27.2,8.1-42.8,8.1c-5.6,0-11.3,0.2-16.9,0c-0.7,0-2-2.4-1.7-2.6
				c16.5-7,33.3-13.9,49.9-20.8c14.4-6,32.9-7.4,44.2-17.3c6.6-5.7,18.6-9.7,32-9.8c1.5,0,3.9-1.8,4.1-2.9c0.1-1-1.8-2.5-3.5-3.1
				c-11-3.7-22.8-6.7-32.9-11.1c-5.3-2.3-7.6-1.7-12.7-0.5c-15.7,3.8-28.8,10-42.1,16c-18.6,8.5-38.5,12.9-61.9,9
				c-12.5-2.1-23.2,0.4-35.1,3.2c-17.5,4.1-33.6,11.5-53.8,10.6c-6.3,4.6-9.2-4.4-16-1.3c-5,2.3-11.7,3.2-17.2,5.1
				c-4.4,1.5-5.2,1-5.2-1.9c0-8,8.2-11.4,19-13.9c41.3-9.5,82.4-19.5,125.2-26.5c8.4-1.4,16.3-4.5,23.6-7.6
				c15.5-6.5,31.8-11.9,49.4-16.2c17.3-4.2,30.9-4.1,48.6,1.6c18.2,5.8,35.7,12.2,51.1,20.6c6.7,3.6,19.3,3.2,24.7-1
				c11.9-9.3,25.4-16.9,44.9-19.6c1.5-0.2,2.9-1.1,4.1-1.8c18.2-9.8,39.3-15.3,63.5-17.2c15.1-1.2,28.5-6.4,41.6-10.9
				c15.5-5.4,34.2-6.5,47.9-14.3c7.7-4.3,17.7-1.7,25.6,0.7c13.3,4.1,25.6,9.3,38.7,13.6c13.2,4.3,26.3,8.9,40.4,11.9
				c9.5,2,18.1,3.9,24.4,8.9c2.2,1.8,6.3,3.7,9.4,3.7c4.5,0,9.4-1.4,13.2-3c15.7-6.5,32.1-12.8,42.2-22.8
				c11.7-11.5,29.8-19.1,44.8-28.6c5.3-3.3,11.9-5.9,17.8-8.9c5.3-2.8,11-5.4,15.5-8.6c13.9-9.6,30.4-5.9,46.7-3.9
				c4.1,5.4,12.9,4.1,19.9,4.9c14.5,1.6,26.8,6,39.5,10.2c21.5,7.2,41.2,16.2,66.1,19.7c8.1,1.1,17.1,4.1,24.2,8.7
				c11.3,7.3,27.3,11.1,41.6,16.1c5.5,1.9,12.9,2.5,16.9,5.1c8.6,5.7,21.1,6.6,29.8,5.3c10.7-1.7,19.6,0.1,29.2,0.4
				c5.9,0.2,12.4,2.4,17.5,1.4c8.4-1.6,16.5-5.6,25.1-3.3c15.8,4.2,31.8,8.8,45.8,14.8c27.1,11.6,53.1,24.1,79.1,36.6
				c15.6,7.5,30.5,15.5,45.5,23.4c5.5,2.9,6.4,8.9,15.3,9.4c14.8,0.8,29,4.8,44.5,2.6c22.9-3.3,46.1-6,69.2-8.8
				c16.2-1.9,32.4-4.2,48.8-5c23-1.1,45.1,2.7,58.6,14.4c18.6,16.1,46.4,25.4,69.4,38.2c1.7,1,3.9,1.6,5.9,2.3
				c7.8,2.6,13.9,6.1,16.1,11.6c-9.5-1.1-19.7-1.3-28.4-3.6c-9.2-2.4-17.7-6.4-25.3-10.4c-8.4-4.5-21.3-5.5-25.8-13.1
				c-0.9-1.5-6.8-2.4-10.6-2.8c-14.4-1.8-30-1.5-39.8-10c-0.7-0.6-3.1-0.5-4.7-0.8c-6.4-1.3-9.8,0.3-8.8,4.3
				c2.7,10.1,4.2,11.5,23.4,22.3c6.3,3.5,6.6,5.2,0.1,7.1c-7.3,2.1-13.7,3.5-22.8,0.4c-15-5.1-25.6-12.2-34.2-20.8
				c-4.3-4.3-10-6.1-18.1-6.9c-15.5-1.5-30.6-2.8-45.4,1.7c-2.3,0.7-5,1-7.6,1.5c2.1,1.6,3.5,4,6.2,4.7
				C1639.8,422.6,1507.7,406,1488.3,393.8z"/>
			<path id="XMLID_5204_" class="st2" d="M844.4,395.6c-2.5-1.4-4.2-1.9-4.6-2.7c-0.4-0.9-0.2-2.5,0.8-2.9
				c10.4-4.9,20.4-10,30.1-15.5c9.2-5.1,22.5-7.6,33.9-11.3c5.1-1.6,11.2-2.8,14.7-5.4c16.2-11.9,37.5-19.3,59.8-25.9
				c2.7-0.8,6-1,9.1-1.3c1.6-0.1,3.3,0.3,5,0.5c-0.4,1.1-0.6,2.2-1.4,3.2c-5.3,6.8-16.8,9.4-25.4,14c-1.4,0.7-2,3-1.1,3.9
				c1,1,4.6,2,6.2,1.7c12.5-3.1,25-5.6,38.7-6.3c7.2-0.4,13.8-4.1,22-2.3c-5.5,2.8-11.5,5.3-16.4,8.4c-10.2,6.4-24.5,7.6-37.2,10.3
				c-18,3.8-37.6,4.9-52.9,12.9c-18.5,0.3-32.6,9.9-52.4,8.8c-6-0.3-12.7,4.1-19.1,6.3C850.7,393.2,847.3,394.5,844.4,395.6z"/>
			<path id="XMLID_5202_" class="st2" d="M551.8,442.3c-3.4-1.4-8.1-2.3-8.1-3.4c-0.1-2.3,1-5.6,3.6-6.8c14.6-6.5,28.2-14.2,46-17.7
				c15.5-3,29.1-8.3,43.1-13.3c14.6-5.2,29.8-9.7,45-14.3c2.3-0.7,5.8-0.1,8.7-0.1c0,2,1.1,4.3-0.3,5.8c-5.4,5.5-11.9,11.1-22,13.4
				c-19.8,4.7-34.5,13.9-52.4,20.3c-15.8,5.6-30.9,12.4-49.9,14C560.9,440.5,556.4,441.5,551.8,442.3z"/>
			<path id="XMLID_5201_" class="st2" d="M41.6,435.5c-2.5-0.2-5.4-0.1-7.4-0.9c-1.6-0.6-2.6-2.2-2.9-3.4c-0.2-0.7,1.2-2,2.4-2.3
				c19.8-4.5,39.8-8.9,59.6-13.5c10.5-2.4,20.6-5,32.5-3.2c9.2,1.4,16.7-2,24.6-4.7c10.8-3.7,19.9,0,19.2,7.3
				c-0.2,1.6-4.1,4.4-4.4,4.4c-9.9-3-15,3.3-22.6,4.2c-5.4,0.7-11.1,2-16.2,1.4c-12-1.3-21.5,1.5-32.3,4
				c-16.6,3.9-34.6,5.5-52.1,8.1C41.9,436.5,41.7,436,41.6,435.5z"/>
			<path id="XMLID_5200_" class="st2" d="M1828.3,523.9c-3.7-1.5-10.4-3.4-15-6.5c-6.1-4-12.8-7-20.5-9.8c-18.3-6.8-22-9.5-33.8-21
				c-1.8-1.7-1.2-4.3-1.8-6.6c4.9-0.4,9.9-1.4,14.5-1c3.4,0.3,6.6,2.5,9.5,4.1c15.1,8.5,34.1,13.8,48.8,22.6
				c5.4,3.2,9.2,7.4,13.4,11.2c1.6,1.4,2.5,3.2,3.6,4.8c-3.6,1-7.2,2.1-11,2.8C1834.6,524.9,1832.8,524.3,1828.3,523.9z"/>
			<path id="XMLID_5199_" class="st2" d="M121.3,381.6c-2.7,2-3.9,3.6-5.7,4c-24.6,4.7-49.2,9.6-74.1,13.6c-9,1.5-18.9,1.4-28.3,1.2
				c-3.1-0.1-6.4-2.6-8.9-4.4c-0.4-0.3,2.4-2.8,4.4-3.8c9.7-4.5,19.4-8.4,33.1-7.9c8.1,0.3,17.8-1.4,24.5-4.2
				c11.6-4.9,25-1.6,37.1-4.5C107.2,374.7,114.6,379.2,121.3,381.6z"/>
			<path id="XMLID_5198_" class="st2" d="M1343.5,431.9c-7.5,0.1-13-2.3-17.3-6.6c-12.7-12.8-33.6-20.9-50.4-31.4
				c-2.7-1.7-6.6-2.6-9.2-4.3c-1.4-0.9-2-2.9-1.3-4c0.6-0.9,3.8-1.8,5.6-1.6c12.4,1.1,25.8,1.5,29,11.4c12.8,4.1,16.4,14,32.2,17.1
				c9.4,1.9,15.7,9.5,23,14.8c1.3,0.9,1.6,3.2,0.6,4.1c-0.9,0.9-4.2,0.9-6.5,1C1347.6,432.5,1345.9,432.1,1343.5,431.9z"/>
			<path id="XMLID_5197_" class="st2" d="M1166.6,405.9c-1.1,0.4-3,1.7-4.7,1.6c-9.4-0.5-16-3.7-21.8-8.1c-6-4.6-13.5-8.5-19.5-13.1
				c-4.4-3.4-10.3-6.5-7.9-12.1c0.7-1.7-3.5-4.2-5.2-6.4c-4.3-5.4-4.6-10.3-2.8-9.7c4.1,1.3,7.5,3.4,10.9,5.4
				c9.3,5.2,19.8,10,27.4,16c9.4,7.4,16.3,16,24.3,24.1C1167.5,403.9,1167,404.6,1166.6,405.9z"/>
			<path id="XMLID_5196_" class="st2" d="M1902.2,472.7c-6.4-2.8-13.1-5.3-18.7-8.6c-2-1.2-2.6-4.9-1.1-6.2
				c1.9-1.7,5.5-5.1,10.9-0.6c3.9,3.2,11.5,4.7,16.9,7.5c2.1,1.1,2.4,3.5,3.5,5.2C1910.4,470.8,1907.1,471.6,1902.2,472.7z"/>
			<path id="XMLID_5195_" class="st2" d="M1351.8,385.8c1.9-1.1,4.1-3,5.1-2.8c10.5,2.2,21.6,3.9,28.6,9.8c1.1,0.9,0.4,2.8-0.3,4.1
				c-0.3,0.5-3.2,1.1-4.2,0.8c-8.5-2.5-17-5-25.2-7.9C1354,389.3,1353.3,387.5,1351.8,385.8z"/>
			<path id="XMLID_5194_" class="st2" d="M1744.4,437c2.5,0.2,5.1,0.2,7.4,0.8c5.8,1.4,10.3,4.2,8.1,7.9c-2.4,4-11.3,1.9-12.4,0.8
				c-5-4.8-13.1-3.6-19.7-5c-1-0.2-2.1-1.8-1.7-2.5c0.7-1.3,2.4-3.3,3.6-3.3C1734.6,435.8,1739.5,436.5,1744.4,437z"/>
			<path id="XMLID_5193_" class="st2" d="M909.9,426c3.1,1.1,5.2,1.7,7.2,2.4c-2.5,0.4-5,1.3-7.4,1.2c-2.1,0-4.2-1-6.4-1.6
				C905.5,427.3,907.8,426.6,909.9,426z"/>
			<path id="XMLID_5192_" class="st2" d="M573.6,361.1c-5.2,0.9-8.1,1.6-11.1,1.8c-1.1,0.1-2.4-1.2-3.6-1.8c2-1,3.9-2.3,6.2-3
				C565.8,357.8,567.6,358.9,573.6,361.1z"/>
		</g>
		<path id="XMLID_5190_" class="st2" d="M813.4,490.9c-1.2,0.2-2.4,0.6-3.6,0.6c-0.4,0-0.9-0.7-1.4-1.1c1.2-0.2,2.4-0.6,3.6-0.6
			C812.4,489.8,812.9,490.5,813.4,490.9z"/>
	</g>
</g>
</svg>
