<?xml version="1.0" encoding="utf-8"?>
<!-- Generator: Adobe Illustrator 23.0.3, SVG Export Plug-In . SVG Version: 6.00 Build 0)  -->
<svg version="1.1" id="Layer_1" xmlns="http://www.w3.org/2000/svg" xmlns:xlink="http://www.w3.org/1999/xlink" x="0px" y="0px"
	 viewBox="0 0 502.2 673.4" style="enable-background:new 0 0 502.2 673.4;" xml:space="preserve">
<style type="text/css">
	.st0{fill:#FFFFFF;}
	.st1{fill:#A9DADC;}
	.st2{fill:#70CBD1;}
	.st3{fill:none;}
	.st4{fill:#FFEFCF;}
	.st5{fill:#EB5624;}
	.st6{fill:#EAC331;}
	.st7{fill:#424143;}
	.st8{fill:#C7842A;}
	.st9{opacity:0.41;}
	.st10{opacity:0.5;}
	.st11{fill:#868686;}
	.st12{fill:#FFEDC7;}
	.st13{fill:#BFAC8F;}
	.st14{fill:#F2F8EE;}
</style>
<g id="XMLID_55_">
	<g id="XMLID_57_">
		<path id="XMLID_1107_" class="st7" d="M372.7,436.3c-0.9-1.7-1.9-3.3-4.2-3.1c-0.4-0.8-0.9-1.5-1.5-2.1c-0.1-0.1-0.1-0.1-0.2-0.2
			c-0.2-0.1-0.3-0.2-0.5-0.3c-0.5-0.3-1.2-0.5-2-0.4c0.2-0.2,0.3-0.4,0.5-0.5c-0.7-0.5-1.5-0.9-2.5-1.6c0,0.7-0.1,1.3-0.1,2
			c0.4,0,0.8,0,1.1,0.1c0.3,0,0.6,0,1,0.1c0,0,0,0,0,0c0.9,1.6,1.9,3.2,4.2,3C369.5,434.9,370.5,436.5,372.7,436.3z M382.3,442.5
			c0-0.5-0.2-0.8-0.4-0.9c-0.4-0.3-1.1,0-1.7-0.1c0,0,0.1-0.1,0.1-0.1c-0.3-0.3-0.5-0.6-0.7-0.9c-0.1,0.1-0.2,0.2-0.3,0.3
			c0.1,0.1,0.1,0.1,0.2,0.2c0.2,0.2,0.4,0.4,0.7,0.5c0,0,0.1,0,0.1,0C380.3,443,381.5,442.3,382.3,442.5z M374.9,438.4
			c0,0.2,0.1,0.4,0.1,0.5c0,0.1,0.1,0.1,0.1,0.2c0.1,0.1,0.1,0.2,0.2,0.2c0,0,0.1,0.1,0.1,0.1c0.4,0.2,1.1-0.1,1.5,0
			c0,0-0.1,0.1-0.1,0.1c0.2,0.3,0.5,0.6,0.7,0.8c0.1-0.1,0.2-0.2,0.3-0.3c-0.1-0.1-0.1-0.1-0.2-0.2c-0.2-0.2-0.4-0.4-0.7-0.5
			c0,0-0.1,0-0.1,0C376.8,437.9,375.7,438.6,374.9,438.4z M382.5,442.7c0.2,0.3,0.3,0.5,0,0.7c2,1.7,3.4,3.3,5.1,4.1
			c2.3,1.1,4.2,2.7,6,4.4c3.1,2.9,6.4,5.6,9.7,8.3c0.9,0.7,1.9,1.4,3,1.6c0.8,0.2,1.7-0.3,2.8-0.5c-2.2-3.7-5.2-5.7-8.2-7.3
			c-3-1.7-4.9-4.8-8.7-5.6c-1-0.2-1.9-0.8-2.8-1.4c-1.8-1.5-3.5-3.4-6.1-3.4c0,0,0,0,0,0c0,0,0,0-0.1,0
			C383.1,443.2,382.8,443,382.5,442.7z M498.7,513.3c0.1,3.8,0.1,7.6,0.2,11c-0.8,1.7-1.4,3.1-2,4.4c-2.2,4.5-5.5,7.9-10.2,9.8
			c-0.3,0.1-0.5,0.6-0.8,0.6c-5.1-0.3-10.2,0.6-15.4-0.4c-7.2-1.4-13.5-4.6-19.5-8.4c-2.9-1.9-5.8-4-8.4-6.4
			c-4.6-4.3-9.3-8.4-14.4-12.1c-2.6-1.9-4.5-4.9-6-7.8c-0.9-1.8-2.2-3.4-3.7-4.1c-4.7-2.3-6.8-7-10.3-10.3c0.1-1.7-1.5-2.2-2.4-3.2
			c-1.6-1.7-3.3-3.3-5-4.9c-1.8-1.8-3.7-3.5-5.5-5.3c-3.3-3.1-6.3-6.5-8.8-10.4c-1.8-2.8-4.4-5.1-6.7-7.6c-1.2-1.3-2.5-2.4-3.7-3.6
			c-6.6-6.5-13.5-12.6-18.9-20.2c-2.2-3.2-5.1-5.9-7.9-8.7c-2.8-2.9-5.8-5.6-8.6-8.4c-0.2-0.2-0.4-0.4-0.5-0.5
			c-1.2-1.3-2.3-2.7-3.8-4.4c1.2-0.6,2.3-1.1,4-2c4.7,1.2,9.3,5.6,14.7,8.5c3,1.6,5.9,3.5,8.9,5.1c6.8,3.4,13,7.7,19.2,11.8
			c2.3,4.4,7,5.7,10.7,8.2c2.6,1.7,5.4,3.1,8,4.7c3.5,2.2,6.8,4.7,10.3,6.8c6.7,4,13.4,7.9,20.9,10.3c4.2,1.3,7.2,4.3,9.5,8.1
			c1,1.6,2.7,3,4.2,4.1c8.9,6.7,19.2,11.2,28.5,17.4c3.5,2.3,6.8,4.8,10.2,7.2c1.1,0.7,2.2,1.8,3.4,1.9c4.7,0.6,7.3,3.5,8.8,7.7
			C497.8,512.6,498.4,512.9,498.7,513.3z M487.3,510.3c-4-2.5-8-1-11.8-1.4c-2.7,2.2-5,4.1-7,5.8c0,1.6,0.6,3.3,0,4
			c-2.4,2.7-0.4,5.4,0.4,7.4c1.1,2.6,2,6.1,6.2,7.2c-1.7-4-3-7.6-2-11.8c0.9-0.5,1.8-1.1,2.8-1.7c0.4-1.9,0.9-3.8,1.4-6.1
			C480.3,512.7,483.7,511.5,487.3,510.3z M453.1,510.3c1,0.6,2.3,0.8,4.4,1.5c-3.1-6.5-8.2-8.9-14-12.2
			C445,502.3,451.4,509.4,453.1,510.3z M450.1,487.9c-1.4-1.3-2.7-2.6-4.1-3.9c-1.6-1.5-3.4-2.9-4.1-5c-0.9-2.8-3.3-4.3-5.4-5.9
			c-5.3-4-11.8-4.9-17.8-7.2c-0.2,0.7-0.5,1.2-0.4,1.3c2,1.7,4,3.4,6.1,5c4,3,8.6,5.4,12,9C440.2,485.1,444.9,486.6,450.1,487.9z
			 M436.8,494c-0.6-3-2.9-3.8-4-5.4c-1,0.1-1.7,0.1-3,0.2c1.8,1.8,3.1,3.1,4.6,4.4C434.9,493.7,435.7,493.7,436.8,494z M423.8,484.3
			c-0.1-0.8-0.2-1.5-0.7-1.9c-1.3-1-2.9-1.7-4-2.9c-2.9-3.2-6.5-5.2-10-7.5c-1.5-1-3.2-2.6-5.5-1.2
			C409.5,476.7,416.6,480.6,423.8,484.3z"/>
		<path id="XMLID_830_" class="st11" d="M475.4,508.9c3.9,0.4,7.8-1,11.8,1.4c-3.6,1.3-6.9,2.4-10,3.5c-0.6,2.4-1,4.3-1.4,6.1
			c-1,0.6-2,1.2-2.8,1.7c-1,4.1,0.3,7.8,2,11.8c-4.2-1.1-5.1-4.6-6.2-7.2c-0.9-2.1-2.8-4.7-0.4-7.4c0.6-0.7,0-2.3,0-4
			C470.5,513,472.8,511.1,475.4,508.9z"/>
		<path id="XMLID_812_" class="st7" d="M430.4,556.9c-0.4,0-0.7-0.1-1-0.2c0,0-0.1,0-0.1,0c-0.1-0.1-0.3-0.1-0.4-0.2c0,0,0,0-0.1,0
			c-1.2-0.6-2.1-1.5-3-2.4c-0.2-0.3-0.5-0.5-0.7-0.8c-0.1-0.1-0.2-0.3-0.4-0.4c-0.3-0.3-0.5-0.5-0.8-0.7c-0.1-0.1-0.3-0.2-0.4-0.3
			c-2.2-1.4-4.4-2.7-7.5-4.6c3.4,7.7,7.1,13.9,12.8,18.9c-3.7,4.3-1.9,9.1-2.3,13.8c0.9-0.1,1.4-0.1,1.8-0.1c2.3-7.2,3-9.4,9.2-10.8
			c2-0.4,3.9-1.6,5.7-2.7c1.6-0.9,2.8-2.3,4.3-3.3c3.6-2.5,7.4-3.6,11.4-0.7c0.1,0.1,0.5-0.1,0.8-0.1c0-0.7,0-1.4,0-2.4
			c-1.7-1.4-3.7-3-5.8-4.7c-4.2,0.5-8.4,1.1-12.2,1.6c-1.8-1.3-3.4-2.5-5.1-3.6c-3.1-2.1-6.3-4.1-9.5-6.1c-0.5-0.3-1.3-0.2-2.9-0.4
			c1,1.5,1.8,2.8,2.7,4.1c1.4,2.2,2.6,4.2,3.9,6.3C430.5,556.9,430.5,556.9,430.4,556.9z M468.3,570.1c0.2,8.9-3.9,15.7-10.2,21.4
			c-2,1.8-4.6,3-7.1,4.2c-3.1,1.5-6.7,1.3-9.6,0.6c-5.8-1.4-11.7-2.6-17.4-4.6c-5.5-1.9-9.8-4.9-13-9.5
			c-5.4-7.5-10.5-15.2-17.5-21.4c-2.9-2.6-4.9-5.9-7.3-8.9c-2.1-2.6-4.6-5-6.8-7.6c-4.2-4.9-7.6-10.4-12.8-14.5
			c-1.2-3.5-5.3-3.9-6.7-7c-0.9-1.9-1.8-3.8-2.6-5.7c-1.4-3.5-2.3-7.2-3.1-10.7c-0.9-4.2-3.2-7.8-4.2-11.9c-0.5-2.2-2-4.2-2.2-6.4
			c-0.2-2.7-2.8-4-3-6.7c-0.1-2.3-1.7-4.5-2.5-6.7c-2.6-7.5-5.2-15-7.2-22.7c-0.7-2.5-2-4.7-3.2-7c-2.9-5.6-4.4-11.8-7.3-17.4
			c-1-1.9-0.3-4.1-1.3-6.3c-2.6-5.7-4.5-11.7-6.9-17.9c0.6-0.5,1.2-1,2-1.6c2.7,1.3,6,1.4,8.2,4.1c3.7,4.4,7.7,8.6,11.7,12.8
			c2.4,2.5,4.7,5,7,7.7c5.9,6.8,11.6,13.7,17.8,20.1c2.8,2.9,5.1,6.2,7.6,9.3c1.8,2.3,3.4,4.9,5.3,7.1c2.4,2.9,5,5.6,7.5,8.3
			c2.4,2.6,5.6,4.1,8.4,6.2c2.5,1.9,5.5,3.4,7.6,5.4c0.1,0.1,0.3,0.3,0.4,0.4c3.3,3.5,6.7,7.5,8.1,12.2c0.8,3.1,2.8,5.3,4.4,7.6
			c2.5,3.4,5.5,6.5,8.6,9.4c4.7,4.5,9.5,9,14.6,13c2.1,1.7,4.2,3.4,6.2,5.2c4.4,4,8.2,8.4,11.2,13.6c0.8,1.4,2.3,2.6,3.5,3.7
			c1.2,1.1,2.7,2,4,2.9c1.2,0.9,2.6,1.5,3.6,2.6c1.3,1.3,2.3,2.8,3.6,4.3C468.1,562.1,468.2,566.1,468.3,570.1z M439,536.7
			c0-0.1-0.1-0.2-0.1-0.3c-0.1-0.2-0.1-0.4-0.2-0.6c-0.4-1.1-0.9-1.4-2.6-1.8c-0.4-0.1-0.6-0.2-0.8-0.3c0,0,0,0,0.1-0.1
			c-0.3-0.3-0.5-0.6-0.7-0.9c-0.1,0.1-0.2,0.2-0.3,0.3c0.3,0.2,0.6,0.5,0.9,0.7c0.4,0.1,0.8,0.2,1.2,0.3
			C437,534.9,438.2,536,439,536.7z M426.4,526.5c0.1-0.7,0.2-1.5,0.4-2.7c-3.7-3.1-7.6-6.4-11.6-9.8c0,1,0,1.8,0.1,3.1
			c3.2,2.9,6.8,6.2,10.4,9.4C425.6,526.6,425.9,526.6,426.4,526.5z M407.9,509.9c0.4,0.2,0.9,0.1,1.6,0.2c0-1.3,0-2.5-0.1-3.8
			c-1.6-1.6-3.3-3.3-4.2-5.8c-1-2.7-2.8-5.1-4.2-7.6c-1.7-3.2-3.2-6.7-7.8-6.5c-2.2-1.7-5.1-2.2-7.1-4.5c-2.3-2.5-4.5-5.1-7.8-6.5
			c-0.2-0.1-0.5,0.2-0.7,0.3c0,0.7,0,1.4,0,2.1c2.7,2.6,5.5,5.3,8.3,7.9c0.7,0.7,1.5,1.4,2.4,1.8c2.4,0.9,4,2.9,6,4.3
			c2.4,1.7,3.4,4.5,4.6,6.9C401.1,503.1,403.4,507.3,407.9,509.9z M403.1,530.2c0.3-0.4,0.5-0.6,0.5-0.7c-2.6-4.5-6.2-8.2-9.5-12.2
			c-2-2.5-4.4-4.7-6.4-7.3c-4.4-5.7-8.6-11.7-14-16.6c-2.5-2.2-4.7-4.7-7.2-6.9c-1.2-1.1-2.6-2.5-4.7-1.5c2.4,4.5,4.8,8.7,7.1,13
			c0.3,0.6,0.4,1.3,0.8,2.8c-2.4-2.3-4.1-4.1-5.9-5.7c-1.5-1.3-2.3-3.7-4.9-4.1c0.6,2.2,0.8,4.2,1.6,6c2.2,4.8,4.8,9.5,7.1,14.3
			c1.3,2.7,3.5,4.4,6.4,6.1c-0.1,3.4,2.1,5.9,4.6,7.3c5.4,3,9.7,7.7,15.8,10.6c-0.7-5.6-5.4-8.8-7.7-13.9
			C393.1,524,397.7,528,403.1,530.2z M367.8,465c0.7,0.9,1.5,1.5,2.5-0.2c-1.5-2-3.1-4-4.7-6.1c-0.4-0.5-0.6-1.1-0.9-1.7
			c-0.3,0.2-0.5,0.4-0.8,0.6c0,0.8,0,1.6,0,2.3C365.2,461.6,366.4,463.3,367.8,465z M358,449c-0.7-1.6-1.5-3.1-2.7-4.3
			c-3.5-3.6-7.3-7-10.8-10.5c-2.7-2.8-5.3-5.8-7.9-8.6c-0.2-0.2-0.9-0.1-1.6-0.1c0,0.8-0.1,1.4-0.1,1.8
			C341.3,436.5,348.4,444.1,358,449z"/>
		<path id="XMLID_811_" class="st11" d="M459.7,559.8c0,1.1,0,1.8,0,2.4c-0.3,0-0.6,0.2-0.8,0.1c-4-2.8-7.8-1.8-11.4,0.7
			c-1.5,1.1-2.8,2.4-4.3,3.3c-1.8,1.1-3.7,2.2-5.7,2.7c-6.3,1.4-7,3.6-9.2,10.8c-0.4,0-0.9,0.1-1.8,0.1c0.4-4.7-1.4-9.5,2.3-13.8
			c-5.7-5-9.4-11.2-12.8-18.9c3.1,1.9,5.3,3.1,7.5,4.6c0.1,0.1,0.3,0.2,0.4,0.3c0.3,0.2,0.5,0.5,0.8,0.7c0.1,0.1,0.3,0.2,0.4,0.4
			c0.3,0.3,0.5,0.5,0.7,0.8c0.9,0.9,1.7,1.9,3,2.4c0,0,0,0,0.1,0c0.1,0.1,0.3,0.1,0.4,0.2c0,0,0.1,0,0.1,0c0.3,0.1,0.7,0.2,1.1,0.3
			c0.3,0.3,0.6,0.6,0.9,0.9c0,0-0.1,0.1-0.1,0.1c0.2,0.3,0.5,0.6,0.7,0.8c0.1-0.1,0.2-0.2,0.3-0.3c-0.1-0.1-0.1-0.1-0.2-0.2
			c-0.2-0.2-0.4-0.4-0.7-0.5c0,0,0,0-0.1,0.1c-0.2-0.1-0.4-0.3-0.5-0.5c-0.1-0.1-0.2-0.2-0.3-0.3c0.1,0,0.2,0,0.2,0
			c-1.4-2.2-2.7-4.2-4.1-6.4c-0.8-1.3-1.7-2.7-2.7-4.1c1.6,0.2,2.4,0.1,2.9,0.4c3.2,2,6.4,4,9.5,6.1c1.7,1.1,3.3,2.3,5.1,3.6
			c3.9-0.5,8.1-1,12.2-1.6C456,556.8,457.9,558.4,459.7,559.8z"/>
		<path id="XMLID_810_" class="st11" d="M457.5,511.7c-2.1-0.7-3.4-0.9-4.4-1.5c-1.7-0.9-8.1-8-9.6-10.8
			C449.3,502.9,454.4,505.3,457.5,511.7z"/>
		<path id="XMLID_809_" class="st11" d="M446,484c1.3,1.3,2.7,2.6,4.1,3.9c-5.2-1.3-9.9-2.8-13.7-6.8c-3.4-3.6-8-6-12-9
			c-2.1-1.6-4.1-3.3-6.1-5c-0.1-0.1,0.2-0.6,0.4-1.3c6,2.3,12.5,3.2,17.8,7.2c2.1,1.6,4.5,3.2,5.4,5.9
			C442.6,481.1,444.5,482.4,446,484z"/>
		<path id="XMLID_808_" class="st11" d="M438.9,536.4c0,0.1,0.1,0.2,0.1,0.3c-0.8-0.7-2-1.9-2.7-2.6c1.5,0.4,2.1,0.8,2.4,1.7
			C438.7,536,438.8,536.2,438.9,536.4z"/>
		<path id="XMLID_807_" class="st11" d="M438.7,535.8c0.1,0.2,0.1,0.4,0.2,0.6C438.8,536.2,438.7,536,438.7,535.8z"/>
		<path id="XMLID_806_" class="st11" d="M436.1,534c1.7,0.5,2.2,0.7,2.6,1.8c-0.4-0.9-0.9-1.3-2.4-1.7
			C436.2,534.1,436.1,534,436.1,534z"/>
		<path id="XMLID_805_" class="st11" d="M436.1,534c0.1,0,0.1,0.1,0.2,0.2c-0.3-0.1-0.7-0.2-1.2-0.3c0,0,0.1-0.1,0.2-0.1
			C435.5,533.8,435.7,533.9,436.1,534z"/>
		<path id="XMLID_804_" class="st11" d="M434.5,532.8c0.2,0.3,0.5,0.6,0.7,0.9c0,0,0,0-0.1,0.1c-0.6-0.2-0.8-0.4-1-0.6
			C434.3,533,434.4,532.9,434.5,532.8z"/>
		<path id="XMLID_802_" class="st11" d="M435.2,533.7c-0.1,0.1-0.1,0.1-0.2,0.1c-0.3-0.2-0.6-0.5-0.9-0.7
			C434.4,533.3,434.6,533.5,435.2,533.7z"/>
		<path id="XMLID_793_" class="st11" d="M432.8,488.7c1.1,1.5,3.4,2.4,4,5.4c-1.1-0.3-1.9-0.3-2.4-0.8c-1.4-1.2-2.7-2.6-4.6-4.4
			C431.2,488.8,431.8,488.8,432.8,488.7z"/>
		<path id="XMLID_788_" class="st11" d="M431.4,557.9C431.4,557.9,431.4,557.8,431.4,557.9c0.3,0.1,0.5,0.3,0.8,0.4
			c0.1,0.1,0.1,0.1,0.2,0.2c-0.1,0.1-0.2,0.2-0.3,0.3c-0.2-0.3-0.5-0.6-0.7-0.8C431.3,558,431.4,557.9,431.4,557.9z"/>
		<path id="XMLID_786_" class="st11" d="M431.5,557.8c0.2,0.2,0.4,0.4,0.7,0.5C431.9,558.1,431.7,558,431.5,557.8
			C431.5,557.8,431.5,557.8,431.5,557.8z"/>
		<path id="XMLID_785_" class="st11" d="M431.4,557.8C431.4,557.8,431.4,557.9,431.4,557.8c-0.4-0.2-0.7-0.5-0.9-0.8
			c0,0,0.1,0,0.1,0c0.1,0.1,0.1,0.2,0.3,0.3C431.1,557.5,431.3,557.7,431.4,557.8z"/>
		<path id="XMLID_784_" class="st11" d="M430.9,557.1c-0.1,0-0.2,0-0.2,0c0,0,0-0.1,0-0.1c-1.2-2.1-2.5-4.1-3.9-6.3
			C428.1,552.9,429.5,554.9,430.9,557.1z"/>
		<path id="XMLID_783_" class="st11" d="M430.6,557C430.6,557,430.6,557,430.6,557c0,0.1-0.1,0.1-0.1,0.1c0,0-0.1-0.1-0.1-0.1
			C430.5,556.9,430.5,556.9,430.6,557z"/>
		<path id="XMLID_781_" class="st11" d="M430.4,556.9C430.4,557,430.5,557,430.4,556.9c-0.3,0-0.7-0.1-1-0.2
			C429.7,556.8,430.1,556.9,430.4,556.9z"/>
		<path id="XMLID_779_" class="st11" d="M428.9,556.5c0.1,0.1,0.3,0.1,0.4,0.2C429.2,556.6,429,556.6,428.9,556.5z"/>
		<path id="XMLID_775_" class="st11" d="M426.8,523.9c-0.1,1.2-0.3,1.9-0.4,2.7c-0.5,0-0.8,0.1-0.9,0c-3.6-3.2-7.1-6.5-10.4-9.4
			c0-1.3,0-2.1-0.1-3.1C419.2,517.5,423,520.7,426.8,523.9z"/>
		<path id="XMLID_772_" class="st11" d="M424.7,552.8c0.1,0.1,0.3,0.3,0.4,0.4C425,553.1,424.9,553,424.7,552.8z"/>
		<path id="XMLID_768_" class="st11" d="M423.9,552.1c0.3,0.2,0.5,0.5,0.8,0.7C424.5,552.6,424.2,552.3,423.9,552.1z"/>
		<path id="XMLID_767_" class="st11" d="M423.1,482.5c0.4,0.4,0.6,1,0.7,1.9c-7.2-3.8-14.3-7.7-20.2-13.5c2.4-1.3,4,0.3,5.5,1.2
			c3.5,2.3,7.2,4.3,10,7.5C420.2,480.7,421.8,481.4,423.1,482.5z"/>
		<path id="XMLID_766_" class="st11" d="M409.5,510c-0.7-0.1-1.2,0.1-1.6-0.2c-4.4-2.6-6.8-6.8-9-11.3c-1.2-2.5-2.2-5.2-4.6-6.9
			c-2-1.4-3.6-3.4-6-4.3c-0.9-0.3-1.7-1.1-2.4-1.8c-2.8-2.6-5.5-5.3-8.3-7.9c0-0.8,0-1.5,0-2.1c0.3-0.1,0.6-0.3,0.7-0.3
			c3.2,1.4,5.5,4,7.8,6.5c2,2.2,4.9,2.8,7.1,4.5c4.5-0.2,6,3.3,7.8,6.5c1.4,2.6,3.2,4.9,4.2,7.6c0.9,2.5,2.6,4.2,4.2,5.8
			C409.4,507.6,409.4,508.7,409.5,510z"/>
		<path id="XMLID_753_" class="st7" d="M406.5,626.1c0.8,2.3,1.7,4.9,0.9,6.8c-1.5,3.4-1.8,7.1-4.2,10.3c-5.9,8-14,12.8-22.6,17.1
			c-0.4,0.2-0.8,0.6-1.6,1.1c-4.8,0.1-10,0.1-15.2,0.3c-1.4,0.1-2.5-0.4-3.8-1c-1.9-0.9-3.9-1.5-5.9-2c-4.5-1.3-8.6-3-11-7.5
			c-1.8-3.4-4.6-6.2-5.6-10.2c-0.5-1.9-2.5-3.5-3.8-5.2c-2.3-2.9-3.8-6.3-3.6-10c0.2-4-1.5-7.5-2.5-11.1c-0.8-2.6-1.1-5.4-2.4-7.9
			c-1.2-2.2-2-4.8-2.8-7.2c-0.9-2.6-1.4-5.4-2.3-8c-0.9-2.4-2.4-4.7-3-7.1c-1.7-7.1-4.7-13.8-6.6-20.9c-1.9-7.1-4.8-13.7-7.5-20.5
			c-0.7-1.8-1.6-3.8-1.5-5.6c0.1-2.2-0.9-3.9-1.4-5.8c-1.1-4.5-1.3-11.2-0.5-16c0.5-2.8-0.1-5.9,0.2-8.8c0.3-3.6-0.9-6.9-2.4-10.1
			c-2.4-5.3-4-10.9-6.4-16.2c-1.7-3.7-3.2-7.4-5.3-10.9c-2-3.4-3.1-7.4-4.6-11.2c-0.2-0.6-0.2-1.4-0.6-1.9
			c-4.2-5.9-4.5-13.1-7.1-19.6c-0.5-1.4-0.1-3.1-0.2-5c0.5-0.6,0.9-0.9,1.3-1.3c0.3-0.4,0.6-0.8,0.8-1.2c1.7-5.9,4.7-11.4,5.9-17.4
			c1.5-7.2,4.2-14.2,2.7-21.4c3.2-5.8,4.3-5.6,11-4.9c5.6,0.6,8.8,2.7,11,7.6c1.3,3,2.8,5.8,3.8,8.9c2,6,4.7,11.7,6.6,17.7
			c2.9,9.2,7.2,18,10,27.3c0.9,3,1.9,5.9,2.7,8.8c1.6,5.4,4.2,10.5,5.9,15.9c0.9,2.9,2.2,5.7,3.1,8.7c1.4,4.5,3.8,8.5,5.4,13
			c2.2,6.3,5.7,11.9,8.7,17.8c2.3,4.4,3.3,9.5,5.7,13.9c3.5,6.4,4.9,13.7,8.3,20.1c1.4,2.5,2.2,5.4,3.1,8.1c1,2.7,2.1,5.5,2.6,8.3
			c0.5,2.9,2.7,4.8,3.4,7.5c0.7,2.7,2.7,4.9,3.9,7.3c3,6.6,8.7,11.1,11.9,17.5c2.1,0.9,0.8,3.6,2.5,4.7c0.3,4.3,2.3,7.6,5,11.1
			C402,614.8,404.6,620.3,406.5,626.1z M399.9,625.1c-2.6-1.9-5.2-3.9-7.8-5.8c-2.8,0.4-5.4-0.4-8-0.8c-6.7-0.8-12.2,3.2-18.4,5.3
			c-3.4-2.9-4.7-7.5-6.8-11.5c-1.7-3.3-3-6.8-4.9-10c-2.4-4.2-5.1-8.3-7.8-12.5c-1.1,2.6,0.6,4.8,1.3,7c1.6,5.5,4.3,10.8,5.9,16.4
			c0.1,0.4,0.3,0.8,0.4,1.2c0.1,0.2,0.1,0.3,0.2,0.4c0.1,0.2,0.1,0.4,0.2,0.5c0.9,2.1,1.8,4.2,1.7,6.6c-0.4-0.1-0.7-0.3-0.9-0.4
			c-0.1-0.1-0.1-0.2-0.2-0.2c-1.6-3.5-3.1-7.1-4.9-10.5c-3.1-5.9-6.5-11.8-9.7-17.7c-0.5,1.8-0.6,3.5-0.1,5
			c1.9,5.2,3.7,10.4,5.2,15.7c0.1,0.2,0.1,0.4,0.2,0.5c0.4,1.2,0.9,2.2,0.9,3.5c-0.7-0.4-1.2-0.7-1.7-1.2c-0.1-0.1-0.2-0.2-0.2-0.3
			c-0.1-0.1-0.1-0.2-0.2-0.3c-1.2-2.1-2.1-4.4-3.3-6.4c-1.7-2.9-3.2-6-6-8.2c-0.2,0.4-0.5,0.5-0.4,0.6c1.1,3.2,2.3,6.4,3.3,9.6
			c1,3.4,2.3,6.7,3.6,10.1c0.6,1.6,1.3,3.3,2.1,4.9c2.7,5.5,3.5,12,8.5,16c0,2.6,0.2,4.6,0.6,6.1c0.1,0.3,0.2,0.6,0.3,0.9
			c0.1,0.3,0.2,0.5,0.3,0.8c1,2.2,2.9,3.2,6.4,4c0,0-0.1,0.1-0.1,0.1c0.2,0.3,0.5,0.6,0.7,0.8c0.1-0.1,0.2-0.2,0.3-0.3
			c-0.1-0.1-0.1-0.1-0.2-0.2c-0.2-0.2-0.4-0.4-0.6-0.5c-0.1,0-0.1,0-0.2,0c-1.5-2-3-4.1-3.9-5.3c0.3-3.9,0.6-6.8,0.8-9.7
			c1.4-1.5,2.9-3.1,4.1-4.3c1.3-0.5,2.2-1,3.2-1.2c1.6-0.4,2.8-1.8,4.7-1.5c2.5,0.4,4.6-0.5,6.3-2.4c0.8-3.9,2.9-5.9,6.6-6.1
			c1.4-0.1,3.1,0.4,4.1-0.2c3.8-2.2,7-0.8,10.3,0.9C397.1,625.1,398.4,626.3,399.9,625.1z M389.5,616.9c0-0.1,0-0.2,0-0.3
			c-0.4,0-0.7,0-1.1,0c0,0.1,0,0.2,0,0.4C388.8,616.9,389.1,616.9,389.5,616.9z M388.6,616c-0.7-4.1-1.3-7.1-4.4-8.8
			C385.6,609.8,385.7,613,388.6,616z M378.6,593.3c0-1.2,0.2-2.3-0.1-3.2c-0.7-2-1.4-4-2.4-5.8c-2.5-4.5-4.8-9.1-6.9-13.8
			c-1.3-3-2.3-6.4-5.6-8.3C365.5,570.5,374.9,590,378.6,593.3z M358.8,545.4c-0.9-2.3-1.2-4.9-2.8-7.3
			C356,540.7,357,543.7,358.8,545.4z M352.8,528.8c0.5-1.5,0.5-2.9,0-4.1c-0.8-2.1-2.1-4-2.7-6.2c-1.3-4.2-3.7-7.9-5.9-11.6
			c-3.1-5.3-6.8-10.2-8.3-16.4c-0.5-2-1.5-4.1-3.5-5.9c-1.4,2.9-0.3,4.7,0.5,6.4c2.2,5.2,3.9,10.5,7.1,15.3
			c3.2,4.8,6.5,9.6,8.2,15.4C348.9,524.4,351.2,526.5,352.8,528.8z M339.6,561.3c-0.7-2.3-1.2-3.5-1.4-4.7c-0.3-1.3,0.5-2.8-1-3.8
			c0.3-3.6-2.6-6.5-2.4-10c-2.2-1.7-0.8-4.4-1.8-6.6c-1.8-3.8-2.2-8.1-4.8-11.6c0.1-4.4-2.6-8.1-3.4-12.2c-0.9-4.6-3-8.9-2.4-13.7
			c0.1-0.5-0.1-1-0.3-1.4c-2.6-6.3-3.6-13.1-6.3-19.4c-2.7-6.4-4.7-13.1-8.5-19.1c1.1,8.6,1.9,17.3,4.4,25.7
			c-3.1,0.8-3.3-1.8-3.9-3.1c-2.2-5.2-3.9-10.6-5.9-15.9c-1.2-3.1-2.4-6.3-4.8-8.8c-1.7,2,0.6,3.2,0.7,4.8c0.2,3.2,0.2,6.5,1.3,9.4
			c0.9,2.5,0.4,5,1.2,7.4c2.6,8.2,5.4,16.3,8.1,24.4c0.3,0.8,0.8,2,0.4,2.4c-1.7,1.8-0.8,4-0.8,5.9c0,1.6-0.4,3.2,0.9,4.9
			c0.7,0.9,0.1,3-0.2,4.4c-0.8,3.2-0.6,5.2,0.3,8.8c1.1,4.4,2.1,8.9,3.6,13.2c2,5.6,4.2,11.2,6.9,16.5c0.7,1.3,1.2,2.6,1.9,3.9
			c0.5,0.9,1,1.7,2,3.1c0.4-4.6-1.1-7.8-1.7-11.2c-0.2-1.1-0.4-2.1-0.6-3.2c-0.4-2.2-0.9-4.5-1.3-6.7c2.3,2.6,3.2,5.7,4.3,8.7
			c0.4,1,0.8,2,1.4,3c2.1,3.8,3.9,7.8,5.9,11.7c-0.9-11-3.8-21.5-5.9-32.2c2.2,4.1,3.5,8.7,6,12.5
			C334.1,552.2,335.1,557.2,339.6,561.3z M326,472.3c0.9-0.9,1.5-1.4,2.1-2c-3.7-10.5-6.9-21.1-12.3-30.8c-0.9,0-1.7,0-3,0.1
			c1.7,4.2,3.2,7.7,4.7,11.3c1.4,3.4,2.2,7.1,4,10.4C323.3,464.7,323.8,468.6,326,472.3z M310.4,433c0.6-0.5,1.1-0.9,1.9-1.6
			c-1.5-2.5-2.7-4.6-3.9-6.7c-0.6,1.1-0.7,2.1-0.4,3c0.3,1.1,0.7,2.1,1.1,3.2C309.4,431.7,310,432.4,310.4,433z M305,415.6
			c0.1-0.9,0.4-1.8,0.3-2.7c-0.1-0.8-0.9-1.4-1-2.2c-0.5-3.8-2.3-7.1-4.3-10.2c-0.1-0.2-0.5-0.3-0.6-0.4c-0.5,0.5-1,0.9-1.3,1.2
			c1.9,4.9,3.8,9.7,5.6,14.4C304,415.7,304.5,415.6,305,415.6z"/>
		<path id="XMLID_752_" class="st11" d="M409.2,461.3c-1.1,0.2-2.1,0.7-2.8,0.5c-1.1-0.3-2.1-0.9-3-1.6c-3.3-2.7-6.5-5.5-9.7-8.3
			c-1.9-1.7-3.7-3.3-6-4.4c-1.7-0.8-3.1-2.4-5.1-4.1c0.3,0,0.5,0,0.8,0.1l0,0c0,0,0,0,0.1,0c0,0,0,0,0,0c2.7,0.4,4.3,2.1,6.1,3.4
			c0.9,0.7,1.7,1.2,2.8,1.4c3.7,0.8,5.6,4,8.7,5.6C403.9,455.7,407,457.7,409.2,461.3z"/>
		<path id="XMLID_737_" class="st11" d="M403.6,529.5c0,0.1-0.2,0.2-0.5,0.7c-5.5-2.2-10.1-6.2-16.4-8.6c2.3,5.1,7,8.2,7.7,13.9
			c-6-2.9-10.3-7.5-15.8-10.6c-2.5-1.4-4.7-3.9-4.6-7.3c-3-1.7-5.1-3.4-6.4-6.1c-2.3-4.8-4.9-9.5-7.1-14.3c-0.8-1.7-1-3.7-1.6-6
			c2.6,0.4,3.4,2.7,4.9,4.1c1.8,1.6,3.5,3.4,5.9,5.7c-0.4-1.4-0.5-2.2-0.8-2.8c-2.3-4.3-4.6-8.5-7.1-13c2.1-1,3.5,0.4,4.7,1.5
			c2.5,2.2,4.7,4.6,7.2,6.9c5.4,4.9,9.6,10.8,14,16.6c2,2.6,4.3,4.8,6.4,7.3C397.4,521.3,401,525.1,403.6,529.5z"/>
		<path id="XMLID_711_" class="st11" d="M347,618c-0.2,0-0.3,0-0.5,0c0.1,0.7,0.3,1.4,0.4,2c0.2,0,0.5-0.1,0.7-0.1
			c0-0.1,0-0.2,0-0.2c-0.1-0.6-0.1-1.2-0.2-1.7C347.2,618,347.1,618,347,618z M347,618c-0.2-1.4-0.9-2.5-1.3-3.7
			c-0.1-0.2-0.1-0.3-0.2-0.5c-1.5-5.3-3.2-10.5-5.2-15.7c-0.6-1.5-0.4-3.3,0.1-5c3.2,5.9,6.6,11.7,9.7,17.7c1.8,3.4,3.3,7,4.9,10.5
			c0,0.1,0.1,0.2,0.2,0.2c0.2,0.2,0.6,0.4,0.9,0.6c0-0.1,0-0.1,0-0.1c0.1,0,0.2,0.1,0.4,0.1c-0.1-2.4-1.2-4.6-2.1-6.7
			c-0.1-0.2-0.1-0.4-0.2-0.5c-0.1-0.1-0.1-0.3-0.2-0.4c-0.1-0.4-0.3-0.8-0.4-1.2c-1.6-5.6-4.3-10.8-5.9-16.4c-0.6-2.2-2.3-4.4-1.3-7
			c2.7,4.2,5.4,8.3,7.8,12.5c1.8,3.2,3.2,6.7,4.9,10c2.1,4,3.4,8.6,6.8,11.5c6.1-2.1,11.6-6.1,18.4-5.3c2.7,0.3,5.2,1.1,8,0.8
			c2.6,1.9,5.2,3.9,7.8,5.8c-1.6,1.2-2.9,0-4.1-0.6c-3.3-1.7-6.5-3.1-10.3-0.9c-1.1,0.6-2.7,0.1-4.1,0.2c-3.7,0.2-5.9,2.3-6.6,6.1
			c-1.7,1.9-3.8,2.8-6.3,2.4c-1.9-0.3-3.1,1.1-4.7,1.5c-0.9,0.2-1.8,0.7-3.2,1.2c-1.2,1.2-2.7,2.9-4.1,4.3c-0.2,3-0.5,5.8-0.8,9.7
			c0.9,1.2,2.4,3.2,3.9,5.3c-3.3-0.8-5.2-1.8-6.3-3.9c-0.1-0.2-0.2-0.5-0.3-0.8c-0.1-0.3-0.2-0.6-0.3-0.9c-0.4-1.5-0.5-3.5-0.6-6.1
			c-5.1-3.9-5.8-10.5-8.5-16c-0.8-1.5-1.5-3.2-2.1-4.9c-1.2-3.3-2.5-6.6-3.6-10.1c-1-3.2-2.2-6.4-3.3-9.6c0-0.1,0.2-0.3,0.4-0.6
			c2.8,2.2,4.3,5.3,6,8.2c1.2,2.1,2.1,4.4,3.3,6.4c0.1,0.1,0.1,0.2,0.2,0.3c0.1,0.1,0.1,0.2,0.2,0.3c0.5,0.5,1.1,0.9,1.7,1.4
			c0-0.1,0-0.2,0-0.2C346.7,617.8,346.8,617.9,347,618z M356.4,622c-0.2,0-0.3,0-0.5,0c0.1,0.7,0.3,1.4,0.4,2c0.2,0,0.5-0.1,0.7-0.1
			c0-0.1,0-0.2,0-0.2c-0.1-0.6-0.1-1.2-0.2-1.7C356.7,622,356.6,622,356.4,622z M357.9,626.2c0-0.4,0-0.7,0-1.1c-0.1,0-0.2,0-0.3,0
			c0,0.3,0,0.7,0,1C357.6,626.2,357.7,626.2,357.9,626.2z"/>
		<path id="XMLID_691_" class="st5" d="M400.5,285.1c0.2,9.4,0.5,18.8,0.4,28.3c0,3.3-0.9,6.6-0.9,10.1c0.1,3.3-0.8,6.5-1.8,9.7
			c-0.4,1.3,0.1,2.8,0,4.2c-0.1,1.1-0.7,2.2-0.9,3.3c-1.1,4.6-2.4,9.1-3.4,13.7c-1.1,4.9-2.4,9.8-4.6,14.3
			c-1.9,3.9-2.6,8.5-6.1,11.7c-0.4,0.3-0.8,0.7-0.9,1.2c-1.2,5.1-6.5,6.3-9.5,9.6c-4.8,0.2-8.6,4.4-13.7,3.7c-0.5-0.1-7.5-1.7-8.1-2
			c-4.6-2.2-9.2-4.4-14.3-6.9c1.3-1,2.4-1.7,3.3-2.5c1-0.9,1.9-2,2.9-3c4.8-4.4,7.9-9.9,10.6-15.6c1.2-2.5,3.3-4.4,3.5-7.5
			c0.1-2.1,0.7-4.3,1.8-6c1.1-1.8,1.3-3.7,1.8-5.5c0.6-2.1,0.9-4.1,1.9-6c0.4-0.7,0.1-1.7,0.1-2.6c-0.1-6.6-0.1-13.3-0.4-19.9
			c-0.1-2.1-0.7-4.2-1.1-6.4c-0.4-1.9,0.5-3.9-1-5.9c-0.8-1.1-0.2-3.4-0.2-4.2c-2.8-6.4-4.9-12.4-10.2-16.8c-0.9,0-2.1,0-3.5,0.1
			c0,1.1,0,2.3,0.1,3.2c-7.7,9-18.7,11.6-29.1,15.6c-0.1-0.4-0.2-1.1-0.4-2.1c2.1-2.2,4.1-4.6,6.5-6.6c3.5-3,4.6-7.2,5.9-11.2
			c1.1-3.4,0.8-7.2,1.9-10.7c0.3-0.8,0.3-1.9-0.1-2.6c-1.8-3-0.7-6.4-1.2-9.5c-0.3-2.5-0.8-4.9-1.2-7.4c-0.4-2.5-0.5-5-1.3-7.4
			c-0.8-2.4-2-4.8-3.5-6.9c-1.9-2.6-4.1-4.9-6.2-7.3c-1.9-0.3-3.5-0.5-4.9,1.4c0,2.3,0.1,4.9,0.1,7.4c-1.8,2.7-3.5,5.3-5.9,8.8
			c-0.4-3.6-0.3-5.9,0.1-8.6c0.7-4.2,0.1-8.6,0.1-12.9c-2.1-1.7-0.4-4.4-1.9-6.6c-1.2-1.7-0.9-4.5-1.3-6.8c-0.4-1.9-0.7-3.9-1.6-5.6
			c-1.1-2.3-2.8-4.3-4.9-6.2c0.1,0.9,0,2,0.5,2.7c4.3,6.9,4.3,14.7,4.1,22.4c0,1.6-0.8,3.1-1.2,4.8c-0.4,0-0.9,0.1-1.1,0.1
			c-1-3.2-2.1-6.3-3.3-10c-0.7,3.5-1.3,6.3-1.8,9.1c-0.7,0-1-0.1-1.5-0.1c-1-5.3-1.9-10.6-5.7-14.9c0-1.3,0-2.7-0.1-4.3
			c-1.2-1-2.4-2.1-4.4-3.7c-1.1-5.2-5.3-9.8-8.8-15.6c4.6,0.9,7.5,4.2,12.2,5.7c-1.9-3-3.2-5.2-4.9-7.8c2.8,0.4,4.8,1.6,6.8,2.9
			c1.5,1,2.9,2.2,4.5,3.2c0.3,0.2,0.9-0.1,1.5-0.1c-3.1-3.5-6.4-6.8-9.1-10.3c-2.4-3.1-5.3-5.9-6.2-10c-0.2-1-0.6-1.9-0.7-2.8
			c-0.1-1.4-0.1-2.8-0.1-4.2c0-1.4-0.1-2.8-0.1-3.8c-0.5-1-0.9-1.7-1.5-2.9c-0.4-0.4-1.9-0.2-5,0.9c-1.1,1.4-1.7,2.9-2.9,3.7
			c-3,2.2-4.2,5.7-5.9,8.7c-1.7,2.8-2.4,6.3-3.1,9.6c-0.7,3.4-1.2,7.1-0.9,10.5c0.7,7.7,3,15,7.5,21.5c0.4,0.6,2.3,5.2,2.3,5.9
			c0.1,4.9,0.3,9.8,0.2,14.7c-0.1,2.3-0.8,4.5-1.3,7.1c-1.1,2.7-2.4,5.6-3.9,9.2c-1.2-1.7-2.2-2.7-2.7-4c-1.7-3.9-4.1-7.2-7.3-10
			c-4.2-3.7-7.9-7.9-11.2-13.6c-0.4-2.7,1.1-7-2.6-9.9c-5.5,3-9.7,7.2-13.1,13.4c-3,5.6-4.8,11.6-6.9,17.6c-1,2.8-1,5.9-1,8.9
			c0,7.2,0.2,14.3,0.3,21.1c-0.6,1.2-1,2.1-1.4,2.9c-1.4,2.7-2.9,5.1-5.6,7.2c-3.9,3-6.8,7.3-9,12.4c-4.6-9.1-9.8-17.3-20.8-20.1
			c-0.6,0.8-1.4,1.5-1.8,2.5c-0.8,2.3-1.8,4.6-1.9,7c-0.1,2.6-2.8,4.3-2.1,7c-1.9,3.4-3.6,7-5.8,10.2c-4.4,6.6-8.4,13.2-9.5,21.3
			c-0.6,3.9-1.9,7.7-1.7,11.8c0.1,1.5-0.3,3,1,4.4c0.6,0.6,0.1,2.2,0.2,3.8c-6.6-5.2-13.3-8.6-21.8-7c-1.1,1-2.1,2.1-0.7,4.1
			c1.5,2.1,2.6,4.5,3.8,6.8c0.5,1,0.9,2.1,1.2,3.2c0.7,2.3,1.6,4.6,2,7c0.4,3.2,0.4,6.3,1.1,9.5c0.7,2.9,1.7,5.7,2.3,8.5
			c1.1,5.7,3.6,10.7,6.1,15.8c2,4.1,5,7.4,8,11.1c-1.7,2-4.8,1.5-6.7,2.9c-2.3,1.6-5.1,1.8-7,3.2c-2.5,1.8-5.7-0.7-7.6,2.2
			c-4.5-2.1-8.7-4.3-12.1-7.9c-1-1-2.6-1.6-3.6-2.6c-2.3-2.2-4.3-4.6-6.1-7.3c-2-2.8-3.4-6.1-6.1-8.5c-0.3-0.2-0.6-0.4-0.7-0.7
			c-2.6-6.1-7.5-10.7-10.2-16.7c-2.3-5-6.3-14.5-6.6-20.3c0-0.3,0-0.7-0.1-1c-2.6-3.8-2.3-8.1-2.1-12.2c0.2-3.3-1-6.3-1.4-9.5
			c-0.3-2.7,1.1-4.9,1-7.4c-0.1-2.6-0.8-5.5,0-7.8c1.4-3.8,0.2-7.5,0.8-11.2c1.6-1.6,1.9-3.7,1.9-5.9c0-1.8,0.2-3.8,1-5.3
			c3-5.9,4.1-12.2,5.9-18.5c1.2-4.2,2.2-8.5,3.1-12.9c1.1-5.8,0.1-11.6,0.7-17.7c0.9-0.4,1.9-0.9,2.7-1.3c2,1.3,3.8,2.2,5.3,3.5
			c1.5,1.3,2.6,3.1,3.8,4.6c2.4,3.2,4.8,6.3,7.2,9.5c3.1,4.2,5.2,9,7.6,13.6c0.2,0.4,0.5,0.7,1.2,1.6c1.1-2.4,1.8-4.5,3-6.3
			c1.2-1.9,1.7-4.3,4.4-5.1c1.1-0.3,2.1-1.8,2.6-3c0.5-1.2,1-2.1,2.4-2.3c0.3,0,0.7-0.3,0.8-0.6c1.2-3.9,5.4-4.9,7.6-7.8
			c2.2-2.9,4.5-5.8,6.5-8.9c2.6-4.1,5.8-8.1,5.3-13.5c2.6-4.3,2-9.1,1.8-13.8c-0.1-1.9-0.7-3.8-1.2-5.9c1.8,0,3.4-0.1,4.9-0.1
			c6.4,5.7,11.3,12.6,14.9,20.7c0.9-1.4,2.1-2.5,2.3-3.8c0.9-4.7,3.7-8.1,6.9-11.3c4.9-4.8,9.5-9.8,13-15.7
			c2.2-3.7,3.8-7.8,4.9-12.1c1.1-4.3,0.7-8.9,2.8-12.9c-0.1-5.8,0.5-11.7-0.5-17.2c-1-5-1.2-10.5-4.2-15c0.3-4.6-1.4-9-1.5-13.7
			c-0.2-5.4,1-10.5,1.1-15.8c0.1-3.8,1.9-7.5,3.4-11.1c3.1-7.2,7.2-13.7,12.5-19.6c3.4-3.9,6.8-7.9,10.1-12
			c3.2-4.1,6.6-8.4,11.4-11.1c4-5.6,9.5-10.3,11.5-17.3c1-3.7,2.9-7.1,4.1-10.9c2.5-8.2,3-15.9-1.8-23.3c2.1-2.3,3.9-0.2,5,0.6
			c1.8,1.2,3.8,2,5.6,3.1c4,2.5,8.2,5,11,8.7c3.1,3.9,6.8,7.3,9.2,11.8c3.7,6.8,7.9,13.3,11.1,20.5c3,6.9,4.7,14.1,7.2,21.1
			c1,2.8,1,5.9,1.5,8.9c0.4,2.8,1.1,5.6,1.1,8.5c0,3.5-0.6,7-0.8,10.6c-0.2,3.5-1.6,6.8-1.8,10.2c-0.3,4.4-1.1,8.9,0.9,13.2
			c0.1,0.3,0.2,0.7,0.2,1c-0.6,3.2,1,5.8,2.6,8.7c1.3,0.3,2.6,2.1,4.9,1c0-0.9,0-1.9-0.1-2.9c-0.4-6.4-0.1-12.7,2.8-18.7
			c1.2-2.6,1.3-5.5,0.8-9c6.7,5.6,9.5,12.1,9.9,19.9c0.1,2.5,0.9,4.9,1.1,7.4c0.2,2.6,0.1,5.2,0.2,7.9c0.1,3.6-1.4,6.9-0.9,10.6
			c0.4,3.5-1.6,6.7-2,10.1c-0.4,3.3-2.3,6.3-3.4,9.5c-1.3,3.8-2.6,7.6-4.4,11.3c-0.3,0.5,0,1.3,0,2.6c4.5-3.3,8.9-6.1,13.2-8.9
			c4.1-2.6,7.5-5.7,10.7-9.3c2-2.2,3.3-5,5.1-7.3c2.2-2.8,2-6.5,3.8-9.5c0.5-0.9,0-2.4,0-3.6c0-2-0.1-4.1-0.1-6.3
			c0.9,0.1,1.6,0,1.8,0.2c1.7,2.2,3.4,4.4,4.9,6.8c2.9,4.7,5.2,9.7,6.9,14.9c0.7,2.2,1.3,4.4,1.5,6.7c0.5,4.6-0.3,9.2,1.2,13.7
			c0.6,1.9,0.6,4.2-0.7,6.4c-0.9,1.6,0.4,3.8-0.8,5.9c-1.5,2.6-1.4,6-2,9c-0.7,3.9-2.4,7.4-3.4,11.2c-0.4,1.6-0.9,3.1-1.4,4.7
			c-1.4,4.3-3,8.5-4.1,12.9c-0.7,2.9-1,5.9-1.1,8.9c-0.1,6.3,0.2,12.6,0.2,18.8c0.1,4.8,2.6,8.7,4.9,13.3c2-6.1,5-10.8,9.4-14.7
			c2.4-2.1,3.6-5,4.4-8.1c1-4.1,1.1-4.1-0.2-9.1c-0.1-0.5,0-1,0-1.6c0-0.6,0-1.3-0.1-2.8c2.3,1.9,4.3,2.5,5.7,4.6
			c2.3,3.4,4.9,6.6,6.3,10.4c1.5,3.8,3.1,7.5,4,11.4c0.7,2.7,0.2,5.6,1.2,8.5c0.8,2.3,0.2,5.4,1.4,7.2c1.5,2.3-0.2,5.2,2,7.1
			C400.9,282.9,400.5,284.2,400.5,285.1z M388.6,301.3c-0.5-1.2-0.9-2.2-1.4-3.3c-2.1,0-3.7,0.1-5.2,0.1c-0.9,1.2-1.7,2.2-2,2.6
			c1,1.5,1.8,2.6,2.3,3.4c1.5,0,2.6,0,2.9,0C386.6,302.9,387.5,302.2,388.6,301.3z M383.3,353.1c1.3-5-0.1-8.6-1.2-12
			c-0.7-2.1-2.7-3.7-3.7-5.1c-2.9-0.5-5.1-0.9-7.4-1.2c0,1.2-0.3,2.3,0.1,2.5c3.3,2.7,3.5,6.4,3.2,10.6c-1.3,2.1-2.9,4.1-3.9,6.3
			c-1,2.5,1.2,4.8,1.1,7.4c1.6,1,2.5,3.2,5.2,3.6c0-1.9-0.1-3.5-0.1-4.6C379.4,357.5,381.8,354.8,383.3,353.1z M340.6,221.8
			c0-2-0.1-3.9-0.1-5.5c-1.6-2.1-3.6-1.2-4.4-1.3c-2,1.3-3,1.9-3.7,2.3c0,1.9,0.1,3.3,0.1,4.5c2,2.6,4.6,1,6.7,1.4
			C339.8,222.6,340.3,222.1,340.6,221.8z M294.8,113.9c-0.3-0.8-0.9-1.7-0.9-2.6c-0.2-3-1.8-5.3-3.6-7.3c-2-2.2-3.2-4.6-2.9-7.7
			c-5.4,0.6-7.4,4.3-9.3,8.5c0,1.7,0.1,3.8,0.1,5.9c1.1,1.5,2.1,2.9,3.2,4.4c0,2.7,0.1,5.5,0.1,8.4c-1.2,1.4-2.4,2.8-3.9,4.5
			c0,0.2,0,1,0,2c2.3,0,4.6-0.1,6.3-0.1c3.3-1.6,5.8-3.5,7.6-6.3C293.2,120.7,293.8,117.5,294.8,113.9z M271,78.6
			c0-1.9-0.1-3.4-0.1-4.9c-1.4-0.8-2.7-1.5-4-2.2c-1.4,0.9-2.8,1.7-4,2.5c0,1.8,0.1,3.3,0.1,3.9c1.1,1.5,1.9,2.5,2.3,3.1
			c1.5,0,2.5,0,3-0.1C269.6,79.8,270.5,79,271,78.6z M251.3,148c0-2.6-0.1-4.8-0.1-7c-1.5-0.8-3-1.5-4.7-2.4
			c-1.9,1.3-3.8,2.6-5.5,3.7c0,2.1,0.1,3.8,0.1,4.9c1.3,1.7,2,2.7,2.4,3.3c2.2,0,3.9-0.1,5.2-0.1C249.8,149.3,250.7,148.5,251.3,148
			z M203.9,252.5c0.4-1.9,0.4-3.7-2-5.1c-1.2,0.4-2.8,0.9-4.1,1.4c0,1.6,0,2.6,0.1,3.7c0.5,0.5,1,1,1.5,1.4
			C201,253.9,202.8,254.4,203.9,252.5z M158.4,283.8c0-1.6-0.1-3.2-0.1-5.1c-1-0.4-2.2-0.9-3.4-1.3c0.2,0.4,0.4,0.7,0.6,1.1
			c-1.2,0.7-2.5,1.4-3.5,1.9c0.8,1.5,1.3,2.5,1.8,3.5C155.2,283.9,156.7,283.9,158.4,283.8z M132,329.8c0.7-5.2-1.2-9.2-4.7-12.8
			c-1.4-1.4-1.9-3.7-2.9-5.6c-1.5-2.9-1.3-5.5,0.6-8.3c1-1.6,2-3.5,1-6c-3.5,0.2-8,2.1-9,3.9c-3.1,5.5-3.3,11.5-2.8,17.6
			c0,0.3,0.5,0.5,0.6,0.8c0.8,2.7,3.1,3.8,5.2,5c1.8,1,3.8,1.6,5.5,2.3c0.5,1,0.9,1.7,1.4,2.8c0.2,1.5-0.4,3.5,0.6,5.5
			C130.3,334.1,130.8,331.5,132,329.8z"/>
		<path id="XMLID_690_" class="st11" d="M389.5,616.6c0,0.1,0,0.2,0,0.3c-0.3,0-0.7,0-1,0c0-0.1,0-0.2,0-0.4
			C388.8,616.6,389.1,616.6,389.5,616.6z"/>
		<path id="XMLID_689_" class="st11" d="M384.2,607.2c3.1,1.7,3.7,4.6,4.4,8.8C385.7,613,385.6,609.8,384.2,607.2z"/>
		<path id="XMLID_688_" class="st6" d="M387.2,298c0.5,1.1,0.9,2.1,1.4,3.3c-1.1,0.9-2,1.6-3.4,2.7c-0.3,0-1.4,0-2.9,0
			c-0.5-0.7-1.3-1.9-2.3-3.4c0.3-0.4,1.1-1.5,2-2.6C383.5,298.1,385.1,298,387.2,298z"/>
		<path id="XMLID_687_" class="st11" d="M383.4,443.5C383.4,443.5,383.4,443.5,383.4,443.5L383.4,443.5
			C383.4,443.5,383.4,443.5,383.4,443.5z"/>
		<path id="XMLID_686_" class="st6" d="M382.1,341.1c1.1,3.4,2.5,7,1.2,12c-1.5,1.7-3.9,4.4-6.7,7.6c0,1.1,0,2.7,0.1,4.6
			c-2.7-0.4-3.5-2.6-5.2-3.6c0.1-2.6-2.2-4.9-1.1-7.4c0.9-2.2,2.6-4.2,3.9-6.3c0.4-4.3,0.1-7.9-3.2-10.6c-0.3-0.3-0.1-1.3-0.1-2.5
			c2.3,0.4,4.5,0.7,7.4,1.2C379.4,337.3,381.4,339,382.1,341.1z"/>
		<path id="XMLID_685_" class="st11" d="M381.9,441.5c0.2,0.1,0.4,0.4,0.4,0.9c-0.8-0.1-1.9,0.5-2.1-0.9
			C380.8,441.6,381.4,441.3,381.9,441.5z"/>
		<path id="XMLID_684_" class="st11" d="M381.9,441.5c-0.4-0.2-1.1,0-1.7,0c0,0,0-0.1,0-0.1c0,0,0,0,0,0
			C380.7,441.5,381.4,441.3,381.9,441.5z"/>
		<path id="XMLID_683_" class="st11" d="M379.5,440.5c0.2,0.3,0.5,0.6,0.7,0.9c0,0-0.1,0.1-0.1,0.1l0,0c-0.3-0.1-0.5-0.3-0.7-0.4
			c-0.1-0.1-0.1-0.1-0.2-0.2C379.3,440.7,379.4,440.6,379.5,440.5z"/>
		<path id="XMLID_682_" class="st11" d="M380.2,441.5C380.2,441.5,380.2,441.5,380.2,441.5C380.1,441.6,380.1,441.6,380.2,441.5
			C380.1,441.5,380.1,441.5,380.2,441.5z"/>
		<path id="XMLID_681_" class="st11" d="M380.2,441.5C380.2,441.5,380.2,441.5,380.2,441.5L380.2,441.5L380.2,441.5z"/>
		<path id="XMLID_680_" class="st11" d="M380.2,441.5L380.2,441.5c0,0-0.1,0.1-0.1,0.1c-0.2-0.2-0.4-0.4-0.7-0.5
			C379.7,441.2,379.9,441.4,380.2,441.5z"/>
		<path id="XMLID_679_" class="st11" d="M378.5,590.1c0.3,0.9,0.1,2,0.1,3.2c-3.7-3.4-13.1-22.8-15-31.1c3.3,1.9,4.3,5.3,5.6,8.3
			c2,4.7,4.4,9.3,6.9,13.8C377.1,586.1,377.8,588.1,378.5,590.1z"/>
		<path id="XMLID_678_" class="st11" d="M378,440c-0.1,0.1-0.2,0.2-0.3,0.3c-0.2-0.3-0.5-0.6-0.7-0.8c0,0,0.1-0.1,0.1-0.1l0,0
			c0.3,0.1,0.5,0.3,0.7,0.4C377.8,439.9,377.9,440,378,440z"/>
		<path id="XMLID_677_" class="st11" d="M377.1,439.3c0.2,0.2,0.4,0.4,0.7,0.5c-0.2-0.2-0.5-0.3-0.7-0.4l0,0
			C377,439.4,377.1,439.3,377.1,439.3z"/>
		<path id="XMLID_676_" class="st11" d="M377.1,439.3c0,0-0.1,0.1-0.1,0.1c0,0,0-0.1,0-0.1C377,439.3,377,439.3,377.1,439.3z"/>
		<polygon id="XMLID_675_" class="st11" points="377,439.4 377,439.4 377,439.4 		"/>
		<path id="XMLID_674_" class="st11" d="M377,439.3c0,0,0,0.1,0,0.1l0,0c-0.5-0.1-1.1,0.1-1.5,0C375.9,439.5,376.5,439.3,377,439.3z
			"/>
		<path id="XMLID_673_" class="st11" d="M374.9,438.4c0.8,0.1,1.9-0.5,2.1,0.9c-0.5,0-1.1,0.2-1.5,0.1c-0.1,0-0.1,0-0.1-0.1
			c-0.1,0-0.2-0.1-0.2-0.2c0-0.1-0.1-0.1-0.1-0.2C374.9,438.8,374.9,438.6,374.9,438.4z"/>
		<path id="XMLID_672_" class="st11" d="M375.3,439.3c0,0,0.1,0.1,0.1,0.1C375.4,439.4,375.3,439.4,375.3,439.3z"/>
		<path id="XMLID_671_" class="st11" d="M372.7,436.3c-2.3,0.2-3.3-1.4-4.2-3.1C370.8,433.1,371.8,434.7,372.7,436.3z"/>
		<path id="XMLID_670_" class="st11" d="M370.2,464.8c-0.9,1.7-1.8,1.1-2.5,0.2c-1.3-1.7-2.6-3.4-3.9-5.1c0-0.6,0-1.4,0-2.3
			c0.3-0.2,0.5-0.4,0.8-0.6c0.3,0.6,0.5,1.2,0.9,1.7C367.1,460.8,368.7,462.8,370.2,464.8z"/>
		<path id="XMLID_669_" class="st11" d="M368.5,433.3c-2.3,0.2-3.3-1.4-4.2-3c0.8-0.1,1.5,0.1,2,0.4c0.2,0.1,0.3,0.2,0.5,0.3
			c0.1,0.1,0.1,0.1,0.2,0.2C367.6,431.7,368.1,432.5,368.5,433.3z"/>
		<path id="XMLID_668_" class="st0" d="M367,431.2c-0.1-0.1-0.1-0.1-0.2-0.2C366.9,431,367,431.1,367,431.2z"/>
		<path id="XMLID_667_" class="st0" d="M366.3,430.6c-0.5-0.3-1.2-0.5-2-0.4l0,0c0,0,0,0,0,0C365.1,430.1,365.8,430.3,366.3,430.6z"
			/>
		<path id="XMLID_666_" class="st11" d="M364.8,429.7c-0.2,0.2-0.3,0.4-0.5,0.5c0,0,0,0,0,0c-0.3,0-0.6,0-1,0c-0.3,0-0.7,0-1.1-0.1
			c0-0.7,0.1-1.3,0.1-2C363.3,428.7,364,429.2,364.8,429.7z"/>
		<path id="XMLID_665_" class="st0" d="M364.3,430.2C364.3,430.2,364.3,430.2,364.3,430.2C364.3,430.2,364.3,430.2,364.3,430.2
			C364.3,430.2,364.3,430.2,364.3,430.2z"/>
		<path id="XMLID_664_" d="M364.3,430.2C364.3,430.2,364.3,430.2,364.3,430.2L364.3,430.2L364.3,430.2z"/>
		<path id="XMLID_663_" class="st11" d="M364.3,430.2C364.3,430.2,364.3,430.2,364.3,430.2L364.3,430.2c-0.3,0-0.6,0-1,0
			C363.6,430.2,364,430.2,364.3,430.2z"/>
		<path id="XMLID_662_" class="st11" d="M360.7,655c-0.1,0.1-0.2,0.2-0.3,0.3c-0.3-0.3-0.5-0.6-0.7-0.8c0,0,0.1-0.1,0.1-0.1l0,0
			c0.3,0.1,0.5,0.3,0.7,0.4C360.6,654.9,360.6,655,360.7,655z"/>
		<path id="XMLID_661_" class="st11" d="M359.8,654.3c0.2,0.2,0.4,0.4,0.6,0.5c-0.2-0.2-0.5-0.3-0.7-0.4L359.8,654.3
			C359.8,654.4,359.8,654.4,359.8,654.3z"/>
		<path id="XMLID_660_" class="st11" d="M359.8,654.3C359.8,654.4,359.8,654.4,359.8,654.3c-0.1,0.1-0.2,0-0.2,0
			C359.7,654.3,359.8,654.3,359.8,654.3z"/>
		<path id="XMLID_647_" class="st11" d="M359.8,654.4L359.8,654.4L359.8,654.4C359.7,654.4,359.8,654.4,359.8,654.4z"/>
		<path id="XMLID_646_" class="st11" d="M359.8,654.4C359.8,654.4,359.7,654.4,359.8,654.4c-3.4-0.8-5.3-1.8-6.4-4
			c1,2.1,2.9,3.1,6.3,3.9C359.7,654.3,359.7,654.4,359.8,654.4z"/>
		<path id="XMLID_645_" class="st11" d="M357.8,625.1c0,0.4,0,0.7,0,1.1c-0.1,0-0.2,0-0.4,0c0-0.3,0-0.7,0-1
			C357.6,625.2,357.7,625.1,357.8,625.1z"/>
		<path id="XMLID_643_" class="st11" d="M356,538.1c1.6,2.4,1.9,4.9,2.8,7.3C357,543.7,356,540.7,356,538.1z"/>
		<path id="XMLID_642_" class="st11" d="M357,623.7c0,0.1,0,0.2,0,0.2c-0.2,0-0.5,0.1-0.7,0.1c-0.1-0.7-0.3-1.4-0.4-2
			c0.2,0,0.3,0,0.5,0C356.9,622.6,357,623.2,357,623.7z"/>
		<path id="XMLID_641_" class="st11" d="M356.9,622c0.1,0.6,0.1,1.2,0.2,1.7c-0.1-0.6-0.2-1.2-0.6-1.7
			C356.6,622,356.7,622,356.9,622z"/>
		<path id="XMLID_640_" class="st6" d="M356.8,320.9c3.4,6.5,3.3,12.8,1.3,19.2c-2.7,8.5-5.7,16.9-14.8,21.6
			c0.7-2.5,1.3-4.4,1.8-6.3c0.2-0.6,0-1.3,0-2.4c-3.4,2-6.5,3.8-9.8,5.8c-0.3-0.7-0.7-1.4-0.6-1.6c3.3-4,4.8-8.8,6-13.7
			c0.6-2.2,0.9-4.5,1.4-7.3c3-4,6.3-8.6,5.6-15c3.4,2.7,3.2,6.5,4.8,10C354,327.7,355.3,324.6,356.8,320.9z"/>
		<path id="XMLID_634_" class="st11" d="M356.1,621.9c0,0,0,0.1,0,0.1c-0.3-0.2-0.6-0.4-0.9-0.6
			C355.4,621.6,355.7,621.7,356.1,621.9z"/>
		<path id="XMLID_594_" class="st11" d="M355.3,444.8c1.2,1.2,2,2.7,2.7,4.3c-9.6-4.9-16.7-12.5-23.1-21.6c0-0.4,0.1-1.1,0.1-1.8
			c0.7,0,1.3-0.2,1.6,0.1c2.7,2.8,5.2,5.8,7.9,8.6C348,437.8,351.8,441.2,355.3,444.8z"/>
		<path id="XMLID_593_" class="st11" d="M352.8,648.7c0.1,0.3,0.2,0.6,0.3,0.9C353,649.3,352.9,649,352.8,648.7z"/>
		<path id="XMLID_591_" class="st11" d="M352.8,524.8c0.4,1.2,0.4,2.6,0,4.1c-1.6-2.3-3.9-4.5-4.6-7c-1.7-5.7-5-10.6-8.2-15.4
			c-3.2-4.8-4.9-10.2-7.1-15.3c-0.8-1.8-1.9-3.6-0.5-6.4c2,1.9,3,3.9,3.5,5.9c1.5,6.2,5.2,11.1,8.3,16.4c2.2,3.8,4.6,7.4,5.9,11.6
			C350.8,520.7,352.1,522.7,352.8,524.8z"/>
		<path id="XMLID_590_" class="st11" d="M347.5,619.7c0,0.1,0,0.2,0,0.2c-0.2,0-0.5,0.1-0.7,0.1c-0.1-0.7-0.3-1.4-0.4-2
			c0.2,0,0.3,0,0.5,0C347.4,618.6,347.5,619.1,347.5,619.7z"/>
		<path id="XMLID_571_" class="st11" d="M347.4,618c0.1,0.6,0.1,1.2,0.2,1.7c-0.1-0.6-0.2-1.2-0.6-1.7
			C347.1,618,347.2,618,347.4,618z"/>
		<path id="XMLID_569_" class="st11" d="M346.6,617.8c0,0.1,0,0.2,0,0.2c-0.5-0.5-1.2-0.9-1.7-1.4
			C345.3,617,345.9,617.4,346.6,617.8z"/>
		<path id="XMLID_568_" class="st11" d="M344.7,616.3c0.1,0.1,0.1,0.2,0.2,0.3C344.8,616.5,344.7,616.4,344.7,616.3z"/>
		<path id="XMLID_564_" class="st11" d="M338.2,556.6c0.3,1.2,0.7,2.4,1.4,4.7c-4.5-4.1-5.5-9.1-8-13.1c-2.5-3.8-3.8-8.4-6-12.5
			c2.1,10.7,5,21.2,5.9,32.2c-2-3.9-3.8-7.9-5.9-11.7c-0.5-1-1-2-1.4-3c-1.2-3.1-2-6.4-4.4-9c0,0.1,0,0.2,0.1,0.4
			c-0.1-0.1-0.2-0.2-0.3-0.4c0,0,0.2,0,0.4-0.1c0.1,0,0.2,0,0.3,0c-0.1-1-0.3-2.1-0.4-3.1c-0.2,0-0.5,0.1-0.7,0.1
			c0,0.4,0,0.8,0.1,1.1c0,0.6,0.1,1.3,0.1,1.9c0.1,0,0.2,0,0.2,0c0,0,0,0,0,0c0.6,2.4,1.1,4.7,1.6,7.1c0.2,1.1,0.4,2.1,0.6,3.2
			c0.6,3.4,2.1,6.6,1.7,11.2c-0.9-1.5-1.5-2.3-2-3.1c-0.7-1.3-1.2-2.6-1.9-3.9c-2.7-5.3-4.9-10.9-6.9-16.5
			c-1.5-4.3-2.6-8.7-3.6-13.2c-0.9-3.6-1.1-5.6-0.3-8.8c0.3-1.5,0.9-3.6,0.2-4.4c-1.3-1.6-0.9-3.3-0.9-4.9c0-2-0.9-4.1,0.8-5.9
			c0.3-0.4-0.2-1.6-0.4-2.4c-2.7-8.1-5.5-16.2-8.1-24.4c-0.8-2.3-0.3-4.9-1.2-7.4c-1.1-2.9-1.1-6.3-1.3-9.4
			c-0.1-1.6-2.4-2.8-0.7-4.8c2.4,2.5,3.6,5.7,4.8,8.8c2.1,5.3,3.7,10.7,5.9,15.9c0.5,1.3,0.8,4,3.9,3.1c-2.5-8.4-3.3-17.1-4.4-25.7
			c3.8,6,5.8,12.7,8.5,19.1c2.6,6.3,3.7,13.1,6.3,19.4c0.2,0.4,0.4,1,0.3,1.4c-0.7,4.8,1.5,9.2,2.4,13.7c0.8,4.2,3.4,7.8,3.4,12.2
			c2.5,3.5,3,7.9,4.8,11.6c1.1,2.2-0.4,4.9,1.8,6.6c-0.2,3.6,2.7,6.4,2.4,10C338.7,553.8,337.9,555.3,338.2,556.6z M324.9,534.6
			c0-0.4,0-0.7,0-1.1c-0.1,0-0.2,0-0.3,0c0,0.4,0,0.7,0,1.1C324.6,534.6,324.8,534.6,324.9,534.6z"/>
		<path id="XMLID_561_" class="st6" d="M340.5,216.3c0,1.6,0.1,3.5,0.1,5.5c-0.3,0.3-0.8,0.8-1.4,1.5c-2.1-0.5-4.7,1.2-6.7-1.4
			c0-1.2,0-2.6-0.1-4.5c0.6-0.4,1.7-1.1,3.7-2.3C336.9,215.1,338.9,214.2,340.5,216.3z"/>
		<path id="XMLID_560_" class="st11" d="M328.1,470.3c-0.6,0.5-1.2,1.1-2.1,2c-2.1-3.7-2.7-7.6-4.5-11c-1.8-3.2-2.6-6.9-4-10.4
			c-1.4-3.6-2.9-7.2-4.7-11.3c1.3,0,2.2,0,3-0.1C321.2,449.2,324.4,459.8,328.1,470.3z"/>
		<path id="XMLID_556_" class="st11" d="M324.8,533.5c0,0.4,0,0.7,0,1.1c-0.1,0-0.2,0-0.4,0c0-0.4,0-0.7,0-1.1
			C324.6,533.5,324.7,533.5,324.8,533.5z"/>
		<path id="XMLID_555_" class="st11" d="M319.8,544.2c2.4,2.6,3.2,5.9,4.4,9c-1.1-3-2-6.1-4.3-8.7
			C319.9,544.4,319.8,544.3,319.8,544.2z"/>
		<path id="XMLID_554_" class="st11" d="M321.8,554.4c-0.2-1.1-0.4-2.1-0.6-3.2C321.4,552.3,321.6,553.4,321.8,554.4z"/>
		<path id="XMLID_553_" class="st11" d="M319.8,541c0.2,1,0.3,2.1,0.4,3.1c-0.1,0-0.2,0-0.3,0c-0.1,0-0.2,0-0.4,0
			c-0.2-0.6-0.3-1.3-0.4-1.9c0-0.4-0.1-0.8-0.1-1.1C319.3,541,319.6,541,319.8,541z"/>
		<path id="XMLID_550_" class="st11" d="M319.5,544.1c-0.1,0-0.2,0-0.2,0c0-0.6-0.1-1.3-0.1-1.9
			C319.3,542.8,319.3,543.5,319.5,544.1z"/>
		<path id="XMLID_548_" class="st2" d="M314.6,346.5c0.2,6.5-2.5,11.8-6.6,16.7c-1,1.1-2,2.1-2.7,3.6c-0.9,1.9-3.2,2.8-5.5,2.8
			c-0.5-0.5-1-1-1.4-1.4c2-2.1,4.1-4.2,6.8-7c-1.6,0.3-2.3,0.2-2.9,0.5c-1.9,0.9-3.7,1.9-6.5,3.4c1.5-2.7,2.5-4.5,3.5-6.3
			c-0.2-0.2-0.4-0.4-0.6-0.6c-0.5,0.4-1,0.8-1.5,1.2c-0.6,0.6-1.1,1.3-1.8,1.8c-0.6,0.4-1.4,0.6-2.3,1c0.3-1.9,0.6-3.9,1-7
			c-3,4.6-5.5,8-10.7,7.1c0.3-3,2.7-5.2,1.7-8.4c-1.8,2.4-3.5,4.5-4.9,6.4c-2.9,0.8-5.7-0.7-8.8,2.2c1.4-4.6,6.1-6.8,4.1-11.3
			c-2.3,4.4-5.9,6.7-11.3,7.6c2.4-3.1,3.6-6,3.1-9.9c-2.9,4.1-5.4,8.1-11.4,7.7c0.7-2.4,1.4-4.6,2.2-7.1c-1.4-0.1-1.7,1.1-2.4,1.6
			c-0.7,0.7-1.4,1.5-1.8,2.4c-1.1,2.5-3.4,3.4-6.2,4.7c0.7-3.9,1.3-7.3,1.9-10.7c-3.3,4.3-5.8,9.1-11,11.3c-0.8-1.6-0.6-3.3,0.6-5
			c0.9-1.3,1.2-2.7,0.9-4.3c0,0,0,0,0.1,0.1c0,0,0.1,0.1,0.1,0.1c0.3-0.3,0.6-0.5,0.8-0.7c-0.1-0.1-0.2-0.2-0.3-0.3
			c-0.2,0.3-0.5,0.6-0.7,0.9c0,0,0,0,0,0c-4.7,3.1-6.4,8.5-9.9,12.6c-0.4-0.4-0.9-0.8-1.6-1.6c0.3-2.2,0.6-4.7,0.9-6.9
			c-2,1.1-2,1.1-3.8,4.2c0,1.9,0.1,4.1,0.1,6.2c-0.6,0.6-1.1,1.1-1.6,1.5c-2.7-2.2-2.9-5.2-2.8-8.3c0.1,0.1,0.1,0.1,0.2,0.2
			c0.3-0.2,0.6-0.5,0.8-0.7c-0.1-0.1-0.2-0.2-0.3-0.3c-0.2,0.3-0.5,0.6-0.7,0.9c0,0,0,0,0.1,0.1c-0.6,0.5-1.3,1-2.2,1.6
			c0.4,3.2,0.7,6.5,1,9.7c-2.6-0.5-4.6-3.5-5.5-8c-0.5,0.5-1,1-1.5,1.5c-0.6,4,1.2,7.3,3.2,10.9c-1.1,0.1-2.2,0.2-3.2,0.4
			c-1.8-1.5-3.5-2.8-5.2-4.1c0,0,0,0,0.1-0.1c0,0,0.1-0.1,0.1-0.1c-0.3-0.3-0.5-0.6-0.7-0.8c-0.1,0.1-0.2,0.2-0.3,0.3
			c0.1,0.1,0.2,0.2,0.3,0.2c0.2,0.2,0.4,0.3,0.6,0.5c0,0,0,0,0-0.1c0.4,1.7,0.8,3.4,1.2,5.1l0,0c-0.6-0.1-1.4,0-1.9-0.4
			c-2.6-2-6.2-7.8-7.2-11.9c-0.2,1.7-0.3,2.6-0.5,3.5c-0.4-0.3-0.7-0.7-1.1-1c-0.3,8.4,0.6,10.6,3.3,13.9c-1,0-1.8,0-2.8,0
			c-0.8-0.8-1.8-1.8-2.8-2.7c-1.9-1.8-3-3.9-2.9-6.6c0.1-4.2-0.1-8.4-0.2-13c-0.7-0.3-1.7-0.8-2.7-1.2c0.7-2,1.1-3.2,1.4-4.1
			c3.7-1.2,6.3,0.5,8.9,1.8c1.3-2.5,2.4-4.9,3.7-7.5c-0.5-2.9,0.5-6.3-1.1-9.7c-1.2-2.5,0.3-5.3,1-7.8c0.5-1.7,1.8-3.3,2.6-4.9
			c0.6,0.3,1.1,0.4,1.2,0.6c0.2,0.7,0.1,1.4,0.2,1.9c4.3,5.9,11.6,8.6,15.6,15.3c0.2-0.6,0.3-1.3,0.5-2c0.2,0.2,0.4,0.4,0.6,0.6
			c0.3-1.9,0.5-3.9,1-6.9c-3.9-6.8-6.5-15.2-5-25.4c1-1.8,2.6-4.6,4.4-7.6c2.4,3,4.4,6,6.8,8.6c2.5,2.6,5.3,4.8,8.5,7.5
			c0-2.1,0-3.9-0.1-5.6c-0.3-6.6,2-12.1,5.9-17.5c2.7-3.8,6.4-6.3,9.6-9.6c1.9-1.9,3.8-3.8,4.1-6.8c3.5,2,3.6,2,4.7,5.3
			c0.3,0.9,0.2,1.9,0.2,2.8c0,0.4-0.6,0.8-0.7,1.3c-0.4,3.3-0.7,6.7-0.8,9.9c0.9,3.4,4,5,5.8,7.5c4.2,5.7,4.8,11.5,2.5,17.8
			c-0.4,1.2-0.4,2.3-0.5,3.4c0,0,0,0,0,0c0,0-0.1-0.1-0.1-0.1c-0.3,0.2-0.6,0.5-0.8,0.7c0.1,0.1,0.2,0.2,0.3,0.3
			c0.2-0.3,0.5-0.6,0.7-0.9c0,0,0,0,0,0c3.9-1.3,5-4.7,6.1-8.1c0.7-2.3,1.6-4.5,2.4-7.1c3.1,1.6,4.3,4.5,5.6,6.9
			c1.3,2.4,1.9,5.3,1.6,8.3c-0.3,2.9-0.5,5.9-0.7,9.1c3.1-1.9,7.1-1.7,9.7-4.3c2.5-2.6,3.5-5.9,3.8-9.3c0.4-0.1,0.9-0.3,1.1-0.1
			c3.6,3.8,6.4,8,6.1,13.5c-0.1,2.2-1.2,4.4-1.7,6.6c-0.2,0.9,0,1.9,0,2.8c4.4-0.2,3.1-5,6.1-6.7c1,0.9,2,1.8,3.1,2.8
			C314.5,341,314.6,343.7,314.6,346.5z"/>
		<path id="XMLID_547_" class="st11" d="M312.2,431.5c-0.7,0.6-1.3,1.1-1.9,1.6c-0.4-0.6-0.9-1.3-1.3-2.1c-0.5-1-0.9-2.1-1.1-3.2
			c-0.2-0.9-0.2-1.9,0.4-3C309.6,426.8,310.8,428.9,312.2,431.5z"/>
		<path id="XMLID_546_" class="st11" d="M305.3,412.9c0.1,0.9-0.2,1.8-0.3,2.7c-0.5,0-0.9,0.1-1.4,0.1c-1.9-4.8-3.7-9.5-5.6-14.4
			c0.3-0.3,0.8-0.7,1.3-1.2c0.1,0.1,0.5,0.2,0.6,0.4c2,3.1,3.8,6.4,4.3,10.2C304.4,411.5,305.2,412.1,305.3,412.9z"/>
		<path id="XMLID_512_" class="st7" d="M294.8,536c0,1.3,0.1,2.5-0.8,3.9c-0.9,1.4-0.7,3.5-1.1,5.2c-0.2,0.9-0.4,2-1,2.7
			c-3.8,5-8.1,9.3-15.1,9.6c-1.8,0.1-3.5,0.8-5.3,1.1c-1.7,0.2-3.5,0.1-5.2,0.1c-7.7,0.2-14.9-2.3-22-4.9c-3.5-1.3-5.4-4.5-6.5-7.6
			c-1.3-3.5-3.6-6.6-3.8-10.5c0-0.7-1-1.4-1-2.2c-0.1-7.9-2.5-15.7-1-24.4c2.8-2,3.3-5.8,4.5-9.2c1.8-4.8,3-9.9,5.1-14.6
			c3.4-7.8,7.9-14.9,12-22.3c3.6-6.5,7.9-12.7,10.3-19.8c0.2-0.6,0.8-1.1,1.3-1.7c1.1,0,2.3,0,3.5-0.1c2.8,3,3.3,7,4.6,10.7
			c1.7,4.9,4.2,9.6,4.7,14.8c2.1,2.8,2.6,6.3,4.4,9.2c3,4.9,4.4,10.4,6.4,15.7c1.7,4.5,3.3,9.1,5.5,15.2
			C294.5,515.5,294.7,525.7,294.8,536z M285.7,544.5c-0.1-0.3-0.3-0.6-0.4-1c-0.9,0.2-1.9,0.2-2.7,0.6c-3.8,1.7-4.8,2-8.9,1.8
			c-1.4-0.1-3.2-0.5-4.1,0.2c-2.1,1.7-4.7,0.1-6.3,1.2c-2.2,1.5-4.3,0.6-6.4,1c-0.8,0.1-1.6,0-2.8,0.1c1.5,2.2,3.3,2.8,5.3,3
			c2.3,0.3,4.7,0.7,6.8,1.2c2,0.5,3.8,0.9,5.8,0.4c2-0.6,4.3-0.9,5.9-2C280.6,549.1,283.1,546.7,285.7,544.5z M284.9,514.2
			c0.8-3.5,0-7.3,0-11c-2.9-2.6-5.8-5.2-8.2-7.3c-4.7-0.4-8.5-1.1-12.4-0.9c-4.1,0.1-7.5-3.1-11.1-2.1c-1.8-0.9-3.1-1.5-4.8-2.3
			c-0.9,2.7-1.7,5.1-2.6,7.5c-0.4,1.2-0.8,2.5-1.4,3.6c-1.7,2.9-3.4,9.5-2,12c1.2,2.1,0.8,4,0.8,5.9c0.1,3.4,0.8,6.5,2.2,9.6
			c0.5,1.3,0.1,3,2.2,3.6c0.8-4.7,1.6-9.4,2.5-14.6c0.1-0.1,0.6-0.5,1.1-1c0,0,0.2,0.2,0.4,0.3c0.3,5.6,2.6,11.5,5.3,13.8
			c0.7-4.8,1.5-9.7,1.1-14.6c-0.1-0.9,0.1-1.8,0.3-3.9c2.5,5.9,4.5,10.8,6.6,15.8c0.7-0.7,1.2-1.2,1.8-1.9
			c-0.1-4.5-0.2-9.1-0.2-13.9c1,0,1.8,0,2.7,0c1.4,5,2.4,10,5.1,14.8c1.8-3.7,1.7-7.2,1.4-11.5c2.1,3.8,2,3.8,2.3,5.5
			c0.4,2.8,0.8,5.6,1.4,8.4c0.3,1.3,1.1,2.4,2.1,4.6c0.7-2.1,1.2-3.3,1.5-4.4C284.4,524.8,283.7,519.4,284.9,514.2z"/>
		<path id="XMLID_510_" class="st6" d="M293.9,111.3c0.1,0.9,0.6,1.8,0.9,2.6c-1,3.6-1.6,6.8-3.4,9.5c-1.8,2.8-4.3,4.8-7.6,6.3
			c-1.8,0-4,0.1-6.3,0.1c0-0.9,0-1.7,0-2c1.5-1.7,2.7-3.2,3.9-4.5c0-2.9-0.1-5.7-0.1-8.4c-1.1-1.5-2.1-3-3.2-4.4
			c0-2.1-0.1-4.2-0.1-5.9c1.9-4.2,3.9-7.9,9.3-8.5c-0.3,3.2,0.9,5.5,2.9,7.7C292.1,106,293.7,108.3,293.9,111.3z"/>
		<path id="XMLID_509_" class="st11" d="M285.2,543.6c0.1,0.3,0.3,0.6,0.4,1c-2.6,2.2-5,4.6-7.8,6.4c-1.7,1.1-3.9,1.5-5.9,2
			c-2,0.5-3.8,0.1-5.8-0.4c-2.2-0.5-4.5-0.9-6.8-1.2c-2-0.3-3.8-0.9-5.3-3c1.2,0,2,0.1,2.8-0.1c2.1-0.4,4.2,0.5,6.4-1
			c1.6-1.1,4.2,0.5,6.3-1.2c0.8-0.7,2.7-0.2,4.1-0.2c4,0.2,5.1,0,8.9-1.8C283.3,543.8,284.3,543.8,285.2,543.6z"/>
		<path id="XMLID_503_" class="st11" d="M284.9,503.1c0.1,3.8,0.8,7.6,0,11c-1.2,5.2-0.5,10.6-2.1,15.8c-0.4,1.2-0.8,2.3-1.5,4.4
			c-1-2.1-1.8-3.3-2.1-4.6c-0.6-2.8-1-5.6-1.4-8.4c-0.2-1.7-0.1-1.7-2.3-5.5c0.2,4.2,0.4,7.8-1.4,11.5c-2.8-4.7-3.7-9.8-5.1-14.8
			c-0.9,0-1.7,0-2.7,0c0.1,4.7,0.2,9.4,0.2,13.9c-0.7,0.7-1.1,1.2-1.8,1.9c-2.1-5-4.1-9.8-6.6-15.8c-0.2,2-0.4,3-0.3,3.9
			c0.5,5-0.3,9.8-1.1,14.6c-2.8-2.3-5.1-8.2-5.3-13.8c-0.1-0.1-0.3-0.3-0.4-0.3c-0.5,0.4-1,0.9-1.1,1c-0.9,5.2-1.7,9.9-2.5,14.6
			c-2.2-0.6-1.7-2.3-2.2-3.6c-1.4-3.1-2-6.3-2.2-9.6c-0.1-2,0.3-3.9-0.8-5.9c-1.4-2.5,0.3-9,2-12c0.6-1.1,1-2.4,1.4-3.6
			c0.9-2.4,1.7-4.8,2.6-7.5c1.7,0.8,3,1.5,4.8,2.3c3.6-1.1,7,2.2,11.1,2.1c3.9-0.1,7.7,0.5,12.4,0.9
			C279,497.9,282,500.5,284.9,503.1z"/>
		<path id="XMLID_184_" class="st7" d="M279.8,389.7c1.3,3.9,1,7.8-0.8,11.8c-2.2,5-4.2,10.1-6.4,15.2c-1.5,3.5-3.4,7.1-6.3,10
			c-2,2-3.8,4.3-5.4,6.7c-0.7,1-0.8,2.5-1.2,3.7c-1.6,4.4-3.1,8.8-4.9,13.2c-0.9,2.3-2.1,4.4-3.2,6.6c-1,2-1.7,4.3-3.1,6
			c-1.6,2-2.3,4.3-3.7,6.4c-1.9,2.8-3.5,5.9-4.4,9.2c-0.5,1.8-1.6,3.5-2.4,5.3c-1.9,3.8-3.3,7.7-4.6,11.7c-0.8,2.3-2.3,4.3-3.6,6.4
			c-0.8,1.4-1.6,2.8-2.5,4.2c-1,1.5-1.9,3.1-3,4.5c-2.1,2.7-2.9,6.2-5.1,8.9c-2.2,2.6-3,6-4.2,9.2c-1.2,3.2-3,6-4.1,9.3
			c-1.4,4.2-4.1,8.1-6.3,12.1c-1.2,2.1-2.8,4.1-3.6,6.4c-1.9,5.1-4.7,9.6-7.8,14.1c-1.5,2.1-2.4,4.6-3.4,7c-1.2,2.7-2.2,5.5-4.5,7.6
			c-0.8,0.7-1.5,1.9-1.6,3c-0.5,4.7-3.1,8.5-4.6,12.8c-2.1,5.9-4.5,11.8-7.6,17.2c-4.8,8.5-8.5,17.5-13.1,26.1
			c-1.1,2-2.5,3.9-3.9,5.7c-1.9,2.5-3.9,4.9-5.5,7.7c-1.3,2.3-3.3,4-5.4,5.6c-0.9,0.7-2.2,1.1-2.8,1.9c-2.7,3.5-6.8,4.1-10.7,4.6
			c-5.9,0.9-11.6-0.2-16.8-3.6c-1.3-0.9-2.9-1.3-4.8-2.2c-6,0.1-11-2.4-14.5-8.1c-2.3-3.8-5.6-6.8-7.2-11.1c-0.9-2.3-2-4.5-2-7.1
			c-0.1-1.8-1.1-3.6-0.9-5.3c0.1-1.7,1.6-3.2,1.8-5c0.4-4.3,2.5-8.1,3.4-12.2c0.3-1.2,1.2-2.3,2.1-3.3c6.9-7.5,13.8-15,20.7-22.5
			c5.8-6.3,10.7-13.2,14.7-20.7c3.7-6.9,7.3-13.8,11.2-20.5c1.9-3.3,4.4-6.3,6.5-9.4c1.3-1.9,2.4-4,3.5-5.9c1.8-3.6,4.2-6.7,6.6-9.9
			c1.3-1.7,2.3-3.6,3.3-5.5c1.6-3,2.9-6.2,4.7-9c3.2-5.1,5.5-10.7,8.8-15.8c2.3-3.5,3.1-7.7,5-11.5c2-4.1,4.4-7.9,5.8-12.3
			c1.8-5.6,5-10.5,7.9-15.6c2.9-5.1,6.2-10,9.3-15.1c1.9-3.1,3.1-6.4,4.9-9.5c3.1-5.4,5.8-11,9.8-15.9c1.6-2,2.7-4.5,4-6.7
			c1.2-2.1,2.9-3.9,3.4-6.5c0.3-1.8,2.3-3.2,3.4-4.9c0.9-1.3,1.7-2.8,2.4-4.2c1.8-3.5,3.4-7.1,6.2-10.1c0.8-0.8,1.4-1.9,1.8-2.9
			c0.7-1.8,1.5-3.2,3.1-4.5c1.3-1,1.6-3.1,2.4-5.1c3.5,2.2,7.1,2.9,10.9,2.2c0.5-0.5,1.1-1.2,2.1-2.2c2.1,0.3,4.6,0.7,7.1,1.1
			c3.3,3.2,7,6.1,10.9,8.8C275.9,380.6,278.3,385,279.8,389.7z M243,384.3c0.1-0.4-0.3-0.8-0.6-1.6c-0.7,0.5-1.3,0.8-1.8,1.2
			c-3.8,3.6-5.5,8.6-8.9,12.6c-0.4,0.4,0.3,1.7,0.5,2.8c4.9-2.8,6.5-7.7,9.5-11.4C242.6,387,242.7,385.5,243,384.3z M236.7,462.6
			c1.3-4.5,2.7-9,4-13.4c-1.4,0.4-2.1,1.2-2.8,2c-1.5,1.7-1.8,4.3-4.1,5.3c0.7-2.3,1.2-4.7,2.1-6.9c1.6-3.8,2.6-7.8,3.5-11.9
			c-1.5,1.4-2.4,3.1-3.7,4.5c-1.4,1.5-2.2,3.3-3.2,5c-1,1.9-2.4,3.5-3.6,5.3c-1,1.6-1.8,3.4-2.9,5.1c-1,1.5-2.1,2.8-3.2,4.3
			c3.1-7.2,5.1-14.5,7.2-21.9c-6.1,6.4-9.9,14.4-15.1,21.4c-5.3,7.3-10.7,14.5-16.1,21.8c-0.5,1.6-0.7,3.5-1.5,5.1
			c-2.2,4.2-4.6,8.2-6.9,12.3c-3.6,6.4-7,12.9-10.9,19.1c-1.1,1.7-1.6,3.7-2.4,5.6c0.2,0.1,0.4,0.3,0.6,0.4c1.7-1.8,3.5-3.6,5.2-5.4
			c1.8-1.9,3.7-3.7,5.4-5.7c1.7-1.9,3-4.2,4.8-5.9c1.7-1.5,1.6-4.7,5.1-5.2c-1.3,2.1-2.9,3.6-3.2,5.4c-0.4,2.5-1.9,4.5-2.6,6.8
			c-0.9,2.6-2.3,5-3.1,7.6c-0.4,1.1-0.8,2.2-1.1,3.3c-0.2,0.6-0.4,1.1-0.6,1.7c-1,3.1-1.9,6.3-1.8,9.7c0,0-0.1-0.1-0.1-0.1
			c-0.3,0.2-0.6,0.5-0.8,0.7c0.1,0.1,0.2,0.2,0.3,0.3c0.1-0.1,0.1-0.1,0.2-0.2c0.2-0.2,0.4-0.4,0.5-0.7c0-0.1,0-0.1,0-0.2
			c2.2-1.3,2.8-3.7,4-5.8c2.8-4.8,5.7-9.5,8.6-14.3c2.4-3.9,4.8-7.8,7.5-12.1c0.3,4.1-1.9,6.9-2.8,10c-0.9,3.3-2.1,6.5-2.9,9.7
			c-0.8,3.3-1.4,6.6-2.2,10.7c1-0.8,1.4-1.1,1.6-1.4c2.9-5.1,5.8-10.2,8.5-15.3c2.1-4,4-8.1,5.9-12.2c2.9-6.5,6.1-12.9,9.7-19
			c1.7-2.8,2.7-5.9,4.4-8.7C231.5,474.2,234.8,468.7,236.7,462.6z M227.6,410c0-1.3,0-2.3-0.1-4.1c-2.1,2.2-4,3.9-3.9,6.8
			C226.1,412.8,226.6,410.9,227.6,410z M220.7,422.4c-0.1-1.2-0.3-2.8-0.5-5.4c-1.7,1.8-3,2.7-3.7,3.9c-1.8,3.2-3.4,6.6-5.1,9.9
			c-0.7,1.3-1.4,2.6-2.2,3.8c-3,4.4-6,8.7-9,13.1c-2.4,3.5-4.8,7.1-6.9,10.8c-1.9,3.4-3.9,6.8-4.9,10.5c-0.7,2.7-1.2,5.6-2.7,7.8
			c-3.4,5-5.5,10.5-7.8,16.2c0.7,0,1.4,0.1,1.6-0.1c1.8-1.8,3.6-3.5,4.5-6c0.7-2,1.6-3.9,2.7-5.7c1.4-2.2,2.4-4.6,3.4-7
			c2.4-5.7,5.2-11.2,8.1-16.6c2.9-5.4,6.8-10.2,10.4-15.2c2.2-3.1,4.2-6.3,6.1-9.5C216.8,429.6,218.6,426.2,220.7,422.4z
			 M171.5,511.7c1.5-2.1,3.3-4.9,1.9-8.5c-0.9,0.7-1.8,1.1-2.2,1.7c-2.9,4.8-6.1,9.4-9.3,14c-4.6,6.7-6.9,14.7-11.5,21.4
			c-1,5-4.2,8.8-7,12.6c-0.7,3.6-2.3,6.7-4.3,9.4c-2.5,3.5-4.5,7.3-6.9,10.9c-2.2,3.4-4,7.1-6.2,10.5c-0.9,1.4-0.9,3.4-1.3,5.1
			c0.3,0.1,0.6,0.3,0.8,0.4c0.9-0.9,2-1.6,2.5-2.7c2.7-5.5,5.7-10.7,9.7-15.4c2.5-3,4.7-6.4,6.5-9.9c1.5-3.1,2.7-6.4,5.5-8.8
			c0.4-0.3,0.6-0.8,0.8-1.2c2.5-5.3,5.1-10.5,8-15.6c2.2-3.9,3.5-8.4,6.3-12C167.6,520,168.8,515.5,171.5,511.7z M159.9,548.7
			c0-0.1-0.1-0.3-0.6-1.4c-1.1,2.3-1.6,4.3-2.9,5.7c-3.3,3.6-5,8-7.5,12.1c-1.6,2.6-3.2,5.3-4.6,8c-1.1,2.2-3.4,3.6-4.2,5.6
			c-0.9,2.3-2.4,4.2-3.3,6.4c-0.2,0.5-0.2,1.1-0.5,2.5c1.4-0.8,2.1-1.1,2.6-1.6c3.2-3,5.1-7,7.6-10.5c3.7-5.2,6.4-11.2,9.3-17
			C157.5,555.3,158.6,552,159.9,548.7z M141,653.1c1.4-4,1-7.9,0.5-11.6c-0.5-3.4-1.2-7.3-4.7-9.5c-0.7-0.4-1.2-1.2-1.5-1.9
			c-2.7-6.1-7.9-10.1-12.5-14.6c-0.4-0.4-1.1-0.6-1.7-0.9c-4.4-2-9-3.5-13.9-2.8c-2.1,0.3-4.2,0.8-6.3,1.2c-1.7,0.3-3.2,1.5-4.8,2.3
			c0,0.3,0,0.6,0,0.8c-0.2,0.2-0.5,0.4-0.8,0.7c0.1,0.1,0.2,0.2,0.3,0.3c0,0,0.1-0.1,0.1-0.1c0.2-0.3,0.4-0.5,0.6-0.8
			c0,0,0.1-0.1,0.1-0.1c2.7,0,5.5-0.3,8.2-0.1c2.6,0.2,5.3,0.7,7.5,1.1c1.5,0.7,2.6,1.3,3.8,1.9c0.6,0.3,1.2,0.5,1.7,0.9
			c3.9,3.3,7.2,6.9,8.3,12.2c0.6,2.7,1.8,5.3,5.4,5.6c1.1,0.1,2.1,1.6,2.8,2.2c1.4,5.5,3.4,10.5,0.6,17c-2,1.3-5.2,3.3-8.4,5.3
			c0.1,0.3,0.3,0.5,0.4,0.8c3.3-0.9,6.5-1.8,9.8-2.7C138.4,658.1,140,656,141,653.1z M131.1,599.6c0.6-1.9,1-3.3,1.4-4.8
			c-0.6-0.1-1-0.3-1.5-0.4c-0.8,2.5-3.3,4.2-2.3,7.5C129.8,600.8,130.7,600,131.1,599.6z M118.6,601.8c0.8-1,0.9-2.5,1.5-4.2
			c-3.7,1.9-6.8,6-8.3,10.5C115.7,607.7,116.7,604.1,118.6,601.8z"/>
		<path id="XMLID_183_" class="st6" d="M271.4,324c-0.2,0.3-0.5,0.6-0.7,0.9C270.9,324.6,271.2,324.3,271.4,324L271.4,324
			C271.4,324,271.4,324,271.4,324z"/>
		<path id="XMLID_182_" class="st6" d="M271.4,324L271.4,324C271.4,324,271.4,324,271.4,324C271.4,323.9,271.4,324,271.4,324z"/>
		<path id="XMLID_181_" class="st6" d="M271.3,323.9C271.4,324,271.4,324,271.3,323.9c-0.2,0.4-0.4,0.7-0.6,0.9
			c-0.1-0.1-0.2-0.2-0.3-0.3c0.3-0.3,0.6-0.5,0.8-0.7C271.3,323.9,271.3,323.9,271.3,323.9z"/>
		<path id="XMLID_180_" class="st6" d="M271,73.6c0,1.5,0.1,3,0.1,4.9c-0.6,0.5-1.5,1.3-2.7,2.3c-0.5,0-1.5,0-3,0.1
			c-0.5-0.6-1.2-1.6-2.3-3.1c0-0.6,0-2.1-0.1-3.9c1.2-0.7,2.6-1.6,4-2.5C268.3,72.1,269.5,72.8,271,73.6z"/>
		<path id="XMLID_179_" class="st6" d="M260.3,258.3c0.5,1.5,0.4,3.3,0.5,4.8c-0.8,0.1-1.1,0.2-1.4,0.2c-1.8-1.5-1.3-4.9-4.6-5.3
			c0.2,1.3,1,3.2,0.6,3.5c-2.1,1.6,0.6,4.9-2.7,5.8c-0.5-1.8-1.1-3.5-1.7-5.7c-1-0.8-2.3-1.9-4-3.4c-0.3,0-1.3,0-2.6,0
			c-3.7-3.8-7.5-7.7-11-11.2c0-1.8-0.1-3-0.1-4.5c3.5,2.6,6.7,5,11.5,5.2c-2.4-3.4-4.6-6.5-7.1-10.1c1.1-0.1,1.8-0.4,2.2-0.2
			c2,1.1,3.9,2.4,5.9,3.5c1,0.6,2,1.2,3.1,1.3c3.8,0.3,5.9,2.8,7.3,5.9C257.8,251.7,259.2,255,260.3,258.3z"/>
		<path id="XMLID_178_" class="st6" d="M251.2,141c0,2.3,0.1,4.5,0.1,7c-0.6,0.5-1.5,1.3-2.7,2.3c-1.3,0-3,0-5.2,0.1
			c-0.5-0.6-1.2-1.6-2.4-3.3c0-1.1,0-2.8-0.1-4.9c1.7-1.2,3.6-2.4,5.5-3.7C248.2,139.5,249.6,140.2,251.2,141z"/>
		<path id="XMLID_177_" class="st11" d="M242.4,382.7c0.3,0.7,0.7,1.2,0.6,1.6c-0.3,1.3-0.4,2.7-1.2,3.6c-3,3.7-4.7,8.6-9.5,11.4
			c-0.2-1.1-0.8-2.4-0.5-2.8c3.3-3.9,5.1-9,8.9-12.6C241.1,383.5,241.7,383.2,242.4,382.7z"/>
		<path id="XMLID_176_" class="st11" d="M240.7,449.2c-1.3,4.5-2.7,9-4,13.4c-1.8,6.1-5.1,11.5-8.3,16.9c-1.7,2.8-2.7,5.9-4.4,8.7
			c-3.6,6.1-6.8,12.5-9.7,19c-1.8,4.1-3.8,8.2-5.9,12.2c-2.7,5.2-5.6,10.2-8.5,15.3c-0.2,0.4-0.7,0.6-1.6,1.4
			c0.8-4,1.4-7.4,2.2-10.7c0.8-3.3,2-6.5,2.9-9.7c0.9-3.2,3.2-6,2.8-10c-2.7,4.4-5.1,8.3-7.5,12.1c-2.9,4.7-5.8,9.5-8.6,14.3
			c-1.2,2-1.9,4.4-4,5.8c-0.1-3.4,0.6-6.6,1.7-9.7c0.2-0.6,0.4-1.1,0.6-1.7c0.4-1.1,0.8-2.2,1.1-3.3c0.9-2.6,2.2-5,3.1-7.6
			c0.8-2.3,2.2-4.3,2.6-6.8c0.3-1.8,1.9-3.3,3.2-5.4c-3.5,0.5-3.5,3.6-5.1,5.2c-1.8,1.7-3.1,4-4.8,5.9c-1.7,2-3.6,3.8-5.4,5.7
			c-1.7,1.8-3.5,3.6-5.2,5.4c-0.2-0.1-0.4-0.3-0.6-0.4c0.8-1.9,1.3-3.9,2.4-5.6c3.9-6.2,7.3-12.7,10.9-19.1
			c2.3-4.1,4.7-8.2,6.9-12.3c0.8-1.6,1-3.4,1.5-5.1c5.3-7.2,10.7-14.5,16.1-21.8c5.1-7,9-15,15.1-21.4c-2.1,7.4-4.1,14.7-7.2,21.9
			c1.1-1.4,2.2-2.8,3.2-4.3c1.1-1.6,1.9-3.4,2.9-5.1c1.1-1.8,2.6-3.5,3.6-5.3c1-1.7,1.7-3.5,3.2-5c1.3-1.4,2.2-3.1,3.7-4.5
			c-0.9,4.1-1.9,8.1-3.5,11.9c-0.9,2.2-1.4,4.6-2.1,6.9c-1.6,0.1-0.9,1.3-1,2.1c-1.6,0.1-0.9,1.3-1,2.1c-0.1,0-0.2,0-0.3,0
			c-0.1,0-0.2,0-0.2,0.1c-0.3,0.1-0.4,0.3-0.5,0.5c0,0.1,0,0.1,0,0.2c-0.1,0.4,0.1,0.9,0,1.4c0,0-0.1-0.1-0.1-0.1
			c-0.3,0.2-0.6,0.5-0.9,0.7c0.1,0.1,0.2,0.2,0.3,0.3c0.2-0.3,0.5-0.6,0.7-0.9c0,0,0,0-0.1-0.1c1.2-0.1,1-0.9,0.9-1.7
			c0-0.2,0-0.3,0-0.5c1.6-0.1,0.9-1.3,1-2.1c1.6-0.1,0.9-1.3,1-2.1c2.3-1.1,2.6-3.6,4.1-5.3C238.6,450.4,239.3,449.6,240.7,449.2z"
			/>
		<path id="XMLID_175_" class="st5" d="M241.3,349c-0.3,0.2-0.6,0.5-0.8,0.7c0,0-0.1-0.1-0.1-0.1c0,0-0.1-0.1-0.1-0.1l0,0
			c0.2-0.3,0.4-0.6,0.7-0.9C241,348.7,241.2,348.9,241.3,349z"/>
		<path id="XMLID_174_" class="st5" d="M240.2,349.5c0.2-0.3,0.5-0.6,0.7-0.9C240.7,348.9,240.5,349.2,240.2,349.5L240.2,349.5
			C240.2,349.5,240.2,349.5,240.2,349.5z"/>
		<path id="XMLID_173_" class="st5" d="M240.3,349.6C240.3,349.6,240.3,349.6,240.3,349.6C240.3,349.6,240.3,349.6,240.3,349.6z"/>
		<path id="XMLID_172_" class="st0" d="M240.3,349.5L240.3,349.5C240.3,349.5,240.3,349.5,240.3,349.5L240.3,349.5z"/>
		<path id="XMLID_171_" class="st11" d="M233.8,456.5c-0.1,0.8,0.6,2-1,2.1C232.9,457.9,232.2,456.7,233.8,456.5z"/>
		<path id="XMLID_170_" class="st11" d="M232.8,458.7c-0.1,0.8,0.6,2-1,2.1C231.9,460,231.2,458.8,232.8,458.7z"/>
		<path id="XMLID_169_" class="st11" d="M231.7,461.3c0.1,0.7,0.3,1.5-0.9,1.6c0-0.4-0.1-0.9-0.1-1.4c0-0.1,0-0.1,0-0.2
			c0.1-0.2,0.2-0.4,0.5-0.5c0.1,0,0.1-0.1,0.2-0.1c0.1,0,0.2,0,0.3,0C231.7,460.9,231.7,461.1,231.7,461.3z"/>
		<path id="XMLID_168_" class="st11" d="M230.9,463c-0.2,0.3-0.5,0.6-0.7,0.9C230.4,463.6,230.6,463.3,230.9,463
			C230.8,462.9,230.8,463,230.9,463z"/>
		<path id="XMLID_167_" class="st11" d="M230.7,461.5c-0.1,0.4,0.1,0.9,0.1,1.4c0,0,0,0,0,0c0,0,0,0,0,0
			C230.8,462.5,230.7,461.9,230.7,461.5z"/>
		<path id="XMLID_166_" class="st11" d="M230.8,462.9C230.8,462.9,230.8,462.9,230.8,462.9C230.8,462.9,230.8,462.9,230.8,462.9
			C230.8,462.9,230.8,462.9,230.8,462.9z"/>
		<path id="XMLID_165_" class="st11" d="M230.8,462.9C230.8,462.9,230.8,462.9,230.8,462.9c-0.1,0.4-0.4,0.7-0.6,1
			c-0.1-0.1-0.2-0.2-0.3-0.3c0.3-0.2,0.6-0.5,0.9-0.7C230.7,462.8,230.7,462.8,230.8,462.9C230.8,462.9,230.8,462.9,230.8,462.9z"/>
		<path id="XMLID_164_" class="st11" d="M230.8,461.4c0,0.1,0,0.1,0,0.2C230.7,461.5,230.8,461.4,230.8,461.4z"/>
		<path id="XMLID_163_" class="st11" d="M227.6,405.9c0,1.8,0,2.8,0.1,4.1c-1,0.8-1.5,2.7-3.9,2.7
			C223.6,409.8,225.4,408.2,227.6,405.9z"/>
		<path id="XMLID_162_" class="st5" d="M222.5,356.6c-0.3,0.2-0.6,0.5-0.8,0.7c-0.1-0.1-0.1-0.1-0.2-0.2c0.2-0.3,0.4-0.6,0.7-0.9
			C222.3,356.4,222.4,356.5,222.5,356.6z"/>
		<path id="XMLID_161_" class="st5" d="M221.5,357.2c0.2-0.3,0.5-0.6,0.7-0.9C222,356.6,221.7,356.9,221.5,357.2
			C221.5,357.2,221.5,357.2,221.5,357.2z"/>
		<path id="XMLID_160_" class="st11" d="M220.2,417c0.2,2.6,0.4,4.2,0.5,5.4c-2.1,3.7-3.9,7.2-5.9,10.6c-1.9,3.2-3.9,6.5-6.1,9.5
			c-3.6,5-7.5,9.7-10.4,15.2c-2.9,5.4-5.7,10.9-8.1,16.6c-1,2.4-2,4.8-3.4,7c-1.1,1.8-2.1,3.7-2.7,5.7c-0.9,2.5-2.8,4.2-4.5,6
			c-0.2,0.2-0.9,0.1-1.6,0.1c2.3-5.7,4.4-11.2,7.8-16.2c1.5-2.2,2-5.1,2.7-7.8c1-3.7,3-7.2,4.9-10.5c2.1-3.7,4.5-7.3,6.9-10.8
			c2.9-4.4,6-8.7,9-13.1c0.8-1.2,1.6-2.5,2.2-3.8c1.7-3.3,3.3-6.7,5.1-9.9C217.2,419.7,218.5,418.8,220.2,417z"/>
		<path id="XMLID_159_" d="M210.3,374.8c-0.1,0.1-0.2,0.2-0.3,0.3c-0.2-0.3-0.5-0.6-0.7-0.8c0,0,0.1-0.1,0.1-0.1l0,0l0,0
			c0,0,0.1-0.1,0.1-0.1C209.7,374.3,210,374.6,210.3,374.8z"/>
		<polygon id="XMLID_158_" class="st5" points="209.3,374.2 209.3,374.2 209.3,374.2 		"/>
		<path id="XMLID_157_" class="st5" d="M207.6,368.1c0.2,0.3,0.5,0.6,0.7,0.8c0,0-0.1,0.1-0.1,0.1c0,0-0.1,0-0.1,0.1
			c-0.2-0.1-0.4-0.3-0.6-0.4c-0.1-0.1-0.2-0.2-0.3-0.2C207.3,368.3,207.4,368.2,207.6,368.1z"/>
		<path id="XMLID_156_" class="st5" d="M208.2,369C208.2,369,208.2,369,208.2,369C208.1,369.1,208.1,369.1,208.2,369
			C208.1,369,208.2,369,208.2,369z"/>
		<path id="XMLID_155_" class="st0" d="M208.1,369.1C208.1,369.1,208.1,369.1,208.1,369.1L208.1,369.1L208.1,369.1z"/>
		<path id="XMLID_154_" class="st5" d="M208.1,369.1L208.1,369.1C208.1,369.1,208.1,369.1,208.1,369.1c-0.2-0.1-0.4-0.3-0.6-0.4
			C207.7,368.8,207.9,368.9,208.1,369.1z"/>
		<path id="XMLID_153_" class="st6" d="M201.9,247.4c2.4,1.4,2.4,3.2,2,5.1c-1.1,1.9-2.9,1.5-4.6,1.4c-0.5-0.5-1-1-1.5-1.4
			c0-1.1,0-2.1-0.1-3.7C199.1,248.3,200.7,247.8,201.9,247.4z"/>
		<path id="XMLID_147_" class="st7" d="M198.5,424.8c0.7,3.1-0.5,5.3-2.4,7.4c-2.9,2.9-5.7,5.9-8.7,9l-2.4,1.6
			c-0.1,0.1-0.1,0.1-0.2,0.2c-0.2,0.2-0.4,0.4-0.5,0.7c0,0,0,0,0.1,0.1c-0.4,0-0.7-0.1-1,0.1c-5.7,3.2-11.4,6.2-16.9,9.6
			c-4.6,2.8-9,5.8-13.9,8c-4.3,1.9-8.5,4-12.6,6.2c-7.6,4.2-14.9,8.8-21.8,14.2c-4.2,3.3-8.8,6.2-13.4,9
			c-6.4,3.8-13.1,7.3-19.5,11.1c-5.6,3.3-11.3,6.4-16.7,10c-2.5,1.6-4.6,3.9-7.1,5.5c-4.2,2.6-7.8,5.9-12.2,8.2
			c-0.3,0.1-0.6,0.3-0.9,0.4c-1.5,0.7-2.8,0.9-4.7,1c-1.4-3.2-3.8-6.5-4.2-10.1c-0.6-4.4,1.1-8.8,3.8-12.4c1.5-2,3.5-3.6,4.8-5.9
			c0.7-1.3,2.4-2.3,3.9-3c7.2-3.7,14.7-6.9,21.6-11c11.6-7.1,24.1-12.6,35.9-19.4c3.1-1.8,6-3.9,9.3-5.3c10.2-4.3,20-9.7,30.6-13.3
			c6.4-2.2,12.1-6,18.3-8.8c7-3.2,13.7-7.3,21.2-9.6c2-0.6,3.7-2,5.6-3C195.4,424.9,197,424.9,198.5,424.8z M173.2,439.6
			c0.2-0.2,0.3-0.3,0.5-0.5c-0.1-0.1-0.2-0.2-0.3-0.3c0,0-0.1,0.1-0.1,0.1c-0.2,0.2-0.4,0.5-0.6,0.7c-0.1,0.1-0.2,0.1-0.3,0.2
			c-2.2-0.2-3.8,0.3-5.4,1.1c-2.7,1.4-5.5,2.8-8.2,4.2c-2.7,1.4-5.4,2.9-8.1,4.4c-0.7,0.4-1.7,0.8-1.6,2.3c2-1,4-2,6-2.9
			c6-2.9,12-5.8,18.3-8.9C173.3,439.9,173.2,439.7,173.2,439.6z M136.9,459.3c0.4-0.5,0.3-1.3,0.5-2c-2.2,0.4-4.5,0.2-5.6,1.2
			c-2.4,2.2-5.5,2.9-7.9,4.9c-2.5,2-5.3,3.1-8.7,4.2c1.1,2,2.4,1.8,3.3,1.3c2.5-1.6,5.3-2.2,8.1-3.2
			C130.4,464.3,134.1,462.4,136.9,459.3z M107.1,472.8c-3.5-1.6-6.2,0.5-8.5,2c-4.2,2.8-8.4,5.6-13.1,7.5c-3.5,1.4-6.2,4.1-9.7,5.5
			c-1.5,0.6-3.2,2.2-2.4,5.1c3.8,0,6.9-1.3,9.8-3.3c2.7-1.9,5.4-3.7,8.2-5.4c2.5-1.5,5.1-2.8,7.6-4.3
			C102.1,477.9,105,475.8,107.1,472.8z M60.3,500.2c0.8-0.8,1.6-1.7,3-3.1c-3.7,1-6.7,1.3-9.7,4.8C56.5,501.2,58.3,500.7,60.3,500.2
			z"/>
		<path id="XMLID_139_" class="st7" d="M187.4,441.2c2.5,0.6,2.5,0.6,4.3,2.3c-3.7,6.5-7.8,12.8-11.3,19.4
			c-4.3,8-8.4,16.1-12.7,24.1c-2.1,4-3.3,8.6-5.8,12.3c-2.6,3.8-4.7,7.8-6.8,11.9c-0.4,0.7-0.8,1.5-1.4,2.1c-3.8,4-7.4,8.1-12,11.3
			c-4,2.8-8.2,5.5-12.2,8.4c-4.5,3.3-9.5,5.9-13.8,9.5c-3.5,2.9-7.2,5.2-11.3,6.8c-3.1,1.2-5.5,3.4-8.5,4.7c-2.8,1.3-5.5,2.7-8,4.6
			c-4.1,3.1-8.5,5.8-12.4,9.1c-6.1,5.1-12.8,9-19.9,12.5c-8,3.9-15.9,7.9-24,11.5c-3.2,1.4-6.6,3-10.4,2.8c-1.2-0.1-2.5,0.7-3.7,1.1
			c-5.5-2.4-9.2-5.9-11.3-12c-1.4-4.1-3.5-8.1-2.9-12.3c0.8-5.1,0.9-10.4,3.7-15.1c1.3-2.1,2.6-3.9,4.9-4.7c2.6-0.9,4.9-2.4,7.6-3.1
			c4-1,7.3-3.7,10.5-6.1c6-4.7,12.2-9,18.7-12.8c0.6-0.3,1.2-0.7,1.8-1l0,0c4.8-2.7,9.8-5.1,14.2-8.3c3.6-2.6,7.3-5.2,10.9-7.8
			c3.1-2.2,6.3-4.1,9.6-5.9c1.7-0.9,3.2-2.2,5-3.2c2.8-1.5,5.7-3.6,8.7-4.1c2.5-0.4,3.7-2.7,6.3-2.8c1.8-0.1,3.7-1.9,5.4-3.2
			c4.5-3.6,9.8-6,14.4-9.4c2.9-2.1,6-4.1,8.9-6.2c5.4-4,10.8-7.9,16.9-11c4-2,7.3-5,11.1-7.3c4.9-2.9,9.4-6.5,14.5-9
			c3-1.5,6.1-3.2,8.1-6.3c0,0,0,0,0.1,0.1c0.3-0.2,0.6-0.5,0.8-0.7c-0.1-0.1-0.2-0.2-0.3-0.3L187.4,441.2z M158.6,472.9
			c0-0.7,0-1.4,0-2.9c-4.7,1.6-8.6,3.6-12.1,6.1c-2.4,1.7-4.7,3.6-7.2,5.1c-4.8,2.9-4.8,2.8-8.7,8
			C141.4,485.4,149.8,478.7,158.6,472.9z M113.1,500c-0.1-0.5-0.2-0.9-0.3-1.7c-3.6,1.6-3.6,1.6-6,4.9
			C109.2,501.9,111.2,500.9,113.1,500z M100,533.8c-0.1-0.2-0.1-0.5-0.2-0.7c-1.2,0.2-2.3,0.4-3.5,0.6c-1.8,0.3-3.6,0.6-5.7,0.9
			c0,0,0-0.1,0.1-0.1c-0.1-0.1-0.1-0.1-0.2-0.2c0,0,0,0,0,0c-0.1,0.1-0.2,0.2-0.4,0.3c0,0-0.1,0-0.1,0c1.3-1.2,2.4-2.2,3.4-3
			c0.4-0.3,0.7-0.5,1.1-0.8c1.5-1.1,3.5-1.6,4-3.9c-2.7,0.8-5.2,1.5-8.9,2.6c2.6-2.6,4.3-4.3,6.9-6.9c-2.1,0.3-3.1,0.3-3.9,0.7
			c-2.2,1-4.3,2.3-6.4,3.4c-1.6,0.8-3.7,0.9-4.9,2c-3.6,3.5-8.1,5.7-12.2,8.3c-0.4,0.2-0.4,1.1-0.6,1.9c2.2-0.8,4-2.1,5.7-1.9
			c2.1,0.2,3.7-2.5,5.9-0.7c-3.2,2.5-6.3,4.9-9.3,7.3c2.3,0.3,4.2,0.1,5.9-0.7c1.8-0.8,3.2-2.6,5.7-1.5c-1.7,1.7-2.9,3.8-4.6,4.6
			c-2.1,1-3.1,2.7-5.4,4.6c1.6,0,2.4,0.1,2.9-0.1c2.5-1,5.2-2,7.5-3.3c1.9-1,4.2-2.3,4.9-4.1c1.1-2.6,3.4-3.6,5.3-5.1
			C95.1,536.3,97.7,535.2,100,533.8z M95.6,510.3c0.3-0.2,0.5-0.5,0.8-0.7c-0.1-0.1-0.2-0.2-0.3-0.3c-0.1,0.1-0.1,0.1-0.2,0.2
			c-0.2,0.2-0.3,0.4-0.5,0.6c0,0,0,0,0,0c-5.5,2.4-11,4.7-16.4,7.1c-7.7,3.5-13.9,9.3-20.7,14.1c-1.3,0.9-2.2,2.7-2.2,4.9
			c4.8-2.9,9.3-5.5,13.6-8.3c4.3-2.9,8.9-5.3,13.4-8c1.1-0.7,2.2-1.4,3.2-2.2c3.2-2.3,6.2-4.8,9.3-7.2
			C95.6,510.4,95.6,510.4,95.6,510.3z M45.8,545.4c-0.2-1.1-0.3-2-0.5-3.3c-1.9,1.3-3.3,2.4-4.9,3.2c-2.3,1.1-4.9,1.7-7.2,2.8
			c-0.9,0.4-1.6,1.4-2.4,2.2c0.2,0.3,0.5,0.6,0.7,0.9C36.4,549.7,41.4,548.3,45.8,545.4z M29.1,580.4c1.8-4.2,3.9-8.3,3.4-13
			c-3.5-5.9-5.3-7.8-9.8-10.6c1.6,3.6,3.2,6.9,4.6,10c-1.8,3.5-1.2,6.7,0,9.5c-0.1,0.3-0.2,0.6-0.3,0.9c-0.6,2-1.2,3.7-1.7,5.3
			c0,0,0,0.1,0,0.1c-0.3,0.2-0.5,0.5-0.8,0.7c0.1,0.1,0.2,0.2,0.3,0.3c0.2-0.3,0.5-0.6,0.7-0.9c0-0.1,0-0.1,0-0.2
			C27.6,583.1,28.6,581.5,29.1,580.4z"/>
		<path id="XMLID_138_" class="st6" d="M190.3,308.1c0.7,6-3.2,9-6,12.8c0,0.5,0,1.2,0,1.8c-1.3,1.4-2.7,2.8-4.3,4.5
			c0.4,3,0.9,6.2,1.4,9.8c-3.5-0.5-3.8-3.6-5.2-5.5c-1.5-2-2.7-4.2-2.1-7.2c-1.9,1.8-3.1,5-3.7,9.3c-1.9-3.9-3.5-7.1-2.5-10.8
			c0.9-3.2,2.6-6.2,3.8-9.3c1-0.7,1.9-1.3,2.8-2c1.7-1.3,2.9-3.2,4.9-4.3c1.5-0.8,2.1-3.2,3.1-4.8c1.8,1.4,2.1,3.1,0.9,5.2
			c-0.8,1.5-1.2,3.1-1.6,5.1c-0.2,0.2-0.5,0.4-0.8,0.7c0.1,0.1,0.2,0.2,0.3,0.3c0.1-0.1,0.1-0.1,0.1-0.2c0.2-0.2,0.3-0.4,0.5-0.6
			c1.8-0.5,3.4-0.7,4.7-1.5C188,310.9,188.9,309.6,190.3,308.1z"/>
		<path id="XMLID_137_" class="st11" d="M188.3,526.6c-0.2,0.6-0.4,1.1-0.6,1.7C187.9,527.7,188.1,527.2,188.3,526.6z"/>
		<path id="XMLID_136_" class="st11" d="M186.1,538c0,0.1,0,0.1,0,0.2C186,538.1,186,538,186.1,538C186,538,186,538,186.1,538z"/>
		<path id="XMLID_135_" class="st11" d="M186.1,538.1c-0.2,0.2-0.4,0.4-0.5,0.7c0.2-0.2,0.3-0.5,0.4-0.7
			C186,538,186,538,186.1,538.1C186,538,186,538.1,186.1,538.1z"/>
		<path id="XMLID_134_" class="st11" d="M187.7,528.3c-1,3.1-1.8,6.3-1.7,9.7c0,0-0.1,0-0.1,0.1l0,0
			C185.8,534.6,186.7,531.4,187.7,528.3z"/>
		<path id="XMLID_133_" class="st11" d="M186,538C186,538,186,538,186,538L186,538L186,538z"/>
		<path id="XMLID_132_" class="st11" d="M185.9,537.9C185.9,537.9,185.9,538,185.9,537.9l0.1,0.1c-0.1,0.3-0.3,0.5-0.4,0.7
			c-0.1,0.1-0.1,0.1-0.2,0.2c-0.1-0.1-0.2-0.2-0.3-0.3C185.3,538.4,185.6,538.2,185.9,537.9z"/>
		<path id="XMLID_131_" class="st11" d="M185.3,443.1c-0.3,0.3-0.6,0.5-0.8,0.7c0,0,0,0-0.1-0.1c0,0,0-0.1,0.1-0.1
			c0-0.3,0.1-0.5,0.3-0.7c0.1-0.1,0.1-0.1,0.2-0.2C185.1,442.9,185.2,443,185.3,443.1z"/>
		<path id="XMLID_130_" class="st11" d="M184.2,443.7c0.2-0.2,0.4-0.4,0.5-0.7c-0.2,0.2-0.3,0.4-0.3,0.7
			C184.4,443.7,184.3,443.7,184.2,443.7C184.3,443.7,184.2,443.7,184.2,443.7z"/>
		<path id="XMLID_129_" class="st11" d="M184.4,443.7C184.4,443.8,184.4,443.8,184.4,443.7C184.3,443.8,184.3,443.7,184.4,443.7z"/>
		<path id="XMLID_128_" class="st11" d="M184.3,443.7c0.1,0,0.1,0,0.2,0c-0.1,0-0.1,0.1-0.1,0.1
			C184.4,443.8,184.3,443.8,184.3,443.7z"/>
		<path id="XMLID_127_" class="st6" d="M182.2,313c0,0-0.1,0.1-0.1,0.1c-0.1,0-0.2,0-0.2,0.1c0.3-0.3,0.2-0.3,0.1-0.4
			C182.1,312.9,182.1,312.9,182.2,313z"/>
		<path id="XMLID_126_" class="st6" d="M182.1,313.1c-0.2,0.2-0.3,0.4-0.5,0.6c0.2-0.2,0.3-0.4,0.2-0.5l0,0
			C181.9,313.2,182,313.1,182.1,313.1z"/>
		<path id="XMLID_125_" class="st6" d="M182,312.8c0.1,0.1,0.1,0.1-0.1,0.4l0,0C181.8,313.1,181.9,313,182,312.8
			C181.9,312.8,181.9,312.8,182,312.8z"/>
		<path id="XMLID_124_" class="st6" d="M181.9,312.9c0,0.1,0,0.2-0.1,0.3c0.1,0.1,0,0.3-0.2,0.5c0,0.1-0.1,0.1-0.1,0.2
			c-0.1-0.1-0.2-0.2-0.3-0.3C181.4,313.3,181.6,313.1,181.9,312.9z"/>
		<path id="XMLID_123_" class="st11" d="M173.3,503.2c1.4,3.6-0.4,6.4-1.9,8.5c-2.6,3.8-3.9,8.3-6.6,12c-2.7,3.6-4,8.1-6.3,12
			c-2.9,5.1-5.5,10.3-8,15.6c-0.2,0.4-0.5,0.9-0.8,1.2c-2.8,2.4-3.9,5.6-5.5,8.8c-1.7,3.5-3.9,6.9-6.5,9.9c-4,4.7-7,10-9.7,15.4
			c-0.5,1-1.7,1.8-2.5,2.7c-0.3-0.1-0.5-0.3-0.8-0.4c0.4-1.7,0.4-3.7,1.3-5.1c2.2-3.4,4-7.2,6.2-10.5c2.4-3.6,4.4-7.3,6.9-10.9
			c2-2.8,3.6-5.8,4.3-9.4c2.8-3.8,6-7.6,7-12.6c4.6-6.7,6.9-14.7,11.5-21.4c3.2-4.6,6.4-9.3,9.3-14
			C171.5,504.3,172.4,503.9,173.3,503.2z"/>
		<path id="XMLID_122_" class="st11" d="M173.7,439.2c-0.2,0.1-0.3,0.3-0.5,0.5c-0.1-0.3-0.1-0.5,0.1-0.7c0,0,0.1-0.1,0.1-0.1
			C173.5,438.9,173.6,439,173.7,439.2z"/>
		<path id="XMLID_121_" class="st11" d="M172.6,439.7c0.2-0.2,0.4-0.5,0.6-0.7c-0.1,0.2-0.2,0.4-0.1,0.7c-0.1,0.1-0.2,0.2-0.3,0.3
			C172.8,439.8,172.7,439.8,172.6,439.7z"/>
		<path id="XMLID_120_" class="st11" d="M173.2,439.6c0.1,0.1,0.2,0.3,0.3,0.4c-0.4-0.1-0.8-0.2-1.1-0.2c0.1-0.1,0.2-0.1,0.3-0.2
			c0.1,0.1,0.1,0.1,0.2,0.2C173,439.8,173.1,439.7,173.2,439.6z"/>
		<path id="XMLID_119_" class="st6" d="M172.7,386.8c0.9,0.9,1.8,1.9,3.3,3.6c-4.3-0.1-7-1.8-10.3-3.3c0.4,1.6,0.7,2.8,1,3.9
			c1.4,1.8,2.8,3.6,4.2,5.4c-3.7-0.8-7.6-1.5-9.9-4.6c-2-2.7-3.9-5.5-5.1-8.8c-1-2.5-2-5.1-2.9-7.5c0.3-1.5,0.6-2.9,0.7-4.4
			c0.1-1.6,0-3.1-0.1-4.7c0-1.5-0.1-3.1-0.1-4.7c3.1,1.1,3.4,4,4.8,6.1c1.3-1.8,2.7-3.6,4.6-6.2c0.1,2.9,0,4.8,0.1,6.7
			c0.1,2.2,0.6,4.6,2.1,5.9c1.9,1.6,1.6,4,3.3,5.5C168.5,382.9,170.7,384.7,172.7,386.8z"/>
		<path id="XMLID_118_" class="st11" d="M172.3,439.9c0.4,0,0.7,0.1,1.1,0.2c-6.4,3.1-12.4,6-18.3,8.9
			C161,446.1,166.7,443.2,172.3,439.9z"/>
		<path id="XMLID_117_" class="st11" d="M166.9,441c1.6-0.8,3.2-1.4,5.4-1.1c-5.6,3.3-11.4,6.2-17.2,9.1c-2,1-4,1.9-6,2.9
			c-0.2-1.5,0.8-1.9,1.6-2.3c2.7-1.5,5.4-3,8.1-4.4C161.5,443.8,164.2,442.4,166.9,441z"/>
		<path id="XMLID_116_" class="st11" d="M159.4,547.3c0.5,1.1,0.6,1.3,0.6,1.4c-1.3,3.3-2.5,6.6-4,9.8c-2.9,5.8-5.5,11.8-9.3,17
			c-2.5,3.5-4.4,7.5-7.6,10.5c-0.5,0.5-1.3,0.8-2.6,1.6c0.2-1.4,0.2-2,0.5-2.5c0.9-2.2,2.4-4.1,3.3-6.4c0.8-2,3.1-3.4,4.2-5.6
			c1.4-2.8,3-5.4,4.6-8c2.4-4.1,4.2-8.5,7.5-12.1C157.7,551.6,158.3,549.5,159.4,547.3z"/>
		<path id="XMLID_115_" class="st11" d="M158.6,470c0,1.5,0,2.2,0,2.9c-8.8,5.8-17.2,12.5-28.1,16.3c3.8-5.2,3.9-5.1,8.7-8
			c2.5-1.5,4.8-3.4,7.2-5.1C150,473.5,153.9,471.5,158.6,470z"/>
		<path id="XMLID_114_" class="st6" d="M158.3,278.7c0,2,0.1,3.5,0.1,5.1c-1.7,0-3.2,0.1-4.7,0.1c-0.5-1-1-2-1.8-3.5
			c1.1-0.6,2.3-1.3,3.5-1.9c-0.2-0.4-0.4-0.7-0.6-1.1C156.1,277.9,157.3,278.3,158.3,278.7z"/>
		<path id="XMLID_113_" class="st11" d="M141.4,641.5c0.6,3.7,0.9,7.7-0.5,11.6c-1,2.9-2.6,5-4.5,7c-3.3,0.9-6.5,1.8-9.8,2.7
			c-0.1-0.3-0.3-0.5-0.4-0.8c3.2-2,6.4-4,8.4-5.3c2.8-6.5,0.7-11.5-0.6-17c-0.7-0.6-1.7-2.1-2.8-2.2c-3.7-0.3-4.8-3-5.4-5.6
			c-1.2-5.3-4.5-8.9-8.3-12.2c-0.5-0.4-1.1-0.6-1.7-0.9c-1.2-0.6-2.3-1.1-3.8-1.9c-2.2-0.3-4.9-0.9-7.5-1.1c-2.7-0.2-5.5,0-8.2,0.1
			c1.3-1.6,2.8-2.8,4.5-3.1c2.1-0.4,4.2-0.8,6.3-1.2c4.8-0.7,9.5,0.7,13.9,2.8c0.6,0.3,1.3,0.5,1.7,0.9c4.6,4.5,9.7,8.5,12.5,14.6
			c0.3,0.7,0.9,1.5,1.5,1.9C140.3,634.2,140.9,638.1,141.4,641.5z"/>
		<path id="XMLID_112_" class="st11" d="M137.3,457.2c-0.1,0.7-0.1,1.6-0.5,2c-2.8,3.1-6.5,5-10.4,6.3c-2.8,0.9-5.6,1.5-8.1,3.2
			c-0.9,0.6-2.2,0.8-3.3-1.3c3.4-1,6.2-2.1,8.7-4.2c2.4-2,5.5-2.7,7.9-4.9C132.9,457.5,135.1,457.7,137.3,457.2z"/>
		<path id="XMLID_111_" class="st11" d="M132.5,594.8c-0.4,1.5-0.8,2.9-1.4,4.8c-0.4,0.4-1.3,1.2-2.4,2.3c-1-3.3,1.5-5.1,2.3-7.5
			C131.5,594.5,131.9,594.6,132.5,594.8z"/>
		<path id="XMLID_110_" class="st6" d="M127.3,317c3.5,3.6,5.4,7.7,4.7,12.8c-1.2,1.7-1.7,4.2-4.6,5.1c-1-1.9-0.3-4-0.6-5.5
			c-0.6-1.1-0.9-1.8-1.4-2.8c-1.7-0.7-3.7-1.4-5.5-2.3c-2.2-1.2-4.5-2.3-5.2-5c-0.1-0.3-0.5-0.5-0.6-0.8c-0.5-6.1-0.2-12.1,2.8-17.6
			c1-1.8,5.5-3.7,9-3.9c1,2.5,0,4.5-1,6c-1.9,2.8-2.1,5.4-0.6,8.3C125.4,313.2,125.9,315.5,127.3,317z"/>
		<path id="XMLID_109_" class="st11" d="M120.1,597.5c-0.6,1.8-0.7,3.3-1.5,4.2c-2,2.4-2.9,6-6.8,6.3
			C113.3,603.6,116.4,599.5,120.1,597.5z"/>
		<path id="XMLID_108_" class="st11" d="M112.8,498.3c0.1,0.8,0.2,1.1,0.3,1.7c-1.9,0.9-3.8,1.9-6.3,3.2
			C109.1,499.9,109.1,499.9,112.8,498.3z"/>
		<path id="XMLID_107_" class="st11" d="M98.5,474.7c2.3-1.5,5-3.6,8.5-2c-2,3.1-5,5.2-8.2,7.1c-2.5,1.5-5.1,2.9-7.6,4.3
			c-2.8,1.6-5.5,3.5-8.2,5.4c-2.9,2-6,3.3-9.8,3.3c-0.8-2.9,0.9-4.5,2.4-5.1c3.5-1.4,6.3-4.1,9.7-5.5
			C90.2,480.3,94.3,477.5,98.5,474.7z"/>
		<path id="XMLID_106_" class="st11" d="M99.8,533.2c0.1,0.2,0.1,0.4,0.2,0.7c-2.3,1.3-4.9,2.4-7,4.1c-1.9,1.5-4.1,2.4-5.3,5.1
			c-0.8,1.8-3.1,3-4.9,4.1c-2.4,1.3-5,2.3-7.5,3.3c-0.6,0.2-1.3,0.1-2.9,0.1c2.3-1.8,3.3-3.6,5.4-4.6c1.8-0.8,3-2.9,4.6-4.6
			c-2.5-1-3.9,0.8-5.7,1.5c-1.7,0.8-3.7,1-5.9,0.7c3.1-2.4,6.1-4.8,9.3-7.3c-2.2-1.8-3.8,0.9-5.9,0.7c-1.7-0.1-3.5,1.1-5.7,1.9
			c0.2-0.8,0.2-1.7,0.6-1.9c4.2-2.6,8.6-4.8,12.2-8.3c1.2-1.1,3.3-1.3,4.9-2c2.2-1.1,4.3-2.3,6.4-3.4c0.8-0.4,1.8-0.3,3.9-0.7
			c-2.6,2.6-4.3,4.4-6.9,6.9c3.6-1,6.2-1.8,8.9-2.6c-0.5,2.4-2.5,2.8-4,3.9c-0.4,0.3-0.7,0.5-1.1,0.8c-1.1,0.8-2.3,1.8-4.1,3.2
			c0.2,0,0.5-0.1,0.7-0.1c-0.1,0.1-0.2,0.2-0.4,0.3c0.1,0.1,0.2,0.2,0.3,0.3c0.1-0.1,0.1-0.2,0.2-0.2c0.1-0.2,0.3-0.3,0.4-0.5
			c2.2-0.3,4-0.6,5.7-0.9C97.5,533.5,98.7,533.4,99.8,533.2z"/>
		<path id="XMLID_105_" class="st11" d="M100.8,612.9c-1.6,0.3-3.1,1.4-4.5,3.1c-0.1,0-0.1,0-0.2,0l0,0c-0.1-0.3-0.1-0.5-0.1-0.8
			C97.6,614.4,99.1,613.2,100.8,612.9z"/>
		<path id="XMLID_104_" class="st11" d="M96.4,616C96.3,616.1,96.3,616.1,96.4,616c-0.1,0.1-0.1,0-0.2,0C96.2,616,96.3,616,96.4,616
			z"/>
		<path id="XMLID_103_" class="st11" d="M96.3,616.1c-0.2,0.3-0.4,0.5-0.6,0.8c0.1-0.2,0.3-0.4,0.3-0.9c0,0,0.1-0.1,0.1-0.1
			c0,0,0.1,0.1,0.1,0.1l0,0L96.3,616.1C96.2,616.1,96.3,616.1,96.3,616.1z"/>
		<polygon id="XMLID_102_" class="st11" points="96.2,616 96.2,616 96.2,616 		"/>
		<path id="XMLID_101_" class="st11" d="M96,615.2c0,0.3,0.1,0.5,0.1,0.8c0,0-0.1-0.1-0.1-0.1c0,0-0.1,0.1-0.1,0.1
			C96,615.8,96,615.5,96,615.2z"/>
		<path id="XMLID_100_" class="st11" d="M95.2,616.7c0.2-0.2,0.5-0.4,0.8-0.7c-0.1,0.5-0.2,0.7-0.3,0.9c0,0-0.1,0.1-0.1,0.1
			C95.5,616.9,95.4,616.8,95.2,616.7z"/>
		<path id="XMLID_99_" class="st11" d="M96.3,533.7c-1.7,0.3-3.6,0.6-5.7,0.9c0,0,0,0,0-0.1l0,0C92.7,534.3,94.5,534,96.3,533.7z"/>
		<path id="XMLID_98_" class="st11" d="M96.3,509.6c-0.3,0.2-0.5,0.5-0.8,0.7c0-0.4,0.1-0.6,0.3-0.8c0.1-0.1,0.1-0.1,0.2-0.2
			C96.1,509.4,96.2,509.5,96.3,509.6z"/>
		<path id="XMLID_97_" class="st11" d="M95.3,510.1c0.2-0.2,0.3-0.4,0.5-0.6c-0.1,0.2-0.3,0.4-0.3,0.8c0,0,0,0-0.1,0.1
			C95.4,510.3,95.4,510.2,95.3,510.1z"/>
		<path id="XMLID_96_" class="st11" d="M95.5,510.4C95.5,510.3,95.5,510.3,95.5,510.4C95.6,510.4,95.6,510.4,95.5,510.4
			C95.5,510.4,95.5,510.4,95.5,510.4z"/>
		<path id="XMLID_95_" class="st11" d="M95.5,510.4C95.5,510.4,95.5,510.4,95.5,510.4c-3.1,2.5-6.1,5-9.3,7.3
			c3.2-2.3,6.1-4.9,9.1-7.5C95.4,510.2,95.4,510.3,95.5,510.4z"/>
		<path id="XMLID_94_" class="st11" d="M95.3,510.1c0.1,0.1,0.1,0.2,0.2,0.3C95.4,510.3,95.4,510.2,95.3,510.1
			C95.3,510.1,95.3,510.1,95.3,510.1z"/>
		<path id="XMLID_89_" class="st11" d="M95.3,510.1C95.3,510.1,95.3,510.1,95.3,510.1c-3,2.6-5.9,5.3-9.1,7.5
			c-1.1,0.8-2.1,1.5-3.2,2.2c-4.4,2.7-9,5.1-13.4,8c-4.3,2.9-8.8,5.4-13.6,8.3c0-2.1,0.8-3.9,2.2-4.9c6.8-4.8,13-10.6,20.7-14.1
			C84.4,514.8,89.9,512.4,95.3,510.1C95.3,510.1,95.3,510.1,95.3,510.1z"/>
		<path id="XMLID_88_" class="st11" d="M89.3,534.9c1.8-1.4,3-2.3,4.1-3.2c-1.1,0.8-2.2,1.8-3.4,3c0,0,0,0,0,0c0,0,0,0-0.1,0
			C89.8,534.8,89.6,534.8,89.3,534.9z"/>
		<path id="XMLID_79_" class="st11" d="M90.7,534.5C90.7,534.5,90.6,534.6,90.7,534.5L90.7,534.5c-0.2,0.1-0.4,0.1-0.6,0.2
			c0,0,0,0,0,0c0.4-0.2,0.5-0.2,0.4-0.3C90.6,534.4,90.6,534.5,90.7,534.5z"/>
		<path id="XMLID_78_" class="st11" d="M90.6,534.6C90.6,534.6,90.6,534.6,90.6,534.6c-0.2,0.1-0.4,0.1-0.5,0.1c0,0,0,0-0.1,0
			c0,0,0,0,0,0C90.3,534.6,90.4,534.6,90.6,534.6z"/>
		<path id="XMLID_77_" class="st11" d="M90.6,534.7c-0.1,0.2-0.3,0.3-0.4,0.5c0.1-0.2,0.1-0.3-0.1-0.4
			C90.3,534.7,90.4,534.7,90.6,534.7z"/>
		<path id="XMLID_75_" class="st11" d="M90.5,534.4c0,0.1,0,0.1-0.4,0.3C90.2,534.5,90.4,534.4,90.5,534.4
			C90.5,534.3,90.5,534.3,90.5,534.4z"/>
		<path id="XMLID_73_" class="st11" d="M90.1,534.7c0.2,0.1,0.2,0.2,0.1,0.4c-0.1,0.1-0.1,0.2-0.2,0.2c-0.1-0.1-0.2-0.2-0.3-0.3
			c0.1-0.1,0.2-0.2,0.4-0.3C90,534.7,90.1,534.7,90.1,534.7z"/>
		<path id="XMLID_72_" class="st11" d="M90.1,534.7c0,0-0.1,0-0.1,0C90,534.7,90,534.7,90.1,534.7C90.1,534.7,90.1,534.7,90.1,534.7
			z"/>
		<path id="XMLID_71_" class="st11" d="M90.1,534.7C90.1,534.7,90.1,534.7,90.1,534.7C90,534.7,90,534.7,90.1,534.7
			C90,534.7,90.1,534.7,90.1,534.7z"/>
		<path id="XMLID_70_" class="st11" d="M90.1,534.7C90.1,534.7,90.1,534.7,90.1,534.7C90,534.7,90,534.7,90.1,534.7
			C90,534.7,90,534.7,90.1,534.7z"/>
		<path id="XMLID_69_" class="st11" d="M63.3,497.1c-1.4,1.5-2.3,2.4-3,3.1c-1.9,0.5-3.8,0.9-6.6,1.6
			C56.6,498.4,59.7,498.1,63.3,497.1z"/>
		<path id="XMLID_67_" class="st11" d="M45.3,542.1c0.2,1.3,0.3,2.2,0.5,3.3c-4.5,2.9-9.4,4.3-14.3,5.7c-0.2-0.3-0.5-0.6-0.7-0.9
			c0.8-0.7,1.4-1.7,2.4-2.2c2.3-1.1,4.9-1.7,7.2-2.8C42,544.5,43.4,543.3,45.3,542.1z"/>
		<path id="XMLID_63_" class="st11" d="M32.5,567.4c0.5,4.6-1.6,8.8-3.4,13c-0.5,1.1-1.5,2.7-3.5,2.2c0.3-1.8,0.8-3.5,1.4-5.4
			c0.1-0.3,0.2-0.6,0.3-0.9c-1.1-2.8-1.7-5.9,0-9.5c-1.4-3.1-3-6.4-4.6-10C27.2,559.6,29,561.5,32.5,567.4z"/>
		<path id="XMLID_61_" class="st11" d="M27,577.2c-0.6,1.9-1.1,3.6-1.4,5.4c-0.1,0-0.2,0-0.3-0.1C25.8,580.9,26.4,579.1,27,577.2z"
			/>
		<path id="XMLID_60_" class="st11" d="M25.6,582.6c0,0.1,0,0.1,0,0.2c-0.1-0.1-0.1-0.1-0.2-0.2c0,0,0,0,0,0c0,0,0-0.1,0-0.1
			C25.4,582.6,25.5,582.6,25.6,582.6z"/>
		<path id="XMLID_59_" class="st11" d="M25.5,582.8c-0.2,0.3-0.5,0.6-0.7,0.9c0.2-0.3,0.4-0.5,0.5-1c0,0,0,0,0,0
			C25.4,582.7,25.5,582.7,25.5,582.8z"/>
		<path id="XMLID_58_" class="st11" d="M24.5,583.3c0.3-0.2,0.5-0.5,0.8-0.7c0,0.5-0.2,0.8-0.5,1C24.7,583.5,24.6,583.4,24.5,583.3z
			"/>
	</g>
</g>
</svg>
