<?xml version="1.0" encoding="utf-8"?>
<!-- Generator: Adobe Illustrator 23.0.3, SVG Export Plug-In . SVG Version: 6.00 Build 0)  -->
<svg version="1.1" id="Layer_1" xmlns="http://www.w3.org/2000/svg" xmlns:xlink="http://www.w3.org/1999/xlink" x="0px" y="0px"
	 viewBox="0 0 1920 1080" style="enable-background:new 0 0 1920 1080;" xml:space="preserve">
<style type="text/css">
	.st0{fill:#FFFFFF;}
	.st1{fill:#A9DADC;}
	.st2{fill:#70CBD1;}
	.st3{fill:none;}
	.st4{fill:#FFEFCF;}
	.st5{fill:#EB5624;}
	.st6{fill:#EAC331;}
	.st7{fill:#424143;}
	.st8{fill:#C7842A;}
	.st9{opacity:0.41;}
	.st10{opacity:0.5;}
	.st11{fill:#868686;}
	.st12{fill:#FFEDC7;}
	.st13{fill:#BFAC8F;}
	.st14{fill:#F2F8EE;}
</style>
<rect class="st0" width="1900" height="1080"/>
<polygon class="st1" points="1929.4,1080 828.8,1080 722.8,756.2 7.3,1047.6 -9.7,1080 -9.7,-9 1929.4,-9 "/>
<g>
	<polygon class="st0" points="-9,1084.9 603.7,852 739.1,1084.9 1182.6,1084.9 1929.4,1084.9 1929.4,1006.9 1528,809.1 
		1439.3,834.7 1229.9,697.5 1089.1,748.4 966.4,606.5 680.1,675.4 593.4,661.2 383.8,765.2 225,713.2 -9,817.7 	"/>
	<g>
		<path id="XMLID_5238_" class="st2" d="M938.1,994.1c-9.1-1.4-15.1,3.6-15.3,14.3c1,0.7,2.9,3,5.2,3.3c9.2,1.3,15.4-3.7,15.1-12.3
			C943,997.5,940.1,994.4,938.1,994.1z"/>
		<path id="XMLID_5237_" class="st2" d="M997.4,903.7c2.1,0.3,4.5-0.9,6.7-1.4c-2-1.3-4.1-2.6-6-3.8c-3.4,1.1-5.6,1.7-7.8,2.4
			C992.7,901.9,995,903.4,997.4,903.7z"/>
		<path id="XMLID_5236_" class="st2" d="M1363.6,855.8c-1.7-1.8-3.3-3.8-5.3-5.2c-0.6-0.4-2.7,0.9-9.3,3.2c4.9,2,7.6,3.5,10.5,4.1
			C1360.6,858.1,1362.2,856.5,1363.6,855.8z"/>
		<path id="XMLID_5235_" class="st2" d="M1184.2,1032.5c7.7,4.1,10,2.6,10-8.3c-0.4-1-1-6.2-4.2-8.4c-5.4-3.7-12.3-6.1-18.9-7.9
			c-3.4-0.9-9.1,9.9-6.3,12C1170.9,1024.5,1177.4,1028.9,1184.2,1032.5z"/>
		<path id="XMLID_5233_" class="st2" d="M1638.1,981c10.6-2.8,13.9,6.9,21.3,9.3c5.1,1.7,10.4,4.4,15.6,4.3
			c12.3-0.2,20.9,5.2,30.9,10.4c15.4,8,32.9,12.8,49.5,19c0.3-0.7,0.6-1.4,0.9-2c2.5,0,5.4,0.6,7.6-0.2c1.7-0.6,3.1-2.8,3.8-4.5
			c0.4-1-0.7-3.1-1.8-3.6c-18.4-9.4-37.1-18.4-55.5-27.8c-9.8-5-19.1-10.1-31.4-9.2c-9.5,0.7-16-5.3-23.1-10.2
			c-9.7-6.8-19.8-2.9-21,7.7C1634.7,976.4,1637.8,981.1,1638.1,981z"/>
		<g>
			<g>
				<path id="XMLID_5223_" class="st2" d="M151.6,996.1c5.5-0.1,8.4,9.5,14.1,2.6c4.9-5.8,10-11,4.5-19.5
					c-6.1-9.4-16.9-12.6-26.2-17.5c-6.9-3.6-14.8,3.8-15.1,15.5c0.8,1.4,2,5.9,5.2,8.6C139.3,990,145.8,996.1,151.6,996.1z"/>
				<path id="XMLID_5222_" class="st2" d="M285.9,1005.8c2.3-2.8,5.6-5.3,6.5-8.4c0.4-1.3-4.6-3.7-8.4-6.5c-2.8,2.7-6.6,5.4-6.2,6
					C279.9,1000.1,283.1,1002.9,285.9,1005.8z"/>
				<g>
					<path id="XMLID_5221_" class="st2" d="M1.7,823.2c7.1-3.2,14.5-5.7,20.8-9.6c2.3-1.4,3.9-6.6,2.7-8.7c-1.5-2.7-4-8-10.6-2.4
						c-4.8,4.1-12.7,5.1-18.7,8.3c-2.4,1.2-3.3,4.6-4.9,7C-5.9,819.3-2.8,820.9,1.7,823.2z"/>
					<path id="XMLID_5220_" class="st2" d="M53.4,907c1.4,0.6,3.3,0.1,7.9,0.1c4-1.7,11.2-3.4,16.6-7.1c7.1-4.9,14.6-8.2,22.9-11.1
						c19.9-7.1,24.4-10.5,39.1-25.2c2.2-2.2,2.4-6,3.5-9.1c-4.7-1.3-9.4-3.5-14.1-3.5c-3.5,0-7.2,2.6-10.5,4.5
						c-17.3,9.9-37.6,14.9-54.4,25.4c-6.2,3.8-11.1,9.3-16.3,14.2c-1.9,1.8-3.3,4.2-4.9,6.3C46.6,903.2,49.9,905.4,53.4,907z"/>
					<path id="XMLID_5219_" class="st2" d="M162.2,807.8c6.3-6.2,13.9-3.2,20.9-4.3c1-0.2,2.5-2.3,2.4-3.3c-0.3-1.9-1.5-5.1-2.7-5.2
						c-4.9-0.6-10-0.3-15-0.3c-2.5,0-5.1-0.4-7.5,0.1c-6.1,1.2-11.3,4.5-10.1,10.1C151.4,811,160.8,809.2,162.2,807.8z"/>
					<path id="XMLID_5218_" class="st2" d="M279.1,880.2c19.7-7.2,42.3-9.6,56.5-25.9c1.8-2.1,2.5-5,3.7-7.6c-2.9-1-5.9-2-10.6-3.6
						c-6.4,2.7-13.9,5-20.5,8.6c-11.5,6.4-22.6,13.4-33.6,20.5c-1.5,0.9-2.4,4.3-1.6,5.8C273.7,879.3,277.5,880.8,279.1,880.2z"/>
					<path id="XMLID_5217_" class="st2" d="M538.6,790.6c9.1-2.3,18.2-4.8,27.1-7.7c1.9-0.6,3.1-3.1,5.1-5.3
						c-1.6-1.8-3.3-4.8-4.3-4.7c-10.9,1.7-22.5,2.5-31,9.9c-1.3,1.1-1.2,4-0.8,5.9C534.8,789.6,537.5,790.9,538.6,790.6z"/>
					<path id="XMLID_5216_" class="st2" d="M560.8,844.7c1.6,0.4,3.4,0.1,5.8,0.1c7.5,1.2,13.5-1.4,18.9-7
						c16-16.5,38.9-25.1,58.4-37.7c3.1-2,7.3-2.8,10.3-4.9c1.6-1.1,2.8-3.8,2.4-5.5c-0.3-1.4-3.3-3.1-5.1-3.2
						c-12.7-0.2-26-1.5-31.8,12.2c-13.7,4.1-20,17.6-36.6,19.9c-9.8,1.3-18.1,11.4-26.8,17.8c-1.5,1.1-2.4,4.3-1.6,5.8
						C555.4,843.7,558.6,844.2,560.8,844.7z"/>
					<path id="XMLID_5215_" class="st2" d="M675.2,1041c-2.3,13.3-1.1,14.9,11.4,14.3c7.9-0.3,23.9-12.1,24.3-18.8
						c0.2-3.1-1.6-7.1-4.1-9.4c-5.9-5.7-14.1-4.6-20.2-1.3c-4.3,2.3-15.4,1-11.4,10.8C675.7,1037.9,675.5,1039.6,675.2,1041z"/>
					<path id="XMLID_5214_" class="st2" d="M817.9,786.9c5.7-7.2,7.3-14.1,5.4-13.5c-4.4,1.3-8.4,3.9-12.3,6.2
						c-10.6,6.2-22.3,11.4-31.5,19c-11.3,9.3-20.5,20.6-30.5,31c-0.4,0.4-0.1,1.4-0.1,3.4c1,0.7,2.5,2.8,4.3,3
						c9.4,0.6,16.9-3,23.8-8.5c7.2-5.7,15.6-10.2,22.8-15.9c5.3-4.2,11.9-7.9,11.1-16.1C810.7,792.7,815.5,789.8,817.9,786.9z"/>
					<path id="XMLID_5213_" class="st2" d="M1071.2,864.3c2.8-1.6,4.7-2.1,5.3-3.2c0.7-1.2,0.9-3.5,0.1-4.3
						c-9.1-8.5-17.5-17.3-25.7-26.5c-7.7-8.7-20.2-14-30.6-21c-4.6-3.1-10.4-5.7-13.1-9.8c-12.9-19.4-32.1-32.9-52.3-45.6
						c-2.5-1.6-5.7-2.3-8.7-3.1c-1.6-0.4-3.4,0-5.1,0c0.2,1.6,0,3.3,0.5,4.7c3.5,10.5,14.1,15.9,21.4,23.7c1.1,1.2,1.2,4.6,0.1,5.8
						c-1.2,1.3-5.1,2.2-6.5,1.5c-11.6-6.2-23.3-11.5-36.7-14.6c-7-1.6-12.6-7.8-21.2-6.4c4.7,4.8,10,9.2,14,14.4
						c8.4,10.7,22.3,14.4,34.1,20.1c16.8,8.1,36,12.4,49,26c18.3,3.1,29.7,18.8,49.6,20c6,0.4,11.5,7.6,17.2,11.8
						C1065.6,860,1068.6,862.3,1071.2,864.3z"/>
					<path id="XMLID_5212_" class="st2" d="M1235.3,875c-2.1-1.3-5.7-0.9-8.6-1.3c-0.5,2.8-2.2,6.1-1.2,8.4
						c3.9,8.7,8.9,17.6,18.2,22.3c18.4,9.5,30.5,24.9,46.5,36.5c14.2,10.3,27.3,22.2,45.7,27.2c4.5,1.2,8.6,3.3,13,5
						c3.7-1.4,8.6-2.2,9-3.7c0.7-3.3,0.5-8.2-1.8-10.2c-12.8-11.4-24.1-24.4-40.8-31.9c-14.6-6.6-26.6-16.1-39.1-25.2
						C1263,892.4,1249.1,883.8,1235.3,875z"/>
					<path id="XMLID_5211_" class="st2" d="M936.1,598c-5.5,7.2-13.9,4-21,4.1c-14.9,0.2-28.2,4.7-41.9,9
						c-23.2,7.2-45.2,17.3-70.8,18.7c-8.3,0.4-18.1,3.5-26.4,9c-13.2,8.9-30,12-45.5,17.1c-5.9,2-13.4,1.7-18.1,4.8
						c-10,6.9-22.7,6.5-31,3.3c-10.1-3.9-19.4-2.7-29.1-3.5c-5.9-0.5-12.9,1.6-17.7-0.5c-7.9-3.5-14.9-10.4-24-8.4
						c-16.8,3.8-33.9,8-49.4,14.6c-30,12.7-59.1,26.9-88.2,41.1c-17.5,8.4-34.3,17.8-51.3,26.9c-6.2,3.4-8.8,11.9-17.7,11.3
						c-14.9-0.9-30,2.7-44.8-2.7c-21.9-7.9-44.1-15.2-66.2-22.4c-15.6-5.1-31-10.7-47-14.2c-22.5-4.9-45.5-2.6-62,12.2
						c-22.8,20.4-52.8,29.7-79,44.8c-2,1.1-4.3,1.8-6.5,2.5c-8.5,2.6-15.4,6.7-19.1,14.3c9.7-0.2,19.9,0.9,29.1-1.1
						c9.8-2.1,19.2-6.6,27.9-11.3c9.5-5.2,22.6-4.9,29.1-15.1c1.3-2.1,7.3-2.4,11.3-2.5c14.7-0.5,30.1,2.2,42.1-8.6
						c0.9-0.8,3.2-0.2,4.9-0.4c6.7-1,9.7,1.8,7.6,7.4c-5.3,14-7.3,15.9-29.2,28.6c-7.2,4.2-7.9,6.5-1.9,10.2
						c6.6,4.1,12.7,7,22.5,3.8c16.3-5.2,28.7-13.9,39.5-24.9c5.4-5.6,11.6-7.3,19.8-7.2c15.7,0.2,31.1,0.4,44.5,9
						c2.1,1.3,4.7,2.2,7.1,3.2c-2.5,2-4.6,5.2-7.5,5.9c-50.6,12.4-97.8,31.8-143.6,53.9c-2.8,1.3-5.8,2.3-8.5,3.7
						c-1.4,0.7-2.5,2.1-3.7,3.1c1.4,0.8,2.7,2.1,4.1,2.2c7.7,0.2,15.4,0.1,25.2,0.1c24.9,3.2,48.8-7.8,72.2-16.1
						c14.6-5.1,32.4-3.5,44.1-14.9c15.6,0.1,29.5-6.7,44-10.2c25.7-6.1,50.9-14.3,73.4-29c35.1-23,75.7-38.1,114.8-54.9
						c18.4-7.9,34.8-19.6,55.6-23.3c4.6-0.8,8.8-3.3,13.5-3.9c7.7-1,11.4,0.1,4.4,7.2c-2.1,2.2-0.2,7.3-0.4,11
						c-0.7,18.6-9.8,28.6-31.8,35.7c-2.9,0.9-5.4,4-8.2,4.2c-6,0.4-8,3.8-5.5,7c2.5,3.2,7.9,4.5,12,6.7c6.1-9.2,18.2-2.3,27.2-8.2
						c7.4-4.8,14.9-9.9,20.2-15.8c10.7-12,29.1-13.7,39.6-25.1c9.9,2.5,20,4.3,29.4,7.6c6.6,2.3,12.1,6.7,18.3,10.1
						c1.9,1.1,4.1,1.7,6.2,2.5c-2.2,0.7-4.5,1.3-6.7,2.1c-21.6,7.4-36.7,21.9-52.1,36.1c-1.6,1.6-1.6,5.1-1.1,7.5
						c0.2,0.8,4.8,1.8,6.7,1.2c21.1-7,45-3.1,65.5-13.1c12.4-6,26.4-9.5,38.6-15.8c16.6-8.6,32.1-18.8,48.2-28.3
						c20.7-12.3,42.1-23.7,61.7-37.2c10.2-6.9,18.6-16.6,25.5-26.3c7.1-10.1,17.6-15.2,28.7-20.2c4.9-2.2,9.5-5.4,14.7-6.9
						c5-1.4,8.7-5.9,16,0.8c24,22,43.7,46.3,61.2,72.5c17.5,26.4,32.6,54.3,59.2,75.4c5.3,4.2,8.4,10.5,12.9,15.5
						c7.6,8.5,15,17.4,23.6,25.1c8.1,7.1,17.2,13.7,26.7,19.1c11.4,6.4,22.6,13.5,37.7,12.6c5.9-0.3,12,2.2,17.9,3.4
						c-2.8-5.3-7.1-10.4-8.3-16c-2.4-11-11.4-17.3-19.2-24.6c-23.5-22.2-47-44.4-70.5-66.7c-0.8-0.8-1.1-2.1-1.7-3.1
						c1.5-0.5,3-1.3,4.5-1.3c5.1-0.2,10.3,0.4,15.4-0.1c18.8-1.8,33.8,3.5,46.4,16c5.1,5,13.2,7.8,20.2,11.1
						c13.6,6.4,27.3,12.1,38.2,22.5c9.6,9,23.9,11,37,13.4c7.9,1.4,13.6,1.9,17,9.9c2.5,5.8,9.2,10.3,14.6,14.8
						c2.1,1.7,5.8,2.1,8.9,2.7c1.5,0.3,3.2-0.3,4.8-0.5c-0.6-1.6-0.6-3.6-1.7-4.7c-13.3-12.2-25-26.1-38.7-37.3
						c-19.8-16.4-38.5-35.3-66.2-43.3c-8.1-2.3-14.7-8.6-21.8-13.3c-0.8-0.5-0.3-4.1,0.3-4.2c7.7-1.8,15.5-3.5,23.5-4.6
						c5.1-0.7,9.6-0.7,10,6.4c0.1,2.5,7.3,4.7,11.3,7c13.5,7.9,27.7,14.7,39.6,24.8c12.2,10.3,28.2,15.5,44,20.4
						c5.9,1.8,13.5,3.2,16.9,7.1c17.5,19.6,45.4,29.2,60.5,51.7c6.4,9.5,20.8,15.9,33.1,20.8c21.7,8.6,39.3,22.3,57.8,34.4
						c15.6,10.3,30.6,21.2,48.5,27.9c13.9,5.3,24.8,15.5,40.3,17.8c5.6,0.8,11.1,1.9,16.7,2.5c0.7,0.1,2.6-3.2,2.4-3.5
						c-14.5-12.4-29.3-24.6-43.9-37c-12.6-10.7-30.6-15.3-39.2-31.1c-5-9.1-15.8-16.6-29.1-18.7c-1.5-0.2-3.4-3.2-3.3-4.7
						c0.1-1.4,2.5-3.4,4.3-4c11.9-3.8,24.4-6.3,35.6-11.2c5.8-2.5,8-1.4,12.7,1.1c14.6,7.7,25.9,18.4,37.4,29
						c16.2,14.8,34.7,24,59,21.8c12.9-1.2,22.9,3.8,34,9.6c16.3,8.4,30.2,21.3,50.6,22.9c5,7.5,10.3-5,16.2,0.4
						c4.3,4,10.7,6.3,15.7,9.8c4,2.8,4.9,2.2,5.6-2c2.1-11.4-5.1-17.5-15.1-22.6c-38.5-19.5-76.5-39.7-117-55.9
						c-7.9-3.2-15-8.8-21.4-14.2c-13.6-11.6-28.4-21.6-44.6-30.3c-16-8.5-29.6-10.3-48.6-4.7c-19.6,5.8-38.7,12.4-56.2,22.2
						c-7.6,4.2-20,1.8-24.2-4.9c-9.3-15-20.7-27.8-39.3-34.5c-1.4-0.5-2.5-2-3.6-3.1c-15.4-16.7-34.8-27.5-58.4-33.7
						c-14.7-3.9-26.6-13.2-38.3-21.6c-13.9-10-32.1-14.3-43.7-27.4c-6.4-7.3-17.1-5-25.5-2.7c-14.3,3.9-27.9,9.6-42,13.9
						c-14.2,4.3-28.5,9-43.2,11.3c-10,1.6-19,3-26.6,9.2c-2.6,2.2-7.2,4.4-10.3,4c-4.4-0.7-8.9-3.3-12.3-6.1
						c-13.8-11.5-28.4-22.9-35.8-38.7c-8.5-18.2-24.4-31.6-36.7-47.4c-4.3-5.5-10.3-10.1-15.2-15.3c-4.6-4.7-9.4-9.3-13.1-14.5
						C970.2,594.5,952.8,597.5,936.1,598z"/>
					<path id="XMLID_5210_" class="st2" d="M1811.4,941.9c-3.6-1.9-12.1,3.6-19.4,6c2.2,3.2,2.8,5.7,4.6,6.5
						c23.1,10.3,46.2,20.7,69.8,30.1c8.5,3.4,18.3,4.7,27.7,5.8c3.1,0.4,7.1-2.8,10-5c0.5-0.4-1.6-4.4-3.4-6
						c-8.4-7.9-17-14.8-30.7-16.1c-8.1-0.8-17.2-4.6-23.1-9.6C1836.7,944.9,1822.6,947.7,1811.4,941.9z"/>
				</g>
				<path id="XMLID_5209_" class="st2" d="M229.7,1087.2c1.9,0.4,5.6-0.8,6.3-2.1c1.8-3.3,3.9-7.5,3.1-10.6
					c-1.3-4.5-6.8-8.4-7.5-12.8c-1.6-11.1-10.5-5.2-15.7-5.5c-8.4-0.4-3.8,6.3-5.2,9.9C210.8,1077.8,216.5,1084.4,229.7,1087.2z"/>
				<path id="XMLID_5208_" class="st2" d="M385,940.2c-1.2-1.5-5.6-3-6.9-2.2c-8.9,5-10.9,9-10.7,19.9c0.2,0.5,1,4,2,4.1
					c2.8,0.1,6.4-0.4,8.6-2C389,951.9,390.6,947.5,385,940.2z"/>
			</g>
			<path id="XMLID_5207_" class="st2" d="M1925,1027.9c-2.5-4.7-8.2-5.6-10.6-1.3c-3.9,6.7-6.9,13.9-8.3,17c0,6.9-1,9.7,0.2,11.2
				c1.6,1.8,5.7,4.1,7.3,3.5C1920.8,1055.2,1928.3,1034.2,1925,1027.9z"/>
		</g>
	</g>
</g>
<rect class="st3" width="1900" height="1080"/>
</svg>
