<?xml version="1.0" encoding="utf-8"?>
<!-- Generator: Adobe Illustrator 23.0.3, SVG Export Plug-In . SVG Version: 6.00 Build 0)  -->
<svg version="1.1" id="Layer_1" xmlns="http://www.w3.org/2000/svg" xmlns:xlink="http://www.w3.org/1999/xlink" x="0px" y="0px"
	 viewBox="0 0 1920 1080" style="enable-background:new 0 0 1920 1080;" xml:space="preserve">
<style type="text/css">
	.st0{fill:#FFFFFF;}
	.st1{fill:#A9DADC;}
	.st2{fill:#70CBD1;}
	.st3{fill:none;}
	.st4{fill:#FFEFCF;}
	.st5{fill:#EB5624;}
	.st6{fill:#EAC331;}
	.st7{fill:#424143;}
	.st8{fill:#C7842A;}
	.st9{opacity:0.41;}
	.st10{opacity:0.5;}
	.st11{fill:#868686;}
	.st12{fill:#FFEDC7;}
	.st13{fill:#BFAC8F;}
	.st14{fill:#F2F8EE;}
</style>
<g>
	<path class="st2" d="M1236.3,981.3l0,11.6c43.2-134.8,131.1-409,131.1-409S1281.6,844.2,1236.3,981.3z"/>
	<path class="st2" d="M1235.5,606.5l0,9.7c45.6-142.4,109.9-342.7,109.9-342.7S1282,465.5,1235.5,606.5z"/>
	<path class="st2" d="M1269.7,1045.6c-1,3-0.8,3.7-0.3,4c0.4,0.3,1,0.1,1.9-2.9c1-3,67.6-210.9,67.6-210.9
		S1270.6,1042.6,1269.7,1045.6z"/>
	<path class="st2" d="M1277.5,550.3c0.4,0.3,0.9,0.1,1.9-2.7c0.9-2.8,63.7-198.8,63.7-198.8s-64.4,194.9-65.3,197.7
		C1276.9,549.3,1277.1,550,1277.5,550.3z"/>
	<path class="st2" d="M1311,302.9c-0.9,2.8-0.7,3.5-0.2,3.8c0.5,0.3,1,0.1,1.9-2.7c0.9-2.8,64.1-198.8,64.1-198.8
		S1311.9,300.1,1311,302.9z"/>
	<path class="st2" d="M1352.2,520.9c0.4,0.3,0.9,0.1,1.9-2.7c0.9-2.8,63.7-198.8,63.7-198.8s-64.4,194.9-65.3,197.7
		C1351.6,519.9,1351.8,520.6,1352.2,520.9z"/>
	<path class="st2" d="M1336.5,971.2c0.3-0.9,20-64.4,20-64.4s-21.3,62.4-21.6,63.3c-0.3,0.9,0,1.3,0.5,1.6
		C1335.8,972,1336.2,972.1,1336.5,971.2z"/>
	<path class="st2" d="M1235.7,687.8l0,0.7c1.4-4.4,2.2-7.2,2.2-7.2S1237.1,683.8,1235.7,687.8z"/>
	<path class="st2" d="M1236.2,899.9v0.5c1-3.1,1.5-5,1.5-5S1237.1,897.1,1236.2,899.9z"/>
	<path class="st2" d="M1236,830.6l0,5.3c8.6-27.1,28.7-91,28.7-91S1245.6,801.9,1236,830.6z"/>
	<path class="st2" d="M1301.7,901c0.5-1.4,32.5-102.9,32.5-102.9s-33.6,100.4-34.1,101.8c-0.5,1.4-0.2,1.9,0.3,2.2
		C1300.8,902.4,1301.3,902.5,1301.7,901z"/>
	<path class="st2" d="M1364.2,792.5c0.8-2.4,53.6-167.5,53.6-167.5s-54.3,164.2-55.1,166.5c-0.8,2.4-0.6,2.9-0.2,3.2
		C1363,795,1363.4,794.9,1364.2,792.5z"/>
	<path class="st2" d="M1299,710.2c0,0-38.1,113.7-38.6,115.3c-0.5,1.6-0.2,2.2,0.3,2.5c0.5,0.3,1,0.4,1.5-1.3
		C1262.7,825.1,1299,710.2,1299,710.2z"/>
	<path class="st2" d="M1336.4,1062.5c-2.2,6.8-1.7,8.4-0.7,9.1c1,0.7,2.2,0.2,4.4-6.6c2.2-6.8,154.5-482,154.5-482
		S1338.7,1055.7,1336.4,1062.5z"/>
	<path class="st2" d="M1318.1,754.6c2.2-6.8,154.5-482,154.5-482s-156,472.7-158.2,479.5c-2.2,6.8-1.7,8.4-0.7,9.1
		C1314.7,761.9,1315.9,761.4,1318.1,754.6z"/>
	<path class="st2" d="M1477.7,718.8c1,0.7,2.2,0.2,4.4-6.6c2.2-6.8,154.5-482,154.5-482s-156,472.7-158.2,479.5
		C1476.2,716.5,1476.7,718.2,1477.7,718.8z"/>
	<path class="st2" d="M1426.2,597.9c1,0.7,2.2,0.2,4.4-6.6c2.2-6.8,154.5-482,154.5-482s-156,472.7-158.2,479.5
		C1424.7,595.6,1425.2,597.2,1426.2,597.9z"/>
	<path class="st2" d="M1418.8,783.2c2.2-6.8,154.5-482,154.5-482s-156,472.7-158.2,479.5c-2.2,6.8-1.7,8.4-0.7,9.1
		C1415.4,790.5,1416.6,790,1418.8,783.2z"/>
	<path class="st2" d="M1247.3,479.4c-1.8,5.5-1.8,7.6-1.2,8.6c-43,130.2-134.8,408.5-136.5,413.7c-2.2,6.8-1.7,8.4-0.7,9.1
		c1,0.7,2.2,0.2,4.4-6.6c1.7-5.2,91.3-284.8,133.3-415.7c0,0,0,0,0,0c1,0.7,2.2,0.2,4.4-6.6c2.2-6.8,154.5-482,154.5-482
		S1249.5,472.7,1247.3,479.4z"/>
	<path class="st2" d="M1651.4,716.1c2.2-6.8,154.5-482,154.5-482s-156,472.7-158.2,479.5c-2.2,6.8-1.7,8.4-0.7,9.1
		C1648,723.4,1649.2,722.9,1651.4,716.1z"/>
	<path class="st2" d="M1825.9,732.8c-2.2,6.8-1.7,8.4-0.7,9.1c1,0.7,2.2,0.2,4.4-6.6c1.2-3.7,48.3-150.6,90.2-281.3l0-5.8
		C1876.5,579.3,1827.1,729,1825.9,732.8z"/>
	<path class="st2" d="M1780.4,613.8c-2.2,6.8-1.7,8.4-0.7,9.1c1,0.7,2.2,0.2,4.4-6.6c1.7-5.3,96.8-302,136.9-427.2l0-1.6
		C1880.2,311.3,1782.1,608.4,1780.4,613.8z"/>
	<path class="st2" d="M1548.6,599.8c1,0.7,2.2,0.2,4.4-6.6c2.2-6.8,154.5-482,154.5-482s-156,472.7-158.2,479.5
		C1547.1,597.6,1547.5,599.2,1548.6,599.8z"/>
	<path class="st2" d="M1416,1014.5c-1,3-0.7,3.7-0.3,4c0.4,0.3,1,0.1,1.9-2.9c1-3,67.6-210.9,67.6-210.9S1417,1011.5,1416,1014.5z"
		/>
	<path class="st2" d="M1468.9,352c0,0-64.4,194.9-65.3,197.7c-0.7,2.3-0.7,3.1-0.5,3.5c-28.2,85.4-51.1,154.9-51.9,157.5
		c-2.2,6.8-1.7,8.4-0.7,9.1c0.4,0.2,0.7,0.3,1.1,0.1c-4.3,12.6-8,23.5-8.1,23.9c-0.3,0.9,0,1.3,0.5,1.6c0.5,0.3,0.9,0.4,1.2-0.5
		c0.2-0.5,5.8-18.6,11-35.5c14.7-45.8,153.3-478.1,153.3-478.1s-28.8,87.4-61.9,187.5C1459.3,382,1468.9,352,1468.9,352z"/>
	<path class="st2" d="M1263.6,874.7c1-3,67.6-210.9,67.6-210.9s-68.2,206.8-69.2,209.8c-1,3-0.8,3.7-0.3,4
		C1262.1,877.9,1262.6,877.7,1263.6,874.7z"/>
	<path class="st2" d="M1437.4,309.8c0.5,0.3,1,0.1,1.9-2.7c0.9-2.8,64.1-198.8,64.1-198.8s-64.8,194.9-65.7,197.7
		C1436.7,308.9,1436.9,309.5,1437.4,309.8z"/>
	<path class="st2" d="M1480,521.4c0.9-2.8,63.7-198.8,63.7-198.8s-64.4,194.9-65.3,197.7c-0.9,2.8-0.7,3.5-0.2,3.8
		C1478.6,524.4,1479.1,524.2,1480,521.4z"/>
	<path class="st2" d="M1343.8,959.4c0.4,0.3,0.9,0.4,1.1-0.5c0.3-0.9,20-64.4,20-64.4s-21.3,62.4-21.6,63.3
		C1343,958.7,1343.3,959.1,1343.8,959.4z"/>
	<path class="st2" d="M1357.8,845.9c-0.5,1.4-0.2,1.9,0.3,2.2c0.5,0.3,0.9,0.3,1.4-1.1c0.5-1.4,32.5-102.9,32.5-102.9
		S1358.3,844.4,1357.8,845.9z"/>
	<path class="st2" d="M1427.6,901.3c0.5,0.3,0.9,0.3,1.4-1.1c0.5-1.4,32.5-102.9,32.5-102.9s-33.6,100.4-34.1,101.8
		C1426.8,900.5,1427.1,900.9,1427.6,901.3z"/>
	<path class="st2" d="M1489.7,793.9c0.4,0.3,0.8,0.1,1.6-2.2c0.8-2.4,53.6-167.5,53.6-167.5s-54.3,164.2-55.1,166.5
		C1489.1,793,1489.3,793.6,1489.7,793.9z"/>
	<path class="st2" d="M1330.5,823.8c0.3-0.9,20-64.4,20-64.4s-21.3,62.4-21.6,63.3c-0.3,0.9,0,1.3,0.5,1.6
		C1329.8,824.6,1330.2,824.7,1330.5,823.8z"/>
	<path class="st2" d="M1274.7,921.8c0.5,0.3,1,0.4,1.5-1.3c0.5-1.6,36.8-116.6,36.8-116.6s-38.1,113.7-38.6,115.3
		C1273.8,920.9,1274.2,921.4,1274.7,921.8z"/>
	<path class="st2" d="M1389.4,825.9c0.5-1.6,36.8-116.6,36.8-116.6S1388,823,1387.5,824.7c-0.5,1.6-0.2,2.2,0.3,2.5
		C1388.3,827.5,1388.8,827.5,1389.4,825.9z"/>
	<path class="st2" d="M1557.6,1041.9c-2.2,6.8-1.7,8.4-0.7,9.1c1,0.7,2.2,0.2,4.4-6.6c2.2-6.8,154.5-482,154.5-482
		S1559.8,1035.1,1557.6,1041.9z"/>
	<path class="st2" d="M1535.6,731.5c-2.2,6.8-1.7,8.4-0.7,9.1c1,0.7,2.2,0.2,4.4-6.6c2.2-6.8,154.5-482,154.5-482
		S1537.8,724.8,1535.6,731.5z"/>
	<path class="st2" d="M1698.9,698.2c1,0.7,2.2,0.2,4.4-6.6c2.2-6.8,154.5-482,154.5-482s-156,472.7-158.2,479.5
		C1697.4,695.9,1697.9,697.5,1698.9,698.2z"/>
	<path class="st2" d="M1618,1024.1c-1,3-0.8,3.7-0.3,4c0.4,0.3,1,0.1,1.9-2.9c1-3,67.6-210.9,67.6-210.9S1619,1021.1,1618,1024.1z"
		/>
	<path class="st2" d="M1601.6,603.5c0.4,0.3,1,0.1,1.9-2.9c1-3,67.6-210.9,67.6-210.9s-68.2,206.8-69.2,209.8
		C1600.9,602.6,1601.1,603.2,1601.6,603.5z"/>
	<path class="st2" d="M1483.2,853c-1,3-0.8,3.7-0.3,4c0.4,0.3,1,0.1,1.9-2.9c1-3,67.6-210.9,67.6-210.9S1484.1,850,1483.2,853z"/>
	<path class="st2" d="M1641.4,342.7c-1,3-0.8,3.7-0.3,4c0.5,0.3,1,0.1,1.9-2.9c1-3,68-210.9,68-210.9S1642.4,339.7,1641.4,342.7z"/>
	<path class="st2" d="M1679.5,567.3c1-3,67.6-210.9,67.6-210.9s-68.2,206.8-69.2,209.8c-1,3-0.8,3.7-0.3,4
		C1678,570.5,1678.5,570.3,1679.5,567.3z"/>
	<path class="st2" d="M1683.7,950.2c0.4,0.3,0.9,0.4,1.1-0.5c0.3-0.9,20-64.4,20-64.4s-21.3,62.4-21.6,63.3
		C1683,949.5,1683.3,949.9,1683.7,950.2z"/>
	<path class="st2" d="M1564.7,723.1c-0.3,0.9,0,1.3,0.5,1.6c0.4,0.3,0.8,0.4,1.1-0.5c0.3-0.9,20-64.4,20-64.4
		S1565,722.2,1564.7,723.1z"/>
	<path class="st2" d="M1565,938.8c0.4,0.3,0.9,0.4,1.1-0.5c0.3-0.9,20-64.4,20-64.4s-21.3,62.4-21.6,63.3
		C1564.2,938.1,1564.5,938.5,1565,938.8z"/>
	<path class="st2" d="M1579,825.3c-0.5,1.4-0.2,1.9,0.3,2.2c0.5,0.3,0.9,0.3,1.4-1.1c0.5-1.4,32.5-102.9,32.5-102.9
		S1579.4,823.8,1579,825.3z"/>
	<path class="st2" d="M1648.8,880.6c0.5,0.3,0.9,0.3,1.4-1.1c0.5-1.4,32.5-102.9,32.5-102.9s-33.7,100.4-34.1,101.8
		C1648,879.9,1648.3,880.3,1648.8,880.6z"/>
	<path class="st2" d="M1766.1,603.5c0,0-54.3,164.2-55.1,166.5c-0.8,2.4-0.6,2.9-0.2,3.2c0.4,0.3,0.8,0.1,1.6-2.2
		C1713.3,768.7,1766.1,603.5,1766.1,603.5z"/>
	<path class="st2" d="M1550.5,803.7c0.4,0.3,0.9,0.4,1.1-0.5c0.3-0.9,20-64.4,20-64.4s-21.3,62.4-21.6,63.3
		C1549.8,803,1550.1,803.4,1550.5,803.7z"/>
	<path class="st2" d="M1495.9,901.2c0.5,0.3,1,0.4,1.5-1.3c0.5-1.6,36.8-116.6,36.8-116.6s-38.1,113.7-38.6,115.3
		C1495,900.3,1495.4,900.8,1495.9,901.2z"/>
	<path class="st2" d="M1610.6,805.3c0.5-1.6,36.8-116.6,36.8-116.6s-38.1,113.7-38.6,115.3c-0.5,1.6-0.2,2.2,0.3,2.5
		C1609.5,806.9,1610,806.9,1610.6,805.3z"/>
	<path class="st2" d="M1787.3,1050.9c-2.2,6.8-1.7,8.4-0.7,9.1c1,0.7,2.2,0.2,4.4-6.6c1.6-5,83.9-261.8,127.7-398.4l0-2.4
		C1874,787.9,1788.9,1045.9,1787.3,1050.9z"/>
	<path class="st2" d="M1765.2,740.6c-2.2,6.8-1.7,8.4-0.7,9.1c1,0.7,2.2,0.2,4.4-6.6c2-6.2,131-408.5,151.7-473.2l0-0.3
		C1899.6,333.3,1767.3,734.3,1765.2,740.6z"/>
	<path class="st2" d="M1847.7,1033.1c-1,3-0.7,3.7-0.3,4c0.4,0.3,1,0.1,1.9-2.9c1-3,67.6-210.9,67.6-210.9
		S1848.7,1030.1,1847.7,1033.1z"/>
	<path class="st2" d="M1851.3,553.9c0.9-2.8,63.7-198.8,63.7-198.8s-64.4,194.9-65.3,197.7c-0.9,2.8-0.7,3.5-0.2,3.8
		C1849.9,556.9,1850.4,556.7,1851.3,553.9z"/>
	<path class="st2" d="M1712.8,862c-1,3-0.8,3.7-0.3,4c0.4,0.3,1,0.1,1.9-2.9c1-3,67.6-210.9,67.6-210.9S1713.8,859,1712.8,862z"/>
	<path class="st2" d="M1886.4,309.2c-0.9,2.8-0.7,3.5-0.2,3.8c0.4,0.3,1,0.1,1.9-2.7c0.5-1.4,16.8-52.2,32.9-102.1l0-3
		C1904.2,255.6,1886.9,307.8,1886.4,309.2z"/>
	<path class="st2" d="M1912.9,957.6c-0.3,0.9,0,1.3,0.5,1.6c0.4,0.3,0.9,0.4,1.1-0.5c0.1-0.2,1.1-3.6,2.7-8.8l0-5.1
		C1914.8,952.1,1913,957.4,1912.9,957.6z"/>
	<path class="st2" d="M1794.4,732.1c-0.3,0.9,0,1.3,0.5,1.6c0.5,0.3,0.9,0.4,1.1-0.5c0.3-0.9,20-64.4,20-64.4
		S1794.7,731.2,1794.4,732.1z"/>
	<path class="st2" d="M1794.6,947.8c0.4,0.3,0.9,0.4,1.2-0.5c0.3-0.9,20-64.4,20-64.4s-21.3,62.4-21.6,63.3
		C1793.9,947.1,1794.2,947.5,1794.6,947.8z"/>
	<path class="st2" d="M1808.6,834.3c-0.5,1.4-0.2,1.9,0.3,2.2c0.5,0.3,0.9,0.3,1.4-1.1c0.5-1.4,32.5-102.9,32.5-102.9
		S1809.1,832.8,1808.6,834.3z"/>
	<path class="st2" d="M1779.7,811.1c-0.3,0.9,0,1.3,0.5,1.6c0.4,0.3,0.9,0.4,1.1-0.5c0.3-0.9,20-64.4,20-64.4
		S1780,810.2,1779.7,811.1z"/>
	<path class="st2" d="M1725.5,910.2c0.5,0.3,1,0.4,1.5-1.3c0.5-1.6,36.8-116.6,36.8-116.6s-38.1,113.7-38.6,115.3
		C1724.7,909.3,1725,909.8,1725.5,910.2z"/>
	<path class="st2" d="M1840.2,814.3c0.5-1.6,36.8-116.6,36.8-116.6s-38.1,113.7-38.6,115.3c-0.5,1.6-0.2,2.2,0.3,2.5
		C1839.2,815.9,1839.7,815.9,1840.2,814.3z"/>
	<path class="st2" d="M1897.8,1020.8c-4.8,14.8-3.8,18.3-1.5,19.7c2.2,1.5,4.8,0.4,9.6-14.4c0.5-1.5,4.5-14,11.2-35l0.1-29.3
		C1905.5,997.3,1898.4,1018.8,1897.8,1020.8z"/>
	<path class="st2" d="M1882.3,869.7c-1,3-0.8,3.7-0.3,4c0.3,0.2,0.5,0.2,0.9-0.4c-2.8,8.3-4.6,13.9-4.8,14.2
		c-0.5,1.4-0.2,1.9,0.3,2.2c0.5,0.3,0.9,0.3,1.4-1.1c0.5-1.4,32.5-102.9,32.5-102.9s-14,41.7-24,71.7c6.2-19.3,18.1-56.5,30-93.5
		l0-3C1900.7,813.8,1882.8,868.2,1882.3,869.7z"/>
	<path class="st2" d="M1894.7,915.3c-0.5,1.6-0.2,2.2,0.3,2.5c0.5,0.3,1,0.4,1.5-1.3c0.3-0.9,11.3-35.9,21.2-67.3l0-3
		C1907.2,878,1895,914.4,1894.7,915.3z"/>
	<path class="st2" d="M14.5,772l0,22.9C113.8,485.1,273.1-11.8,273.1-11.8S116.4,462.9,14.5,772z"/>
	<path class="st2" d="M14.9,987.1l0,11.6c43.2-134.8,131.1-409,131.1-409S60.2,850,14.9,987.1z"/>
	<path class="st2" d="M14.1,612.3l0,9.7C59.8,479.7,124,279.3,124,279.3S60.6,471.3,14.1,612.3z"/>
	<path class="st2" d="M48.3,1051.4c-1,3-0.8,3.7-0.3,4c0.4,0.3,1,0.1,1.9-2.9c1-3,67.6-210.9,67.6-210.9S49.2,1048.4,48.3,1051.4z"
		/>
	<path class="st2" d="M56.1,556c0.4,0.3,0.9,0.1,1.9-2.7c0.9-2.8,63.7-198.8,63.7-198.8S57.3,549.5,56.4,552.3
		C55.5,555.1,55.7,555.7,56.1,556z"/>
	<path class="st2" d="M89.3,312.4c0.4,0.3,1,0.1,1.9-2.7C92.1,307,155.3,111,155.3,111S90.5,305.9,89.6,308.7
		C88.7,311.5,88.9,312.1,89.3,312.4z"/>
	<path class="st2" d="M130.8,526.7c0.4,0.3,0.9,0.1,1.9-2.7c0.9-2.8,63.7-198.8,63.7-198.8S132,520.1,131.1,522.9
		C130.2,525.7,130.4,526.4,130.8,526.7z"/>
	<path class="st2" d="M115.1,977c0.3-0.9,20-64.4,20-64.4s-21.3,62.4-21.6,63.3c-0.3,0.9,0,1.3,0.5,1.6
		C114.4,977.8,114.8,977.9,115.1,977z"/>
	<path class="st2" d="M14.3,693.6l0,0.7c1.4-4.4,2.2-7.2,2.2-7.2S15.7,689.6,14.3,693.6z"/>
	<path class="st2" d="M14.8,905.7v0.5c1-3.1,1.5-5,1.5-5S15.7,902.8,14.8,905.7z"/>
	<path class="st2" d="M14.6,836.4l0,5.3c8.6-27.1,28.7-91,28.7-91S24.2,807.7,14.6,836.4z"/>
	<path class="st2" d="M80.3,906.8c0.5-1.4,32.5-102.9,32.5-102.9S79.2,904.3,78.7,905.7c-0.5,1.4-0.2,1.9,0.3,2.2
		C79.4,908.2,79.9,908.2,80.3,906.8z"/>
	<path class="st2" d="M142.8,798.3c0.8-2.4,53.6-167.5,53.6-167.5S142.1,795,141.3,797.3c-0.8,2.4-0.6,2.9-0.2,3.2
		C141.6,800.8,142,800.7,142.8,798.3z"/>
	<path class="st2" d="M77.6,716c0,0-38.1,113.7-38.6,115.3c-0.5,1.6-0.2,2.2,0.3,2.5c0.5,0.3,1,0.4,1.5-1.3
		C41.3,830.9,77.6,716,77.6,716z"/>
	<path class="st2" d="M115,1068.3c-2.2,6.8-1.7,8.4-0.7,9.1c1,0.7,2.2,0.2,4.4-6.6c2.2-6.8,154.5-482,154.5-482
		S117.2,1061.5,115,1068.3z"/>
	<path class="st2" d="M96.7,760.4c2.2-6.8,154.5-482,154.5-482S95.2,751.2,93,757.9c-2.2,6.8-1.7,8.4-0.7,9.1
		C93.3,767.7,94.5,767.2,96.7,760.4z"/>
	<path class="st2" d="M256.3,724.6c1,0.7,2.2,0.2,4.4-6.6c2.2-6.8,154.5-482,154.5-482S259.2,708.8,257,715.5
		C254.8,722.3,255.3,723.9,256.3,724.6z"/>
	<path class="st2" d="M204.8,603.7c1,0.7,2.2,0.2,4.4-6.6c2.2-6.8,154.5-482,154.5-482s-156,472.7-158.2,479.5
		C203.3,601.4,203.8,603,204.8,603.7z"/>
	<path class="st2" d="M197.4,789c2.2-6.8,154.5-482,154.5-482s-156,472.7-158.2,479.5c-2.2,6.8-1.7,8.4-0.7,9.1
		C194,796.3,195.2,795.8,197.4,789z"/>
	<path class="st2" d="M29.6,487.7c2.2-6.8,154.5-482,154.5-482S28.1,478.4,25.9,485.2c-2.2,6.8-1.7,8.4-0.7,9.1
		C26.2,495,27.4,494.5,29.6,487.7z"/>
	<path class="st2" d="M519.8,632.5c1,0.7,2.2,0.2,4.4-6.6c2.2-6.8,154.5-482,154.5-482s-156,472.7-158.2,479.5
		C518.3,630.2,518.8,631.8,519.8,632.5z"/>
	<path class="st2" d="M603.7,747.6c1,0.7,2.2,0.2,4.4-6.6c2.2-6.8,154.5-482,154.5-482s-156,472.7-158.2,479.5
		C602.2,745.4,602.7,747,603.7,747.6z"/>
	<path class="st2" d="M700.7,621.4c1,0.7,2.2,0.2,4.4-6.6c2.2-6.8,154.5-482,154.5-482s-156,472.7-158.2,479.5
		C699.2,619.1,699.7,620.7,700.7,621.4z"/>
	<path class="st2" d="M558.3,628.6c1,0.7,2.2,0.2,4.4-6.6c2.2-6.8,154.5-482,154.5-482S561.2,612.8,559,619.6
		C556.8,626.4,557.3,628,558.3,628.6z"/>
	<path class="st2" d="M327.2,605.6c1,0.7,2.2,0.2,4.4-6.6c2.2-6.8,154.5-482,154.5-482s-156,472.7-158.2,479.5
		C325.7,603.3,326.1,604.9,327.2,605.6z"/>
	<path class="st2" d="M919,757.2c1,0.7,2.2,0.2,4.4-6.6c2.2-6.8,154.5-482,154.5-482s-156,472.7-158.2,479.5
		C917.5,755,918,756.6,919,757.2z"/>
	<path class="st2" d="M980.8,737.2c2.2-6.8,154.5-482,154.5-482S979.3,728,977.1,734.7c-2.2,6.8-1.7,8.4-0.7,9.1
		C977.4,744.5,978.6,744,980.8,737.2z"/>
	<path class="st2" d="M868.9,619.1c1,0.7,2.2,0.2,4.4-6.6c2.2-6.8,154.5-482,154.5-482S871.8,603.2,869.6,610
		C867.4,616.8,867.9,618.4,868.9,619.1z"/>
	<path class="st2" d="M175.5,1050.5c-1,3-0.8,3.7-0.3,4c0.4,0.3,1,0.1,1.9-2.9c1-3,67.6-210.9,67.6-210.9S176.4,1047.5,175.5,1050.5
		z"/>
	<path class="st2" d="M247.5,357.7c0,0-64.4,194.9-65.3,197.7c-0.7,2.3-0.7,3.1-0.5,3.5c-28.2,85.4-51.1,154.9-51.9,157.5
		c-2.2,6.8-1.7,8.4-0.7,9.1c0.4,0.2,0.7,0.3,1.1,0.1c-4.3,12.6-8,23.5-8.1,23.9c-0.3,0.9,0,1.3,0.5,1.6c0.5,0.3,0.9,0.4,1.1-0.5
		c0.2-0.5,5.8-18.6,11-35.5C149.5,669.3,288,236.9,288,236.9s-28.8,87.4-61.9,187.5C237.9,387.8,247.5,357.7,247.5,357.7z"/>
	<path class="st2" d="M42.2,880.5c1-3,67.6-210.9,67.6-210.9S41.5,876.4,40.6,879.4c-1,3-0.8,3.7-0.3,4
		C40.7,883.7,41.2,883.4,42.2,880.5z"/>
	<path class="st2" d="M216,315.6c0.4,0.3,1,0.1,1.9-2.7c0.9-2.8,64.1-198.8,64.1-198.8S217.1,309,216.2,311.8
		C215.3,314.6,215.5,315.3,216,315.6z"/>
	<path class="st2" d="M258.6,527.2c0.9-2.8,63.7-198.8,63.7-198.8s-64.4,194.9-65.3,197.7c-0.9,2.8-0.7,3.5-0.2,3.8
		C257.2,530.2,257.7,530,258.6,527.2z"/>
	<path class="st2" d="M241.1,976.6c0.4,0.3,0.9,0.4,1.1-0.5c0.3-0.9,20-64.4,20-64.4s-21.3,62.4-21.6,63.3
		C240.4,975.9,240.7,976.3,241.1,976.6z"/>
	<path class="st2" d="M122.4,965.1c0.4,0.3,0.9,0.4,1.2-0.5c0.3-0.9,20-64.4,20-64.4s-21.3,62.4-21.6,63.3
		C121.6,964.5,121.9,964.8,122.4,965.1z"/>
	<path class="st2" d="M136.4,851.7c-0.5,1.4-0.2,1.9,0.3,2.2c0.5,0.3,0.9,0.3,1.4-1.1c0.5-1.4,32.5-102.9,32.5-102.9
		S136.9,850.2,136.4,851.7z"/>
	<path class="st2" d="M206.2,907c0.5,0.3,0.9,0.3,1.4-1.1C208,904.5,240,803,240,803s-33.6,100.4-34.1,101.8
		C205.4,906.3,205.7,906.7,206.2,907z"/>
	<path class="st2" d="M268.3,799.6c0.4,0.3,0.8,0.1,1.6-2.2c0.8-2.4,53.6-167.5,53.6-167.5s-54.3,164.2-55.1,166.5
		C267.7,798.8,267.9,799.4,268.3,799.6z"/>
	<path class="st2" d="M109.1,829.6c0.3-0.9,20-64.4,20-64.4s-21.3,62.4-21.6,63.3c-0.3,0.9,0,1.3,0.5,1.6
		C108.4,830.4,108.8,830.5,109.1,829.6z"/>
	<path class="st2" d="M53.3,927.6c0.5,0.3,1,0.4,1.5-1.3c0.5-1.6,36.8-116.6,36.8-116.6S53.5,923.4,53,925
		C52.4,926.7,52.8,927.2,53.3,927.6z"/>
	<path class="st2" d="M168,831.7c0.5-1.6,36.8-116.6,36.8-116.6s-38.1,113.7-38.6,115.3c-0.5,1.6-0.2,2.2,0.3,2.5
		C166.9,833.3,167.4,833.3,168,831.7z"/>
	<path class="st2" d="M336.2,1047.7c-2.2,6.8-1.7,8.4-0.7,9.1c1,0.7,2.2,0.2,4.4-6.6c2.2-6.8,154.5-482,154.5-482
		S338.4,1040.9,336.2,1047.7z"/>
	<path class="st2" d="M314.2,737.3c-2.2,6.8-1.7,8.4-0.7,9.1c1,0.7,2.2,0.2,4.4-6.6c2.2-6.8,154.5-482,154.5-482
		S316.4,730.5,314.2,737.3z"/>
	<path class="st2" d="M477.5,704c1,0.7,2.2,0.2,4.4-6.6c2.2-6.8,154.5-482,154.5-482s-156,472.7-158.2,479.5
		C476,701.7,476.5,703.3,477.5,704z"/>
	<path class="st2" d="M396.6,1029.9c-1,3-0.8,3.7-0.3,4c0.4,0.3,1,0.1,1.9-2.9c1-3,67.6-210.9,67.6-210.9S397.6,1026.9,396.6,1029.9
		z"/>
	<path class="st2" d="M380.2,609.3c0.4,0.3,1,0.1,1.9-2.9c1-3,67.6-210.9,67.6-210.9s-68.3,206.8-69.2,209.8
		C379.5,608.3,379.7,609,380.2,609.3z"/>
	<path class="st2" d="M261.8,858.8c-1,3-0.8,3.7-0.3,4c0.4,0.3,1,0.1,1.9-2.9c1-3,67.6-210.9,67.6-210.9S262.7,855.8,261.8,858.8z"
		/>
	<path class="st2" d="M420,348.5c-1,3-0.8,3.7-0.3,4c0.4,0.3,1,0.1,1.9-2.9s68-210.9,68-210.9S421,345.5,420,348.5z"/>
	<path class="st2" d="M458.1,573.1c1-3,67.6-210.9,67.6-210.9S457.5,569.1,456.5,572c-1,3-0.8,3.7-0.3,4
		C456.6,576.3,457.1,576.1,458.1,573.1z"/>
	<path class="st2" d="M462.3,956c0.4,0.3,0.9,0.4,1.1-0.5c0.3-0.9,20-64.4,20-64.4s-21.3,62.4-21.6,63.3
		C461.6,955.3,461.9,955.7,462.3,956z"/>
	<path class="st2" d="M343.3,728.9c-0.3,0.9,0,1.3,0.5,1.6c0.4,0.3,0.9,0.4,1.1-0.5c0.3-0.9,20-64.4,20-64.4S343.6,728,343.3,728.9z
		"/>
	<path class="st2" d="M343.6,944.5c0.4,0.3,0.9,0.4,1.2-0.5c0.3-0.9,20-64.4,20-64.4s-21.3,62.4-21.6,63.3
		C342.8,943.8,343.1,944.2,343.6,944.5z"/>
	<path class="st2" d="M357.6,831c-0.5,1.4-0.2,1.9,0.3,2.2c0.5,0.3,0.9,0.3,1.4-1.1c0.5-1.4,32.5-102.9,32.5-102.9
		S358,829.6,357.6,831z"/>
	<path class="st2" d="M427.3,886.4c0.5,0.3,0.9,0.3,1.4-1.1c0.5-1.4,32.5-102.9,32.5-102.9s-33.6,100.4-34.1,101.8
		C426.6,885.6,426.9,886.1,427.3,886.4z"/>
	<path class="st2" d="M544.7,609.3c0,0-54.3,164.2-55.1,166.5c-0.8,2.4-0.6,2.9-0.2,3.2c0.4,0.3,0.9,0.1,1.6-2.2
		C491.9,774.4,544.7,609.3,544.7,609.3z"/>
	<path class="st2" d="M329.1,809.5c0.4,0.3,0.9,0.4,1.1-0.5c0.3-0.9,20-64.4,20-64.4s-21.3,62.4-21.6,63.3
		C328.4,808.8,328.7,809.2,329.1,809.5z"/>
	<path class="st2" d="M274.5,906.9c0.5,0.3,1,0.4,1.5-1.3c0.5-1.6,36.8-116.6,36.8-116.6s-38.1,113.7-38.6,115.3
		C273.6,906.1,274,906.6,274.5,906.9z"/>
	<path class="st2" d="M389.2,811c0.5-1.6,36.8-116.6,36.8-116.6s-38.1,113.7-38.6,115.3c-0.5,1.6-0.2,2.2,0.3,2.5
		C388.1,812.7,388.6,812.7,389.2,811z"/>
	<path class="st2" d="M565.9,1056.7c-2.2,6.8-1.7,8.4-0.7,9.1c1,0.7,2.2,0.2,4.4-6.6c2.2-6.8,154.5-482,154.5-482
		S568.1,1049.9,565.9,1056.7z"/>
	<path class="st2" d="M543.8,746.3c-2.2,6.8-1.7,8.4-0.7,9.1c1,0.7,2.2,0.2,4.4-6.6c2.2-6.8,154.5-482,154.5-482
		S546,739.5,543.8,746.3z"/>
	<path class="st2" d="M707.2,713c1,0.7,2.2,0.2,4.4-6.6c2.2-6.8,154.5-482,154.5-482s-156,472.7-158.2,479.5
		C705.7,710.7,706.1,712.3,707.2,713z"/>
	<path class="st2" d="M626.3,1038.9c-1,3-0.8,3.7-0.3,4c0.4,0.3,1,0.1,1.9-2.9c1-3,67.6-210.9,67.6-210.9S627.3,1035.9,626.3,1038.9
		z"/>
	<path class="st2" d="M629.9,559.7c0.9-2.8,63.7-198.8,63.7-198.8s-64.4,194.9-65.3,197.7c-0.9,2.8-0.7,3.5-0.2,3.8
		C628.5,562.7,629,562.5,629.9,559.7z"/>
	<path class="st2" d="M491.4,867.8c-1,3-0.8,3.7-0.3,4c0.4,0.3,1,0.1,1.9-2.9c1-3,67.6-210.9,67.6-210.9S492.4,864.8,491.4,867.8z"
		/>
	<path class="st2" d="M664.8,318.8c0.4,0.3,1,0.1,1.9-2.7c0.9-2.8,64.1-198.8,64.1-198.8S665.9,312.2,665,315
		C664.1,317.8,664.3,318.5,664.8,318.8z"/>
	<path class="st2" d="M702.8,533c0.4,0.3,1,0.1,1.9-2.7c0.9-2.8,63.7-198.8,63.7-198.8S703.9,526.4,703,529.2
		C702.1,532,702.3,532.7,702.8,533z"/>
	<path class="st2" d="M693.1,964.5c0.3-0.9,20-64.4,20-64.4s-21.3,62.4-21.6,63.3c-0.3,0.9,0,1.3,0.5,1.6
		C692.4,965.3,692.8,965.4,693.1,964.5z"/>
	<path class="st2" d="M573,737.9c-0.3,0.9,0,1.3,0.5,1.6c0.4,0.3,0.9,0.4,1.1-0.5c0.3-0.9,20-64.4,20-64.4S573.3,737,573,737.9z"/>
	<path class="st2" d="M573.2,953.5c0.4,0.3,0.9,0.4,1.1-0.5c0.3-0.9,20-64.4,20-64.4s-21.3,62.4-21.6,63.3
		C572.5,952.9,572.8,953.2,573.2,953.5z"/>
	<path class="st2" d="M587.2,840.1c-0.5,1.4-0.2,1.9,0.3,2.2c0.5,0.3,0.9,0.3,1.4-1.1c0.5-1.4,32.5-102.9,32.5-102.9
		S587.7,838.6,587.2,840.1z"/>
	<path class="st2" d="M719.4,784.8c-0.8,2.4-0.6,2.9-0.2,3.2c0.4,0.3,0.8,0.1,1.6-2.2c0.8-2.4,53.6-167.5,53.6-167.5
		S720.1,782.5,719.4,784.8z"/>
	<path class="st2" d="M558.3,816.9c-0.3,0.9,0,1.3,0.5,1.6c0.4,0.3,0.9,0.4,1.1-0.5c0.3-0.9,20-64.4,20-64.4S558.6,816,558.3,816.9z
		"/>
	<path class="st2" d="M504.1,915.9c0.5,0.3,1,0.4,1.5-1.3c0.5-1.6,36.8-116.6,36.8-116.6s-38.1,113.7-38.6,115.3
		C503.3,915.1,503.6,915.6,504.1,915.9z"/>
	<path class="st2" d="M618.8,820.1c0.5-1.6,36.8-116.6,36.8-116.6S617.5,817.2,617,818.8c-0.5,1.6-0.2,2.2,0.3,2.5
		C617.8,821.7,618.3,821.7,618.8,820.1z"/>
	<path class="st2" d="M735.3,1064.4c-2.2,6.8-1.7,8.4-0.7,9.1c1,0.7,2.2,0.2,4.4-6.6c2.2-6.8,154.5-482,154.5-482
		S737.5,1057.6,735.3,1064.4z"/>
	<path class="st2" d="M713.3,754c-2.2,6.8-1.7,8.4-0.7,9.1c1,0.7,2.2,0.2,4.4-6.6c2.2-6.8,154.5-482,154.5-482
		S715.5,747.2,713.3,754z"/>
	<path class="st2" d="M795.7,1046.6c-1,3-0.8,3.7-0.3,4c0.4,0.3,1,0.1,1.9-2.9c1-3,67.6-210.9,67.6-210.9S796.7,1043.6,795.7,1046.6
		z"/>
	<path class="st2" d="M779.3,626c0.4,0.3,1,0.1,1.9-2.9c1-3,67.6-210.9,67.6-210.9S780.5,619.1,779.6,622
		C778.6,625,778.8,625.7,779.3,626z"/>
	<path class="st2" d="M660.9,875.5c-1,3-0.8,3.7-0.3,4c0.3,0.2,0.5,0.2,0.9-0.4c-2.8,8.3-4.6,13.9-4.8,14.2
		c-0.5,1.4-0.2,1.9,0.3,2.2c0.5,0.3,0.9,0.3,1.4-1.1c0.5-1.4,32.5-102.9,32.5-102.9s-14,41.7-24,71.7
		c14.9-46.5,63.3-197.4,63.3-197.4S661.8,872.5,660.9,875.5z"/>
	<path class="st2" d="M833.8,327.7c-0.9,2.8-0.7,3.5-0.2,3.8c0.5,0.3,1,0.1,1.9-2.7c0.9-2.8,64.1-198.8,64.1-198.8
		S834.8,324.9,833.8,327.7z"/>
	<path class="st2" d="M872.4,543c0.9-2.8,63.7-198.8,63.7-198.8s-64.4,194.9-65.3,197.7c-0.9,2.8-0.7,3.5-0.2,3.8
		C871,546,871.5,545.8,872.4,543z"/>
	<path class="st2" d="M861.4,972.7c0.4,0.3,0.9,0.4,1.1-0.5c0.3-0.9,20-64.4,20-64.4s-21.3,62.4-21.6,63.3
		C860.7,972,861,972.4,861.4,972.7z"/>
	<path class="st2" d="M742.4,745.6c-0.3,0.9,0,1.3,0.5,1.6c0.4,0.3,0.9,0.4,1.1-0.5c0.3-0.9,20-64.4,20-64.4
		S742.7,744.7,742.4,745.6z"/>
	<path class="st2" d="M742.7,961.2c0.4,0.3,0.9,0.4,1.1-0.5c0.3-0.9,20-64.4,20-64.4s-21.3,62.4-21.6,63.3
		C741.9,960.5,742.2,960.9,742.7,961.2z"/>
	<path class="st2" d="M756.7,847.7c-0.5,1.4-0.2,1.9,0.3,2.2c0.5,0.3,0.9,0.3,1.4-1.1c0.5-1.4,32.5-102.9,32.5-102.9
		S757.1,846.3,756.7,847.7z"/>
	<path class="st2" d="M890.2,793.5c0.8-2.4,53.6-167.5,53.6-167.5s-54.3,164.2-55.1,166.5c-0.8,2.4-0.6,2.9-0.2,3.2
		C889,796,889.5,795.8,890.2,793.5z"/>
	<path class="st2" d="M728.2,826.2c0.4,0.3,0.9,0.4,1.1-0.5c0.3-0.9,20-64.4,20-64.4s-21.3,62.4-21.6,63.3
		C727.5,825.5,727.8,825.9,728.2,826.2z"/>
	<path class="st2" d="M673.3,921.1c-0.5,1.6-0.2,2.2,0.3,2.5c0.5,0.3,1,0.4,1.5-1.3c0.5-1.6,36.8-116.6,36.8-116.6
		S673.8,919.5,673.3,921.1z"/>
	<path class="st2" d="M788.3,827.7c0.5-1.6,36.8-116.6,36.8-116.6s-38.1,113.7-38.6,115.3c-0.5,1.6-0.2,2.2,0.3,2.5
		C787.2,829.4,787.7,829.4,788.3,827.7z"/>
	<path class="st2" d="M887.2,1052.7c-2.2,6.8-1.7,8.4-0.7,9.1c1,0.7,2.2,0.2,4.4-6.6c2.2-6.8,154.5-482,154.5-482
		S889.4,1045.9,887.2,1052.7z"/>
	<path class="st2" d="M1028.5,709c1,0.7,2.2,0.2,4.4-6.6c2.2-6.8,154.5-482,154.5-482s-156,472.7-158.2,479.5
		C1027,706.7,1027.5,708.3,1028.5,709z"/>
	<path class="st2" d="M947.6,1034.9c-1,3-0.7,3.7-0.3,4c0.4,0.3,1,0.1,1.9-2.9c1-3,67.6-210.9,67.6-210.9S948.6,1031.9,947.6,1034.9
		z"/>
	<path class="st2" d="M946,568.7c0.4,0.3,0.9,0.1,1.9-2.7c0.9-2.8,63.7-198.8,63.7-198.8s-64.4,194.9-65.3,197.7
		C945.3,567.7,945.6,568.4,946,568.7z"/>
	<path class="st2" d="M812.5,867.8c0.5,0.3,1,0.1,1.9-2.9c1-3,67.6-210.9,67.6-210.9s-68.2,206.8-69.2,209.8
		C811.8,866.8,812,867.5,812.5,867.8z"/>
	<path class="st2" d="M984.7,325.1c0.4,0.3,1,0.1,1.9-2.7c0.9-2.8,64.1-198.8,64.1-198.8s-64.8,194.9-65.7,197.7
		C984,324.1,984.2,324.8,984.7,325.1z"/>
	<path class="st2" d="M1020.7,539.3c0.4,0.3,0.9,0.1,1.9-2.7c0.9-2.8,63.7-198.8,63.7-198.8s-64.4,194.9-65.3,197.7
		C1020.1,538.4,1020.3,539,1020.7,539.3z"/>
	<path class="st2" d="M1012.8,959.4c-0.3,0.9,0,1.3,0.5,1.6c0.4,0.3,0.8,0.4,1.1-0.5c0.3-0.9,20-64.4,20-64.4
		S1013.1,958.5,1012.8,959.4z"/>
	<path class="st2" d="M894.8,735.5c0.4,0.3,0.9,0.4,1.1-0.5c0.3-0.9,20-64.4,20-64.4s-21.3,62.4-21.6,63.3
		C894,734.8,894.3,735.2,894.8,735.5z"/>
	<path class="st2" d="M895.7,949c0.3-0.9,20-64.4,20-64.4s-21.3,62.4-21.6,63.3c-0.3,0.9,0,1.3,0.5,1.6
		C895,949.8,895.4,949.9,895.7,949z"/>
	<path class="st2" d="M908.6,836.1c-0.5,1.4-0.2,1.9,0.3,2.2c0.5,0.3,0.9,0.3,1.4-1.1c0.5-1.4,32.5-102.9,32.5-102.9
		S909,834.6,908.6,836.1z"/>
	<path class="st2" d="M978.1,889.2c-0.5,1.4-0.2,1.9,0.3,2.2c0.5,0.3,0.9,0.3,1.4-1.1c0.5-1.4,32.5-102.9,32.5-102.9
		S978.5,887.8,978.1,889.2z"/>
	<path class="st2" d="M881.3,814c0.3-0.9,20-64.4,20-64.4s-21.3,62.4-21.6,63.3c-0.3,0.9,0,1.3,0.5,1.6
		C880.6,814.8,881,814.9,881.3,814z"/>
	<path class="st2" d="M827,910.7c0.5-1.6,36.8-116.6,36.8-116.6s-22.4,66.8-33.1,98.7c8-25.2,29.6-93.8,29.6-93.8
		s-33.6,100.4-34.1,101.8c-0.5,1.4-0.2,1.9,0.3,2.2c0.3,0.2,0.6,0.3,0.8,0c-1.3,3.8-2.1,6.1-2.1,6.4c-0.5,1.6-0.2,2.2,0.3,2.5
		C826,912.3,826.5,912.3,827,910.7z"/>
	<path class="st2" d="M940.2,816.1c0.5-1.6,36.8-116.6,36.8-116.6s-38.1,113.7-38.6,115.3c-0.5,1.6-0.2,2.2,0.3,2.5
		C939.1,817.7,939.6,817.7,940.2,816.1z"/>
	<path class="st2" d="M1086.3,1022.8c-2.2,6.8-1.7,8.4-0.7,9.1c1,0.7,2.2,0.2,4.4-6.6c2.2-6.8,154.5-482,154.5-482
		S1088.5,1016.1,1086.3,1022.8z"/>
	<path class="st2" d="M1069.2,697.3c13.3-41.6,26.6-83,26.6-83s-54.3,164.2-55.1,166.5c-0.8,2.4-0.6,2.9-0.2,3.2
		c0.4,0.3,0.8,0.1,1.6-2.2c0.3-1,9.9-31,20.9-65.3c-0.8,3.4-0.3,4.5,0.5,5c1,0.7,2.2,0.2,4.4-6.6c2.2-6.8,154.5-482,154.5-482
		S1096.1,615.5,1069.2,697.3z"/>
	<path class="st2" d="M1227.5,679.2c1,0.7,2.2,0.2,4.4-6.6c0.6-1.8,11.3-35.2,26.9-83.8l0-11.5c-17.6,53.3-30,90.9-30.6,92.8
		C1226,676.9,1226.5,678.5,1227.5,679.2z"/>
	<path class="st2" d="M1146.7,1005c-1,3-0.8,3.7-0.3,4c0.4,0.3,1,0.1,1.9-2.9c1-3,67.6-210.9,67.6-210.9S1147.6,1002.1,1146.7,1005z
		"/>
	<path class="st2" d="M1142.5,546.5c0.4,0.3,0.9,0.1,1.9-2.7c0.9-2.8,63.7-198.8,63.7-198.8s-64.4,194.9-65.3,197.7
		C1141.9,545.6,1142.1,546.2,1142.5,546.5z"/>
	<path class="st2" d="M1013.4,835c1-3,67.6-210.9,67.6-210.9s-68.2,206.8-69.2,209.8c-1,3-0.7,3.7-0.3,4
		C1011.9,838.2,1012.4,838,1013.4,835z"/>
	<path class="st2" d="M1182.6,299.2c-0.9,2.8-0.7,3.5-0.2,3.8c0.4,0.3,1,0.1,1.9-2.7c0.9-2.8,64.1-198.8,64.1-198.8
		S1183.6,296.4,1182.6,299.2z"/>
	<path class="st2" d="M1219.1,514.5c0.5-1.6,22.4-69.8,40.3-125.8l0-2.2c-18.5,56.1-41.4,125.3-41.9,127c-0.9,2.8-0.7,3.5-0.2,3.8
		C1217.7,517.5,1218.2,517.3,1219.1,514.5z"/>
	<path class="st2" d="M1212.3,931.2c0.4,0.3,0.9,0.4,1.1-0.5c0.3-0.9,20-64.4,20-64.4s-21.3,62.4-21.6,63.3
		C1211.6,930.5,1211.9,930.9,1212.3,931.2z"/>
	<path class="st2" d="M1093.3,704c-0.3,0.9,0,1.3,0.5,1.6c0.4,0.3,0.9,0.4,1.1-0.5c0.3-0.9,20-64.4,20-64.4S1093.6,703.1,1093.3,704
		z"/>
	<path class="st2" d="M1093.6,919.7c0.4,0.3,0.9,0.4,1.1-0.5c0.3-0.9,20-64.4,20-64.4s-21.3,62.4-21.6,63.3
		C1092.8,919,1093.1,919.4,1093.6,919.7z"/>
	<path class="st2" d="M1107.9,808.4c0.5,0.3,0.9,0.3,1.4-1.1c0.5-1.4,32.5-102.9,32.5-102.9s-33.6,100.4-34.1,101.8
		C1107.1,807.7,1107.4,808.1,1107.9,808.4z"/>
	<path class="st2" d="M1177.4,861.6c0.5,0.3,0.9,0.3,1.4-1.1c0.5-1.4,32.5-102.9,32.5-102.9s-33.6,100.4-34.1,101.8
		C1176.6,860.8,1176.9,861.3,1177.4,861.6z"/>
	<path class="st2" d="M1079.1,784.6c0.4,0.3,0.9,0.4,1.1-0.5c0.3-0.9,20-64.4,20-64.4s-21.3,62.4-21.6,63.3
		C1078.4,784,1078.7,784.3,1079.1,784.6z"/>
	<path class="st2" d="M1026,880.8c0.5-1.6,36.8-116.6,36.8-116.6s-38.1,113.7-38.6,115.3c-0.5,1.6-0.2,2.2,0.3,2.5
		C1025,882.4,1025.5,882.5,1026,880.8z"/>
	<path class="st2" d="M1137.6,787.5c0.5,0.3,1,0.4,1.5-1.3c0.5-1.6,36.8-116.6,36.8-116.6s-38.1,113.7-38.6,115.3
		C1136.8,786.6,1137.1,787.1,1137.6,787.5z"/>
</g>
</svg>
