<?xml version="1.0" encoding="utf-8"?>
<!-- Generator: Adobe Illustrator 23.0.3, SVG Export Plug-In . SVG Version: 6.00 Build 0)  -->
<svg version="1.1" id="Layer_1" xmlns="http://www.w3.org/2000/svg" xmlns:xlink="http://www.w3.org/1999/xlink" x="0px" y="0px"
	 viewBox="0 0 676.8 324.2" style="enable-background:new 0 0 676.8 324.2;" xml:space="preserve">
<style type="text/css">
	.st0{fill:#FFFFFF;}
	.st1{fill:#A9DADC;}
	.st2{fill:#70CBD1;}
	.st3{fill:none;}
	.st4{fill:#FFEFCF;}
	.st5{fill:#EB5624;}
	.st6{fill:#EAC331;}
	.st7{fill:#424143;}
	.st8{fill:#C7842A;}
	.st9{opacity:0.41;}
	.st10{opacity:0.5;}
	.st11{fill:#868686;}
	.st12{fill:#FFEDC7;}
	.st13{fill:#BFAC8F;}
	.st14{fill:#F2F8EE;}
</style>
<g>
	<path id="XMLID_4628_" class="st0" d="M562.9,29.4c-1.2,2-2.4,4-3.6,5.9c0.4-0.8,0.7-1.7,1-2.5C560.9,31.6,561.9,30.7,562.9,29.4z"
		/>
	<path id="XMLID_4624_" d="M559.3,35.3c-4.7,10.8-10.9,20.8-18,30.2c-0.7,0.9-1.3,1.8-1.9,2.7C545.7,57.8,552.4,46.9,559.3,35.3z"/>
	<path id="XMLID_4610_" class="st0" d="M539.5,68.2c-0.3,0.5-0.6,0.9-0.8,1.4C538.9,69.1,539.2,68.6,539.5,68.2z"/>
	<path id="XMLID_4609_" class="st0" d="M525.6,53c0.3,0.4,0.7,0.8,1,1.2c-0.5-0.4-0.9-0.7-1.3-0.9C525.4,53.1,525.5,53.1,525.6,53z"
		/>
	<path id="XMLID_4606_" class="st0" d="M526,54.8c0.1,0,0.2-0.4-0.8-1.4c0.1-0.1,0.1-0.1,0.2-0.2c0.4,0.3,0.8,0.6,1.3,0.9
		C526.4,54.4,526.1,54.8,526,54.8z"/>
	<path id="XMLID_4342_" class="st4" d="M525.9,54.8c-0.5-0.2-0.8-0.6-1.2-0.9c0.2-0.2,0.3-0.3,0.5-0.5
		C526.1,54.4,526,54.7,525.9,54.8C525.9,54.8,525.9,54.8,525.9,54.8z"/>
	<path id="XMLID_4341_" d="M523.1,51.4c0.5,0.4,1.1,1,2.2,1.8c-0.1,0.1-0.1,0.1-0.2,0.2c-0.1-0.1-0.3-0.3-0.5-0.5
		C524.2,52.4,523.7,51.9,523.1,51.4z"/>
	<path id="XMLID_4340_" class="st4" d="M518.4,44.6c3.3,0.8,4.5,3,4.2,6.2C519.3,50.1,518.1,47.9,518.4,44.6z"/>
	<path id="XMLID_4339_" class="st4" d="M514.2,40.5c-3.2-0.8-4.4-2.9-4.2-5.9c2.9,0.8,4.1,2.3,4.2,4.4
		C514.3,39.5,514.3,40,514.2,40.5z"/>
	<path id="XMLID_4338_" class="st0" d="M514.3,39c-0.2-2.1-1.3-3.6-4.2-4.4c0-0.1,0-0.2,0-0.3C512.8,34.9,514.1,36.6,514.3,39z"/>
	<path id="XMLID_4337_" d="M510,34.3C510,34.2,510,34.2,510,34.3C510,34.2,510.1,34.2,510,34.3c0,0.1,0,0.2,0,0.3
		c-0.5-0.1-1-0.2-1.5-0.3C509.4,34.3,510,34.3,510,34.3z"/>
	<path id="XMLID_4323_" class="st0" d="M499.7,23.6c2.9,3.7,6,7.3,10.3,10.6c0,0,0,0,0,0c0,0-0.6,0-1.5,0
		C505.7,30.9,502.6,27.3,499.7,23.6z"/>
	<path id="XMLID_4322_" class="st4" d="M510,34.2c-4.3-3.4-7.5-6.9-10.3-10.6c-2-2.6-3.7-5.3-5.3-8.2c-0.3-0.6,0.4-2,1-2.8
		c0.3-0.4,1.7-0.4,2.1-0.1c5.5,5.7,9.2,12.6,12.5,19.7C510.3,32.8,510.1,33.5,510,34.2z"/>
	<path id="XMLID_4321_" d="M283.3,69c0.5-0.2,0.9-0.5,1.4-0.7c0.2,0,0.5,0.4,0.7,0.7c-0.5,0.2-0.9,0.5-1.4,0.6
		C283.8,69.6,283.6,69.2,283.3,69z"/>
	<path id="XMLID_4320_" class="st0" d="M661.2,287.9c0.3,0.4,0.7,0.8,1,1.2c-0.5-0.3-1-0.5-1.4-0.8l0,0
		C660.9,288.2,661.1,288,661.2,287.9z"/>
	<path id="XMLID_4319_" class="st0" d="M661.6,289.7c0.1,0,0.3-0.4-0.8-1.4c0.5,0.3,0.9,0.5,1.4,0.8
		C662,289.3,661.7,289.7,661.6,289.7z"/>
	<path id="XMLID_4318_" class="st0" d="M660.8,288.3c1,1,0.8,1.4,0.8,1.4h0c-0.5-0.2-0.9-0.6-1.3-0.9
		C660.5,288.6,660.6,288.5,660.8,288.3L660.8,288.3L660.8,288.3z"/>
	<path id="XMLID_4317_" class="st0" d="M658.6,286.9c0,0,0.1,0.1,0.1,0.1C658.6,287,658.6,287,658.6,286.9z"/>
	<path id="XMLID_4316_" class="st0" d="M659.9,285.4c0.2,0.8,0.4,1.6,0.4,2.5c-0.6-0.3-1.1-0.5-1.6-0.8c0,0-0.1-0.1-0.1-0.1
		c-3.1-2.2-4.6-4.5-4.7-7.7c0-0.3,0-0.6,0-1C656.4,280.6,659,282.5,659.9,285.4z"/>
	<path id="XMLID_4315_" class="st0" d="M654,278.3c0-0.3,0-0.5,0.1-0.8c1.9,2.7,4.9,4.7,5.9,7.9C659,282.5,656.4,280.6,654,278.3z"
		/>
	<path id="XMLID_4314_" d="M653.1,277.5c0.3,0,0.6,0,0.9,0c0,0.3-0.1,0.5-0.1,0.8C653.7,278,653.4,277.8,653.1,277.5z"/>
	<path id="XMLID_4313_" class="st0" d="M654,277.5c-0.3,0-0.6,0-0.9,0c-0.3-0.3-0.6-0.7-0.8-1.1C652.6,276.8,653,277.1,654,277.5z"
		/>
	<path id="XMLID_4312_" class="st0" d="M658.6,286.9c-2.9-1.7-4.7-4.2-4.7-7.7C653.9,282.4,655.4,284.7,658.6,286.9z"/>
	<path id="XMLID_4311_" class="st0" d="M652.2,276.2c0.4-0.1,1.2-0.5,1.3-0.3c0.3,0.4,0.4,1,0.6,1.6c-1.1-0.4-1.5-0.7-1.8-1.1
		C652.2,276.4,652.2,276.3,652.2,276.2z"/>
	<path id="XMLID_4310_" class="st0" d="M651.7,272.6c-0.3,0.3-0.5,0.5-0.7,0.7c-0.2-0.5-0.5-0.9-0.7-1.4c0-0.2,0.4-0.5,0.7-0.7
		C651.2,271.7,651.4,272.1,651.7,272.6z"/>
	<path id="XMLID_4309_" class="st0" d="M648.7,267.1c0.3,0.4,0.7,0.8,1,1.2c-0.4-0.2-0.8-0.3-1.2-0.5c-0.1-0.1-0.2-0.2-0.3-0.3
		C648.4,267.4,648.6,267.2,648.7,267.1z"/>
	<path id="XMLID_4308_" class="st0" d="M649.7,268.3c-0.2,0.2-0.5,0.6-0.6,0.6c0.1,0,0.1-0.4-0.5-1.1
		C648.9,268,649.3,268.1,649.7,268.3z"/>
	<path id="XMLID_4307_" class="st0" d="M648.5,267.8c0.7,0.8,0.6,1.1,0.5,1.1c0,0,0,0,0,0c-0.5-0.2-0.8-0.6-1.2-0.9
		c0.1-0.1,0.2-0.3,0.4-0.4C648.3,267.7,648.4,267.7,648.5,267.8z"/>
	<path id="XMLID_4306_" class="st0" d="M648.5,267.8c-0.1,0-0.3-0.1-0.4-0.2c0,0,0.1-0.1,0.1-0.1
		C648.4,267.6,648.5,267.7,648.5,267.8z"/>
	<path id="XMLID_4305_" class="st0" d="M647.8,265.6c0,0.5,0,1,0,1.5c-0.6-0.1-1.2-0.4-1.6-0.6c0,0,0,0,0,0
		c-1.7-1.2-2.4-2.6-2.5-4.2c0-0.2,0-0.3,0-0.5C646.5,262.1,647.6,263.5,647.8,265.6z"/>
	<path id="XMLID_4304_" class="st0" d="M643.6,262.3c0.1,1.6,0.8,3,2.5,4.2C644.5,265.6,643.7,264.2,643.6,262.3z"/>
	<path id="XMLID_4303_" class="st0" d="M643.6,260.8c2.8,0.7,4.1,2.3,4.2,4.8c-0.2-2.1-1.3-3.5-4.3-3.8
		C643.6,261.5,643.6,261.2,643.6,260.8z"/>
	<path id="XMLID_4302_" d="M643.6,261.8c-0.4-0.1-0.9-0.1-1.4-0.1c0.4-0.5,0.8-0.9,1-1.1c0.1,0.1,0.3,0.2,0.5,0.3
		C643.6,261.2,643.6,261.5,643.6,261.8z"/>
	<path id="XMLID_4301_" class="st0" d="M643.2,260.5c-1.1-0.8-1.3-1.7-1.4-2.5c0-0.1,0-0.3,0-0.4c0-0.1,0.9-0.2,1.3-0.4
		c0.2,0.9,0.5,1.8,0.5,2.7C643.6,260.1,643.4,260.2,643.2,260.5z"/>
	<path id="XMLID_4300_" class="st0" d="M642.1,261.7c-0.2-1.7-0.3-2.7-0.4-3.7c0.1,0.9,0.3,1.7,1.4,2.5
		C642.9,260.8,642.6,261.1,642.1,261.7z"/>
	<path id="XMLID_4299_" class="st0" d="M639.8,253.9c0.1-0.5,0.4-0.9,0.6-1.4c0.2,0.2,0.5,0.5,0.7,0.7c-0.2,0.4-0.5,0.9-0.7,1.3
		C640.3,254.4,639.8,254.1,639.8,253.9z"/>
	<path id="XMLID_4298_" class="st0" d="M638.3,248.4c0.3,0.4,0.7,0.8,1,1.2c-0.4-0.1-0.7-0.2-1-0.3c-0.1-0.1-0.2-0.3-0.4-0.4
		C638,248.7,638.1,248.5,638.3,248.4z"/>
	<path id="XMLID_4297_" class="st0" d="M639.3,249.6c-0.2,0.2-0.5,0.6-0.6,0.6c0.1,0,0.2-0.3-0.4-1
		C638.6,249.4,638.9,249.5,639.3,249.6z"/>
	<path id="XMLID_4296_" class="st0" d="M638.6,250.2c-0.5-0.2-0.8-0.6-1.2-0.9c0.1-0.1,0.2-0.2,0.3-0.3c0.2,0.1,0.4,0.2,0.6,0.3
		C638.8,250,638.7,250.2,638.6,250.2L638.6,250.2z"/>
	<path id="XMLID_4295_" class="st0" d="M637.8,248.8c0.2,0.2,0.3,0.3,0.4,0.4c-0.2-0.1-0.4-0.2-0.6-0.3
		C637.7,248.9,637.8,248.9,637.8,248.8z"/>
	<path id="XMLID_4294_" class="st0" d="M635.3,244.2c3.1,0.2,1.8,2.6,2.1,4.2c-0.3-1.4,0.8-3.6-2.1-4h0
		C635.3,244.3,635.3,244.3,635.3,244.2z"/>
	<path id="XMLID_4293_" class="st0" d="M636.3,248.2c-1.3-1.2-0.9-2.6-1-3.7c0-0.1,0-0.1,0-0.2c2.9,0.4,1.8,2.6,2.1,4
		C636.9,248.3,636.6,248.3,636.3,248.2z"/>
	<path id="XMLID_4292_" class="st0" d="M635.3,244.5c0.1,1.1-0.3,2.5,1,3.7C634.7,247.6,635.4,245.9,635.3,244.5z"/>
	<path id="XMLID_4291_" class="st0" d="M635.3,244.3c0,0,0,0.1,0,0.2C635.3,244.5,635.3,244.4,635.3,244.3L635.3,244.3z"/>
	<path id="XMLID_4290_" d="M634.4,244.3c0.1-0.1,0.2-0.2,0.3-0.3c0.2,0.1,0.4,0.2,0.6,0.3c0,0,0,0.1,0,0.1
		C635,244.3,634.7,244.3,634.4,244.3z"/>
	<path id="XMLID_4289_" class="st0" d="M634.4,244.3c-2.2-1-5-6.6-5.4-9.9c0.3,3.1,2.9,8.1,5.7,9.6
		C634.6,244.1,634.4,244.2,634.4,244.3z"/>
	<path id="XMLID_4288_" class="st0" d="M629,233.1c0-0.3,0.3-0.8,0.5-0.8c0.5,0,1.1,0.1,1.4,0.4c3.3,2.7,2.1,7.3,4.3,10.5
		c0,0.1-0.3,0.4-0.6,0.7c-2.7-1.5-5.3-6.5-5.7-9.6c0-0.1,0-0.2,0-0.3c0-0.1,0-0.2,0-0.3C629,233.5,629,233.3,629,233.1z"/>
	<path id="XMLID_4287_" class="st0" d="M629,233.8c0,0.1,0,0.2,0,0.3C629,234,629,233.9,629,233.8z"/>
	<path id="XMLID_4286_" class="st0" d="M626.9,228.6c0.2-0.2,0.5-0.5,0.7-0.7c0.4,0.2,0.9,0.5,1.3,0.7c-0.2,0.2-0.5,0.7-0.7,0.6
		C627.8,229.2,627.4,228.9,626.9,228.6z"/>
	<path id="XMLID_4285_" class="st0" d="M626.1,225.2c0.2-0.5,0.3-1.1-1-3.3c0,0,0.1-0.1,0.1-0.1c0.5,0.5,1,1,1.8,1.7
		C626.7,224.2,626.4,224.7,626.1,225.2z"/>
	<path id="XMLID_4284_" class="st0" d="M625.8,221.3c0.4,0.8,0.9,1.5,1.3,2.1c-0.7-0.7-1.3-1.2-1.8-1.7
		C625.5,221.6,625.7,221.5,625.8,221.3z"/>
	<path id="XMLID_4272_" class="st0" d="M625.1,221.9c1.3,2.2,1.2,2.8,1,3.3c0,0,0,0.1-0.1,0.1c-0.4-1-0.9-2-1.2-3
		C624.9,222.2,625,222.1,625.1,221.9z"/>
	<path id="XMLID_4271_" d="M623.5,220c0.4,0.4,1,0.9,1.8,1.8c-0.1,0-0.1,0.1-0.1,0.1c-0.1-0.2-0.2-0.4-0.3-0.5
		C624.4,220.9,623.9,220.4,623.5,220z"/>
	<path id="XMLID_4270_" class="st0" d="M620.6,215.1c3.1,0.2,1.8,2.6,2.1,4.2c-0.3-1.4,0.7-3.4-2-3.4
		C620.7,215.6,620.7,215.3,620.6,215.1z"/>
	<path id="XMLID_4269_" class="st0" d="M620.7,215.8c2.7,0.1,1.8,2.1,2,3.4C620.1,219.1,620.7,217.3,620.7,215.8z"/>
	<path id="XMLID_4268_" class="st0" d="M620.1,211.5c0.2,0.9,0.5,1.8,0.5,2.7c0,0.2-0.1,0.4-0.4,0.7c-1.1-0.8-1.3-1.7-1.4-2.6
		c0-0.1,0-0.3,0-0.4C618.8,211.7,619.7,211.6,620.1,211.5z"/>
	<path id="XMLID_4264_" d="M620.6,215.1c0,0.2,0.1,0.5,0,0.7c-0.4,0-0.9,0-1.5,0.1c0.4-0.5,0.8-0.9,1-1.1
		C620.3,214.9,620.5,215,620.6,215.1z"/>
	<path id="XMLID_4263_" class="st0" d="M620.2,214.8c-0.3,0.3-0.6,0.6-1,1.1c-0.2-1.7-0.3-2.7-0.4-3.7
		C618.9,213.1,619.1,214,620.2,214.8z"/>
	<path id="XMLID_4262_" class="st0" d="M617.7,208.7c-0.4-1-0.9-2-1.2-3c0-0.1,0.1-0.3,0.3-0.5c0.2-0.2,0.4-0.3,0.6-0.5
		c0,0,0,0,0,0.1c0.4,0.7,0.9,1.5,1.2,2.1C618.3,207.6,618,208.1,617.7,208.7C617.7,208.6,617.7,208.7,617.7,208.7z"/>
	<path id="XMLID_4261_" class="st0" d="M606.3,258.9c-0.4,0.7-0.6,1.2-0.9,1.7c0.2-0.5,0.3-1.1-1-3.3c0,0,0,0,0.1-0.1
		C605,257.7,605.6,258.3,606.3,258.9z"/>
	<path id="XMLID_4260_" class="st0" d="M605,256.7c0.5,0.7,0.9,1.5,1.3,2.1c-0.7-0.6-1.3-1.2-1.8-1.6
		C604.7,257.1,604.9,256.9,605,256.7z"/>
	<path id="XMLID_4254_" class="st0" d="M605.3,260.7c-0.4-1-0.9-2-1.2-3c0-0.1,0.1-0.2,0.3-0.4c1.3,2.1,1.2,2.8,1,3.3
		C605.3,260.6,605.3,260.7,605.3,260.7z"/>
	<path id="XMLID_4253_" d="M604.5,257.2C604.4,257.3,604.4,257.3,604.5,257.2c-0.1,0-0.2-0.1-0.2-0.2
		C604.3,257.1,604.4,257.2,604.5,257.2z"/>
	<path id="XMLID_4252_" class="st0" d="M600.1,253.1c0.1,0.2,0.2,0.4,0.3,0.5C600.3,253.5,600.2,253.3,600.1,253.1z"/>
	<path id="XMLID_4251_" class="st0" d="M584.2,260.9c0.5,0.8,0.9,1.5,1.3,2.1c-0.6-1-1.1-1.6-1.4-2C584.2,261,584.2,261,584.2,260.9
		z"/>
	<path id="XMLID_4249_" class="st0" d="M584.1,261c0.3,0.4,0.8,1.1,1.4,2c-0.4,0.7-0.6,1.2-0.9,1.7
		C584.8,264.3,584.8,263.6,584.1,261C584.1,261.1,584.1,261.1,584.1,261z"/>
	<path id="XMLID_4248_" d="M584.1,261C584.1,261.1,584.1,261.1,584.1,261c-0.1,0-0.2-0.1-0.2-0.2C584,260.9,584.1,261,584.1,261z"/>
	<path id="XMLID_4247_" class="st0" d="M584,261.1c0.8,2.5,0.7,3.2,0.6,3.6c0,0.1-0.1,0.1-0.1,0.2c-0.4-1-0.9-2-1.2-3
		C583.3,261.7,583.7,261.4,584,261.1z"/>
	<path id="XMLID_4246_" class="st5" d="M562.3,180.6c-4-11.1-7.1-22.5-12.5-33.1c-0.3-0.6-0.2-1.3-0.1-2.1c4.1,0.8,5.8,3.6,7.2,6.3
		c0.4,0.7,0.7,1.4,1.1,2.1c4.2,7.9,9.7,15,12.9,23.6c1.9,5.3,5.2,10.9,9.4,14.5c6.5,5.6,6.3,14.3,11.3,20.3c1,9.7,7.2,17.8,9.1,27.3
		c1.1,5.7,3.9,11.1,3.5,17.1c-0.8-0.8-1.9-1.4-2.8-2.2c0,0-0.1-0.1-0.1-0.1c-0.3-0.2-0.5-0.5-0.7-0.7c-0.1-0.2-0.2-0.4-0.3-0.5
		c0-0.1-0.1-0.2-0.1-0.3c-2-6.9-6.5-12.5-9.5-18.8c-2.9-6.4-6.3-12.5-9.5-18.8c-1.6-3.2-3.6-6.1-5.7-9.1
		C569.8,198.3,565.6,189.7,562.3,180.6z"/>
	<path id="XMLID_4245_" d="M551.9,243.5c-0.2-0.2-0.4-0.5-0.6-0.7c0-0.3,0-0.8-0.1-1.3C551.4,242,551.6,242.7,551.9,243.5z"/>
	<path id="XMLID_4244_" class="st0" d="M551.2,244.1c0,0,0.1-0.2,0.1-1.3c0.2,0.2,0.4,0.5,0.6,0.7
		C551.6,243.7,551.3,244.1,551.2,244.1z"/>
	<path id="XMLID_4243_" class="st0" d="M551.2,244.1c-0.5-0.2-0.8-0.6-1.3-0.9c0.3-0.3,0.6-0.6,0.9-0.9c0.1,0.2,0.3,0.3,0.4,0.5
		C551.3,243.9,551.3,244.1,551.2,244.1L551.2,244.1z"/>
	<path id="XMLID_4242_" class="st0" d="M549.7,145.5c0-0.3,0.1-0.7,0.1-1c3.9,1,5.6,4.3,7.1,7.4
		C555.5,149.1,553.8,146.3,549.7,145.5z"/>
	<path id="XMLID_4241_" d="M549.8,144.5c0,0.3,0,0.7-0.1,1c-0.4-0.1-0.9-0.1-1.4-0.2c0.4-0.5,0.8-0.9,1-1.1
		C549.5,144.3,549.6,144.4,549.8,144.5z"/>
	<path id="XMLID_4240_" class="st0" d="M549.3,144.2c-1.1-0.8-1.3-1.7-1.4-2.6c0-0.1,0-0.3,0-0.4c0-0.1,0.9-0.2,1.3-0.4
		c0.2,0.9,0.5,1.8,0.5,2.7C549.7,143.7,549.6,143.9,549.3,144.2z"/>
	<path id="XMLID_4239_" class="st0" d="M549.3,144.2c-0.2,0.3-0.6,0.6-1,1.1c-0.2-1.7-0.3-2.7-0.4-3.7
		C548,142.5,548.3,143.3,549.3,144.2z"/>
	<path id="XMLID_4238_" class="st5" d="M535.8,192.4c3.7,5.9,7.6,11.8,10,18.5c0.5,1.5,1.7,2.8,2,4.3c1,6.2,1.7,12.5,2.6,18.7
		c-0.4,2.6-0.9,5-1.3,7.5c0,0.3-0.1,0.5-0.1,0.8c-1-2.3-1.6-5.1-3.2-6.9c-4.9-5.4-5.3-13.3-10.3-18.5c-4.1-4.2-0.5-10.4-4-14.9
		c-1.2-1.5-0.9-4.2-1.8-6.4c-1.2-3.2-0.1-7.3,0-11C534.1,185,534.2,189.8,535.8,192.4z"/>
	<path id="XMLID_4237_" class="st4" d="M548.9,86.6c1.1,0.7,2.6,1.8,2.8,2.9c1.5,8.5,6.8,15.2,10.4,22.7c3,6.3,5.3,13.1,7.5,19.8
		c3.3,10.1,8.9,19.2,13.5,28.7c3.6,7.5,6.8,15.2,10.5,22.7c4,8.1,8.5,16,13.5,23.5c2.6,4,5.2,8.3,6.6,12.8c4,12.9,11,24,18.6,34.9
		c8.1,11.7,16.2,23.4,20.7,37.2c1,3,2.9,5.7,4.3,8.6c0.4,0.9,0.8,1.8,1.1,2.6c-0.9,0.9-1.4,1.9-2.3,2.4c-0.5,0.3-1.7,0.4-2.1,0
		c-1.5-1.4-3.6-2.8-4-4.5c-2.3-10.6-8.6-19.4-13.3-28.8c-4.6-9.3-12.2-17.1-17.2-26.2c-4.3-7.8-8.8-15.6-11.6-24.3
		c-1.8-5.4-5-10.4-7.8-15.5c-3.5-6.2-7.5-12.1-10.7-18.4c-3.2-6.3-6.6-12.3-8.8-19.3c-2.7-8.8-7.8-16.9-12.2-25
		c-5.2-9.6-8.7-20-12.5-30.2c-2.6-6.9-5.8-13.5-8.8-20.3c-0.6-1.5-1.2-3-1.6-4.5c-0.1-0.5,0.2-1.6,0.6-1.7
		C547,86.4,548.2,86.2,548.9,86.6z"/>
	<path id="XMLID_4236_" d="M538.4,70c-3,5.3-5.4,11-9.4,15.6C532,80.5,535.1,75.3,538.4,70z"/>
	<path id="XMLID_4235_" class="st6" d="M537.3,147c5.4,9.5,8.9,19.8,13.1,29.9c2.8,6.7,6.2,13.4,10.5,19.6
		c5.7,8.2,8.2,18.1,11.8,27.3c4.1,10.5,5,22,10.4,32.1c0.4,0.8,0.1,2,0.1,3.1c0,0.7,0,1.4,0,2.1c-0.8-0.5-2-0.8-2.4-1.5
		c-2.8-4.7-5.5-9.5-7.9-14.4c-3.7-7.5-7-15.1-10.6-22.6c-0.7-1.4-1.1-3.2-2.3-4.2c-9.1-8.1-11-19.6-14.4-30.4
		c-3.5-11.2-7.4-22.2-8.4-34c-0.2-2.2-1.5-4.3-1.9-6.4c-0.2-0.8,0.5-1.8,0.8-2.7C536.5,145.4,536.9,146.2,537.3,147z"/>
	<path id="XMLID_4234_" class="st6" d="M510.5,195.5c-0.4-0.5,0.3-1.8,0.5-2.8c0.5,0.2,1.2,0.3,1.4,0.7c4.3,8.1,11.9,14,14.8,22.9
		c0.3,0.9,1.9,1.7,1.8,2.3c-1.1,6.2,2.2,11.8,2.2,17.8c0,1.4,0.1,2.8,0,4.1c-0.1,0.6-0.6,1.1-1,1.7c-0.4-0.5-0.8-1-1.1-1.6
		c-3.5-7-6-14.4-12-20c-2-1.9-2.4-6-2.5-9.2C514.5,205.8,514,200.4,510.5,195.5z"/>
	<path id="XMLID_4233_" class="st0" d="M564.1,31.8c0-0.3-1.8,1.7-56.2,88.3c6.5-10.7,13.5-22.3,21-34.7c4.1-4.5,6.4-10.3,9.4-15.6
		c0.1-0.1,0.1-0.3,0.2-0.4c0.3-0.5,0.5-0.9,0.8-1.4c0.6-0.9,1.2-1.8,1.9-2.7c7.1-9.4,13.4-19.3,18-30.2c1.2-1.9,2.4-3.9,3.6-5.9
		C563.6,30.7,564.2,31.3,564.1,31.8z"/>
	<path id="XMLID_4232_" class="st0" d="M479.3,164.7c7.6-13.1,14.6-26.7,22.8-39.4c7.8-12,15.5-24.1,23-36.3c1.4-1,2.7-2.2,3.8-3.4
		c-7.5,12.4-14.5,23.9-21,34.7c0,0.1-0.1,0.2-0.2,0.3c-11.4,18.2-25.1,40.1-41.6,66.4l-0.1-0.1C470.5,179.5,475,172.2,479.3,164.7z"
		/>
	<path id="XMLID_4231_" d="M452.5,115.5c4.7,0.4,8.4,5,7.8,9.7c-0.6,4.2-7.5,9.6-11.6,9.1c-6.1-0.7-9.6-4.3-9.2-9.2
		C440.1,117.6,444,114.8,452.5,115.5z"/>
	<path id="XMLID_4230_" class="st4" d="M542.7,72c-6.1,8.2-11.5,17.2-16.7,26.2c-6.4,11.3-13.6,22.1-20.4,33.2
		c-3.2,5.2-7,10.3-9.4,15.9c-4.2,9.9-10.5,18.5-15.7,27.8c-3.8,6.8-9.8,12.6-12.8,19.7c-3.1,7.3-8.5,12.6-13,18.4
		c-9.3,12-17.3,24.7-25.5,37.4c-0.9,1.4-1.7,2.9-2.9,4c-1.2,1.1-2.5,2.2-3.8,3.2c9.3-13.7,31-48.2,85.2-137.4
		c0.1-0.1,0.1-0.2,0.2-0.3c54.4-86.7,56.2-88.6,56.2-88.3c0,0,0,0,0,0c-0.3,1.6-0.6,3.3-1.3,4.7C556.6,48.6,551,60.9,542.7,72z"/>
	<path id="XMLID_4229_" class="st0" d="M421,259.1c17-27.2,32-51.2,45.1-72.2c16.5-26.4,30.2-48.3,41.6-66.4
		c-54.2,89.2-75.9,123.7-85.2,137.4C422,258.3,421.5,258.7,421,259.1z"/>
	<path id="XMLID_4228_" class="st0" d="M424.3,86.5c2-0.1,4-0.1,6,0c0.9,0,1.8,0.5,2.7,0.8c-1.1,0.4-2.1,0.9-3.2,1.2
		c-0.6,0.2-1.3,0-2,0c-1.3,0-2.6,0.1-3.9,0c0,0-0.1,0-0.1,0c-0.4,0-0.7-0.6-1-1C423.3,87.1,423.8,86.5,424.3,86.5z"/>
	<path id="XMLID_4227_" class="st0" d="M466.1,186.9c-13.2,21.1-28.2,45-45.1,72.2c-0.9-3.4,2.1-4.7,3.6-6.8c4.7-6.7,8.2-14,12.2-21
		c4.5-8,10-15.3,15.1-22.8c4.8-7.1,9.5-14.4,14.1-21.7L466.1,186.9z"/>
	<path id="XMLID_4226_" class="st0" d="M419.8,259.8c-0.1,0.1-0.2,0.1-0.4,0.2C419.5,259.9,419.7,259.9,419.8,259.8z"/>
	<path id="XMLID_4225_" class="st0" d="M421,260.2c-0.2,3.7-3,5.4-5.9,7.1C415.9,266.7,417.1,265.7,421,260.2z"/>
	<path id="XMLID_4224_" class="st0" d="M419.3,260.1c0,0,0.1,0,0.1-0.1c0.1-0.1,0.2-0.1,0.4-0.2c0.4-0.2,0.8-0.4,1.2-0.7
		c0,0.4,0,0.7,0,1.1c-3.8,5.5-5,6.5-5.9,7.1c-0.1,0.1-0.2,0.1-0.3,0.2c0-0.1,0-0.1,0-0.2C414.8,263.4,416.9,261.6,419.3,260.1z"/>
	<path id="XMLID_4223_" class="st0" d="M419.3,260.1c-2.4,1.5-4.4,3.4-4.6,7.2C414.6,263.6,416.7,261.7,419.3,260.1z"/>
	<path id="XMLID_4222_" class="st0" d="M414.7,267.5c0,0.3,0,0.6,0,0.9C414.7,268.1,414.7,267.8,414.7,267.5
		C414.7,267.5,414.7,267.5,414.7,267.5z"/>
	<path id="XMLID_4221_" class="st0" d="M414.7,267.5L414.7,267.5C414.7,267.5,414.7,267.5,414.7,267.5
		C414.7,267.5,414.7,267.5,414.7,267.5z"/>
	<path id="XMLID_4220_" class="st0" d="M413.7,269.2c0.3-0.3,0.7-0.7,1-1.7c0,0.3,0,0.6,0,0.9C414.4,268.7,414,268.9,413.7,269.2z"
		/>
	<path id="XMLID_4219_" class="st0" d="M414.7,267.5c-0.3,1-0.7,1.4-1,1.7c-0.1,0-0.1,0.1-0.2,0.1c-0.1-0.4-0.5-1.2-0.4-1.3
		C413.6,267.7,414.2,267.7,414.7,267.5C414.7,267.5,414.7,267.5,414.7,267.5z"/>
	<path id="XMLID_4218_" d="M387.7,240.5c2.1,0.5,4.9-1.7,6.2,1.5c0.8,1.9-1.1,2.6-6.2,2.6c-1,0-2.1,0.2-3.1-0.1
		c-0.5-0.1-1.1-1-1-1.5c0.1-0.9,0.5-2.1,1.1-2.5C385.4,240.1,386.7,240.3,387.7,240.5z"/>
	<path id="XMLID_4217_" d="M376.5,269c-1.8,1.4-0.3,6-3.9,4.6c-4.3-1.7,0.4-3.6,0.4-5.4c0-2.5,0.7-4.5,2.2-6.4
		c0.6-0.7,0.7-1.8,1.1-2.6c0.2,0.2,0.5,0.5,0.7,0.7c0.9,0.9,1.8,1.9,2.6,2.7C378.5,265.1,378.1,267.8,376.5,269z"/>
	<path id="XMLID_4216_" class="st0" d="M421.4,89c-50.8,4.4-59.8,5.6-59.2,5.2c0,0,0,0,0,0c38.3-3.4,53.3-4.8,58.8-5.3
		C421.2,88.9,421.3,89,421.4,89z"/>
	<path id="XMLID_4215_" class="st0" d="M363.7,93.7c0.2-0.1,0.4-0.1,0.6-0.2C364.1,93.6,363.9,93.7,363.7,93.7z"/>
	<path id="XMLID_4214_" class="st0" d="M421,88.9c-5.6,0.6-20.5,1.9-58.8,5.3c0.2-0.1,0.7-0.3,1.4-0.5c0,0,0,0,0,0
		c0.2-0.1,0.4-0.1,0.6-0.2c0.1,0,0.2,0,0.2-0.1c4.5-1.7,9.7,1.7,13.5-2.7c0.3-0.4,1.3-0.1,2-0.1c13.3,0.5,26.3-3.6,39.7-2.1
		C420.1,88.6,420.6,88.7,421,88.9z"/>
	<path id="XMLID_4213_" class="st0" d="M361.2,94.3c0.9-0.1,1.7-0.4,2.5-0.6c-0.7,0.2-1.3,0.4-1.4,0.5c0,0,0,0,0,0
		C361.9,94.3,361.5,94.3,361.2,94.3z"/>
	<path id="XMLID_4212_" class="st4" d="M335,203.2c4.5-0.8,10.6,7.4,8.5,11.5c-1.8,3.4-4.5,6.5-7.4,9.1c-3.6,3.3-7.7,2.5-11.7,0.1
		c-3.6-2.1-3.8-5.3-3.3-9.1c-1.4-4.9,1.8-6.9,5.9-8.5C329.7,205.4,332.3,203.7,335,203.2z"/>
	<path id="XMLID_4211_" d="M356.7,244.5c-6.6,0.3-13.1,0.2-19.7,0.2c-3.1,0-6.2,0-9.3,0c-5.8-0.1-11.7-0.7-15.4,5.5
		c-0.9,1.6-3.6,1.4-3.5-1c0.1-3.6-0.7-5.3-4.6-4.6c-0.5,0.1-1.2-0.5-1.7-0.9c-0.8-0.7-2.2-1.9-2.1-2.1c0.7-1.1,1.6-2.4,2.8-2.9
		c1.1-0.5,2.7-0.3,4-0.3c4.4-0.2,4.3-0.3,9.3-4.7c1.1-1,3-1.4,4.5-1.4c0.7,0,2.2,2,2,2.4c-1,2-3.3,3.8,1.5,3.7
		c8.6-0.2,17.3-0.1,25.9-0.1c2.1,0,4.3-0.4,6.2,0.1c1.5,0.4,2.6,1.9,3.9,3C359.3,242.6,358.1,244.5,356.7,244.5z"/>
	<path id="XMLID_4210_" d="M304.1,146.9c-5.8-0.1-8.4-2.7-8.2-8c0.2-4.8,5-8.9,9.9-8.6c3.2,0.2,7,5.5,6.8,9.7
		C312.4,143.4,308,147,304.1,146.9z"/>
	<path id="XMLID_4209_" d="M320.6,259.3c0.8,0,1.7,0.7,2.5,1.1c-0.7,0.7-1.4,1.9-2.2,2.1c-4.4,1.1-8.8,2.5-13.3,2.9
		c-3.7,0.3-5.9,1-7.5,5c-1.5,3.8-4.9,6.9-7.6,10.3c-0.6,0.7-1.5,1.2-2.1,1.7c-0.9-0.4-2-0.5-2-0.8c-0.3-1.3-0.9-2.9-0.3-3.9
		c1.5-2.9,3.5-5.5,5.4-8.2c0.2-0.3,0.5-0.5,0.7-0.7c0.7-0.7,1.3-1.5,2-2.2c-0.9-0.3-1.8-0.9-2.7-0.9c-2.8-0.1-5.5,0.1-8.3-0.2
		c-0.5-0.1-1.5-2.5-1.1-3.1c0.9-1.3,2.4-2.4,3.9-2.9c1.6-0.5,3.4-0.2,5.1-0.1c4.6,0.3,8.8,0.2,10-5.7c0.2-0.9,1.8-1.5,2.8-2.3
		c0.2,0.9,0.6,1.9,0.7,2.8c0.5,5.1,0.5,5.1,4.8,5.2C314.4,259.3,317.5,259.2,320.6,259.3z"/>
	<path id="XMLID_4208_" d="M276.3,242.8c0.4,0,1.1,1.7,0.9,2.5c-0.1,0.6-1.3,1.4-2,1.5c-1.7,0.2-3.4,0.1-5.1,0.1c-1,0-2.1,0.2-3.1,0
		c-1.4-0.3-3.4-0.5-4.1-1.5c-1-1.2,1.9-4.1,4-4.7C270.5,239.7,273.1,242.5,276.3,242.8z"/>
	<path id="XMLID_4207_" d="M241.2,292.6l-2.9-1.8c3.8-6.4,7.6-12.9,11.4-19.3c1.5-2.5,0.9-3.7-2-3.9c-1.2-0.1-2.3-0.7-3.4-1.1
		c1-1,2-2.9,2.9-2.8c4.4,0.4,7.9-1,10.9-4.3c0.1-0.1,2.2,1,2.6,1.9c0.6,1.4-0.9,3.9-4,8.5C251.4,277.4,246.3,285,241.2,292.6z"/>
	<path id="XMLID_4206_" class="st4" d="M245.9,227.4c-5.3,5.5-9.9,6.4-15.5,2.8c-2.7-1.8-4.4-7.4-2.4-9.7c3.3-3.6,6.1-8.6,11.9-6.8
		c3.7-0.2,6.1-0.3,7.2,3.8C248.4,222.4,248.8,224.4,245.9,227.4z"/>
	<path id="XMLID_4205_" class="st4" d="M362.2,94.2c-0.6,0.4,8.4-0.8,59.2-5.2c0.4,0.2,0.9,0.4,1.3,0.5c-0.9,0.4-1.8,1-2.7,1
		c-4.3,0.2-8.4,0.2-12.7,1.9c-3.5,1.3-7.7,0.1-11.6,2.1c-2.8,1.4-6.7,0.4-10,1c-3.1,0.6-6.2,1.7-9.2,2.9c-3,1.3-6.9-0.9-9.4,2.6
		c-0.4,0.5-2,0.1-3,0.1c-11.8-0.2-23,3.4-34.6,4.3c-1.2,0.1-2.2,1.3-3.4,1.9c-3.6,2-7.5,2.5-11.5,2.3c-2.6-0.2-5.5,0.8-7.4-2
		c-1.6,2.6-4.2,2.1-6.5,1.9c-5.1-0.4-9.9,0.9-14.8,2c-4.8,1.1-9.7,0.1-14.8,1.8c-5.3,1.8-11.6,0.4-17.5,0.4c-4.3,0-8.5,0-12.7,1.9
		c-3.8,1.7-8.4-1-12.8,1.9c-2.7,1.7-7.4,0.7-11.2,0.3c-2.7-0.3-5.8,1.7-8.1-1.3c2.7-0.2,5.4-0.3,8-0.7c8.1-1.4,15.9-3.8,24.1-4.8
		c1.9-0.2,4.3-1.5,6.6-1.5c10.4,0.1,20.1-3.1,29.9-5.5c4.7-1.2,9.6-2.7,14.4-2.7c6.8-0.1,13.1-3.6,19.9-2.3
		c7.5-4.6,16.4-0.3,24.4-3.9c3.7-1.7,8.9-0.3,13.4-0.3c0,0.2,0,0.3,0.1,0.5c0.6-0.1,1.3-0.1,1.9-0.2c3.2-0.2,6.6-0.3,9.7-0.9
		C361.5,94.3,361.9,94.3,362.2,94.2z"/>
	<path id="XMLID_4204_" d="M219.7,253.4c-1.8-0.4-4.9-2.2-6.4-1.3c-2.7,1.7-4.5,4.9-6.7,7.4c-0.5,0.5-1,1-1.5,1.5
		c-0.2-0.6-0.5-1.2-0.5-1.9c0-1-0.3-2.4,0.2-3c2.4-2.4,1.9-3.1-1.3-3c-3.8,0.1-7.6,0.1-11.4,0c-0.7,0-1.9-0.9-2-1.6
		c-0.1-0.8,0.5-2.3,1.1-2.4c3.8-0.9,7.8-2.2,11.6-2c5,0.3,7.5-2.4,10-5.7c1-1.3,1.4-2.9,2.5-4.1c0.5-0.6,2-1,2.7-0.7
		c0.6,0.3,1,1.6,1.1,2.6c0.1,1,0.1,2.3-0.4,2.9c-1.6,1.7-2.1,2.7,0.9,2.7c5.5,0,11.1,0,16.6,0c1,0,2.3-0.2,2.9,0.3
		c0.6,0.5,1.1,2,0.8,2.6c-0.6,1.2-1.7,2.7-2.8,2.9C231.5,251.8,225.9,252.5,219.7,253.4z"/>
	<path id="XMLID_4203_" d="M174.8,145.1c5-0.2,8.9,3.7,8.7,8.7c-0.1,4.7-4,8-9.4,8c-4.5,0-8.9-3.4-9.2-7.1
		C164.8,151.5,171.2,145.2,174.8,145.1z"/>
	<path id="XMLID_4202_" d="M164.9,253.1c0.1,0.6-0.8,2.1-1.3,2.2c-3.9,0.3-8.6-0.9-9,5.3c0,0.3-0.5,0.5-0.7,0.8
		c-0.5-0.3-1-0.5-1.4-0.9c-2.2-1.6-1.9-5-5.6-6c-2.1-0.6-0.4-5.1,2.5-5.3c2.9-0.3,5.9,0.9,8.6-1.9
		C158.9,246,164.3,250.4,164.9,253.1z"/>
	<path id="XMLID_4197_" class="st2" d="M439.5,125c-0.5,5,3.1,8.5,9.2,9.2c4.2,0.5,11-4.9,11.6-9.1c0.6-4.7-3-9.3-7.8-9.7
		C444,114.8,440.1,117.6,439.5,125z M174.8,145.1c-3.6,0.1-10,6.4-9.8,9.6c0.3,3.7,4.6,7.1,9.2,7.1c5.4,0,9.3-3.3,9.4-8
		C183.7,148.7,179.8,144.9,174.8,145.1z M295.9,138.9c-0.2,5.3,2.5,7.9,8.2,8c3.8,0.1,8.3-3.6,8.4-7c0.2-4.1-3.5-9.5-6.8-9.7
		C300.9,130,296.1,134.2,295.9,138.9z M346,144.1c-4.1-4.5-5.5-4.6-11.3-1.6c-2.6,1.4-5.5,2.9-7.1,5.2c-7.7,10.7-14.7,22-23.6,31.9
		c-1.5,1.7-2.3,4-3.8,5.7c-1.5,1.7-2.7,2.2-4.4-0.6c-4.3-6.9-6.6-14.6-10.4-21.7c-1.4-2.6-3-5.2-5-7.3c-4.5-4.7-8.5-5.1-13.5-1.4
		c-4.3,3.2-8.6,6.5-12.3,10.3c-5.1,5.4-11.5,9-17.4,13.3c-4.9,3.5-9.3,7.8-13.9,11.7c-2.5,2.2-4.2,2.3-4.5-1.7
		c-0.1-1.1-1.7-2.1-1.9-3.3c-0.9-5.6-1.4-11.2-2.2-16.8c-0.6-4-1.7-9-5.4-9.8c-4.2-0.9-9.1-1.8-13.4,2.6
		c-11.3,11.4-23.3,22.3-35,33.2c-0.8,0.8-2.3,0.8-3.5,1.2c-0.3-0.9-0.9-1.8-0.8-2.8c0.1-7.1-3-13.7-2.4-21c0.4-4.4-3-8.1-6.5-10.6
		c-1.2-0.9-3.9-0.6-5.5,0.1c-2.4,1-4.4,2.8-6.5,4.3c-7.8,5.5-16.1,10.4-23.2,16.9c-0.6,0.6-1.8,0.6-2.8,0.8c0.3-1,0.4-2,0.8-2.9
		c3.4-7.8,7.4-15.2,13.2-21.6c0.6-0.7,1.2-1.6,1.5-2.5c2.1-6.6,6.9-7.7,13.3-8.7c10.1-1.6,19.9-5.3,29.9-8c5.3-1.5,10.7-4,15.9-3.9
		c8.6,0.2,15.7-4.7,23.9-5.4c0.9-0.1,1.8-1.2,2.6-1.1c9.6,1.5,18.7-2.9,28.3-2.3c3.9,0.3,7.9,0.3,11.7-1.9c3.8-2.2,8.2-2.3,12.6-2.4
		c4.2,0,8.4-1.2,12.7-2c4.2-0.7,8.4,1,12.9-1.8c2.7-1.7,7.4-0.3,12.2-0.3c5.5,0.9,11.5-0.9,17.5-3c2.4-0.9,5.3-1.3,7.8-1.1
		c10.6,1,21-1,31.3-2.6c4.6-0.7,9.9-0.1,13.5-2.1c4.5-2.5,8.9-0.2,12.8-1.9c5.3-2.2,10.5-1.9,15.8-1.9c5.4,0,10.4-2,15.7-2.5
		c6.7-0.6,13.1-4.2,20.2-3.8c3.8-4.8,9.6-0.5,14.3-3.2c3.7-2.1,8.3-3.7,13.3-3.3c2.7,0.2,5.6-1.3,8.3-2.2c1.2-0.4,2.3-1.5,3.4-1.7
		c7.3-0.8,14.8-0.9,22-2.4c5.1-1.1,10.4-1.1,15.3-3.2c1.8-0.8,3.9-0.6,5.9-0.7c0.6,0,1.2,0.5,1.8,0.8c-0.3,0.5-0.6,1.1-1,1.5
		c-6.5,5.9-8.6,14.5-13.3,21.6c-3.9,6-7.3,12.4-11.8,17.9c-3.3,4.1-7.8,7.4-12.3,10.2c-10.5,6.7-20.5,13.8-29,23
		c-2.7,2.9-6.2,5-9.3,7.4c-6.4,5-6.4,5-10.3-2.2c-3.5-6.5-6.8-13.2-10.5-19.6c-1.7-2.9-3.9-5.7-6.6-7.6c-2.4-1.7-5.9-2.2-8.3,0.6
		c-4.8,5.7-11.2,9.8-15,16.7c-3.1,5.5-8.2,9.7-12.2,14.8c-3.5,4.4-6.7,9-9.8,13.6c-1.4,2.3-2.3,0.6-2.7-0.2
		c-4.6-9.7-12.2-17.6-16.3-27.6C350.7,149.7,348.4,146.7,346,144.1z"/>
	<path id="XMLID_4196_" class="st4" d="M117.1,215.9c4.4-0.1,8,4,8.3,9.1c0.2,2.9-6,9.5-9,9.6c-4.8,0.3-9.8-5.2-9.7-10.7
		C106.8,219.3,111.1,216,117.1,215.9z"/>
	<path id="XMLID_4195_" class="st4" d="M123.1,108.8c0.1,0.9-0.4,1.8-0.7,2.8c-0.5-0.3-1.1-0.5-1.4-0.9c-2.5-3.1-5.3-6-7.2-9.4
		c-3.2-5.5-5.9-11.3-8.8-17c-1.3-2.6-0.6-3.6,3.3-3.7c0.3,0.2,2,0.6,2.2,1.4c2.3,8.5,8.5,15,11.2,23.2
		C122.2,106.5,122.9,107.6,123.1,108.8z"/>
	<path id="XMLID_4194_" class="st6" d="M136.2,315.8c-21.5,0-42.9,0.1-64.4,0.1c-0.7,0-1.4-0.8-2.2-1.2c0.6-0.3,1.2-0.8,1.7-0.8
		c12.3,1.4,24.2-3.6,35.3-2.2c6.5,0,12.4,1.6,16.7-0.5c4.7-2.2,10.3,0.5,14-3.8c7.5,1.4,14.5-2.3,22-2.2c16.6,0.2,33.3-0.5,49.9,0.1
		c26.1,1,52-3,78.1-2.4c2.4,0.1,4.8-0.1,7.3,0c0.6,0,1.1,0.6,1.7,1c-0.5,0.4-1,0.9-1.6,1c-0.6,0.2-1.4,0.1-2.1,0
		c-10.2-0.7-20,2.9-30.3,2.5c-4.3-0.2-8.9,1.8-13.7,1.9c-4.6,0.1-9.1,1.6-13.7,1.9c-4.8,0.4-10.1-1.1-14.4,0.4
		c-7.4,2.5-14.7,1.5-22.1,1.8c-2.2,0.1-3.6,1.3-5.4,2c-4.4,1.9-8.6,3-14,0.8c-10.4-4.2-27.8-3.6-39.6-0.7
		C138.2,315.8,137.2,315.8,136.2,315.8z"/>
	<path id="XMLID_4182_" class="st6" d="M270.1,246.9c1.7,0,3.4,0.1,5.1-0.1c0.8-0.1,1.9-0.9,2-1.5c0.2-0.8-0.5-2.4-0.9-2.5
		c-3.2-0.3-5.8-3.1-9.3-2.2c-2.2,0.6-5,3.5-4,4.7c0.8,1,2.7,1.2,4.1,1.5C268,247.1,269.1,246.9,270.1,246.9z M239.9,213.7
		c-5.7-1.9-8.6,3.1-11.9,6.8c-2.1,2.3-0.4,8,2.4,9.7c5.6,3.6,10.1,2.8,15.5-2.8c2.9-3,2.5-4.9,1.2-9.9
		C246,213.4,243.6,213.5,239.9,213.7z M305.8,251.3c-1,0.8-2.6,1.4-2.8,2.3c-1.2,5.9-5.4,6-10,5.7c-1.7-0.1-3.6-0.4-5.1,0.1
		c-1.5,0.5-3,1.7-3.9,2.9c-0.4,0.5,0.6,3,1.1,3.1c2.7,0.3,5.5,0.1,8.3,0.2c0.9,0,1.8,0.6,2.7,0.9c-0.7,0.7-1.3,1.5-2,2.2
		c-0.2,0.2-0.5,0.5-0.7,0.7c-1.8,2.7-3.8,5.3-5.4,8.2c-0.5,1,0,2.6,0.3,3.9c0.1,0.4,1.1,0.5,2,0.8c0.6-0.5,1.5-0.9,2.1-1.7
		c2.7-3.4,6.1-6.5,7.6-10.3c1.6-4,3.8-4.6,7.5-5c4.5-0.4,8.9-1.7,13.3-2.9c0.9-0.2,1.5-1.4,2.2-2.1c-0.8-0.4-1.6-1-2.5-1.1
		c-3.1-0.1-6.2,0-9.3,0c-4.3-0.1-4.3-0.1-4.8-5.2C306.4,253.2,306,252.2,305.8,251.3z M157.9,247.2c-2.6,2.8-5.7,1.6-8.6,1.9
		c-2.8,0.3-4.6,4.8-2.5,5.3c3.7,1,3.4,4.4,5.6,6c0.5,0.3,1,0.6,1.4,0.9c0.3-0.3,0.7-0.5,0.7-0.8c0.4-6.2,5.1-5,9-5.3
		c0.5,0,1.5-1.5,1.3-2.2C164.3,250.4,158.9,246,157.9,247.2z M372.6,273.6c3.6,1.4,2.1-3.2,3.9-4.6c1.5-1.2,1.9-3.9,3.1-6.4
		c-0.8-0.8-1.7-1.7-2.6-2.7c-0.2-0.2-0.5-0.5-0.7-0.7c-0.3,0.9-0.5,1.9-1.1,2.6c-1.5,1.9-2.1,3.9-2.2,6.4
		C372.9,270,368.3,271.9,372.6,273.6z M387.7,240.5c-1-0.2-2.2-0.4-3,0.1c-0.6,0.4-1,1.6-1.1,2.5c-0.1,0.5,0.5,1.4,1,1.5
		c1,0.2,2,0.1,3.1,0.1c5.1,0.1,7-0.7,6.2-2.6C392.5,238.8,389.7,241,387.7,240.5z M117.1,215.9c-6,0.1-10.4,3.4-10.4,8
		c-0.1,5.5,4.9,11,9.7,10.7c3-0.2,9.2-6.7,9-9.6C125.2,219.9,121.5,215.9,117.1,215.9z M321.1,214.8c-0.5,3.8-0.4,7,3.3,9.1
		c4,2.4,8.1,3.2,11.7-0.1c2.9-2.6,5.6-5.7,7.4-9.1c2.1-4.1-4-12.3-8.5-11.5c-2.8,0.5-5.3,2.2-8,3.2
		C322.9,207.9,319.7,209.9,321.1,214.8z M213.3,252.1c1.5-0.9,4.6,0.9,6.4,1.3c6.2-0.9,11.8-1.6,17.3-2.7c1.1-0.2,2.2-1.7,2.8-2.9
		c0.3-0.6-0.2-2.2-0.8-2.6c-0.7-0.5-1.9-0.3-2.9-0.3c-5.5,0-11.1,0-16.6,0c-3,0-2.4-1.1-0.9-2.7c0.5-0.6,0.5-1.9,0.4-2.9
		c-0.1-0.9-0.4-2.3-1.1-2.6c-0.7-0.3-2.1,0.1-2.7,0.7c-1,1.2-1.5,2.9-2.5,4.1c-2.5,3.2-5.1,6-10,5.7c-3.8-0.2-7.7,1.1-11.6,2
		c-0.6,0.1-1.2,1.6-1.1,2.4c0.1,0.6,1.2,1.6,2,1.6c3.8,0.2,7.6,0.1,11.4,0c3.2-0.1,3.7,0.6,1.3,3c-0.5,0.5-0.3,2-0.2,3
		c0,0.6,0.3,1.2,0.5,1.9c0.5-0.5,1.1-1,1.5-1.5C208.8,257,210.6,253.8,213.3,252.1z M354.4,286.3c-2.3,0-4.9-1-6.7,1.4
		c-0.1,0.2-1.2,0-1.4-0.3c-0.2-0.6-0.5-1.6-0.1-2c5.5-7.1,11.1-14.2,16.8-21.1c0.9-1.1,2.6-1.6,4-2.4c-2.5-3.2,0.4-6.5-0.1-9.7
		c0-0.2-1.3-0.5-1.9-0.4c-1.2,0.3-3.3,0.7-3.4,1.5c-1.5,6.3-6.1,6.1-11,6c-1.3,0-2.7,1.7-4,2.7c1,1.1,1.9,3.1,3.2,3.3
		c4,0.8,3.3,2,1.5,4.7c-3.5,5.1-6.3,10.6-9.7,15.7c-2.4,3.6-7,3.7-10.5,4.5c-8.2,1.7-16.7,2.1-25,3c0-0.4-0.1-0.7-0.1-1.1
		c-9.4,0.8-18.8,2-28.2,2.4c-9.3,0.4-18.7,0.1-28.1,0.1c-2.4,0-4.9,0-7.3,0c-0.6,0-1.2-0.5-1.8-0.7c0.3-0.5,0.5-1,0.9-1.5
		c5.1-7.6,10.3-15.2,15.4-22.7c3.1-4.6,4.6-7.1,4-8.5c-0.4-0.9-2.5-2-2.6-1.9c-2.9,3.3-6.4,4.6-10.9,4.3c-0.9-0.1-1.9,1.8-2.9,2.8
		c1.1,0.4,2.2,1,3.4,1.1c2.9,0.2,3.5,1.4,2,3.9c-3.8,6.4-7.6,12.9-11.4,19.3c-0.8,1.4-1.6,2.7-2.5,4.1c-0.5,0.9-1.8,1.8-2.8,1.9
		c-6.9,0.2-13.9,0.2-20.8,0.1c-6.7-0.1-13,3.4-20,2.3c-3.7-0.6-7.6,0.2-11.4-0.2c-3.2-0.3-6.8,1.9-9.5-1.4c1.8-2.4,3.7-4.7,5.5-7.1
		c1.7-2.4,4.4-4.8,4.7-7.4c0.5-4.7,5-2.3,6.7-4.7c0.5-0.7,2.6,0,4-0.1c8.7-0.7,17.5-1.3,26.2-2.2c2.2-0.2,4.4-1.2,6.2-2.4
		c1.5-1,4.1-2.6,2.6-4.8c-1-1.4-4.5-2.8-5.4-2.2c-3,2.1-6,0.8-8.9,1.2c-6.3,0.8-12.6,1.4-18.9,2.2c-3.3,0.4-4.2-1-3.9-4
		c0.2-2.6-1.8-2.7-3.4-1.8c-1.4,0.8-2.5,2.3-3.7,3.6c-3.8,4.1-8.1,7.1-14,6.4c-2.4-0.3-4,0.8-5.2,2.5c-0.5,0.7-0.7,1.9-0.6,2.8
		c0,0.4,1,0.9,1.6,1c2.1,0.1,4.2,0.1,6.2,0c2.5-0.1,3,1.5,2.2,3.3c-1.2,2.9-2.4,6.1-4.4,8.5c-2.9,3.5-4.8,9.4-11.4,7
		c-8.6,2.9-17.4,2.1-26.2,2.1c-1.2,0-2.3-0.8-3.5-1.2c0.5-1.2,1-2.3,1.7-3.5c0.9-1.7,1.9-3.4,2.9-5c2.5-3.7,4.1-8.4,9.4-9.6
		c0.6-0.1,3.4-1,1.7-3.6c-1.2-1.8-1.5-4.1-2.4-6.1c-0.1-0.2-1.7-0.2-1.9,0.1c-3.5,5.5-9,3.9-14,4c-2.8,0-5.6-0.2-7.2,2.7
		c-0.3,0.5-0.7,1.4-0.5,1.8c0.4,0.7,1.2,1.6,1.9,1.7c1.3,0.3,2.8,0,4.1,0.1c2,0.1,4,0.4,6,0.6c-0.7,2.4-1.3,4.8-2.2,7.1
		c-0.4,0.9-1.6,1.4-2.1,2.3c-2.3,3.6-4.4,7.2-6.6,10.8c-7.4-0.6-14.9,1.3-22.3-1.1c-3.4-1.1-8.2-2-10.9-0.4
		c-3.4,2.1-6.5,1.5-9.8,1.6c-6.9,0.2-13.9,0.1-20.8,0.1c-1.3,0-2.5-0.5-3.8-0.8c0.6-1.4,1.2-2.9,1.9-4.3c0.7-1.4,1.3-3,2.2-4.3
		c0.8-1.1,1.9-2.8,2.9-2.8c6.7-0.1,13-3.9,19.9-2.2c0.9,0.2,1.4,1.8,2,2.7c0.4,0.5,0.8,0.8,1.2,1.2c3.3-6.5,10.2-5.5,15.7-7.4
		c1.2-0.4,3.2-0.1,3.7-0.9c1.6-2.4,7.3-0.1,6.2-4.8c-0.7-3-4.2-1-6.3-1.4c-1.3-0.2-2.8-0.2-4.1,0c-3.2,0.5-4.3-0.9-4-4
		c0.1-0.7-0.8-2-1.4-2.1c-0.8-0.2-2.5,0.5-2.5,0.9c-0.5,5.4-4.3,5-8.2,5.3c-5,0.3-10.2-1.5-15.1,1.2c-2.3,1.3-1.6-0.9-1.8-1.8
		c-0.2-1-0.3-2-0.4-3c-0.7,0.3-1.8,0.4-2.2,0.9c-4.2,6.7-10.9,4.4-16.8,4.6c-0.4,0-1.6-2.5-1.2-3c2.5-3.5,5-7.2,8.1-10.2
		c2.9-2.8,9.2-1.4,12.6,1.8c0.7,0.7,2.7,1,3.4,0.5c7.4-5.6,7.4-5.7,13.1-5.7c8.3,0,16.7-0.6,25,0.1c6,0.5,11.1-2.4,16.8-2.4
		c1.1,0,2.3-1.3,3.2-2.2c1.4-1.5,1.5-3.1-0.7-3.9c-2.4-0.9-4.9-1.8-7.5-2c-3.4-0.3-6.9,0-10.4-0.1c-3.8-0.1-3.9-0.3-2.6-4
		c0.5-1.5,0.9-3.1,1.1-4.7c0.1-0.5-0.6-1.5-1-1.5c-0.9,0-2.6,0.2-2.7,0.6c-2.5,11.9-11.1,12.3-20.9,12c-6.6-0.2-13.3,1.3-19.9,1.9
		c-1.1,0.1-2.3-0.7-3.2-1.5c-0.3-0.2,0.3-2,1-2.5c6.9-6,10.1-14.7,15.6-21.6C79,225,85,218.5,90.9,212.1c1.3-1.4,3.3-2,5-3
		c12.8-7.7,26.4-14.1,38.1-23.6c1.6-1.3,3.1-1.5,3.9,0.8c0.8,2.4,1.6,4.9,2.1,7.5c0.8,4.2,0.5,8.9,2.4,12.5c1.4,2.7,1.6,7.1,6.7,7.9
		c2.6,0.4,3.9,1.4,6.8-0.2c6.1-3.3,11.9-6.6,17.2-11.3c7.5-6.7,15.4-12.9,23.2-19.2c0.3-0.3,1.7,0,1.9,0.4c0.9,1.7,1.8,3.5,2.1,5.3
		c0.9,5.6,1.4,11.2,2.2,16.8c0.3,1.9,1.2,3.7,2.1,5.4c1.6,3.1,5.6,3.9,9.1,2.6c10.2-3.9,18.1-11.5,27.2-17.1
		c3.9-2.4,7.4-5.5,11.2-8.2c3.5-2.5,7.2-4.6,10.5-7.3c2.7-2.2,4.9-4.8,7.4-7.3c1.8,3.4,3.2,7,5.3,10.2c4,6.3,4.3,14.2,10,19.9
		c4.5,4.5,5.2,5.1,10.5,3.3c4.3-1.5,7.5-4.2,10.5-7.3c3.9-3.9,8-7.7,11.7-11.8c4-4.5,7.6-9.3,11.3-14c0.6-0.7,0.6-1.9,1.3-2.6
		c2.6-2.8,5.3-5.4,8-8.1c1.7,3,3.4,6.1,5.2,9.2c3.7,6.4,7,13.1,11.2,19.2c2.8,4.2,6.9,8.6,11.8,8.5c4-0.1,8.6-3.3,11.7-6.3
		c6.8-6.6,13.5-13.6,18.9-21.3c2.4-3.4,5-6.3,7.7-9.2c4.9-5.2,5.7-5,9.5,1.7c2.9,5.1,5.5,10.2,8.4,15.2c3,5.1,13.7,7.5,18.8,4.4
		c0.6-0.4,0.9-1.1,1.5-1.4c5.2-2.5,10.1-5.6,14.4-9.5c0.2,0.3,0.6,0.7,0.6,0.8c-3.2,5.3-5.6,11.3-9.8,15.7
		c-11,11.6-17.4,26.4-27.5,38.7c-5.2,6.3-9.6,13.3-14.2,20.1c-5.7,8.6-11,17.5-15,27.1c-1.9,4.4-4.1,8.7-6.4,13
		c-0.3,0.6-2.3,1.2-2.6,0.9c-3.9-4.7-9.6-0.6-14.4-3C364.6,285.4,359.1,286.4,354.4,286.3z M350.4,238.4c-8.6,0-17.3-0.1-25.9,0.1
		c-4.8,0.1-2.5-1.7-1.5-3.7c0.2-0.4-1.3-2.4-2-2.4c-1.5,0-3.4,0.4-4.5,1.4c-5,4.4-4.9,4.5-9.3,4.7c-1.4,0.1-2.9-0.2-4,0.3
		c-1.2,0.5-2.1,1.8-2.8,2.9c-0.1,0.2,1.3,1.4,2.1,2.1c0.5,0.4,1.2,1,1.7,0.9c3.9-0.7,4.7,1,4.6,4.6c-0.1,2.4,2.6,2.5,3.5,1
		c3.7-6.2,9.6-5.6,15.4-5.5c3.1,0,6.2,0,9.3,0c6.6,0,13.1,0.1,19.7-0.2c1.3-0.1,2.6-2,3.8-3c-1.3-1-2.5-2.6-3.9-3
		C354.7,238,352.5,238.4,350.4,238.4z"/>
	<path id="XMLID_4181_" class="st6" d="M47.4,291c0.4,0,1.3,1.8,1.1,2.4c-1.2,3-5.4,4.4-4.2,8.7c0.1,0.2-1.4,1.2-2.3,1.3
		c-2.4,0.2-4.8,0.1-7.2,0.1c-2.4,0-4.8,0.1-7.2,0c-2.2-0.1-1.9-1.1-0.6-2.3c0.8-0.7,1.9-1.4,2.1-2.2c0.8-3.5,3.2-6.7,6-7.6
		C38.8,290.1,43.2,290.9,47.4,291z"/>
	<path id="XMLID_4180_" class="st4" d="M152.3,85.9c0.4-0.7,1.6-1,2.5-1.1c0.5-0.1,1,0.7,1.5,1c0,0.7,0.3,1.6,0,2.1
		c-2.9,5.1-5.8,10.1-8.7,15.1c-5.4,9.2-10.6,18.5-16.1,27.6c-8.7,14.5-17,29.2-26.9,43c-10,14-21.5,27.2-28.9,43.1
		c-1.6,3.5-4,6.7-6.5,9.8c-6.8,8.2-12,17.6-19.6,25.2c-10,10-17.9,21.8-24.5,34.5c-2.7,5.2-6.7,9.7-10.2,14.5
		c-0.5,0.6-1.8,0.5-2.7,0.8c0-0.7-0.2-1.7,0.1-2.2c4.7-6.6,7.2-14.4,11.3-21.3c4.2-7,8.9-13.7,13.6-20.3c1.8-2.5,4.4-4.4,6.5-6.7
		c6.4-7.2,13.1-14,17.4-22.9c2.1-4.4,6.2-7.8,9-11.9c3.7-5.4,6.8-11,10.3-16.5c2.8-4.4,5.7-8.8,8.8-13c9.1-12.4,18.1-24.7,26-38
		c7.6-12.8,14.6-26,22.6-38.4C143,102.2,147.8,94.1,152.3,85.9z"/>
	<path id="XMLID_4154_" d="M523,51.3c-0.1-0.1-0.3-0.3-0.4-0.4c0.3-3.2-0.9-5.4-4.2-6.2c-0.3,3.2,0.9,5.4,4.2,6.2
		C522.7,51,522.9,51.2,523,51.3z M526,54.8c0.1,0,0.4-0.4,0.6-0.6c-0.3-0.4-0.7-0.8-1-1.2c-0.1,0.1-0.2,0.2-0.3,0.3
		c-1.1-0.8-1.7-1.4-2.2-1.8c0.5,0.5,1,1,1.5,1.5c0.2,0.2,0.3,0.3,0.5,0.5c-0.2,0.1-0.3,0.3-0.5,0.5C525.1,54.2,525.5,54.6,526,54.8
		C525.9,54.8,525.9,54.8,526,54.8z M511,192.8c-0.2,0.9-0.9,2.2-0.5,2.8c3.5,4.8,4,10.3,4.2,16c0.1,3.1,0.5,7.3,2.5,9.2
		c5.9,5.7,8.5,13.1,12,20c0.3,0.6,0.7,1.1,1.1,1.6c0.3-0.5,0.9-1.1,1-1.7c0.1-1.4,0-2.8,0-4.1c0-6-3.4-11.6-2.2-17.8
		c0.1-0.6-1.5-1.4-1.8-2.3c-2.9-8.9-10.5-14.8-14.8-22.9C512.2,193.1,511.5,193,511,192.8z M499.7,23.6c2.9,3.7,6,7.3,8.8,10.7
		c0.5,0.1,1,0.2,1.5,0.3c-0.2,3,1,5.1,4.2,5.9c0-0.5,0.1-1,0-1.5c-0.2-2.4-1.4-4.1-4.2-4.8c0,0,0,0,0,0c0.1-0.7,0.3-1.5,0-2
		c-3.3-7.1-7-14-12.5-19.7c-0.4-0.4-1.8-0.3-2.1,0.1c-0.6,0.8-1.4,2.2-1,2.8C496,18.2,497.7,21,499.7,23.6z M47.4,291
		c-4.1-0.2-8.5-1-12.3,0.3c-2.8,0.9-5.2,4.1-6,7.6c-0.2,0.9-1.4,1.5-2.1,2.2c-1.3,1.2-1.6,2.2,0.6,2.3c2.4,0.1,4.8,0,7.2,0
		c2.4,0,4.8,0.1,7.2-0.1c0.8-0.1,2.3-1,2.3-1.3c-1.3-4.3,3-5.7,4.2-8.7C48.7,292.8,47.8,291.1,47.4,291z M154.9,84.8
		c-0.9,0.1-2.2,0.4-2.5,1.1c-4.6,8.2-9.3,16.3-14.4,24.2c-8.1,12.5-15.1,25.7-22.6,38.4c-7.9,13.3-16.9,25.7-26,38
		c-3.1,4.2-6,8.6-8.8,13c-3.5,5.5-6.7,11.1-10.3,16.5c-2.8,4.1-6.9,7.5-9,11.9c-4.3,8.9-11,15.7-17.4,22.9c-2.1,2.3-4.7,4.2-6.5,6.7
		c-4.7,6.6-9.4,13.4-13.6,20.3c-4.2,6.9-6.7,14.7-11.3,21.3c-0.4,0.5-0.1,1.4-0.1,2.2c0.9-0.3,2.3-0.2,2.7-0.8
		c3.5-4.7,7.5-9.3,10.2-14.5c6.6-12.7,14.5-24.4,24.5-34.5c7.7-7.7,12.9-17,19.6-25.2c2.5-3,4.9-6.2,6.5-9.8
		c7.3-15.9,18.8-29,28.9-43.1c9.9-13.8,18.2-28.5,26.9-43c5.5-9.1,10.7-18.4,16.1-27.6c2.9-5,5.9-10,8.7-15.1c0.3-0.5,0-1.3,0-2.1
		C155.9,85.5,155.3,84.8,154.9,84.8z M660.3,288.8c0.4,0.3,0.8,0.7,1.3,0.9h0c0.1,0,0.4-0.4,0.6-0.6c-0.3-0.4-0.7-0.8-1-1.2
		c-0.1,0.1-0.3,0.3-0.4,0.5h0c-0.1-0.1-0.3-0.3-0.5-0.5c0-0.9-0.1-1.7-0.4-2.5c-1-3.2-3.9-5.3-5.9-7.9c-0.2-0.5-0.3-1.1-0.6-1.6
		c-0.1-0.1-0.8,0.2-1.3,0.3c0,0.1,0.1,0.1,0.1,0.2c0.3,0.4,0.5,0.7,0.8,1.1c0.3,0.3,0.6,0.5,0.8,0.8c0,0.3,0,0.7,0,1
		c0,3.5,1.8,5.9,4.7,7.7c0,0,0.1,0.1,0.1,0.1c0.6,0.4,1.3,0.9,2.1,1.3C660.6,288.5,660.5,288.6,660.3,288.8z M650.9,273.3
		c0.2-0.2,0.5-0.5,0.7-0.7c-0.2-0.4-0.5-0.9-0.7-1.3c-0.2,0.2-0.7,0.5-0.7,0.7C650.4,272.4,650.7,272.9,650.9,273.3z M638.6,250.2
		c0.1,0,0.4-0.4,0.6-0.6c-0.3-0.4-0.7-0.8-1-1.2c-0.1,0.1-0.3,0.3-0.4,0.5c-0.1-0.1-0.3-0.3-0.5-0.5c-0.3-1.6,1-4-2.1-4.2
		c-0.2-0.1-0.4-0.2-0.6-0.3c0.3-0.3,0.6-0.6,0.6-0.7c-2.1-3.2-1-7.8-4.3-10.5c-0.4-0.3-1-0.4-1.4-0.4c-0.2,0-0.5,0.5-0.5,0.8
		c0,0.2-0.1,0.4-0.1,0.7c0,0.1,0,0.2,0,0.3c0,0.1,0,0.2,0,0.3c0.4,3.3,3.2,8.9,5.4,9.9c0.3,0,0.6,0,0.9,0.1c0,0,0,0.1,0,0.2
		c0.1,1.3-0.6,3.1,1,3.7c0.3,0.3,0.8,0.6,1.3,0.8c-0.1,0.1-0.2,0.2-0.3,0.3C637.8,249.6,638.2,250,638.6,250.2L638.6,250.2z
		 M640.5,252.5c-0.2,0.5-0.5,0.9-0.6,1.4c0,0.2,0.4,0.5,0.7,0.7c0.2-0.5,0.5-0.9,0.7-1.3C640.9,253,640.7,252.8,640.5,252.5z
		 M642.1,261.7c0.5,0,1,0,1.4,0.1c0,0.2,0,0.3,0,0.5c0.1,1.9,0.9,3.3,2.5,4.2c0,0,0,0,0,0c0.6,0.4,1.2,0.8,2,1.2
		c-0.1,0.1-0.2,0.2-0.4,0.4c0.4,0.3,0.8,0.7,1.2,0.9c0,0,0,0,0,0c0.1,0,0.4-0.4,0.6-0.6c-0.3-0.4-0.7-0.8-1-1.2
		c-0.1,0.1-0.3,0.3-0.4,0.5c-0.1-0.1-0.3-0.3-0.5-0.5c0-0.5,0.1-1,0-1.5c-0.1-2.4-1.4-4.1-4.2-4.8c-0.2-0.1-0.3-0.2-0.5-0.3
		c0.3-0.3,0.4-0.5,0.4-0.6c0-0.9-0.3-1.8-0.5-2.7c-0.5,0.1-1.3,0.2-1.3,0.4c0,0.1,0,0.3,0,0.4C641.8,259,642,260,642.1,261.7z
		 M620.7,215.8c0,1.5-0.6,3.3,2,3.4c-0.3-1.6,1-4-2.1-4.2c-0.2-0.1-0.3-0.2-0.5-0.3c0.3-0.3,0.4-0.5,0.4-0.7c0-0.9-0.3-1.8-0.5-2.7
		c-0.5,0.1-1.3,0.2-1.3,0.4c0,0.1,0,0.3,0,0.4c0,1,0.2,2,0.4,3.7C619.8,215.9,620.3,215.8,620.7,215.8z M624.9,222.3
		c0.3,1,0.8,2,1.2,3c0,0,0-0.1,0.1-0.1c0.3-0.5,0.5-1,0.9-1.7c-0.4-0.6-0.8-1.4-1.3-2.1c-0.1,0.1-0.3,0.3-0.5,0.4
		c-0.9-0.9-1.4-1.4-1.8-1.8c0.5,0.5,0.9,0.9,1.4,1.4c0.1,0.2,0.2,0.4,0.3,0.5C625,222.1,624.9,222.2,624.9,222.3z M628.3,229.3
		c0.2,0,0.5-0.4,0.7-0.6c-0.5-0.3-0.9-0.5-1.3-0.7c-0.3,0.3-0.5,0.5-0.7,0.7C627.4,228.9,627.8,229.2,628.3,229.3z M548.3,145.3
		c0.5,0,1,0.1,1.4,0.2c-0.1,0.8-0.1,1.5,0.1,2.1c5.4,10.6,8.5,22,12.5,33.1c3.3,9,7.5,17.7,13.1,25.5c2.1,2.9,4.1,5.9,5.7,9.1
		c3.2,6.3,6.5,12.4,9.5,18.8c2.9,6.4,7.5,11.9,9.5,18.8c0,0.1,0.1,0.2,0.1,0.3c0.1,0.2,0.2,0.4,0.3,0.5c0.2,0.3,0.4,0.5,0.7,0.7
		c0,0,0.1,0.1,0.1,0.1c0.7,0.7,1.7,1.4,3,2.5c0,0.1,0.1,0.2,0.1,0.2c-0.2,0.2-0.3,0.3-0.3,0.4c0.3,1,0.8,2,1.2,3
		c0-0.1,0.1-0.1,0.1-0.2c0.3-0.5,0.5-1,0.9-1.7c-0.4-0.6-0.8-1.4-1.3-2.1c-0.1,0.1-0.4,0.3-0.6,0.5c-0.1-0.1-0.1-0.1-0.2-0.2
		c-0.1-0.1-0.1-0.2-0.2-0.3c0.4-6-2.4-11.4-3.5-17.1c-1.9-9.5-8.1-17.5-9.1-27.3c-5-6-4.8-14.7-11.3-20.3c-4.2-3.6-7.4-9.2-9.4-14.5
		c-3.2-8.6-8.7-15.7-12.9-23.6c-0.4-0.7-0.7-1.4-1.1-2.1c-1.5-3.1-3.2-6.3-7.1-7.4c-0.2-0.1-0.3-0.2-0.5-0.3
		c0.3-0.3,0.4-0.5,0.4-0.6c0-0.9-0.3-1.8-0.5-2.7c-0.5,0.1-1.3,0.2-1.3,0.4c0,0.1,0,0.3,0,0.4C548,142.6,548.1,143.6,548.3,145.3z
		 M547.2,93c2.9,6.8,6.2,13.4,8.8,20.3c3.8,10.2,7.3,20.5,12.5,30.2c4.4,8.2,9.5,16.3,12.2,25c2.2,7,5.6,13,8.8,19.3
		c3.2,6.3,7.2,12.2,10.7,18.4c2.8,5.1,6.1,10,7.8,15.5c2.8,8.7,7.3,16.5,11.6,24.3c5,9.1,12.6,16.9,17.2,26.2
		c4.7,9.4,11,18.2,13.3,28.8c0.4,1.7,2.5,3.1,4,4.5c0.4,0.4,1.6,0.3,2.1,0c0.8-0.5,1.4-1.4,2.3-2.4c-0.4-0.8-0.7-1.7-1.1-2.6
		c-1.5-2.9-3.4-5.6-4.3-8.6c-4.5-13.8-12.6-25.5-20.7-37.2c-7.6-10.9-14.5-22.1-18.6-34.9c-1.4-4.5-3.9-8.8-6.6-12.8
		c-5-7.6-9.5-15.4-13.5-23.5c-3.7-7.5-6.9-15.2-10.5-22.7c-4.6-9.5-10.2-18.6-13.5-28.7c-2.2-6.7-4.4-13.4-7.5-19.8
		c-3.6-7.5-8.9-14.2-10.4-22.7c-0.2-1.1-1.6-2.2-2.8-2.9c-0.7-0.4-1.9-0.2-2.7,0.1c-0.4,0.1-0.7,1.2-0.6,1.7
		C546,90,546.5,91.5,547.2,93z M559.3,35.3c-7,11.5-13.6,22.5-19.9,32.9c-0.3,0.5-0.6,0.9-0.8,1.4c-0.1,0.1-0.2,0.2-0.2,0.4
		c-3.2,5.3-6.4,10.5-9.4,15.6c-1.1,1.3-2.4,2.4-3.8,3.4c-7.5,12.2-15.2,24.3-23,36.3c-8.2,12.7-15.2,26.3-22.8,39.4
		c-4.3,7.4-8.8,14.8-13.3,22.1c-4.6,7.3-9.3,14.5-14.1,21.7c-5.1,7.5-10.6,14.8-15.1,22.8c-4,7-7.5,14.4-12.2,21
		c-1.5,2.2-4.5,3.4-3.6,6.8c-0.4,0.2-0.8,0.4-1.2,0.7c-0.1,0.1-0.2,0.1-0.4,0.2c0,0-0.1,0-0.1,0.1c-2.6,1.6-4.7,3.5-4.6,7.2
		c0,0.1,0,0.1,0,0.2c-0.5,0.2-1.1,0.3-1.6,0.6c-0.1,0.1,0.2,0.8,0.4,1.3c0.1,0,0.1-0.1,0.2-0.1c0.4-0.3,0.7-0.6,1.1-0.8
		c0-0.3,0-0.6,0-0.9c0.1-0.1,0.2-0.1,0.3-0.2c2.9-1.6,5.7-3.4,5.9-7.1c0.5-0.7,1-1.5,1.6-2.4c1.3-1,2.6-2,3.8-3.2
		c1.2-1.1,2-2.6,2.9-4c8.2-12.7,16.2-25.4,25.5-37.4c4.5-5.8,10-11.1,13-18.4c3-7.1,9-12.9,12.8-19.7c5.1-9.3,11.5-17.9,15.7-27.8
		c2.4-5.6,6.2-10.6,9.4-15.9c6.8-11.1,14-21.9,20.4-33.2c5.1-9,10.6-18.1,16.7-26.2c8.3-11.1,13.8-23.4,20.1-35.5
		c0.7-1.4,1-3.1,1.3-4.7c0,0,0,0,0,0c0.1-0.5-0.5-1.1-1.2-2.4c-1,1.3-2,2.2-2.5,3.4C560,33.7,559.7,34.5,559.3,35.3z M535.3,216.9
		c5.1,5.2,5.4,13.1,10.3,18.5c1.6,1.8,2.2,4.6,3.2,6.9c0-0.3,0.1-0.5,0.1-0.8c0.4-2.1,0.9-3.5,2.1,0c0,0.5,0.1,1,0.1,1.3
		c-0.1-0.2-0.3-0.3-0.4-0.5c-0.3,0.3-0.6,0.6-0.9,0.9c0.4,0.3,0.8,0.7,1.3,0.9h0c0.1,0,0.4-0.4,0.6-0.6c-0.2-0.8-0.5-1.5-0.7-2
		c-0.1-1.5-0.4-3.8-0.9-7.5c-0.8-6.3-1.6-12.5-2.6-18.7c-0.2-1.5-1.5-2.8-2-4.3c-2.3-6.7-6.3-12.7-10-18.5c-1.6-2.6-1.7-7.3-6.2-7.8
		c-0.1,3.7-1.2,7.8,0,11c0.9,2.2,0.6,4.9,1.8,6.4C534.9,206.5,531.2,212.7,535.3,216.9z M537.2,153.8c1,11.8,4.9,22.8,8.4,34
		c3.4,10.8,5.3,22.3,14.4,30.4c1.1,1,1.6,2.8,2.3,4.2c3.5,7.6,6.9,15.2,10.6,22.6c2.4,4.9,5.2,9.6,7.9,14.4c0.4,0.7,1.6,1,2.4,1.5
		c0-0.5,0-0.9,0.7-0.1c0,0.1,0.1,0.2,0.1,0.3c-0.3,0.3-0.8,0.6-0.7,0.8c0.3,1,0.8,2,1.2,3c0-0.1,0.1-0.1,0.1-0.2
		c0.3-0.5,0.5-1,0.9-1.7c-0.4-0.6-0.8-1.4-1.3-2.1c0,0-0.1,0.1-0.1,0.1c-0.1-0.1-0.1-0.2-0.2-0.2c-0.2-0.6-0.4-1.2-0.7-2
		c0-1,0.4-2.3-0.1-3.1c-5.4-10.1-6.3-21.6-10.4-32.1c-3.6-9.2-6.1-19.1-11.8-27.3c-4.3-6.2-7.7-12.9-10.5-19.6
		c-4.2-10.1-7.7-20.4-13.1-29.9c-0.4-0.8-0.8-1.5-1.2-2.3c-0.3,0.9-1,1.9-0.8,2.7C535.8,149.6,537.1,151.6,537.2,153.8z M121,110.7
		c0.3,0.4,1,0.6,1.4,0.9c0.3-0.9,0.8-1.9,0.7-2.8c-0.2-1.2-0.9-2.4-1.3-3.6c-2.8-8.2-9-14.7-11.2-23.2c-0.2-0.8-1.9-1.2-2.2-1.4
		c-3.9,0-4.6,1.1-3.3,3.7c2.9,5.7,5.6,11.5,8.8,17C115.7,104.7,118.5,107.6,121,110.7z M137.3,307.4c-3.8,4.3-9.4,1.6-14,3.8
		c-4.3,2-10.2,0.4-16.7,0.5c-11-1.4-23,3.6-35.3,2.2c-0.5-0.1-1.2,0.5-1.7,0.8c0.7,0.4,1.4,1.2,2.2,1.2c21.5,0,42.9,0,64.4-0.1
		c1,0,2.1,0.1,3-0.1c11.9-2.8,29.3-3.4,39.6,0.7c5.5,2.2,9.6,1.1,14-0.8c1.8-0.8,3.2-1.9,5.4-2c7.4-0.2,14.7,0.7,22.1-1.8
		c4.4-1.5,9.6,0,14.4-0.4c4.6-0.3,9.1-1.8,13.7-1.9c4.7-0.1,9.4-2.1,13.7-1.9c10.3,0.5,20.1-3.2,30.3-2.5c0.7,0,1.4,0.1,2.1,0
		c0.6-0.2,1.1-0.7,1.6-1c-0.6-0.3-1.1-0.9-1.7-1c-2.4-0.1-4.8,0-7.3,0c-26.1-0.7-52,3.4-78.1,2.4c-16.6-0.7-33.2,0.1-49.9-0.1
		C151.8,305.2,144.8,308.8,137.3,307.4z M116.5,253.5c2.5,0.2,5,1.2,7.5,2c2.2,0.8,2.1,2.4,0.7,3.9c-0.9,0.9-2.1,2.2-3.2,2.2
		c-5.7,0-10.9,2.9-16.8,2.4c-8.2-0.7-16.6-0.2-25-0.1c-5.7,0-5.6,0.1-13.1,5.7c-0.7,0.5-2.7,0.2-3.4-0.5c-3.4-3.2-9.7-4.6-12.6-1.8
		c-3.1,3-5.6,6.6-8.1,10.2c-0.4,0.5,0.8,3.1,1.2,3c5.9-0.2,12.6,2.1,16.8-4.6c0.3-0.5,1.4-0.6,2.2-0.9c0.1,1,0.2,2,0.4,3
		c0.2,0.9-0.5,3.1,1.8,1.8c4.9-2.8,10.1-0.9,15.1-1.2c3.9-0.3,7.7,0.1,8.2-5.3c0-0.4,1.8-1.1,2.5-0.9c0.6,0.1,1.5,1.4,1.4,2.1
		c-0.3,3.1,0.8,4.5,4,4c1.4-0.2,2.8-0.2,4.1,0c2.2,0.4,5.6-1.7,6.3,1.4c1.1,4.7-4.6,2.3-6.2,4.8c-0.5,0.8-2.5,0.5-3.7,0.9
		c-5.5,1.8-12.3,0.9-15.7,7.4c-0.4-0.4-0.9-0.8-1.2-1.2c-0.7-0.9-1.2-2.4-2-2.7c-6.8-1.7-13.2,2.1-19.9,2.2c-1,0-2.1,1.7-2.9,2.8
		c-0.9,1.3-1.5,2.8-2.2,4.3c-0.7,1.4-1.3,2.9-1.9,4.3c1.3,0.3,2.5,0.8,3.8,0.8c6.9,0.1,13.9,0.2,20.8-0.1c3.2-0.1,6.3,0.4,9.8-1.6
		c2.6-1.6,7.5-0.7,10.9,0.4c7.4,2.5,14.9,0.5,22.3,1.1c2.2-3.6,4.4-7.2,6.6-10.8c0.5-0.9,1.8-1.4,2.1-2.3c0.9-2.3,1.5-4.7,2.2-7.1
		c-2-0.2-4-0.5-6-0.6c-1.4-0.1-2.8,0.2-4.1-0.1c-0.7-0.2-1.5-1-1.9-1.7c-0.2-0.4,0.2-1.3,0.5-1.8c1.7-2.9,4.4-2.6,7.2-2.7
		c5-0.1,10.5,1.5,14-4c0.2-0.3,1.8-0.4,1.9-0.1c0.9,2,1.2,4.3,2.4,6.1c1.7,2.5-1.1,3.4-1.7,3.6c-5.3,1.2-6.8,5.9-9.4,9.6
		c-1.1,1.6-2,3.3-2.9,5c-0.6,1.1-1.1,2.3-1.7,3.5c1.2,0.4,2.3,1.2,3.5,1.2c8.8,0,17.6,0.8,26.2-2.1c6.7,2.4,8.5-3.5,11.4-7
		c2-2.4,3.2-5.6,4.4-8.5c0.8-1.8,0.2-3.3-2.2-3.3c-2.1,0-4.2,0.1-6.2,0c-0.6,0-1.6-0.6-1.6-1c0-0.9,0.1-2,0.6-2.8
		c1.2-1.7,2.7-2.8,5.2-2.5c5.9,0.8,10.2-2.3,14-6.4c1.2-1.3,2.3-2.8,3.7-3.6c1.6-0.9,3.5-0.8,3.4,1.8c-0.2,3.1,0.7,4.5,3.9,4
		c6.3-0.8,12.6-1.4,18.9-2.2c2.9-0.4,6,0.9,8.9-1.2c0.9-0.6,4.4,0.8,5.4,2.2c1.6,2.2-1,3.8-2.6,4.8c-1.8,1.2-4.1,2.2-6.2,2.4
		c-8.7,0.9-17.4,1.5-26.2,2.2c-1.4,0.1-3.6-0.5-4,0.1c-1.7,2.4-6.2,0-6.7,4.7c-0.3,2.6-2.9,5-4.7,7.4c-1.7,2.4-3.6,4.7-5.5,7.1
		c2.7,3.3,6.3,1.1,9.5,1.4c3.8,0.4,7.7-0.4,11.4,0.2c6.9,1.1,13.2-2.4,20-2.3c6.9,0.1,13.9,0.1,20.8-0.1c1,0,2.3-1,2.8-1.9
		c0.8-1.4,1.7-2.7,2.5-4.1l2.9,1.8c-0.3,0.5-0.6,1-0.9,1.5c0.6,0.2,1.2,0.7,1.8,0.7c2.4,0.1,4.9,0,7.3,0c9.4,0,18.7,0.3,28.1-0.1
		c9.4-0.4,18.8-1.6,28.2-2.4c0,0.4,0.1,0.7,0.1,1.1c8.3-0.9,16.8-1.4,25-3c3.6-0.7,8.1-0.9,10.5-4.5c3.4-5.1,6.2-10.6,9.7-15.7
		c1.8-2.7,2.6-4-1.5-4.7c-1.2-0.2-2.1-2.2-3.2-3.3c1.4-0.9,2.7-2.7,4-2.7c4.9,0,9.6,0.3,11-6c0.2-0.7,2.2-1.1,3.4-1.5
		c0.6-0.2,1.9,0.1,1.9,0.4c0.5,3.2-2.4,6.5,0.1,9.7c-1.3,0.8-3,1.3-4,2.4c-5.7,7-11.2,14-16.8,21.1c-0.3,0.4-0.1,1.4,0.1,2
		c0.1,0.3,1.2,0.5,1.4,0.3c1.8-2.4,4.4-1.4,6.7-1.4c4.8,0,10.2-1,14.1,1c4.8,2.4,10.5-1.7,14.4,3c0.2,0.3,2.2-0.3,2.6-0.9
		c2.3-4.3,4.5-8.5,6.4-13c4-9.6,9.3-18.5,15-27.1c4.5-6.8,9-13.8,14.2-20.1c10-12.3,16.5-27,27.5-38.7c4.1-4.4,6.6-10.4,9.8-15.7
		c0.1-0.1-0.4-0.5-0.6-0.8c-4.3,3.9-9.2,7-14.4,9.5c-0.6,0.3-0.9,1.1-1.5,1.4c-5.1,3.1-15.8,0.7-18.8-4.4c-2.9-5-5.5-10.2-8.4-15.2
		c-3.8-6.7-4.7-7-9.5-1.7c-2.7,2.9-5.3,5.8-7.7,9.2c-5.4,7.7-12.1,14.7-18.9,21.3c-3.1,3-7.7,6.2-11.7,6.3c-4.9,0.1-9-4.3-11.8-8.5
		c-4.1-6.1-7.5-12.8-11.2-19.2c-1.7-3-3.4-6.1-5.2-9.2c-2.7,2.7-5.4,5.4-8,8.1c-0.6,0.7-0.7,1.8-1.3,2.6c-3.7,4.7-7.3,9.5-11.3,14
		c-3.7,4.1-7.8,7.9-11.7,11.8c-3,3.1-6.2,5.8-10.5,7.3c-5.3,1.8-5.9,1.2-10.5-3.3c-5.7-5.7-6-13.6-10-19.9
		c-2.1-3.2-3.6-6.8-5.3-10.2c-2.4,2.4-4.7,5.1-7.4,7.3c-3.3,2.7-7,4.8-10.5,7.3c-3.8,2.7-7.2,5.8-11.2,8.2
		c-9.1,5.6-17.1,13.1-27.2,17.1c-3.6,1.4-7.5,0.6-9.1-2.6c-0.9-1.7-1.8-3.5-2.1-5.4c-0.9-5.6-1.4-11.2-2.2-16.8
		c-0.3-1.9-1.2-3.6-2.1-5.3c-0.2-0.4-1.5-0.6-1.9-0.4c-7.8,6.3-15.7,12.5-23.2,19.2c-5.2,4.7-11.1,8-17.2,11.3
		c-2.9,1.6-4.2,0.6-6.8,0.2c-5.2-0.9-5.3-5.2-6.7-7.9c-1.9-3.6-1.6-8.3-2.4-12.5c-0.5-2.5-1.3-5-2.1-7.5c-0.8-2.3-2.3-2.1-3.9-0.8
		c-11.6,9.5-25.3,15.9-38.1,23.6c-1.7,1-3.7,1.6-5,3c-6,6.5-12,13-17.4,19.8c-5.5,6.9-8.7,15.6-15.6,21.6c-0.6,0.6-1.2,2.3-1,2.5
		c0.9,0.8,2.1,1.6,3.2,1.5c6.7-0.5,13.3-2.1,19.9-1.9c9.8,0.3,18.4-0.1,20.9-12c0.1-0.4,1.8-0.7,2.7-0.6c0.4,0,1,1.1,1,1.5
		c-0.2,1.6-0.6,3.2-1.1,4.7c-1.3,3.7-1.2,3.9,2.6,4C109.6,253.4,113.1,253.1,116.5,253.5z M400.1,105.2c-5.3,0-10.6-0.3-15.8,1.9
		c-3.8,1.6-8.3-0.6-12.8,1.9c-3.6,2-9,1.4-13.5,2.1c-10.3,1.6-20.7,3.6-31.3,2.6c-2.6-0.2-5.4,0.2-7.8,1.1c-6,2.1-12,3.9-17.5,3
		c-4.8,0-9.5-1.4-12.2,0.3c-4.4,2.8-8.7,1-12.9,1.8c-4.2,0.7-8.4,1.9-12.7,2c-4.4,0-8.8,0.2-12.6,2.4c-3.8,2.2-7.7,2.2-11.7,1.9
		c-9.6-0.6-18.7,3.7-28.3,2.3c-0.8-0.1-1.7,1-2.6,1.1c-8.2,0.7-15.3,5.6-23.9,5.4c-5.3-0.1-10.6,2.5-15.9,3.9
		c-10,2.7-19.7,6.4-29.9,8c-6.4,1-11.2,2.1-13.3,8.7c-0.3,0.9-0.9,1.8-1.5,2.5c-5.8,6.4-9.8,13.8-13.2,21.6
		c-0.4,0.9-0.5,1.9-0.8,2.9c0.9-0.3,2.1-0.2,2.8-0.8c7.1-6.5,15.4-11.4,23.2-16.9c2.1-1.5,4.2-3.3,6.5-4.3c1.6-0.7,4.3-1,5.5-0.1
		c3.5,2.6,6.9,6.2,6.5,10.6c-0.6,7.3,2.5,13.9,2.4,21c0,0.9,0.5,1.8,0.8,2.8c1.2-0.4,2.7-0.4,3.5-1.2c11.8-11,23.7-21.8,35-33.2
		c4.3-4.4,9.2-3.5,13.4-2.6c3.7,0.8,4.9,5.8,5.4,9.8c0.8,5.6,1.3,11.2,2.2,16.8c0.2,1.2,1.8,2.2,1.9,3.3c0.3,4,1.9,3.9,4.5,1.7
		c4.6-3.9,9-8.2,13.9-11.7c5.9-4.3,12.3-7.9,17.4-13.3c3.7-3.9,8-7.2,12.3-10.3c5-3.7,9-3.3,13.5,1.4c2,2.1,3.6,4.7,5,7.3
		c3.7,7.1,6.1,14.9,10.4,21.7c1.7,2.8,2.9,2.3,4.4,0.6c1.5-1.7,2.3-4,3.8-5.7c8.9-9.9,15.8-21.1,23.6-31.9c1.6-2.3,4.5-3.8,7.1-5.2
		c5.7-3.1,7.2-2.9,11.3,1.6c2.4,2.6,4.7,5.7,6,8.9c4.1,10,11.7,17.9,16.3,27.6c0.4,0.8,1.2,2.5,2.7,0.2c3-4.7,6.3-9.2,9.8-13.6
		c4-5,9.2-9.3,12.2-14.8c3.8-6.9,10.1-11,15-16.7c2.3-2.7,5.9-2.2,8.3-0.6c2.7,1.9,4.9,4.7,6.6,7.6c3.7,6.4,7,13,10.5,19.6
		c3.9,7.2,3.9,7.2,10.3,2.2c3.1-2.4,6.7-4.5,9.3-7.4c8.5-9.2,18.5-16.3,29-23c4.5-2.9,9-6.2,12.3-10.2c4.5-5.5,7.9-11.9,11.8-17.9
		c4.6-7.1,6.8-15.6,13.3-21.6c0.4-0.4,0.7-1,1-1.5c-0.6-0.3-1.2-0.8-1.8-0.8c-2,0.1-4.2,0-5.9,0.7c-4.9,2.1-10.2,2.1-15.3,3.2
		c-7.2,1.5-14.6,1.6-22,2.4c-1.2,0.1-2.2,1.3-3.4,1.7c-2.8,0.9-5.6,2.5-8.3,2.2c-4.9-0.4-9.6,1.2-13.3,3.3
		c-4.7,2.7-10.5-1.6-14.3,3.2c-7.1-0.4-13.5,3.2-20.2,3.8C410.5,103.2,405.5,105.3,400.1,105.2z M349.5,94.9
		c-4.5,0-9.6-1.4-13.4,0.3c-8,3.7-16.8-0.7-24.4,3.9c-6.8-1.3-13.1,2.2-19.9,2.3c-4.8,0-9.7,1.5-14.4,2.7
		c-9.9,2.5-19.6,5.6-29.9,5.5c-2.3,0-4.7,1.2-6.6,1.5c-8.2,1-16,3.4-24.1,4.8c-2.6,0.5-5.3,0.5-8,0.7c2.3,3,5.4,1,8.1,1.3
		c3.8,0.4,8.5,1.4,11.2-0.3c4.4-2.9,9-0.2,12.8-1.9c4.2-1.9,8.4-1.9,12.7-1.9c5.9-0.1,12.2,1.4,17.5-0.4c5.1-1.7,10-0.7,14.8-1.8
		c4.9-1.2,9.7-2.4,14.8-2c2.3,0.2,4.9,0.7,6.5-1.9c1.9,2.7,4.8,1.8,7.4,2c4.1,0.3,7.9-0.3,11.5-2.3c1.1-0.6,2.2-1.8,3.4-1.9
		c11.6-0.9,22.9-4.5,34.6-4.3c1,0,2.7,0.4,3-0.1c2.5-3.4,6.4-1.3,9.4-2.6c2.9-1.3,6-2.3,9.2-2.9c3.3-0.6,7.2,0.4,10-1
		c3.9-2,8.1-0.8,11.6-2.1c4.3-1.6,8.4-1.7,12.7-1.9c0.9,0,1.8-0.7,2.7-1c-0.5-0.1-0.9-0.3-1.3-0.5c2-0.2,4.2-0.4,6.3-0.5
		c0.7,0,1.4,0.1,2,0c1.1-0.3,2.1-0.8,3.2-1.2c-0.9-0.3-1.8-0.8-2.7-0.8c-2-0.1-4-0.1-6,0c-0.5,0-1,0.7-1.5,1c0.3,0.3,0.7,0.9,1,1
		c0,0,0.1,0,0.1,0c0.4,0,0.6,0.1-2.9,0.4c-0.5-0.2-0.9-0.3-1.4-0.4c-13.3-1.5-26.4,2.6-39.7,2.1c-0.7,0-1.7-0.2-2,0.1
		c-3.8,4.4-9,1-13.5,2.7c-0.1,0-0.2,0.1-0.2,0.1c-0.2,0.1-0.4,0.2-0.6,0.2c0,0,0,0,0,0c-0.8,0.3-1.7,0.5-2.5,0.6
		c-3.1,0.3-6.3,0.6-9.7,0.9c-0.6,0-1.3,0.1-1.9,0.2C349.5,95.2,349.5,95,349.5,94.9z M352.4,311.3c-3.5,0.6-7,1.5-10.6,2
		c-3.3,0.4-6.8-0.8-9.6,2.1c-0.5,0.5-2,0.1-3,0.1c-19.2-0.4-38.2,3.7-57.4,2.2c-17.3,3.7-35,0.1-52.1,2.5c-19.9,2.8-39.7,1-59.5,1.7
		c-6.1,0.2-10.3,3.6-17.9,1.6c-5.7-1.4-12.2-3.1-17.6-1.5c-8.5,2.6-17,2.5-25.2,1.4c-6-0.8-12.2-1.8-17.9-0.6
		c-17.7,3.9-35.5-1.5-53.3-0.6c-2.6,0.1-5.4,3.5-7.7,0.8c-0.6-0.7-2.9-0.8-3.9-0.3c-5.1,3-10-0.6-15-0.2
		c-12.6,0,45.3-89.1,46.8-91.4c3.2-5,7-9.6,10.5-14.4c4.1-5.6,8.1-11.2,12.2-16.8c2.7-3.7,5.5-7.4,8.3-11.1
		c7.9-10.4,13.6-22.2,20.8-33c2.4-3.5,4.6-7.2,7.2-10.5c1.7-2.2,2.7-4.1,3.5-7c1.1-4.2,4.2-8,6.8-11.7c1.6-2.3,1.6-4.1,0.3-6.4
		c-4.8-8.1-9.2-16.3-14.1-24.3c-4-6.3-6.9-12.7-5.9-20.5c0.4-3.3,2.1-4.9,5-5.2c4-0.4,7,1.1,9.7,4.5c5.8,7.2,10.5,14.9,14.5,23.1
		c2.3,4.7,5.4,4.6,8.2,0.1c4.2-6.9,8.6-13.8,12.4-20.9c2.4-4.6,6.2-4.6,10.5-5c4.4-0.4,5.8,3.2,8.2,5.4c0.7,0.6,0.6,2.9,0.1,4
		c-4.5,9.6-9.1,19.1-13.8,28.6c-0.4,0.9-1.6,1.4-2.1,2.3c-0.9,1.6-2.5,4.5-2.1,4.8c2,1.5,3.9,0.4,6.3-0.4c7.4-2.6,15.1-4,22.9-5.1
		c6.7-1,13.2-3.1,19.8-4.8c0.9-0.2,1.7-1.4,2.5-1.3c8.5,0.6,16.5-2.9,25.2-2.4c7.8,0.4,15.7-1.5,23.2-3.9c4.1-1.3,8.2-2.7,12.7-2.2
		c3.3,0.4,6.8,0.6,9.5-2c3.2,3.3,6.5,0.4,9.7,0.1c3.8-0.3,7.7,0.2,11.4-0.2c7.2-0.6,14.3-2.7,21.3-3.4c5.8-0.6,11.7-4,17.9-0.9
		c1.5,0.8,3.9-0.2,5.9-0.6c1.9-0.4,3.8-1.1,5.7-1.4c5.6-0.8,11.3-1,16.8-2.3c5.4-1.2,11.1-1,16.1-3.7c1.1-0.6,2.7-0.5,4-0.3
		c9.3,1.5,18.1-2,27.2-2.4c7.3-0.4,14.6-3.1,21.9-4.8c1.6-0.4,3.2-1.3,4.7-1.2c9.2,0.9,17.4-3.5,26.1-5c6.1-1,12.1-2.6,18.2-3.8
		c9.6-1.8,19.8-0.8,28.8-5.6c0.6-0.3,1.3-0.3,1.9-0.4c7.2-1.5,7.5-1.9,2.7-8.2c-7-9.2-13-19.3-21.3-27.6c-1.6-1.6-2.7-3.7-3.7-5.7
		c-3.1-6.7,0.4-11.6,7.5-12.7c8.3-1.3,12.5,4.4,15.8,9.4c6.9,10.7,15.1,20.6,21.6,31.5c1.2,1.9,2.5,3.8,3.7,5.8c0.6,1,1,2.1,1.5,3.1
		c1-1,2.3-1.8,2.9-3c5-10.4,11.9-19.9,15-31.3c1.1-3.8,4.9-7,7.9-10.2c1.8-1.9,10.6-1.7,12.5,0c0.9,0.8,2,2.2,2,3.3
		c-0.1,3.9,0.5,7.7-1.8,11.7C568,37.4,562.2,50,555.9,62.2c-4.6,8.9-5.1,9.1,0.1,18.3c3.5,6.2,4.9,13.3,8.6,19.3
		c3.7,6.2,6,12.7,8.2,19.5c1.7,5.1,5.8,9.4,8.1,14.3c4.5,9.6,8.1,19.5,12.7,29.1c6,12.5,12.5,24.7,18.7,37c0.6,1.1,1,2.4,1.7,3.4
		c0.5,0.7,1.6,1,2.4,1.5l0.4,0.5c-0.2,0.2-0.4,0.4-0.3,0.5c0.3,1,0.8,2,1.2,3c0,0,0-0.1,0-0.1c0.4-0.6,63.1,117.3,52.5,112.7
		c-1.9-0.8-4.4-2-7.7-0.6c-3.5,1.4-8.7,1.8-12.8-0.8c-0.4-0.2-1.1-0.3-1.4-0.1c-4.2,2.3-7.8,1-12.2-0.4c-4.8-1.4-10.3-0.1-15.5-0.4
		c-2.9-0.1-5.9,1.1-8.8-1.4c-1.4-1.2-5.2-1.1-6.7,0c-2.5,1.9-3.6,1.3-6-0.1c-2.1-1.2-5.5-0.8-8.1-0.3c-11.7,2.3-11.6,2.3-23.3,0
		c-3-0.6-6.3-0.6-9.3,0.1c-2.7,0.6-4.7-3.3-7.9-0.3c-1.3,1.2-5.4,1.2-7,0c-4.2-3-8.6-2.1-12.8-1.7c-9.9,0.8-19.5-1.8-29.3-2.1
		c-10.1-0.3-20.2,0.5-30.2-0.2c-6-0.4-11.1,2.5-16.8,2.3c-5.5-0.1-11.2-0.6-16.6,0.2c-6.6,0.9-12.6-2.5-18.9-2.1
		c-7.4,0.4-14.7,1.5-22,2c-4,0.3-7.8,0.2-11.7-1.8c-3.1-1.6-7.4,1.5-10.7-1.9c-0.7-0.7-2.6-0.3-4-0.3c-3.3,0-6.4,0.4-9.7,1.7
		C359.1,313.6,355.5,310.8,352.4,311.3z"/>
</g>
</svg>
