<svg id="Layer_1" data-name="Layer 1" xmlns="http://www.w3.org/2000/svg" viewBox="0 0 1920 1080"><defs><style>.cls-1{fill:#fff;}.cls-2{fill:#a9dadc;}.cls-3{fill:#70cbd1;}.cls-4{fill:#ffefcf;}.cls-5{fill:#eb5624;}.cls-6{fill:#eac331;}.cls-7{fill:none;}</style></defs><title>hero_tent-bcg</title><rect class="cls-1" width="1900" height="1080"/><polygon class="cls-2" points="1929.45 1080 828.77 1080 722.85 756.24 7.33 1047.61 -9.66 1080 -9.66 -8.99 1929.45 -8.99 1929.45 1080"/><polygon class="cls-1" points="-9 1084.91 603.74 851.97 739.07 1084.91 1182.55 1084.91 1929.45 1084.91 1929.45 1006.9 1527.95 809.11 1439.33 834.66 1229.9 697.49 1089.12 748.42 966.38 606.48 680.14 675.4 593.45 661.23 383.75 765.22 225.01 713.18 -9 817.74 -9 1084.91"/><path class="cls-3" d="M938.07,994.06c-9.14-1.45-15.08,3.61-15.32,14.28,1,.66,2.94,3,5.25,3.32,9.2,1.29,15.41-3.71,15-12.28C943,997.49,940.11,994.38,938.07,994.06Z"/><path class="cls-3" d="M997.41,903.72c2.13.27,4.47-.87,6.72-1.37l-6-3.84-7.76,2.42C992.71,901.93,995,903.43,997.41,903.72Z"/><path class="cls-3" d="M1363.55,855.76a41.86,41.86,0,0,0-5.33-5.24c-.6-.4-2.7.89-9.27,3.24,4.89,2,7.59,3.45,10.52,4.11C1360.55,858.11,1362.17,856.53,1363.55,855.76Z"/><path class="cls-3" d="M1184.23,1032.48c7.71,4.06,10,2.64,10-8.3-.45-1-1-6.19-4.17-8.38-5.4-3.71-12.27-6.06-18.92-7.91-3.39-.94-9.12,9.86-6.27,12A143.89,143.89,0,0,0,1184.23,1032.48Z"/><path class="cls-3" d="M1638.14,981c10.62-2.82,13.95,6.88,21.29,9.33,5.13,1.68,10.44,4.37,15.62,4.29,12.27-.21,20.91,5.19,30.92,10.41,15.38,8,32.9,12.81,49.48,19,.3-.68.6-1.37.9-2,2.55,0,5.37.58,7.56-.18,1.71-.61,3.11-2.77,3.77-4.48.36-1-.66-3.08-1.77-3.64-18.44-9.35-37.06-18.42-55.47-27.83-9.78-5-19.13-10.06-31.4-9.19-9.5.68-16-5.27-23.09-10.2-9.71-6.77-19.76-2.9-21,7.67C1634.72,976.4,1637.84,981.07,1638.14,981Z"/><path class="cls-3" d="M151.64,996.06c5.49,0,8.37,9.49,14.09,2.56,4.86-5.82,10.05-11,4.5-19.53-6.12-9.38-16.94-12.65-26.21-17.5-6.89-3.61-14.84,3.8-15.08,15.47.81,1.37,2,5.85,5.22,8.57C139.31,990,145.79,996.12,151.64,996.06Z"/><path class="cls-3" d="M285.86,1005.81c2.31-2.76,5.64-5.32,6.51-8.4.36-1.27-4.59-3.69-8.4-6.54-2.85,2.72-6.57,5.38-6.18,6C279.92,1000.12,283.07,1002.89,285.86,1005.81Z"/><path class="cls-3" d="M1.74,823.19c7.1-3.16,14.45-5.72,20.78-9.57,2.3-1.39,3.89-6.61,2.7-8.74-1.47-2.67-4-8-10.62-2.4-4.77,4.06-12.71,5.11-18.71,8.27-2.37,1.24-3.3,4.59-4.89,7C-5.91,819.32-2.79,820.9,1.74,823.19Z"/><path class="cls-3" d="M53.4,907c1.35.61,3.33.11,7.92.11,4.05-1.66,11.24-3.4,16.64-7.14,7.11-4.9,14.61-8.17,22.94-11.12,19.94-7.06,24.41-10.52,39.13-25.17,2.25-2.21,2.4-6,3.51-9.12-4.71-1.26-9.41-3.45-14.12-3.45-3.51,0-7.23,2.58-10.5,4.45-17.27,9.94-37.57,14.92-54.42,25.38-6.18,3.82-11.07,9.28-16.34,14.15-1.95,1.82-3.27,4.19-4.89,6.3C46.63,903.25,49.86,905.36,53.4,907Z"/><path class="cls-3" d="M162.22,807.8c6.3-6.19,13.95-3.21,20.9-4.27,1-.16,2.52-2.32,2.37-3.35-.33-1.89-1.49-5.06-2.72-5.21-4.92-.61-10-.27-15-.27-2.52,0-5.1-.37-7.52.06-6.15,1.15-11.31,4.5-10.08,10.14C151.43,811,160.81,809.2,162.22,807.8Z"/><path class="cls-3" d="M279.08,880.19c19.67-7.19,42.31-9.57,56.47-25.9,1.83-2.11,2.49-5,3.69-7.59l-10.65-3.64c-6.45,2.66-13.91,5-20.48,8.64-11.54,6.38-22.64,13.42-33.61,20.51-1.47.94-2.4,4.34-1.59,5.77S277.52,880.77,279.08,880.19Z"/><path class="cls-3" d="M538.62,790.59c9.08-2.32,18.17-4.77,27.08-7.67,1.92-.6,3.09-3.13,5.06-5.27-1.62-1.82-3.29-4.82-4.31-4.66-11,1.71-22.49,2.53-31,9.91-1.32,1.13-1.2,4-.84,5.93C534.75,789.64,537.48,790.88,538.62,790.59Z"/><path class="cls-3" d="M560.81,844.69c1.59.37,3.39.08,5.79.08,7.46,1.24,13.52-1.39,18.89-6.95,16-16.55,38.92-25.12,58.38-37.69,3.12-2,7.26-2.82,10.29-4.9a6.23,6.23,0,0,0,2.43-5.53c-.33-1.37-3.3-3.14-5.13-3.17-12.66-.21-26-1.52-31.79,12.23-13.73,4.09-20,17.63-36.55,19.92-9.81,1.35-18.14,11.39-26.81,17.84-1.5,1.11-2.43,4.33-1.65,5.78S558.59,844.19,560.81,844.69Z"/><path class="cls-3" d="M675.2,1041c-2.31,13.31-1.08,14.86,11.37,14.34,7.91-.32,23.87-12.07,24.26-18.85.18-3.13-1.65-7.06-4.11-9.43-5.88-5.75-14.13-4.59-20.18-1.27-4.29,2.35-15.42,1-11.37,10.78A8.22,8.22,0,0,1,675.2,1041Z"/><path class="cls-3" d="M817.85,786.9c5.7-7.17,7.35-14.12,5.43-13.54-4.41,1.34-8.36,3.87-12.29,6.16-10.65,6.17-22.28,11.44-31.46,19-11.27,9.33-20.48,20.59-30.5,31.05-.42.45-.06,1.45-.06,3.37,1,.71,2.55,2.82,4.26,2.95,9.45.63,16.89-3,23.84-8.54,7.2-5.69,15.6-10.19,22.79-15.89,5.31-4.21,11.94-7.88,11.07-16.12C810.66,792.73,815.55,789.8,817.85,786.9Z"/><path class="cls-3" d="M1071.24,864.33c2.79-1.58,4.71-2.11,5.31-3.17s.9-3.53.06-4.34c-9.06-8.49-17.54-17.27-25.73-26.46-7.71-8.7-20.24-14.05-30.59-21-4.55-3.08-10.37-5.66-13.07-9.77-12.86-19.4-32.09-33-52.33-45.65-2.48-1.55-5.72-2.32-8.72-3.11-1.56-.39-3.36,0-5.07,0a22.52,22.52,0,0,0,.51,4.75c3.51,10.46,14.12,15.91,21.44,23.71,1.14,1.24,1.17,4.62.06,5.8s-5.13,2.24-6.54,1.48c-11.6-6.17-23.27-11.52-36.7-14.6-7-1.58-12.63-7.78-21.17-6.43,4.71,4.77,9.95,9.22,14,14.36,8.43,10.7,22.25,14.36,34.13,20.05,16.82,8.07,36,12.44,49,26,18.26,3.06,29.68,18.82,49.56,20,6,.37,11.52,7.64,17.19,11.78C1065.63,860,1068.6,862.35,1071.24,864.33Z"/><path class="cls-3" d="M1235.27,875c-2.13-1.35-5.7-.95-8.61-1.35-.48,2.82-2.25,6.06-1.23,8.36,3.9,8.69,8.88,17.55,18.18,22.34,18.44,9.52,30.52,24.91,46.54,36.5,14.15,10.28,27.28,22.22,45.7,27.2,4.46,1.21,8.6,3.29,13,5,3.75-1.45,8.61-2.18,9-3.71.72-3.27.53-8.17-1.77-10.23-12.78-11.41-24.11-24.37-40.85-31.91-14.6-6.56-26.62-16.1-39.13-25.25C1263,892.42,1249.09,883.77,1235.27,875Z"/><path class="cls-3" d="M936.12,598c-5.49,7.17-13.88,4-21,4.12-14.87.21-28.25,4.71-41.92,9-23.21,7.2-45.22,17.34-70.83,18.66a53.75,53.75,0,0,0-26.36,9c-13.19,8.88-30,12-45.55,17.13-5.9,2-13.43,1.68-18.08,4.85-10,6.9-22.73,6.48-31,3.26-10.13-3.92-19.4-2.71-29-3.53-5.91-.52-12.93,1.58-17.69-.52-7.86-3.48-14.88-10.44-24-8.36-16.8,3.82-33.86,8-49.39,14.58-30,12.7-59.08,26.93-88.22,41.05-17.46,8.44-34.34,17.79-51.34,26.91-6.24,3.37-8.76,11.86-17.69,11.28-14.91-.95-30,2.71-44.8-2.66-21.89-7.94-44.08-15.18-66.24-22.43-15.57-5.09-31-10.7-47.05-14.2-22.52-4.91-45.46-2.61-62,12.2-22.75,20.45-52.83,29.7-79,44.77a35.31,35.31,0,0,1-6.51,2.48C90,768.19,83,772.3,79.31,779.87c9.75-.24,19.88.92,29.12-1.08,9.77-2.14,19.22-6.59,27.89-11.34,9.47-5.19,22.55-4.87,29.05-15.1,1.32-2.08,7.35-2.42,11.28-2.53,14.69-.47,30.08,2.17,42.1-8.61.9-.79,3.24-.21,4.86-.45,6.74-1,9.68,1.82,7.58,7.35-5.33,14-7.25,15.92-29.2,28.65-7.17,4.16-7.89,6.53-2,10.17,6.62,4.08,12.65,7,22.52,3.85,16.28-5.17,28.67-13.87,39.46-24.91,5.43-5.56,11.58-7.27,19.79-7.22,15.71.16,31.1.4,44.53,9a54.1,54.1,0,0,0,7.11,3.21c-2.49,2-4.59,5.17-7.47,5.88-50.62,12.36-97.75,31.8-143.6,53.94-2.76,1.34-5.79,2.27-8.49,3.66-1.44.71-2.46,2.06-3.66,3.11,1.38.77,2.7,2.11,4.08,2.16,7.68.21,15.35.11,25.19.14,24.95,3.24,48.79-7.83,72.21-16.08,14.57-5.14,32.44-3.53,44.14-14.94,15.62.1,29.5-6.75,44-10.2,25.67-6.11,50.94-14.31,73.4-29,35.09-22.95,75.72-38,114.85-54.92,18.39-7.9,34.85-19.63,55.6-23.29,4.59-.82,8.85-3.3,13.46-3.9,7.71-1,11.37.1,4.38,7.22-2.13,2.16-.24,7.27-.39,11-.75,18.64-9.77,28.62-31.81,35.69-2.94.94-5.37,4-8.19,4.19-6,.42-8,3.79-5.46,7s7.86,4.53,12,6.7c6.11-9.18,18.2-2.35,27.16-8.17,7.38-4.83,14.88-9.86,20.19-15.79,10.67-12,29-13.68,39.61-25.14,9.86,2.48,20,4.3,29.44,7.64,6.57,2.32,12.15,6.75,18.27,10.1a50.57,50.57,0,0,0,6.2,2.45c-2.25.68-4.49,1.34-6.68,2.1-21.56,7.36-36.74,21.88-52.06,36.13-1.65,1.56-1.65,5.09-1.14,7.49.15.76,4.77,1.82,6.69,1.18,21.14-7,45-3.11,65.52-13.12,12.35-6,26.39-9.51,38.56-15.81,16.61-8.62,32.15-18.82,48.16-28.33,20.66-12.28,42.07-23.74,61.74-37.16,10.17-6.93,18.62-16.57,25.49-26.3,7.14-10.12,17.6-15.15,28.73-20.18,4.92-2.24,9.47-5.41,14.66-6.91,5-1.42,8.7-5.85,16,.79,24,22,43.72,46.28,61.2,72.47,17.54,26.36,32.62,54.34,59.19,75.37,5.28,4.19,8.37,10.46,12.87,15.47,7.64,8.54,15,17.42,23.63,25.09a158.24,158.24,0,0,0,26.74,19.1c11.37,6.43,22.64,13.5,37.67,12.65,5.87-.31,12,2.19,17.93,3.43-2.85-5.32-7.11-10.41-8.31-16-2.37-11-11.36-17.26-19.19-24.61q-35.31-33.24-70.47-66.67a11.26,11.26,0,0,1-1.68-3.14c1.5-.47,3-1.29,4.47-1.32,5.13-.15,10.32.37,15.36-.13,18.8-1.84,33.76,3.51,46.44,16,5.07,5,13.17,7.83,20.21,11.1,13.62,6.35,27.29,12.15,38.18,22.45,9.56,9,23.9,11,37,13.36,7.89,1.42,13.59,1.9,17,9.86,2.49,5.77,9.21,10.3,14.64,14.83,2.07,1.74,5.82,2.06,8.87,2.67,1.5.26,3.21-.32,4.83-.53-.57-1.58-.57-3.64-1.74-4.69-13.25-12.2-25-26.06-38.65-37.34-19.79-16.37-38.5-35.32-66.18-43.35-8.07-2.35-14.72-8.6-21.8-13.31-.78-.5-.27-4.11.27-4.22,7.73-1.76,15.53-3.48,23.45-4.56,5.1-.68,9.62-.71,10,6.41.12,2.5,7.32,4.71,11.31,7,13.49,7.88,27.71,14.71,39.61,24.8,12.21,10.33,28.16,15.52,44,20.4,5.94,1.82,13.47,3.24,16.91,7.11,17.46,19.61,45.4,29.2,60.49,51.68,6.35,9.46,20.81,15.92,33.1,20.79,21.71,8.57,39.32,22.27,57.82,34.39,15.62,10.25,30.58,21.19,48.46,27.94,13.88,5.27,24.76,15.54,40.27,17.81,5.58.82,11.09,1.87,16.7,2.45.66,0,2.64-3.21,2.37-3.45-14.54-12.41-29.33-24.61-43.9-37-12.63-10.68-30.59-15.34-39.19-31.13-5-9.11-15.84-16.6-29.12-18.65-1.47-.21-3.42-3.17-3.3-4.72s2.49-3.37,4.32-4c11.87-3.77,24.41-6.33,35.62-11.23,5.85-2.53,8-1.39,12.75,1.11,14.6,7.7,25.91,18.45,37.42,29,16.19,14.83,34.7,24,59,21.76,12.9-1.18,22.88,3.85,34,9.57,16.25,8.36,30.23,21.35,50.56,22.9,5,7.49,10.34-5,16.16.4,4.35,4,10.71,6.27,15.71,9.83,4,2.82,4.86,2.16,5.64-2,2.1-11.38-5.07-17.52-15.14-22.64-38.48-19.52-76.47-39.68-117-55.89-8-3.16-15-8.78-21.38-14.23a251.62,251.62,0,0,0-44.62-30.31c-16-8.54-29.57-10.3-48.61-4.71-19.58,5.77-38.65,12.36-56.17,22.16-7.58,4.22-20,1.82-24.19-4.9-9.3-15-20.7-27.8-39.29-34.52-1.44-.53-2.55-2-3.63-3.14-15.41-16.66-34.81-27.51-58.35-33.73-14.69-3.9-26.6-13.23-38.32-21.58-14-10-32.12-14.26-43.69-27.44-6.42-7.3-17.1-5-25.55-2.66-14.28,3.93-27.89,9.65-42,13.94s-28.52,9-43.24,11.25c-10,1.56-19,3-26.57,9.25-2.64,2.22-7.2,4.43-10.32,4-4.41-.69-8.93-3.32-12.32-6.12-13.8-11.54-28.37-22.87-35.78-38.71-8.51-18.16-24.41-31.65-36.73-47.38-4.32-5.53-10.26-10.12-15.23-15.31-4.56-4.72-9.42-9.33-13.14-14.55C970.25,594.5,952.79,597.51,936.12,598Z"/><path class="cls-3" d="M1811.37,941.91c-3.59-1.9-12.14,3.56-19.4,6,2.16,3.19,2.85,5.75,4.59,6.51,23.15,10.28,46.21,20.74,69.81,30.15,8.52,3.4,18.32,4.74,27.71,5.79,3.15.37,7.07-2.82,10-5,.51-.37-1.62-4.37-3.35-6-8.43-7.9-17-14.81-30.71-16.12a44.82,44.82,0,0,1-23.12-9.57C1836.71,944.91,1822.56,947.73,1811.37,941.91Z"/><path class="cls-3" d="M229.73,1087.19c1.91.4,5.6-.79,6.32-2.13,1.8-3.3,3.93-7.46,3.06-10.65-1.26-4.53-6.84-8.36-7.5-12.81-1.59-11.07-10.46-5.19-15.65-5.45-8.4-.45-3.84,6.32-5.19,9.88C210.83,1077.81,216.53,1084.42,229.73,1087.19Z"/><path class="cls-3" d="M385,940.18c-1.17-1.5-5.57-2.95-6.86-2.21-8.88,4.95-10.92,9-10.68,19.92.24.5,1,4,2,4.06,2.85.13,6.45-.42,8.58-2C389,951.94,390.62,947.46,385,940.18Z"/><path class="cls-3" d="M1925,1027.91c-2.48-4.69-8.18-5.59-10.64-1.29-3.9,6.74-6.87,13.88-8.34,17,0,6.85-1,9.72.21,11.17,1.56,1.84,5.7,4.08,7.29,3.45C1920.83,1055.18,1928.32,1034.18,1925,1027.91Z"/><path class="cls-1" d="M734.37,785.25c-1.21,2-2.39,4-3.57,5.91.35-.83.7-1.67,1-2.51A18.06,18.06,0,0,1,734.37,785.25Z"/><path d="M730.8,791.16a145.9,145.9,0,0,1-18,30.15c-.66.87-1.28,1.78-1.86,2.71Q720.35,808.44,730.8,791.16Z"/><path class="cls-1" d="M710.91,824c-.29.47-.57.94-.84,1.4C710.33,825,710.62,824.48,710.91,824Z"/><path class="cls-1" d="M697.06,808.79l1,1.21-1.26-.94A3.44,3.44,0,0,0,697.06,808.79Z"/><path class="cls-1" d="M697.43,810.63c.07,0,.17-.44-.81-1.39l.17-.18,1.26.94A6.19,6.19,0,0,1,697.43,810.63Z"/><path class="cls-4" d="M697.39,810.64a7.65,7.65,0,0,1-1.24-.92l.47-.48c1,1,.88,1.34.81,1.39Z"/><path d="M694.6,807.26a25.11,25.11,0,0,0,2.19,1.8l-.17.18-.48-.45C695.63,808.28,695.11,807.78,694.6,807.26Z"/><path class="cls-4" d="M689.87,800.48c3.29.81,4.51,3,4.18,6.24C690.76,805.9,689.55,803.71,689.87,800.48Z"/><path class="cls-4" d="M685.71,796.33c-3.18-.79-4.41-2.86-4.19-5.91,2.91.8,4.05,2.33,4.22,4.42A9.38,9.38,0,0,1,685.71,796.33Z"/><path class="cls-1" d="M685.74,794.84c-.17-2.09-1.31-3.62-4.22-4.42,0-.11,0-.22,0-.33C684.31,790.76,685.59,792.42,685.74,794.84Z"/><path d="M681.49,790.09v0s0,0,0,0,0,.22,0,.33a14.74,14.74,0,0,0-1.51-.33C680.85,790.09,681.49,790.11,681.49,790.09Z"/><path class="cls-1" d="M671.16,779.43a55.94,55.94,0,0,0,10.33,10.62v0s-.64,0-1.48,0C677.18,786.72,674,783.17,671.16,779.43Z"/><path class="cls-4" d="M681.49,790.05a55.94,55.94,0,0,1-10.33-10.62,61.75,61.75,0,0,1-5.26-8.2c-.33-.61.43-2,1-2.81a2.15,2.15,0,0,1,2.09-.08c5.54,5.67,9.18,12.59,12.49,19.69A4.06,4.06,0,0,1,681.49,790.05Z"/><path d="M454.78,824.79a7.1,7.1,0,0,1,1.4-.66c.17,0,.46.43.69.66a6.67,6.67,0,0,1-1.39.64C455.31,825.47,455,825,454.78,824.79Z"/><path class="cls-1" d="M832.69,1043.7l1,1.22c-.5-.26-1-.5-1.41-.76h0Z"/><path class="cls-1" d="M833,1045.55c.08,0,.27-.36-.76-1.39.45.26.91.5,1.41.76C833.45,1045.14,833.13,1045.55,833,1045.55Z"/><path class="cls-1" d="M832.27,1044.16c1,1,.84,1.39.76,1.39h0a8.69,8.69,0,0,1-1.25-.91l.47-.49h0Z"/><path class="cls-1" d="M830,1042.77l.12.09A.38.38,0,0,1,830,1042.77Z"/><path class="cls-1" d="M831.39,1041.21a7.93,7.93,0,0,1,.38,2.49,15.17,15.17,0,0,1-1.61-.84l-.12-.09c-3.13-2.19-4.64-4.54-4.67-7.68a8.15,8.15,0,0,1,0-1C827.87,1036.4,830.44,1038.35,831.39,1041.21Z"/><path class="cls-1" d="M825.42,1034.11a7.25,7.25,0,0,1,.09-.8c1.93,2.65,4.86,4.71,5.88,7.9C830.44,1038.35,827.87,1036.4,825.42,1034.11Z"/><path d="M824.58,1033.31h.93a7.25,7.25,0,0,0-.09.8C825.14,1033.86,824.86,1033.59,824.58,1033.31Z"/><path class="cls-1" d="M825.51,1033.31h-.93c-.28-.34-.56-.71-.83-1.06A3.3,3.3,0,0,0,825.51,1033.31Z"/><path class="cls-1" d="M830,1042.77c-2.91-1.74-4.67-4.18-4.67-7.68C825.4,1038.23,826.91,1040.58,830,1042.77Z"/><path class="cls-1" d="M823.62,1032.08c.42-.12,1.15-.48,1.25-.34a6,6,0,0,1,.64,1.57,3.3,3.3,0,0,1-1.76-1.06Z"/><path class="cls-1" d="M823.12,1028.41l-.75.74a6.49,6.49,0,0,1-.65-1.39c0-.17.42-.46.65-.69Z"/><path class="cls-1" d="M820.17,1022.92l1,1.2c-.42-.16-.81-.32-1.17-.49l-.26-.26C819.88,1023.21,820,1023.06,820.17,1022.92Z"/><path class="cls-1" d="M821.16,1024.12a6.4,6.4,0,0,1-.63.64c.08,0,.15-.37-.54-1.13C820.35,1023.8,820.74,1024,821.16,1024.12Z"/><path class="cls-1" d="M820,1023.63c.69.76.62,1.08.54,1.13h0a8.36,8.36,0,0,1-1.24-.93l.36-.38A2.09,2.09,0,0,0,820,1023.63Z"/><path class="cls-1" d="M820,1023.63a2.09,2.09,0,0,1-.37-.17.87.87,0,0,1,.11-.09Z"/><path class="cls-1" d="M819.28,1021.44a10.73,10.73,0,0,1,0,1.48,7,7,0,0,1-1.64-.61h0a5.37,5.37,0,0,1-2.55-4.21c0-.17,0-.34,0-.51C818,1017.91,819.11,1019.36,819.28,1021.44Z"/><path class="cls-1" d="M815,1018.1a5.37,5.37,0,0,0,2.55,4.21A4.69,4.69,0,0,1,815,1018.1Z"/><path class="cls-1" d="M815.08,1016.68c2.75.68,4,2.34,4.2,4.76-.17-2.08-1.32-3.53-4.25-3.85A7.13,7.13,0,0,1,815.08,1016.68Z"/><path d="M815,1017.59a10.77,10.77,0,0,0-1.44-.08c.44-.53.79-.89,1-1.15a4,4,0,0,0,.45.32A7.13,7.13,0,0,0,815,1017.59Z"/><path class="cls-1" d="M814.63,1016.36a3.18,3.18,0,0,1-1.39-2.54c0-.15,0-.3,0-.43s.85-.25,1.3-.37a16.83,16.83,0,0,1,.49,2.7C815,1015.89,814.88,1016.07,814.63,1016.36Z"/><path class="cls-1" d="M813.59,1017.51c-.17-1.66-.32-2.71-.35-3.69a3.18,3.18,0,0,0,1.39,2.54C814.38,1016.62,814,1017,813.59,1017.51Z"/><path class="cls-1" d="M811.29,1009.76a6.44,6.44,0,0,1,.64-1.39c.24.22.47.45.75.73-.25.44-.49.89-.73,1.34C811.71,1010.21,811.25,1009.93,811.29,1009.76Z"/><path class="cls-1" d="M809.74,1004.2l1,1.21c-.38-.1-.71-.21-1-.32a5.41,5.41,0,0,0-.42-.44Z"/><path class="cls-1" d="M810.73,1005.41c-.23.23-.55.64-.65.64.06,0,.21-.25-.36-1C810,1005.2,810.35,1005.31,810.73,1005.41Z"/><path class="cls-1" d="M810.07,1006.05a7.24,7.24,0,0,1-1.24-.92,2.57,2.57,0,0,1,.28-.29c.18.08.39.17.61.25.57.71.42,1,.36,1Z"/><path class="cls-1" d="M809.3,1004.65a5.41,5.41,0,0,1,.42.44c-.22-.08-.43-.17-.61-.25Z"/><path class="cls-1" d="M806.72,1000.05c3.12.17,1.78,2.58,2.1,4.15-.3-1.43.8-3.58-2.08-4h0A.57.57,0,0,0,806.72,1000.05Z"/><path class="cls-1" d="M807.79,1004c-1.34-1.18-.94-2.58-1-3.67a.47.47,0,0,0,0-.17c2.88.44,1.78,2.59,2.08,4A3.47,3.47,0,0,1,807.79,1004Z"/><path class="cls-1" d="M806.76,1000.35c.09,1.09-.31,2.49,1,3.67C806.15,1003.45,806.87,1001.69,806.76,1000.35Z"/><path class="cls-1" d="M806.74,1000.18a.47.47,0,0,1,0,.17.86.86,0,0,0,0-.17Z"/><path d="M805.83,1000.11a3.76,3.76,0,0,1,.28-.32,3.61,3.61,0,0,0,.61.26.57.57,0,0,1,0,.13C806.46,1000.15,806.17,1000.12,805.83,1000.11Z"/><path class="cls-1" d="M805.83,1000.11c-2.17-1-5-6.58-5.37-9.88.34,3.07,2.92,8.11,5.65,9.56A3.76,3.76,0,0,0,805.83,1000.11Z"/><path class="cls-1" d="M800.48,988.9c0-.29.33-.77.5-.77a2.55,2.55,0,0,1,1.44.39c3.29,2.72,2.12,7.3,4.25,10.54.05.09-.27.42-.56.73-2.73-1.45-5.31-6.49-5.65-9.56,0-.12,0-.23,0-.34s0-.2,0-.29A4.81,4.81,0,0,1,800.48,988.9Z"/><path class="cls-1" d="M800.42,989.6c0,.09,0,.19,0,.29C800.42,989.79,800.42,989.69,800.42,989.6Z"/><path class="cls-1" d="M798.37,984.45l.75-.74c.42.25.89.49,1.34.74-.23.24-.51.69-.68.65A6.38,6.38,0,0,1,798.37,984.45Z"/><path class="cls-1" d="M797.58,981c.23-.47.32-1.08-1-3.28a.94.94,0,0,1,.14-.12l1.77,1.69C798.12,980,797.85,980.53,797.58,981Z"/><path class="cls-1" d="M797.25,977.17c.44.75.89,1.51,1.27,2.13l-1.77-1.69C796.92,977.46,797.12,977.3,797.25,977.17Z"/><path class="cls-1" d="M796.61,977.73c1.29,2.2,1.2,2.81,1,3.28l-.07.14a25.8,25.8,0,0,1-1.17-3C796.32,978,796.44,977.89,796.61,977.73Z"/><path d="M794.91,975.82l1.84,1.79a.94.94,0,0,0-.14.12l-.33-.55Z"/><path class="cls-1" d="M792.11,970.94c3.11.17,1.77,2.59,2.09,4.16-.28-1.37.69-3.35-2-3.44A2.81,2.81,0,0,0,792.11,970.94Z"/><path class="cls-1" d="M792.16,971.66c2.73.09,1.76,2.07,2,3.44C791.53,975,792.14,973.16,792.16,971.66Z"/><path class="cls-1" d="M791.58,967.29a18,18,0,0,1,.48,2.68c0,.18-.14.36-.4.66a3.21,3.21,0,0,1-1.39-2.56c0-.15,0-.28,0-.43S791.11,967.41,791.58,967.29Z"/><path d="M792.11,970.94a2.81,2.81,0,0,1,0,.72,10.31,10.31,0,0,0-1.53.11c.42-.52.78-.87,1-1.14A3.58,3.58,0,0,0,792.11,970.94Z"/><path class="cls-1" d="M791.66,970.63c-.25.27-.61.62-1,1.14-.17-1.65-.32-2.71-.36-3.7A3.21,3.21,0,0,0,791.66,970.63Z"/><path class="cls-1" d="M789.15,964.52a27.63,27.63,0,0,1-1.16-3c0-.11.14-.28.35-.46s.4-.34.56-.5l0,.06c.44.73.88,1.46,1.23,2.07-.4.76-.68,1.27-1,1.77Z"/><path class="cls-1" d="M777.76,1014.72c-.38.7-.64,1.2-.91,1.67.22-.47.27-1.11-1-3.26a.32.32,0,0,0,.07-.06C776.49,1013.56,777.1,1014.09,777.76,1014.72Z"/><path class="cls-1" d="M776.49,1012.58c.45.75.91,1.5,1.27,2.14-.66-.63-1.27-1.16-1.83-1.65A7.26,7.26,0,0,0,776.49,1012.58Z"/><path class="cls-1" d="M776.75,1016.57a28.76,28.76,0,0,1-1.16-3c0-.09.1-.24.27-.4,1.26,2.15,1.21,2.79,1,3.26C776.81,1016.45,776.79,1016.51,776.75,1016.57Z"/><path d="M775.93,1013.07a.32.32,0,0,1-.07.06c-.05-.07-.1-.16-.15-.24Z"/><path class="cls-1" d="M771.61,1009a2.49,2.49,0,0,0,.32.53A2.27,2.27,0,0,1,771.61,1009Z"/><path class="cls-1" d="M755.7,1016.78l1.27,2.13c-.61-1-1.06-1.61-1.38-2Z"/><path class="cls-1" d="M755.59,1016.89c.32.41.77,1.05,1.38,2-.39.7-.65,1.19-.91,1.65.17-.41.24-1.09-.57-3.6C755.53,1017,755.55,1016.91,755.59,1016.89Z"/><path d="M755.59,1016.89s-.06.06-.1.07-.06-.18-.08-.29C755.45,1016.73,755.52,1016.8,755.59,1016.89Z"/><path class="cls-1" d="M755.49,1017c.81,2.51.74,3.19.57,3.6a1.28,1.28,0,0,1-.11.2,28.51,28.51,0,0,1-1.17-3C754.74,1017.56,755.16,1017.25,755.49,1017Z"/><path class="cls-5" d="M733.81,936.45c-4-11.07-7.06-22.52-12.5-33.07a4,4,0,0,1-.14-2.06c4.1.79,5.8,3.58,7.21,6.35.36.7.7,1.41,1.06,2.08,4.23,7.88,9.74,15,12.89,23.59,1.95,5.33,5.16,10.91,9.38,14.54,6.5,5.61,6.29,14.27,11.26,20.29,1,9.74,7.16,17.77,9.07,27.27,1.14,5.72,3.89,11.1,3.49,17.14-.83-.76-1.94-1.45-2.79-2.2a1.42,1.42,0,0,0-.13-.12,4,4,0,0,1-.68-.75,2.49,2.49,0,0,1-.32-.53,1.31,1.31,0,0,1-.11-.29c-2-6.91-6.53-12.45-9.47-18.84s-6.28-12.55-9.45-18.81A68,68,0,0,0,746.9,962,105.52,105.52,0,0,1,733.81,936.45Z"/><path d="M723.32,999.32c-.2-.23-.38-.48-.58-.71,0-.34,0-.77-.08-1.3C722.85,997.86,723.07,998.51,723.32,999.32Z"/><path class="cls-1" d="M722.67,1000c.05,0,.13-.17.07-1.34.2.23.38.48.58.71C723.1,999.54,722.78,1000,722.67,1000Z"/><path class="cls-1" d="M722.66,1000a10.85,10.85,0,0,1-1.26-.91l.93-.94.41.51c.06,1.17,0,1.34-.07,1.34Z"/><path class="cls-1" d="M721.17,901.32a7,7,0,0,0,.08-1c3.93,1.05,5.62,4.26,7.13,7.36C727,904.9,725.27,902.11,721.17,901.32Z"/><path d="M721.25,900.31a7,7,0,0,1-.08,1,9.89,9.89,0,0,0-1.4-.18c.44-.53.78-.89,1-1.15A4.58,4.58,0,0,0,721.25,900.31Z"/><path class="cls-1" d="M720.79,900a3.22,3.22,0,0,1-1.37-2.56c0-.14,0-.28,0-.42s.85-.23,1.3-.36a18,18,0,0,1,.49,2.7C721.21,899.52,721.06,899.7,720.79,900Z"/><path class="cls-1" d="M720.79,900c-.24.26-.58.62-1,1.15-.17-1.66-.32-2.72-.35-3.71A3.22,3.22,0,0,0,720.79,900Z"/><path class="cls-5" d="M707.27,948.21c3.69,5.87,7.63,11.83,10,18.54.52,1.5,1.75,2.82,2,4.33,1,6.2,1.74,12.46,2.58,18.72-.42,2.56-.85,5-1.28,7.49,0,.27-.09.55-.14.82-1-2.33-1.6-5.09-3.23-6.88-4.92-5.41-5.28-13.28-10.34-18.5-4.11-4.2-.48-10.39-4-14.93-1.16-1.5-.89-4.22-1.76-6.45-1.22-3.18-.11-7.26,0-11C705.6,940.86,705.66,945.65,707.27,948.21Z"/><path class="cls-4" d="M720.38,842.44c1.12.69,2.56,1.79,2.77,2.92,1.53,8.52,6.83,15.22,10.41,22.75A162.56,162.56,0,0,1,741,887.88c3.32,10.15,8.92,19.19,13.52,28.72,3.63,7.49,6.81,15.2,10.51,22.66a219.66,219.66,0,0,0,13.54,23.52,52.52,52.52,0,0,1,6.58,12.84c4,12.87,11,24,18.55,34.94,8.14,11.71,16.22,23.42,20.71,37.17,1,3,2.89,5.73,4.35,8.59.43.85.78,1.76,1.15,2.6a13.62,13.62,0,0,1-2.28,2.36,2.3,2.3,0,0,1-2.12,0c-1.5-1.38-3.64-2.78-4-4.51-2.28-10.61-8.59-19.41-13.27-28.81s-12.21-17.06-17.19-26.19c-4.26-7.83-8.79-15.63-11.59-24.3-1.76-5.43-5-10.4-7.82-15.46-3.48-6.2-7.5-12.11-10.71-18.44s-6.63-12.31-8.79-19.26c-2.73-8.77-7.78-16.86-12.23-25-5.24-9.63-8.7-19.95-12.55-30.16-2.59-6.89-5.84-13.51-8.76-20.27a29.8,29.8,0,0,1-1.56-4.55c-.13-.52.22-1.61.59-1.73A3.7,3.7,0,0,1,720.38,842.44Z"/><path d="M709.84,825.8c-3,5.26-5.37,11-9.44,15.56Q705,833.78,709.84,825.8Z"/><path class="cls-6" d="M708.77,902.79c5.41,9.53,8.93,19.85,13.15,29.9a105.19,105.19,0,0,0,10.51,19.59c5.71,8.15,8.15,18.05,11.79,27.28,4.14,10.45,5,22,10.44,32.05.44.8.06,2,.06,3.09v2.08c-.83-.49-2-.77-2.45-1.5-2.75-4.73-5.51-9.47-7.93-14.37-3.66-7.48-7-15.09-10.55-22.64-.67-1.45-1.13-3.23-2.25-4.23-9.14-8.14-11-19.59-14.44-30.43-3.51-11.16-7.4-22.18-8.39-34-.18-2.18-1.48-4.25-2-6.43-.17-.82.52-1.82.82-2.74C708,901.26,708.34,902,708.77,902.79Z"/><path class="cls-6" d="M682,951.37c-.39-.53.29-1.82.48-2.76.49.23,1.23.33,1.43.71,4.25,8.06,11.86,14,14.76,22.9.28.88,1.94,1.66,1.83,2.28-1.14,6.2,2.23,11.79,2.21,17.81a35.68,35.68,0,0,1,0,4.14c-.06.59-.63,1.11-1,1.66a12.45,12.45,0,0,1-1.06-1.58c-3.47-7-6-14.35-12-20-2-1.9-2.43-6-2.53-9.16C686,961.62,685.42,956.2,682,951.37Z"/><path class="cls-1" d="M735.57,787.67c0-.3-1.79,1.68-56.21,88.35,6.53-10.75,13.54-22.27,21-34.66,4.07-4.55,6.41-10.3,9.44-15.56.08-.14.15-.26.23-.38.27-.46.55-.93.84-1.4.58-.93,1.2-1.84,1.86-2.71a145.9,145.9,0,0,0,18-30.15c1.18-1.95,2.36-3.92,3.57-5.91C735,786.55,735.63,787.17,735.57,787.67Z"/><path class="cls-1" d="M650.77,920.54c7.64-13.13,14.59-26.7,22.82-39.43,7.78-12,15.49-24.1,23-36.31a23.74,23.74,0,0,0,3.81-3.44c-7.5,12.39-14.51,23.91-21,34.66-.05.08-.1.17-.16.25-11.4,18.19-25.13,40.08-41.63,66.45l-.12-.08Q644.28,931.72,650.77,920.54Z"/><path d="M624,871.34a8.7,8.7,0,0,1,7.76,9.66c-.58,4.2-7.46,9.56-11.62,9.06-6.12-.73-9.65-4.27-9.19-9.23C611.61,873.44,615.47,870.63,624,871.34Z"/><path class="cls-4" d="M714.19,827.86a245.46,245.46,0,0,0-16.65,26.24c-6.39,11.3-13.61,22.12-20.42,33.18-3.23,5.24-7,10.26-9.41,15.88-4.21,9.89-10.52,18.52-15.66,27.82-3.78,6.85-9.77,12.61-12.78,19.7-3.1,7.29-8.51,12.61-13,18.44-9.34,12-17.35,24.69-25.5,37.4a22,22,0,0,1-2.89,4,42.93,42.93,0,0,1-3.8,3.18c9.31-13.72,31-48.23,85.17-137.41.06-.08.11-.17.16-.25,54.42-86.67,56.21-88.65,56.21-88.35v0a15.89,15.89,0,0,1-1.29,4.65C728,804.42,722.51,816.72,714.19,827.86Z"/><path class="cls-1" d="M592.42,1015c17-27.2,32-51.16,45.15-72.24,16.5-26.37,30.23-48.26,41.63-66.45C625,965.45,603.34,1000,594,1013.68Z"/><path class="cls-1" d="M595.77,842.29a48.69,48.69,0,0,1,6,0,11.19,11.19,0,0,1,2.66.83c-1.07.4-2.1.89-3.2,1.18a7.93,7.93,0,0,1-2,0c-1.3,0-2.6.08-3.9,0h-.12c-.35,0-.67-.62-1-.95C594.75,843,595.24,842.33,595.77,842.29Z"/><path class="cls-1" d="M637.57,942.72c-13.19,21.08-28.16,45-45.15,72.24-.9-3.41,2.11-4.68,3.62-6.83,4.66-6.66,8.21-14,12.17-21,4.52-8,10-15.28,15.12-22.79q7.27-10.71,14.12-21.68Z"/><path class="cls-1" d="M591.24,1015.62l-.36.22Z"/><path class="cls-1" d="M592.42,1016c-.2,3.68-3,5.45-5.9,7.08C587.41,1022.57,588.59,1021.55,592.42,1016Z"/><path class="cls-1" d="M590.76,1015.91l.12-.07.36-.22,1.18-.66a6.37,6.37,0,0,1,0,1.07c-3.83,5.52-5,6.54-5.9,7.08l-.32.18c0-.07,0-.14,0-.22C586.31,1019.29,588.33,1017.41,590.76,1015.91Z"/><path class="cls-1" d="M590.76,1015.91c-2.43,1.5-4.45,3.38-4.57,7.16C586,1019.42,588.15,1017.49,590.76,1015.91Z"/><path class="cls-1" d="M586.2,1023.29v.93c0-.31,0-.6,0-.88A.08.08,0,0,0,586.2,1023.29Z"/><path class="cls-1" d="M586.19,1023.29h0a.08.08,0,0,1,0,.05A.09.09,0,0,1,586.19,1023.29Z"/><path class="cls-1" d="M585.14,1025.05a3.33,3.33,0,0,0,1-1.71c0,.28,0,.57,0,.88Z"/><path class="cls-1" d="M586.18,1023.34a3.33,3.33,0,0,1-1,1.71l-.17.13c-.14-.44-.48-1.16-.35-1.25a5.63,5.63,0,0,1,1.57-.64A.09.09,0,0,0,586.18,1023.34Z"/><path d="M559.13,996.32c2.07.52,4.86-1.69,6.21,1.55.77,1.85-1.14,2.64-6.25,2.58a13.56,13.56,0,0,1-3.06-.07,1.86,1.86,0,0,1-1-1.51c.11-.89.45-2.12,1.1-2.48A4.6,4.6,0,0,1,559.13,996.32Z"/><path d="M548,1024.85c-1.8,1.38-.33,6-3.93,4.61-4.25-1.68.36-3.58.4-5.37a10.06,10.06,0,0,1,2.17-6.41,10.22,10.22,0,0,0,1.07-2.65c.24.25.49.49.73.73.93.93,1.84,1.86,2.64,2.67C549.93,1021,549.53,1023.66,548,1024.85Z"/><path class="cls-1" d="M592.91,844.86c-50.8,4.43-59.8,5.62-59.24,5.21h0c38.3-3.43,53.26-4.78,58.83-5.35Z"/><path class="cls-1" d="M535.14,849.55a6.45,6.45,0,0,0,.62-.21A6.45,6.45,0,0,1,535.14,849.55Z"/><path class="cls-1" d="M592.51,844.72c-5.57.57-20.53,1.92-58.83,5.35a11.58,11.58,0,0,1,1.45-.52h0a6.45,6.45,0,0,0,.62-.21l.23-.08c4.47-1.65,9.73,1.74,13.48-2.65.29-.36,1.31-.15,2-.13,13.3.47,26.33-3.64,39.66-2.12A6.41,6.41,0,0,1,592.51,844.72Z"/><path class="cls-1" d="M532.62,850.16a18,18,0,0,0,2.51-.61,11.58,11.58,0,0,0-1.45.52h0Z"/><path class="cls-4" d="M506.49,959c4.47-.77,10.62,7.42,8.48,11.49a34.7,34.7,0,0,1-7.37,9.12c-3.6,3.3-7.67,2.51-11.71.15-3.64-2.13-3.75-5.31-3.29-9.11-1.43-4.91,1.78-6.95,5.91-8.46C501.2,961.23,503.73,959.5,506.49,959Z"/><path d="M528.2,1000.35c-6.56.32-13.14.16-19.7.17-3.12,0-6.23.05-9.35,0-5.82-.08-11.7-.71-15.42,5.54-.94,1.56-3.61,1.36-3.53-1,.09-3.59-.7-5.3-4.57-4.57-.49.1-1.2-.45-1.67-.85-.79-.67-2.23-1.91-2.11-2.11a7.53,7.53,0,0,1,2.82-2.91c1.14-.52,2.65-.25,4-.32,4.42-.2,4.33-.29,9.29-4.72a7.23,7.23,0,0,1,4.52-1.39c.7,0,2.17,2,2,2.45-1,2-3.32,3.84,1.5,3.7,8.64-.24,17.29-.1,25.93-.11,2.08,0,4.26-.39,6.2.12,1.46.39,2.63,1.93,3.93,3C530.76,998.39,529.52,1000.29,528.2,1000.35Z"/><path d="M475.6,902.78c-5.75-.12-8.41-2.72-8.22-8,.18-4.76,5-8.93,9.88-8.61,3.24.19,7,5.53,6.77,9.66C483.88,899.19,479.44,902.85,475.6,902.78Z"/><path d="M492.06,1015.17a7.57,7.57,0,0,1,2.49,1.07c-.73.73-1.35,1.9-2.22,2.13-4.4,1.13-8.81,2.47-13.29,2.88-3.7.33-5.91,1-7.52,5s-4.94,7-7.62,10.31a10.63,10.63,0,0,1-2.12,1.67c-.93-.35-2-.46-2-.82-.32-1.29-.87-2.94-.34-3.92a90.43,90.43,0,0,1,5.38-8.16,6.21,6.21,0,0,1,.72-.73c.67-.73,1.33-1.48,2-2.21a10.38,10.38,0,0,0-2.73-.89c-2.75-.12-5.54.14-8.27-.18-.51-.06-1.46-2.52-1.07-3.07a8.16,8.16,0,0,1,3.87-2.92c1.57-.49,3.42-.21,5.14-.1,4.61.28,8.82.17,10-5.73.19-.92,1.84-1.54,2.82-2.31A20.29,20.29,0,0,1,478,1010c.47,5.1.45,5.12,4.77,5.18C485.85,1015.17,489,1015.05,492.06,1015.17Z"/><path d="M447.78,998.66c.42,0,1.08,1.71.92,2.48s-1.25,1.39-2,1.49a37.55,37.55,0,0,1-5.09.09,14.2,14.2,0,0,1-3.06,0c-1.45-.33-3.35-.52-4.14-1.51-1-1.21,1.85-4.14,4-4.72C442,995.52,444.55,998.33,447.78,998.66Z"/><path d="M412.62,1048.41l-2.92-1.75c3.84-6.41,7.6-12.85,11.42-19.26,1.49-2.51.93-3.67-2-3.89a14.22,14.22,0,0,1-3.39-1.13c1-1,2-2.88,2.93-2.8a12.33,12.33,0,0,0,10.86-4.27,5.32,5.32,0,0,1,2.6,1.9c.61,1.39-.89,3.89-4,8.47C422.89,1033.23,417.76,1040.84,412.62,1048.41Z"/><path class="cls-4" d="M417.35,983.22c-5.34,5.55-9.91,6.36-15.49,2.78-2.74-1.75-4.43-7.44-2.35-9.72,3.3-3.62,6.14-8.64,11.87-6.76,3.68-.2,6.11-.33,7.21,3.85C419.88,978.28,420.26,980.2,417.35,983.22Z"/><path class="cls-4" d="M533.67,850.07c-.56.41,8.44-.78,59.24-5.21.44.17.88.36,1.33.5a9.45,9.45,0,0,1-2.69,1c-4.32.2-8.45.24-12.73,1.88-3.51,1.34-7.7.11-11.64,2.12-2.75,1.42-6.67.38-10,1a43.77,43.77,0,0,0-9.16,2.91c-3,1.29-6.9-.89-9.4,2.56-.37.49-2,.09-3,.06-11.76-.23-23,3.42-34.64,4.3-1.16.09-2.22,1.27-3.35,1.88a20.63,20.63,0,0,1-11.55,2.25c-2.61-.18-5.49.76-7.41-2-1.56,2.6-4.15,2.13-6.45,1.93-5.1-.42-9.86.87-14.76,2s-9.71.11-14.81,1.84c-5.3,1.8-11.65.38-17.53.44-4.31,0-8.49,0-12.73,1.9-3.8,1.71-8.36-1-12.79,1.9-2.68,1.75-7.44.67-11.19.31-2.7-.26-5.83,1.69-8.11-1.27,2.67-.23,5.37-.29,8-.74,8.07-1.37,15.92-3.78,24.1-4.78,1.9-.23,4.27-1.47,6.56-1.46,10.35.1,20.07-3.06,29.94-5.53,4.74-1.18,9.59-2.67,14.4-2.7,6.78-.07,13.06-3.63,19.91-2.3,7.54-4.59,16.42-.25,24.39-3.91,3.71-1.7,8.87-.3,13.36-.31,0,.17,0,.34.06.51.64-.07,1.26-.12,1.9-.17a90.37,90.37,0,0,0,9.69-.87Z"/><path d="M391.18,1009.28c-1.82-.44-4.91-2.21-6.37-1.32-2.73,1.65-4.51,4.87-6.72,7.43-.46.53-1,1-1.52,1.51a8.41,8.41,0,0,1-.52-1.87c0-1-.31-2.42.23-3,2.4-2.4,1.91-3.12-1.32-3-3.8.11-7.62.12-11.43,0a2.6,2.6,0,0,1-2-1.58c-.12-.76.54-2.27,1.11-2.4,3.83-.89,7.76-2.24,11.58-2,5,.3,7.5-2.45,10-5.69,1-1.26,1.45-2.94,2.49-4.13a2.92,2.92,0,0,1,2.68-.67c.63.32,1,1.64,1.06,2.57s.11,2.28-.44,2.88c-1.56,1.65-2.12,2.71.85,2.74,5.54,0,11.09,0,16.63,0,1,0,2.27-.18,2.95.33a2.82,2.82,0,0,1,.78,2.63c-.6,1.19-1.68,2.71-2.79,2.92C403,1007.65,397.39,1008.34,391.18,1009.28Z"/><path d="M346.31,900.9a8.28,8.28,0,0,1,8.73,8.65c-.12,4.71-4,8-9.38,8-4.53,0-8.89-3.36-9.16-7.09C336.27,907.3,342.69,901,346.31,900.9Z"/><path d="M336.39,1008.94c.14.62-.82,2.13-1.34,2.17-3.93.27-8.56-.9-9,5.31,0,.26-.46.49-.74.77-.47-.28-1-.55-1.42-.87-2.21-1.58-1.93-5-5.61-6-2.15-.59-.37-5.06,2.47-5.34s5.93.91,8.57-1.92C330.41,1001.88,335.77,1006.25,336.39,1008.94Z"/><path class="cls-3" d="M610.94,880.83c-.46,5,3.07,8.5,9.19,9.23,4.16.5,11-4.86,11.62-9.06a8.7,8.7,0,0,0-7.76-9.66C615.47,870.63,611.61,873.44,610.94,880.83ZM346.31,900.9c-3.62.14-10,6.4-9.81,9.57.27,3.73,4.63,7.1,9.16,7.09,5.41,0,9.26-3.3,9.38-8A8.28,8.28,0,0,0,346.31,900.9Zm121.07-6.15c-.19,5.31,2.47,7.91,8.22,8,3.84.07,8.28-3.59,8.43-7,.2-4.13-3.53-9.47-6.77-9.66C472.34,885.82,467.56,890,467.38,894.75Zm50.12,5.16c-4.07-4.5-5.54-4.63-11.28-1.58-2.6,1.38-5.51,2.92-7.14,5.18-7.71,10.72-14.67,22-23.56,31.86-1.51,1.67-2.29,4-3.77,5.68s-2.69,2.17-4.43-.62c-4.29-6.9-6.63-14.65-10.36-21.75a31.33,31.33,0,0,0-5-7.26c-4.54-4.68-8.5-5.09-13.5-1.39a93.43,93.43,0,0,0-12.32,10.34c-5.12,5.41-11.46,9-17.41,13.28-4.9,3.51-9.28,7.78-13.88,11.71-2.55,2.17-4.16,2.3-4.47-1.73-.1-1.15-1.75-2.14-1.93-3.31-.86-5.58-1.42-11.21-2.19-16.82-.56-4-1.71-9-5.44-9.79-4.15-.89-9.05-1.79-13.35,2.57-11.3,11.44-23.27,22.26-35,33.23-.82.77-2.32.82-3.5,1.2a9.43,9.43,0,0,1-.85-2.76c.11-7.09-3-13.73-2.35-21,.41-4.43-3-8.05-6.53-10.61-1.2-.88-3.86-.58-5.47.1-2.36,1-4.39,2.8-6.54,4.31-7.81,5.5-16.09,10.37-23.17,16.9-.63.58-1.83.56-2.77.81a23.29,23.29,0,0,1,.81-2.89c3.35-7.84,7.39-15.25,13.17-21.62a7,7,0,0,0,1.52-2.47c2.08-6.62,6.93-7.74,13.32-8.75,10.13-1.61,19.93-5.3,29.88-8,5.3-1.46,10.66-4,15.94-3.92,8.61.18,15.74-4.67,23.91-5.4.9-.08,1.83-1.22,2.62-1.09,9.6,1.47,18.72-2.89,28.28-2.26,3.94.26,7.85.28,11.68-1.92s8.15-2.34,12.58-2.37c4.23,0,8.45-1.23,12.66-2s8.43,1,12.87-1.78c2.71-1.73,7.42-.33,12.22-.34,5.5.92,11.5-.89,17.52-3a18.57,18.57,0,0,1,7.84-1.07c10.61,1,21-1,31.34-2.6,4.56-.7,9.91-.13,13.54-2.12,4.52-2.47,8.94-.24,12.79-1.87,5.26-2.25,10.52-1.93,15.85-1.9s10.38-2,15.74-2.53c6.69-.62,13.08-4.2,20.15-3.82,3.82-4.83,9.59-.53,14.33-3.21a23.25,23.25,0,0,1,13.26-3.26c2.7.23,5.59-1.34,8.34-2.24,1.21-.4,2.26-1.55,3.45-1.68,7.32-.84,14.8-.87,22-2.4,5.07-1.09,10.38-1.1,15.27-3.22,1.77-.77,3.94-.61,5.93-.72.58,0,1.17.49,1.76.76a9,9,0,0,1-1,1.46c-6.47,5.92-8.64,14.5-13.28,21.56-3.93,6-7.29,12.43-11.81,17.92-3.34,4.07-7.83,7.37-12.32,10.25-10.45,6.69-20.46,13.83-29,23-2.68,2.88-6.21,5-9.34,7.43-6.42,5-6.43,5-10.29-2.17-3.51-6.52-6.79-13.17-10.53-19.55a24.48,24.48,0,0,0-6.55-7.58c-2.38-1.67-6-2.18-8.29.56-4.84,5.66-11.16,9.79-15,16.65-3.06,5.49-8.23,9.75-12.22,14.76-3.47,4.38-6.75,9-9.79,13.63-1.45,2.25-2.28.57-2.67-.24-4.56-9.7-12.2-17.56-16.28-27.59A31.55,31.55,0,0,0,517.5,899.91Z"/><path class="cls-4" d="M288.61,971.75c4.36-.06,8,4,8.28,9.11.16,2.9-6,9.45-9,9.61-4.85.27-9.79-5.2-9.72-10.74C278.23,975.17,282.59,971.83,288.61,971.75Z"/><path class="cls-4" d="M294.56,864.66a7.72,7.72,0,0,1-.69,2.77,5.51,5.51,0,0,1-1.43-.93c-2.48-3.08-5.25-6-7.23-9.37-3.21-5.48-5.93-11.27-8.78-17-1.29-2.58-.56-3.64,3.34-3.66.28.17,2,.58,2.23,1.41,2.29,8.46,8.46,15,11.24,23.18A21.29,21.29,0,0,1,294.56,864.66Z"/><path class="cls-6" d="M307.64,1071.59q-32.2.06-64.4.06c-.72,0-1.44-.8-2.15-1.21.57-.27,1.18-.84,1.73-.78,12.3,1.43,24.23-3.63,35.25-2.18,6.47,0,12.4,1.56,16.66-.45,4.67-2.21,10.29.51,14-3.77,7.53,1.42,14.54-2.26,22-2.18,16.62.2,33.26-.53,49.85.13,26.11,1,52-3,78.08-2.36,2.42.07,4.85-.06,7.27.05.57,0,1.1.62,1.66,1a6.69,6.69,0,0,1-1.58,1,6.51,6.51,0,0,1-2.07,0c-10.2-.75-20,3-30.31,2.46-4.3-.21-8.94,1.77-13.66,1.9-4.57.13-9.1,1.56-13.68,1.9-4.82.35-10.09-1.1-14.45.37-7.39,2.47-14.72,1.54-22.07,1.77-2.22.07-3.63,1.26-5.44,2-4.43,1.89-8.59,3-14,.81-10.36-4.16-27.76-3.56-39.63-.72A13.49,13.49,0,0,1,307.64,1071.59Z"/><path class="cls-6" d="M441.59,1002.72a37.55,37.55,0,0,0,5.09-.09c.77-.1,1.91-.85,2-1.49s-.5-2.44-.92-2.48c-3.23-.33-5.82-3.14-9.35-2.21-2.19.58-5,3.51-4,4.72.79,1,2.69,1.18,4.14,1.51A14.2,14.2,0,0,0,441.59,1002.72Zm-30.21-33.2c-5.73-1.88-8.57,3.14-11.87,6.76-2.08,2.28-.39,8,2.35,9.72,5.58,3.58,10.15,2.77,15.49-2.78,2.91-3,2.53-4.94,1.24-9.85C417.49,969.19,415.06,969.32,411.38,969.52Zm65.87,37.62c-1,.77-2.63,1.39-2.82,2.31-1.18,5.9-5.39,6-10,5.73-1.72-.11-3.57-.39-5.14.1a8.16,8.16,0,0,0-3.87,2.92c-.39.55.56,3,1.07,3.07,2.73.32,5.52.06,8.27.18a10.38,10.38,0,0,1,2.73.89c-.67.73-1.33,1.48-2,2.21a6.21,6.21,0,0,0-.72.73,90.43,90.43,0,0,0-5.38,8.16c-.53,1,0,2.63.34,3.92.09.36,1.12.47,2,.82a10.63,10.63,0,0,0,2.12-1.67c2.68-3.36,6.08-6.47,7.62-10.31s3.82-4.62,7.52-5c4.48-.41,8.89-1.75,13.29-2.88.87-.23,1.49-1.4,2.22-2.13a7.57,7.57,0,0,0-2.49-1.07c-3.1-.12-6.21,0-9.33,0-4.32-.06-4.3-.08-4.77-5.18A20.29,20.29,0,0,0,477.25,1007.14Zm-147.92-4.09c-2.64,2.83-5.67,1.64-8.57,1.92s-4.62,4.75-2.47,5.34c3.68,1,3.4,4.43,5.61,6,.45.32,1,.59,1.42.87.28-.28.72-.51.74-.77.43-6.21,5.06-5,9-5.31.52,0,1.48-1.55,1.34-2.17C335.77,1006.25,330.41,1001.88,329.33,1003.05Zm214.72,26.41c3.6,1.42,2.13-3.23,3.93-4.61,1.55-1.19,1.95-3.9,3.08-6.42-.8-.81-1.71-1.74-2.64-2.67-.24-.24-.49-.48-.73-.73a10.22,10.22,0,0,1-1.07,2.65,10.06,10.06,0,0,0-2.17,6.41C544.41,1025.88,539.8,1027.78,544.05,1029.46Zm15.08-33.14a4.6,4.6,0,0,0-3,.07c-.65.36-1,1.59-1.1,2.48a1.86,1.86,0,0,0,1,1.51,13.56,13.56,0,0,0,3.06.07c5.11.06,7-.73,6.25-2.58C564,994.63,561.2,996.84,559.13,996.32ZM288.61,971.75c-6,.08-10.38,3.42-10.44,8-.07,5.54,4.87,11,9.72,10.74,3-.16,9.16-6.71,9-9.61C296.63,975.71,293,971.69,288.61,971.75Zm204-1.07c-.46,3.8-.35,7,3.29,9.11,4,2.36,8.11,3.15,11.71-.15a34.7,34.7,0,0,0,7.37-9.12c2.14-4.07-4-12.26-8.48-11.49-2.76.47-5.29,2.2-8,3.19C494.38,963.73,491.17,965.77,492.6,970.68ZM384.81,1008c1.46-.89,4.55.88,6.37,1.32,6.21-.94,11.79-1.63,17.31-2.71,1.11-.21,2.19-1.73,2.79-2.92a2.82,2.82,0,0,0-.78-2.63c-.68-.51-1.94-.31-2.95-.33-5.54,0-11.09,0-16.63,0-3,0-2.41-1.09-.85-2.74.55-.6.53-1.93.44-2.88s-.43-2.25-1.06-2.57a2.92,2.92,0,0,0-2.68.67c-1,1.19-1.5,2.87-2.49,4.13-2.52,3.24-5,6-10,5.69-3.82-.23-7.75,1.12-11.58,2-.57.13-1.23,1.64-1.11,2.4a2.6,2.6,0,0,0,2,1.58c3.81.16,7.63.15,11.43,0,3.23-.09,3.72.63,1.32,3-.54.54-.27,2-.23,3a8.41,8.41,0,0,0,.52,1.87c.51-.51,1.06-1,1.52-1.51C380.3,1012.83,382.08,1009.61,384.81,1008Zm141,34.22c-2.26,0-4.86-1-6.7,1.42-.12.17-1.24,0-1.36-.33-.25-.58-.47-1.56-.15-2,5.52-7.1,11.06-14.19,16.76-21.15.92-1.12,2.62-1.61,4-2.37-2.47-3.24.39-6.48-.09-9.71,0-.22-1.32-.51-1.91-.36-1.23.33-3.25.73-3.42,1.47-1.47,6.31-6.11,6-11,6-1.34,0-2.7,1.71-4,2.65,1,1.15,1.95,3.07,3.16,3.3,4,.76,3.3,2,1.46,4.72-3.46,5.08-6.28,10.6-9.67,15.73-2.4,3.61-7,3.74-10.54,4.47-8.2,1.65-16.66,2.09-25,3-.05-.36-.09-.72-.14-1.07-9.4.84-18.79,2-28.21,2.42s-18.73.12-28.08.14c-2.43,0-4.86.05-7.29,0a5.79,5.79,0,0,1-1.78-.69c.3-.49.55-1,.87-1.48,5.14-7.57,10.27-15.18,15.45-22.73,3.14-4.58,4.64-7.08,4-8.47a5.32,5.32,0,0,0-2.6-1.9,12.33,12.33,0,0,1-10.86,4.27c-.89-.08-1.94,1.81-2.93,2.8a14.22,14.22,0,0,0,3.39,1.13c2.95.22,3.51,1.38,2,3.89-3.82,6.41-7.58,12.85-11.42,19.26-.81,1.38-1.64,2.74-2.47,4.11a4.08,4.08,0,0,1-2.8,1.86c-6.93.17-13.86.21-20.79.08-6.75-.1-13,3.38-20,2.26-3.72-.6-7.64.18-11.41-.18-3.16-.31-6.78,1.88-9.48-1.44,1.84-2.37,3.74-4.68,5.48-7.1s4.39-4.77,4.67-7.36c.5-4.74,5-2.33,6.71-4.73.46-.66,2.64,0,4-.12,8.72-.68,17.47-1.28,26.17-2.19a14.36,14.36,0,0,0,6.22-2.43c1.53-1,4.13-2.63,2.56-4.8-1-1.41-4.51-2.84-5.44-2.19-3,2.08-6,.78-8.95,1.16-6.27.8-12.59,1.37-18.88,2.16-3.28.42-4.18-1-3.93-4,.19-2.57-1.76-2.73-3.36-1.8a17.53,17.53,0,0,0-3.71,3.6c-3.77,4.11-8.08,7.13-14,6.37a5.12,5.12,0,0,0-5.17,2.51,4.71,4.71,0,0,0-.63,2.78c0,.37,1,.93,1.59,1,2.08.11,4.16.08,6.24,0,2.48-.07,3,1.47,2.24,3.26-1.25,2.95-2.44,6.12-4.45,8.52-2.91,3.51-4.76,9.39-11.42,7-8.55,2.9-17.4,2.07-26.18,2.06-1.17,0-2.32-.79-3.48-1.23.55-1.16,1-2.34,1.66-3.47.92-1.7,1.85-3.43,2.93-5,2.55-3.73,4.06-8.43,9.37-9.63.59-.12,3.36-1.05,1.68-3.57-1.19-1.79-1.54-4.12-2.43-6.14-.1-.2-1.67-.19-1.89.15-3.51,5.47-9,3.89-14,4-2.78,0-5.57-.23-7.22,2.66-.31.54-.7,1.4-.48,1.81a3.48,3.48,0,0,0,1.9,1.74,31.6,31.6,0,0,0,4.14.09c2,.13,4,.4,6,.61-.7,2.37-1.27,4.79-2.18,7.08-.35.89-1.57,1.4-2.1,2.25-2.27,3.56-4.44,7.18-6.64,10.78-7.41-.61-14.88,1.34-22.32-1.12-3.41-1.12-8.25-2-10.88-.44-3.45,2.07-6.53,1.53-9.77,1.63-6.92.25-13.87.14-20.8.07a19.1,19.1,0,0,1-3.79-.84c.64-1.44,1.25-2.88,1.92-4.29a29.82,29.82,0,0,1,2.23-4.27c.78-1.12,1.9-2.82,2.89-2.84,6.73-.14,13-3.91,19.89-2.23.85.21,1.35,1.76,2,2.66.36.45.81.82,1.21,1.23,3.34-6.47,10.16-5.53,15.68-7.36,1.23-.4,3.18-.12,3.7-.9,1.62-2.45,7.32-.07,6.25-4.75-.69-3-4.15-1-6.33-1.36a13.37,13.37,0,0,0-4.14,0c-3.25.45-4.29-.92-4-4a2.62,2.62,0,0,0-1.43-2.12c-.78-.16-2.49.52-2.53.94-.49,5.4-4.3,5-8.19,5.29-5,.34-10.22-1.55-15.08,1.2-2.3,1.32-1.57-.87-1.79-1.8a29.24,29.24,0,0,1-.4-3c-.73.29-1.82.38-2.16.91-4.21,6.69-10.89,4.38-16.82,4.56-.41,0-1.56-2.52-1.2-3a70.74,70.74,0,0,1,8.06-10.18c2.85-2.79,9.21-1.4,12.59,1.84.71.68,2.74,1,3.41.53,7.45-5.57,7.41-5.67,13.09-5.71,8.32,0,16.7-.59,25,.14,6,.53,11.11-2.44,16.84-2.4,1.06,0,2.26-1.29,3.16-2.23,1.43-1.49,1.54-3.08-.7-3.87a32,32,0,0,0-7.46-2c-3.42-.35-6.92,0-10.39-.09-3.79-.09-3.88-.3-2.62-4a26.17,26.17,0,0,0,1.13-4.72c.06-.48-.61-1.54-1-1.54-.93,0-2.61.22-2.71.64-2.51,11.88-11.1,12.28-20.87,11.95-6.6-.23-13.28,1.31-19.93,1.86a5.06,5.06,0,0,1-3.2-1.49c-.26-.22.33-2,1-2.55,6.92-6,10.07-14.69,15.61-21.62s11.49-13.35,17.45-19.83c1.25-1.37,3.28-2,4.95-3,12.8-7.68,26.42-14.06,38.06-23.59,1.6-1.31,3.11-1.47,3.88.82a61.33,61.33,0,0,1,2.08,7.45c.83,4.19.52,8.91,2.44,12.49,1.43,2.72,1.56,7.08,6.71,7.94,2.57.44,3.87,1.44,6.79-.15,6.07-3.32,11.93-6.64,17.16-11.31,7.48-6.69,15.41-12.87,23.22-19.19a2,2,0,0,1,1.89.35,19.31,19.31,0,0,1,2.09,5.35c.88,5.58,1.36,11.22,2.25,16.8A17.71,17.71,0,0,0,376,967.2c1.64,3.15,5.58,3.94,9.13,2.56,10.19-4,18.09-11.47,27.24-17,3.93-2.4,7.41-5.52,11.17-8.21,3.46-2.48,7.17-4.62,10.48-7.28a92.38,92.38,0,0,0,7.38-7.3c1.76,3.42,3.25,7,5.32,10.2,4,6.26,4.35,14.19,10,19.87,4.53,4.52,5.18,5.11,10.47,3.29,4.35-1.49,7.47-4.17,10.51-7.26,3.9-3.95,8-7.69,11.7-11.83,4-4.5,7.59-9.32,11.3-14,.58-.75.64-1.92,1.26-2.59,2.62-2.76,5.35-5.43,8-8.12,1.73,3,3.43,6.11,5.16,9.16,3.68,6.44,7.05,13.11,11.19,19.25,2.79,4.15,6.92,8.63,11.81,8.5,4-.11,8.57-3.29,11.7-6.32,6.81-6.62,13.49-13.57,18.93-21.3a84.72,84.72,0,0,1,7.69-9.18c4.87-5.24,5.74-5,9.53,1.73,2.85,5.05,5.48,10.23,8.39,15.24s13.72,7.53,18.8,4.41c.57-.37.9-1.15,1.5-1.44A61.42,61.42,0,0,0,629.13,930c.21.27.65.67.59.77-3.2,5.28-5.64,11.25-9.79,15.65-11,11.65-17.44,26.39-27.47,38.67-5.18,6.35-9.62,13.29-14.17,20.13a166,166,0,0,0-15,27c-1.87,4.44-4.1,8.71-6.37,13a3.2,3.2,0,0,1-2.56.91c-3.94-4.7-9.63-.65-14.42-3C536,1041.19,530.58,1042.21,525.82,1042.18Zm-3.93-47.92c-8.64,0-17.29-.13-25.93.11-4.82.14-2.54-1.67-1.5-3.7.21-.42-1.26-2.45-2-2.45a7.23,7.23,0,0,0-4.52,1.39c-5,4.43-4.87,4.52-9.29,4.72-1.37.07-2.88-.2-4,.32a7.53,7.53,0,0,0-2.82,2.91c-.12.2,1.32,1.44,2.11,2.11.47.4,1.18,1,1.67.85,3.87-.73,4.66,1,4.57,4.57-.08,2.35,2.59,2.55,3.53,1,3.72-6.25,9.6-5.62,15.42-5.54,3.12,0,6.23,0,9.35,0,6.56,0,13.14.15,19.7-.17,1.32-.06,2.56-2,3.82-3-1.3-1-2.47-2.57-3.93-3C526.15,993.87,524,994.26,521.89,994.26Z"/><path class="cls-6" d="M218.83,1046.88c.42,0,1.34,1.78,1.09,2.37-1.17,3-5.42,4.44-4.16,8.69.06.21-1.44,1.19-2.26,1.26-2.4.18-4.82.07-7.23.07s-4.83.11-7.24,0c-2.2-.11-1.9-1.11-.61-2.31.76-.69,1.91-1.35,2.12-2.2.84-3.55,3.23-6.73,6-7.61C210.29,1045.92,214.7,1046.72,218.83,1046.88Z"/><path class="cls-4" d="M323.79,841.77c.37-.66,1.64-1,2.54-1.1.46-.06,1,.67,1.5,1,0,.73.26,1.56,0,2.07-2.87,5.07-5.83,10.08-8.74,15.1-5.37,9.21-10.62,18.49-16.1,27.63-8.68,14.5-17,29.15-26.91,43-10,14-21.53,27.16-28.87,43.06a46.78,46.78,0,0,1-6.51,9.76c-6.76,8.24-12,17.56-19.64,25.24-10,10-17.87,21.81-24.45,34.47-2.7,5.19-6.67,9.73-10.21,14.47-.46.6-1.81.54-2.74.79,0-.74-.21-1.66.15-2.18,4.66-6.62,7.15-14.42,11.32-21.28s8.86-13.71,13.6-20.34c1.78-2.51,4.45-4.37,6.51-6.69,6.36-7.2,13.07-14,17.36-22.94,2.11-4.39,6.2-7.78,9-11.89,3.66-5.36,6.84-11,10.33-16.49,2.83-4.4,5.7-8.78,8.81-13,9.11-12.37,18.1-24.72,26-38,7.58-12.79,14.58-26,22.65-38.45C314.46,858.05,319.23,850,323.79,841.77Z"/><path d="M694.48,807.15l-.43-.43c.33-3.23-.89-5.43-4.18-6.24-.32,3.23.89,5.42,4.18,6.24C694.19,806.85,694.32,807,694.48,807.15Zm2.95,3.48a6.19,6.19,0,0,0,.62-.63l-1-1.21a3.44,3.44,0,0,1-.27.27,25.11,25.11,0,0,1-2.19-1.8c.51.52,1,1,1.54,1.53l.48.45-.47.48a7.65,7.65,0,0,0,1.24.92Zm-15,138c-.19.94-.87,2.23-.48,2.76,3.46,4.83,4,10.25,4.15,16,.1,3.14.55,7.26,2.53,9.16,5.94,5.68,8.5,13.06,12,20a12.45,12.45,0,0,0,1.06,1.58c.33-.55.9-1.07,1-1.66a35.68,35.68,0,0,0,0-4.14c0-6-3.35-11.61-2.21-17.81.11-.62-1.55-1.4-1.83-2.28-2.9-8.94-10.51-14.84-14.76-22.9C683.67,948.94,682.93,948.84,682.44,948.61ZM671.16,779.43c2.88,3.74,6,7.29,8.85,10.66a14.74,14.74,0,0,1,1.51.33c-.22,3.05,1,5.12,4.19,5.91a9.38,9.38,0,0,0,0-1.49c-.15-2.42-1.43-4.08-4.2-4.75,0,0,0,0,0,0a4.06,4.06,0,0,0,0-2c-3.31-7.1-7-14-12.49-19.69a2.15,2.15,0,0,0-2.09.08c-.59.78-1.35,2.2-1,2.81A61.75,61.75,0,0,0,671.16,779.43ZM218.83,1046.88c-4.13-.16-8.54-1-12.29.26-2.77.88-5.16,4.06-6,7.61-.21.85-1.36,1.51-2.12,2.2-1.29,1.2-1.59,2.2.61,2.31,2.41.12,4.82,0,7.24,0s4.83.11,7.23-.07c.82-.07,2.32-1,2.26-1.26-1.26-4.25,3-5.72,4.16-8.69C220.17,1048.66,219.25,1046.89,218.83,1046.88Zm107.5-206.21c-.9.13-2.17.44-2.54,1.1-4.56,8.21-9.33,16.28-14.44,24.18-8.07,12.49-15.07,25.66-22.65,38.45-7.9,13.32-16.89,25.67-26,38-3.11,4.2-6,8.58-8.81,13-3.49,5.46-6.67,11.13-10.33,16.49-2.79,4.11-6.88,7.5-9,11.89-4.29,8.89-11,15.74-17.36,22.94-2.06,2.32-4.73,4.18-6.51,6.69-4.74,6.63-9.38,13.37-13.6,20.34s-6.66,14.66-11.32,21.28c-.36.52-.12,1.44-.15,2.18.93-.25,2.28-.19,2.74-.79,3.54-4.74,7.51-9.28,10.21-14.47,6.58-12.66,14.47-24.44,24.45-34.47,7.65-7.68,12.88-17,19.64-25.24a46.78,46.78,0,0,0,6.51-9.76c7.34-15.9,18.84-29,28.87-43.06,9.89-13.82,18.23-28.47,26.91-43,5.48-9.14,10.73-18.42,16.1-27.63,2.91-5,5.87-10,8.74-15.1.29-.51,0-1.34,0-2.07C327.36,841.34,326.79,840.61,326.33,840.67Zm505.44,204a8.69,8.69,0,0,0,1.25.91h0c.1,0,.42-.41.65-.63l-1-1.22-.44.45h0a5.15,5.15,0,0,0-.47-.45,7.93,7.93,0,0,0-.38-2.49c-1-3.19-3.95-5.25-5.88-7.9a6,6,0,0,0-.64-1.57c-.1-.14-.83.22-1.25.34l.13.17c.27.35.55.72.83,1.06s.56.55.84.8a8.15,8.15,0,0,0,0,1c0,3.5,1.76,5.94,4.67,7.68a.38.38,0,0,0,.12.09c.63.44,1.33.86,2.08,1.29Zm-9.4-15.49.75-.74-.75-1.34c-.23.23-.69.52-.65.69A6.49,6.49,0,0,0,822.37,1029.15Zm-12.29-23.1c.1,0,.42-.41.65-.64l-1-1.21-.44.45c-.13-.14-.3-.29-.48-.45-.32-1.57,1-4-2.1-4.15a3.61,3.61,0,0,1-.61-.26c.29-.31.61-.64.56-.73-2.13-3.24-1-7.82-4.25-10.54a2.55,2.55,0,0,0-1.44-.39c-.17,0-.45.48-.5.77a4.81,4.81,0,0,0-.06.7c0,.09,0,.19,0,.29s0,.22,0,.34c.35,3.3,3.2,8.88,5.37,9.88.34,0,.63,0,.9.07a.86.86,0,0,1,0,.17c.11,1.34-.61,3.1,1,3.67a5.47,5.47,0,0,0,1.32.82,2.57,2.57,0,0,0-.28.29,7.24,7.24,0,0,0,1.24.92Zm1.85,2.32a6.44,6.44,0,0,0-.64,1.39c0,.17.42.45.66.68.24-.45.48-.9.73-1.34C812.4,1008.82,812.17,1008.59,811.93,1008.37Zm1.66,9.14a10.77,10.77,0,0,1,1.44.08c0,.17,0,.34,0,.51a4.69,4.69,0,0,0,2.55,4.21h0a12.11,12.11,0,0,0,2,1.15l-.36.38a8.36,8.36,0,0,0,1.24.93h0a6.4,6.4,0,0,0,.63-.64l-1-1.2c-.15.14-.29.29-.44.45a3.63,3.63,0,0,0-.49-.45,10.73,10.73,0,0,0,0-1.48c-.15-2.42-1.45-4.08-4.2-4.76a4,4,0,0,1-.45-.32c.25-.29.4-.47.39-.64a16.83,16.83,0,0,0-.49-2.7c-.45.12-1.3.25-1.3.37s0,.28,0,.43C813.27,1014.8,813.42,1015.85,813.59,1017.51Zm-21.43-45.85c0,1.5-.63,3.29,2,3.44-.32-1.57,1-4-2.09-4.16a3.58,3.58,0,0,1-.45-.31c.26-.3.42-.48.4-.66a18,18,0,0,0-.48-2.68c-.47.12-1.32.24-1.32.35s0,.28,0,.43c0,1,.19,2,.36,3.7A10.31,10.31,0,0,1,792.16,971.66Zm4.18,6.47a25.8,25.8,0,0,0,1.17,3l.07-.14c.27-.48.54-1,.94-1.71-.38-.62-.83-1.38-1.27-2.13-.13.13-.33.29-.5.44l-1.84-1.79,1.37,1.36.33.55C796.44,977.89,796.32,978,796.34,978.13Zm3.44,7c.17,0,.45-.41.68-.65-.45-.25-.92-.49-1.34-.74l-.75.74A6.38,6.38,0,0,0,799.78,985.1Zm-80-84a9.89,9.89,0,0,1,1.4.18,4,4,0,0,0,.14,2.06c5.44,10.55,8.46,22,12.5,33.07A105.52,105.52,0,0,0,746.9,962a68,68,0,0,1,5.68,9.06c3.17,6.26,6.53,12.44,9.45,18.81s7.47,11.93,9.47,18.84a1.31,1.31,0,0,0,.11.29,2.27,2.27,0,0,0,.32.53,4,4,0,0,0,.68.75.5.5,0,0,0,.13.12c.72.67,1.72,1.44,3,2.51,0,.08.1.17.15.24-.17.16-.29.31-.27.4a28.76,28.76,0,0,0,1.16,3c0-.06.06-.12.1-.18.27-.47.53-1,.91-1.67-.36-.64-.82-1.39-1.27-2.14a7.26,7.26,0,0,1-.56.49l-.22-.18-.18-.31c.4-6-2.35-11.42-3.49-17.14-1.91-9.5-8.06-17.53-9.07-27.27-5-6-4.76-14.68-11.26-20.29-4.22-3.63-7.43-9.21-9.38-14.54-3.15-8.59-8.66-15.71-12.89-23.59-.36-.67-.7-1.38-1.06-2.08-1.51-3.1-3.2-6.31-7.13-7.36a4.58,4.58,0,0,1-.46-.32c.27-.29.42-.47.41-.64a18,18,0,0,0-.49-2.7c-.45.13-1.3.25-1.3.36s0,.28,0,.42C719.45,898.42,719.6,899.48,719.77,901.14Zm-1.16-52.3c2.92,6.76,6.17,13.38,8.76,20.27,3.85,10.21,7.31,20.53,12.55,30.16,4.45,8.18,9.5,16.27,12.23,25,2.16,7,5.62,13,8.79,19.26s7.23,12.24,10.71,18.44c2.81,5.06,6.06,10,7.82,15.46,2.8,8.67,7.33,16.47,11.59,24.3,5,9.13,12.57,16.91,17.19,26.19s11,18.2,13.27,28.81c.37,1.73,2.51,3.13,4,4.51a2.3,2.3,0,0,0,2.12,0,13.62,13.62,0,0,0,2.28-2.36c-.37-.84-.72-1.75-1.15-2.6-1.46-2.86-3.36-5.58-4.35-8.59-4.49-13.75-12.57-25.46-20.71-37.17-7.57-10.9-14.54-22.07-18.55-34.94a52.52,52.52,0,0,0-6.58-12.84,219.66,219.66,0,0,1-13.54-23.52c-3.7-7.46-6.88-15.17-10.51-22.66-4.6-9.53-10.2-18.57-13.52-28.72a162.56,162.56,0,0,0-7.46-19.77c-3.58-7.53-8.88-14.23-10.41-22.75-.21-1.13-1.65-2.23-2.77-2.92a3.7,3.7,0,0,0-2.74.12c-.37.12-.72,1.21-.59,1.73A29.8,29.8,0,0,0,718.61,848.84Zm12.19-57.68q-10.45,17.3-19.89,32.86c-.29.46-.58.93-.84,1.4-.08.12-.15.24-.23.38q-4.86,8-9.44,15.56a23.74,23.74,0,0,1-3.81,3.44c-7.51,12.21-15.22,24.28-23,36.31-8.23,12.73-15.18,26.3-22.82,39.43q-6.51,11.18-13.32,22.1t-14.12,21.68c-5.11,7.51-10.6,14.76-15.12,22.79-4,7-7.51,14.36-12.17,21-1.51,2.15-4.52,3.42-3.62,6.83l-1.18.66-.36.22-.12.07c-2.61,1.58-4.74,3.51-4.57,7.16a.81.81,0,0,0,0,.22,5.63,5.63,0,0,0-1.57.64c-.13.09.21.81.35,1.25l.17-.13,1.06-.83v-.93l.32-.18c2.94-1.63,5.7-3.4,5.9-7.08.5-.7,1-1.48,1.61-2.35a42.93,42.93,0,0,0,3.8-3.18,22,22,0,0,0,2.89-4c8.15-12.71,16.16-25.45,25.5-37.4,4.54-5.83,9.95-11.15,13-18.44,3-7.09,9-12.85,12.78-19.7,5.14-9.3,11.45-17.93,15.66-27.82,2.39-5.62,6.18-10.64,9.41-15.88,6.81-11.06,14-21.88,20.42-33.18a245.46,245.46,0,0,1,16.65-26.24c8.32-11.14,13.84-23.44,20.09-35.52a15.89,15.89,0,0,0,1.29-4.65v0c.06-.5-.53-1.12-1.2-2.42a18.06,18.06,0,0,0-2.53,3.4C731.5,789.49,731.15,790.33,730.8,791.16Zm-24,181.57c5.06,5.22,5.42,13.09,10.34,18.5,1.63,1.79,2.19,4.55,3.23,6.88,0-.27.1-.55.14-.82.38-2,.86-3.53,2.15,0,.05.53.07,1,.08,1.3l-.41-.51-.93.94a10.85,10.85,0,0,0,1.26.91h0c.11,0,.43-.41.65-.63-.25-.81-.47-1.46-.66-2-.12-1.5-.38-3.85-.87-7.51-.84-6.26-1.58-12.52-2.58-18.72-.24-1.51-1.47-2.83-2-4.33-2.32-6.71-6.26-12.67-10-18.54-1.61-2.56-1.67-7.35-6.25-7.82-.11,3.7-1.22,7.78,0,11,.87,2.23.6,4.95,1.76,6.45C706.32,962.34,702.69,968.53,706.8,972.73Zm1.91-63.08c1,11.78,4.88,22.8,8.39,34,3.4,10.84,5.3,22.29,14.44,30.43,1.12,1,1.58,2.78,2.25,4.23,3.52,7.55,6.89,15.16,10.55,22.64,2.42,4.9,5.18,9.64,7.93,14.37.43.73,1.62,1,2.45,1.5,0-.47,0-.93.69-.11,0,.11.06.2.08.29-.33.29-.75.6-.71.78a28.51,28.51,0,0,0,1.17,3,1.28,1.28,0,0,0,.11-.2c.26-.46.52-.95.91-1.65l-1.27-2.13-.11.11c-.07-.09-.14-.16-.18-.22-.19-.56-.42-1.21-.69-2,0-1,.38-2.29-.06-3.09-5.42-10.06-6.3-21.6-10.44-32.05-3.64-9.23-6.08-19.13-11.79-27.28a105.19,105.19,0,0,1-10.51-19.59c-4.22-10.05-7.74-20.37-13.15-29.9-.43-.75-.8-1.53-1.19-2.31-.3.92-1,1.92-.82,2.74C707.23,905.4,708.53,907.47,708.71,909.65ZM292.44,866.5a5.51,5.51,0,0,0,1.43.93,7.72,7.72,0,0,0,.69-2.77,21.29,21.29,0,0,0-1.32-3.56c-2.78-8.18-8.95-14.72-11.24-23.18-.22-.83-1.95-1.24-2.23-1.41-3.9,0-4.63,1.08-3.34,3.66,2.85,5.69,5.57,11.48,8.78,17C287.19,860.51,290,863.42,292.44,866.5Zm16.33,196.76c-3.75,4.28-9.37,1.56-14,3.77-4.26,2-10.19.44-16.66.45-11-1.45-22.95,3.61-35.25,2.18-.55-.06-1.16.51-1.73.78.71.41,1.43,1.21,2.15,1.21q32.2,0,64.4-.06a13.49,13.49,0,0,0,3.05-.15c11.87-2.84,29.27-3.44,39.63.72,5.45,2.2,9.61,1.08,14-.81,1.81-.75,3.22-1.94,5.44-2,7.35-.23,14.68.7,22.07-1.77,4.36-1.47,9.63,0,14.45-.37,4.58-.34,9.11-1.77,13.68-1.9,4.72-.13,9.36-2.11,13.66-1.9,10.31.49,20.11-3.21,30.31-2.46a6.51,6.51,0,0,0,2.07,0,6.69,6.69,0,0,0,1.58-1c-.56-.35-1.09-.94-1.66-1-2.42-.11-4.85,0-7.27-.05-26.07-.65-52,3.39-78.08,2.36-16.59-.66-33.23.07-49.85-.13C323.31,1061,316.3,1064.68,308.77,1063.26Zm-20.83-54a32,32,0,0,1,7.46,2c2.24.79,2.13,2.38.7,3.87-.9.94-2.1,2.23-3.16,2.23-5.73,0-10.87,2.93-16.84,2.4-8.25-.73-16.63-.18-25-.14-5.68,0-5.64.14-13.09,5.71-.67.5-2.7.15-3.41-.53-3.38-3.24-9.74-4.63-12.59-1.84a70.74,70.74,0,0,0-8.06,10.18c-.36.52.79,3,1.2,3,5.93-.18,12.61,2.13,16.82-4.56.34-.53,1.43-.62,2.16-.91a29.24,29.24,0,0,0,.4,3c.22.93-.51,3.12,1.79,1.8,4.86-2.75,10.06-.86,15.08-1.2,3.89-.27,7.7.11,8.19-5.29,0-.42,1.75-1.1,2.53-.94a2.62,2.62,0,0,1,1.43,2.12c-.29,3.1.75,4.47,4,4a13.37,13.37,0,0,1,4.14,0c2.18.39,5.64-1.66,6.33,1.36,1.07,4.68-4.63,2.3-6.25,4.75-.52.78-2.47.5-3.7.9-5.52,1.83-12.34.89-15.68,7.36-.4-.41-.85-.78-1.21-1.23-.69-.9-1.19-2.45-2-2.66-6.84-1.68-13.16,2.09-19.89,2.23-1,0-2.11,1.72-2.89,2.84a29.82,29.82,0,0,0-2.23,4.27c-.67,1.41-1.28,2.85-1.92,4.29a19.1,19.1,0,0,0,3.79.84c6.93.07,13.88.18,20.8-.07,3.24-.1,6.32.44,9.77-1.63,2.63-1.57,7.47-.68,10.88.44,7.44,2.46,14.91.51,22.32,1.12,2.2-3.6,4.37-7.22,6.64-10.78.53-.85,1.75-1.36,2.1-2.25.91-2.29,1.48-4.71,2.18-7.08-2-.21-4-.48-6-.61a31.6,31.6,0,0,1-4.14-.09,3.48,3.48,0,0,1-1.9-1.74c-.22-.41.17-1.27.48-1.81,1.65-2.89,4.44-2.61,7.22-2.66,5-.08,10.48,1.5,14-4,.22-.34,1.79-.35,1.89-.15.89,2,1.24,4.35,2.43,6.14,1.68,2.52-1.09,3.45-1.68,3.57-5.31,1.2-6.82,5.9-9.37,9.63-1.08,1.59-2,3.32-2.93,5-.62,1.13-1.11,2.31-1.66,3.47,1.16.44,2.31,1.23,3.48,1.23,8.78,0,17.63.84,26.18-2.06,6.66,2.41,8.51-3.47,11.42-7,2-2.4,3.2-5.57,4.45-8.52.75-1.79.24-3.33-2.24-3.26-2.08,0-4.16.08-6.24,0-.58,0-1.56-.59-1.59-1a4.71,4.71,0,0,1,.63-2.78,5.12,5.12,0,0,1,5.17-2.51c5.91.76,10.22-2.26,14-6.37a17.53,17.53,0,0,1,3.71-3.6c1.6-.93,3.55-.77,3.36,1.8-.25,3.07.65,4.46,3.93,4,6.29-.79,12.61-1.36,18.88-2.16,2.95-.38,6,.92,8.95-1.16.93-.65,4.42.78,5.44,2.19,1.57,2.17-1,3.77-2.56,4.8a14.36,14.36,0,0,1-6.22,2.43c-8.7.91-17.45,1.51-26.17,2.19-1.38.11-3.56-.54-4,.12-1.68,2.4-6.21,0-6.71,4.73-.28,2.59-2.95,5-4.67,7.36s-3.64,4.73-5.48,7.1c2.7,3.32,6.32,1.13,9.48,1.44,3.77.36,7.69-.42,11.41.18,6.95,1.12,13.21-2.36,20-2.26,6.93.13,13.86.09,20.79-.08a4.08,4.08,0,0,0,2.8-1.86c.83-1.37,1.66-2.73,2.47-4.11l2.92,1.75c-.32.48-.57,1-.87,1.48a5.79,5.79,0,0,0,1.78.69c2.43.08,4.86,0,7.29,0,9.35,0,18.74.29,28.08-.14s18.81-1.58,28.21-2.42c.05.35.09.71.14,1.07,8.34-.94,16.8-1.38,25-3,3.56-.73,8.14-.86,10.54-4.47,3.39-5.13,6.21-10.65,9.67-15.73,1.84-2.69,2.57-4-1.46-4.72-1.21-.23-2.11-2.15-3.16-3.3,1.35-.94,2.71-2.67,4-2.65,4.91,0,9.55.28,11-6,.17-.74,2.19-1.14,3.42-1.47.59-.15,1.87.14,1.91.36.48,3.23-2.38,6.47.09,9.71-1.34.76-3,1.25-4,2.37-5.7,7-11.24,14.05-16.76,21.15-.32.4-.1,1.38.15,2,.12.28,1.24.5,1.36.33,1.84-2.41,4.44-1.45,6.7-1.42,4.76,0,10.2-1,14.11,1,4.79,2.38,10.48-1.67,14.42,3a3.2,3.2,0,0,0,2.56-.91c2.27-4.26,4.5-8.53,6.37-13a166,166,0,0,1,15-27c4.55-6.84,9-13.78,14.17-20.13,10-12.28,16.48-27,27.47-38.67,4.15-4.4,6.59-10.37,9.79-15.65.06-.1-.38-.5-.59-.77a61.42,61.42,0,0,1-14.42,9.49c-.6.29-.93,1.07-1.5,1.44-5.08,3.12-15.84.67-18.8-4.41s-5.54-10.19-8.39-15.24c-3.79-6.74-4.66-7-9.53-1.73a84.72,84.72,0,0,0-7.69,9.18c-5.44,7.73-12.12,14.68-18.93,21.3-3.13,3-7.7,6.21-11.7,6.32-4.89.13-9-4.35-11.81-8.5-4.14-6.14-7.51-12.81-11.19-19.25-1.73-3.05-3.43-6.12-5.16-9.16-2.69,2.69-5.42,5.36-8,8.12-.62.67-.68,1.84-1.26,2.59-3.71,4.71-7.32,9.53-11.3,14-3.68,4.14-7.8,7.88-11.7,11.83-3,3.09-6.16,5.77-10.51,7.26-5.29,1.82-5.94,1.23-10.47-3.29-5.67-5.68-6-13.61-10-19.87-2.07-3.2-3.56-6.78-5.32-10.2a92.38,92.38,0,0,1-7.38,7.3c-3.31,2.66-7,4.8-10.48,7.28-3.76,2.69-7.24,5.81-11.17,8.21-9.15,5.58-17.05,13.1-27.24,17-3.55,1.38-7.49.59-9.13-2.56a17.71,17.71,0,0,1-2.06-5.36c-.89-5.58-1.37-11.22-2.25-16.8a19.31,19.31,0,0,0-2.09-5.35,2,2,0,0,0-1.89-.35c-7.81,6.32-15.74,12.5-23.22,19.19-5.23,4.67-11.09,8-17.16,11.31-2.92,1.59-4.22.59-6.79.15-5.15-.86-5.28-5.22-6.71-7.94-1.92-3.58-1.61-8.3-2.44-12.49a61.33,61.33,0,0,0-2.08-7.45c-.77-2.29-2.28-2.13-3.88-.82-11.64,9.53-25.26,15.91-38.06,23.59-1.67,1-3.7,1.64-4.95,3-6,6.48-12,13-17.45,19.83s-8.69,15.63-15.61,21.62c-.64.56-1.23,2.33-1,2.55a5.06,5.06,0,0,0,3.2,1.49c6.65-.55,13.33-2.09,19.93-1.86,9.77.33,18.36-.07,20.87-11.95.1-.42,1.78-.67,2.71-.64.36,0,1,1.06,1,1.54a26.17,26.17,0,0,1-1.13,4.72c-1.26,3.72-1.17,3.93,2.62,4C281,1009.27,284.52,1009,287.94,1009.3ZM571.6,861.06c-5.33,0-10.59-.35-15.85,1.9-3.85,1.63-8.27-.6-12.79,1.87-3.63,2-9,1.42-13.54,2.12-10.3,1.61-20.73,3.61-31.34,2.6a18.57,18.57,0,0,0-7.84,1.07c-6,2.14-12,4-17.52,3-4.8,0-9.51-1.39-12.22.34-4.44,2.82-8.65,1-12.87,1.78s-8.43,1.94-12.66,2c-4.43,0-8.83.21-12.58,2.37s-7.74,2.18-11.68,1.92c-9.56-.63-18.68,3.73-28.28,2.26-.79-.13-1.72,1-2.62,1.09-8.17.73-15.3,5.58-23.91,5.4-5.28-.11-10.64,2.46-15.94,3.92-9.95,2.74-19.75,6.43-29.88,8-6.39,1-11.24,2.13-13.32,8.75a7,7,0,0,1-1.52,2.47c-5.78,6.37-9.82,13.78-13.17,21.62a23.29,23.29,0,0,0-.81,2.89c.94-.25,2.14-.23,2.77-.81,7.08-6.53,15.36-11.4,23.17-16.9,2.15-1.51,4.18-3.31,6.54-4.31,1.61-.68,4.27-1,5.47-.1,3.52,2.56,6.94,6.18,6.53,10.61-.64,7.27,2.46,13.91,2.35,21a9.43,9.43,0,0,0,.85,2.76c1.18-.38,2.68-.43,3.5-1.2,11.77-11,23.74-21.79,35-33.23,4.3-4.36,9.2-3.46,13.35-2.57,3.73.8,4.88,5.79,5.44,9.79.77,5.61,1.33,11.24,2.19,16.82.18,1.17,1.83,2.16,1.93,3.31.31,4,1.92,3.9,4.47,1.73,4.6-3.93,9-8.2,13.88-11.71,5.95-4.25,12.29-7.87,17.41-13.28A93.43,93.43,0,0,1,438.47,910c5-3.7,9-3.29,13.5,1.39a31.33,31.33,0,0,1,5,7.26c3.73,7.1,6.07,14.85,10.36,21.75,1.74,2.79,2.94,2.34,4.43.62s2.26-4,3.77-5.68c8.89-9.87,15.85-21.14,23.56-31.86,1.63-2.26,4.54-3.8,7.14-5.18,5.74-3.05,7.21-2.92,11.28,1.58a31.55,31.55,0,0,1,6,8.91c4.08,10,11.72,17.89,16.28,27.59.39.81,1.22,2.49,2.67.24,3-4.68,6.32-9.25,9.79-13.63,4-5,9.16-9.27,12.22-14.76,3.8-6.86,10.12-11,15-16.65,2.34-2.74,5.91-2.23,8.29-.56a24.48,24.48,0,0,1,6.55,7.58c3.74,6.38,7,13,10.53,19.55,3.86,7.19,3.87,7.18,10.29,2.17,3.13-2.45,6.66-4.55,9.34-7.43,8.51-9.16,18.52-16.3,29-23,4.49-2.88,9-6.18,12.32-10.25,4.52-5.49,7.88-11.94,11.81-17.92,4.64-7.06,6.81-15.64,13.28-21.56a9,9,0,0,0,1-1.46c-.59-.27-1.18-.8-1.76-.76-2,.11-4.16-.05-5.93.72-4.89,2.12-10.2,2.13-15.27,3.22-7.16,1.53-14.64,1.56-22,2.4-1.19.13-2.24,1.28-3.45,1.68-2.75.9-5.64,2.47-8.34,2.24a23.25,23.25,0,0,0-13.26,3.26c-4.74,2.68-10.51-1.62-14.33,3.21-7.07-.38-13.46,3.2-20.15,3.82C582,859,577,861.09,571.6,861.06ZM521,850.69c-4.49,0-9.65-1.39-13.36.31-8,3.66-16.85-.68-24.39,3.91-6.85-1.33-13.13,2.23-19.91,2.3-4.81,0-9.66,1.52-14.4,2.7-9.87,2.47-19.59,5.63-29.94,5.53-2.29,0-4.66,1.23-6.56,1.46-8.18,1-16,3.41-24.1,4.78-2.64.45-5.34.51-8,.74,2.28,3,5.41,1,8.11,1.27,3.75.36,8.51,1.44,11.19-.31,4.43-2.88,9-.19,12.79-1.9,4.24-1.88,8.42-1.85,12.73-1.9,5.88-.06,12.23,1.36,17.53-.44,5.1-1.73,10-.7,14.81-1.84s9.66-2.44,14.76-2c2.3.2,4.89.67,6.45-1.93,1.92,2.74,4.8,1.8,7.41,2a20.63,20.63,0,0,0,11.55-2.25c1.13-.61,2.19-1.79,3.35-1.88,11.61-.88,22.88-4.53,34.64-4.3,1,0,2.65.43,3-.06,2.5-3.45,6.38-1.27,9.4-2.56a43.77,43.77,0,0,1,9.16-2.91c3.31-.61,7.23.43,10-1,3.94-2,8.13-.78,11.64-2.12,4.28-1.64,8.41-1.68,12.73-1.88a9.45,9.45,0,0,0,2.69-1c-.45-.14-.89-.33-1.33-.5l6.35-.54a7.93,7.93,0,0,0,2,0c1.1-.29,2.13-.78,3.2-1.18a11.19,11.19,0,0,0-2.66-.83,48.69,48.69,0,0,0-6,0c-.53,0-1,.67-1.54,1,.34.33.66.93,1,.95h.12c.44,0,.57.09-2.85.43a6.41,6.41,0,0,0-1.4-.36c-13.33-1.52-26.36,2.59-39.66,2.12-.67,0-1.69-.23-2,.13-3.75,4.39-9,1-13.48,2.65l-.23.08a6.45,6.45,0,0,1-.62.21h0a18,18,0,0,1-2.51.61l-9.69.87c-.64.05-1.26.1-1.9.17C521,851,521,850.86,521,850.69Zm2.89,216.42c-3.55.6-7,1.55-10.59,2-3.25.44-6.77-.8-9.61,2.07-.51.52-2,.1-3,.07-19.17-.41-38.17,3.67-57.39,2.18-17.27,3.72-35,.15-52.13,2.54-19.91,2.76-39.7,1-59.52,1.65-6.09.21-10.28,3.56-17.89,1.61-5.65-1.45-12.15-3.11-17.56-1.46-8.47,2.57-17,2.48-25.17,1.39-6-.82-12.16-1.84-17.87-.6-17.73,3.86-35.55-1.55-53.29-.56-2.56.14-5.42,3.49-7.68.79-.59-.7-2.91-.81-3.88-.25-5.08,3-10-.58-15-.16-12.58,0,45.32-89.14,46.77-91.38,3.22-5,7-9.61,10.53-14.4,4.09-5.58,8.12-11.21,12.22-16.79,2.73-3.73,5.52-7.43,8.29-11.13,7.86-10.42,13.6-22.17,20.76-33,2.35-3.55,4.58-7.19,7.23-10.52a17.65,17.65,0,0,0,3.47-6.95c1.11-4.21,4.19-8,6.8-11.69a5.2,5.2,0,0,0,.25-6.43c-4.76-8.06-9.16-16.35-14.12-24.29-4-6.35-6.86-12.74-5.92-20.49.4-3.28,2.06-4.89,5-5.16,4-.35,7,1.1,9.75,4.54a125.56,125.56,0,0,1,14.54,23.13c2.29,4.67,5.44,4.62,8.24.07,4.24-6.89,8.56-13.75,12.38-20.88,2.43-4.55,6.24-4.6,10.47-5,4.44-.44,5.82,3.17,8.19,5.36.7.64.62,2.87.09,4-4.5,9.59-9.15,19.1-13.84,28.6-.44.88-1.62,1.38-2.12,2.26-.9,1.58-2.49,4.52-2.13,4.8,2,1.54,3.92.41,6.28-.41a124.61,124.61,0,0,1,22.91-5.12c6.7-1,13.24-3.07,19.84-4.76.9-.23,1.73-1.37,2.53-1.31,8.51.58,16.54-2.88,25.16-2.45,7.8.39,15.66-1.55,23.22-4,4.12-1.29,8.17-2.7,12.67-2.18,3.28.38,6.76.59,9.53-2,3.24,3.33,6.46.35,9.72.06,3.79-.34,7.65.16,11.44-.16,7.2-.59,14.26-2.71,21.32-3.44,5.8-.61,11.73-4,17.95-.87,1.49.76,3.91-.22,5.88-.57s3.75-1.09,5.67-1.35c5.59-.8,11.3-1,16.78-2.27s11.07-1.05,16.13-3.7a6.87,6.87,0,0,1,4-.32c9.26,1.5,18.08-2,27.22-2.44,7.34-.35,14.58-3.07,21.85-4.76,1.58-.37,3.17-1.32,4.68-1.17,9.2.87,17.37-3.53,26.13-5,6.07-1,12.09-2.65,18.21-3.8,9.59-1.84,19.8-.82,28.83-5.58a6.7,6.7,0,0,1,1.91-.4c7.19-1.48,7.48-1.89,2.7-8.17-7-9.24-13-19.32-21.27-27.62a19.87,19.87,0,0,1-3.7-5.72c-3.1-6.67.42-11.64,7.5-12.74,8.29-1.28,12.52,4.41,15.77,9.41,7,10.71,15.07,20.59,21.65,31.53,1.17,2,2.49,3.81,3.66,5.76.59,1,1,2.09,1.5,3.12,1-1,2.27-1.8,2.85-3,5-10.39,11.85-19.86,15-31.28,1.06-3.83,5-7,7.9-10.18,1.76-1.9,10.57-1.73,12.49,0,.92.82,2,2.18,2,3.27-.1,3.94.46,7.69-1.78,11.72-6.71,12.06-12.54,24.62-18.85,36.9-4.6,8.95-5.05,9.08.15,18.34,3.51,6.22,4.92,13.29,8.55,19.35s6,12.73,8.25,19.49c1.72,5.1,5.75,9.37,8.05,14.34,4.46,9.57,8.14,19.53,12.69,29,6,12.47,12.46,24.66,18.7,37a22,22,0,0,0,1.73,3.43,8.15,8.15,0,0,0,2.45,1.49l.41.5c-.21.18-.38.35-.35.46a27.63,27.63,0,0,0,1.16,3l.05-.08c.4-.61,63.07,117.34,52.47,112.74-1.94-.84-4.36-2-7.72-.64-3.52,1.42-8.69,1.76-12.83-.81a1.69,1.69,0,0,0-1.44-.06c-4.19,2.25-7.84.95-12.21-.38-4.75-1.45-10.3-.12-15.49-.39-2.9-.15-5.9,1.1-8.83-1.39-1.37-1.16-5.16-1.14-6.67,0-2.54,1.87-3.62,1.26-6-.14-2.1-1.2-5.47-.81-8.11-.28-11.69,2.3-11.64,2.29-23.27,0a23.16,23.16,0,0,0-9.31.09c-2.72.61-4.74-3.29-7.87-.34-1.28,1.2-5.37,1.17-7,0-4.15-3-8.6-2.06-12.79-1.74-9.93.77-19.53-1.78-29.31-2.1-10.05-.31-20.15.5-30.15-.23-6-.43-11.11,2.46-16.84,2.34-5.54-.11-11.17-.61-16.62.16-6.64.92-12.56-2.51-18.92-2.15-7.36.43-14.68,1.5-22,2-4,.27-7.84.21-11.71-1.83-3.1-1.63-7.43,1.5-10.71-1.87-.69-.72-2.61-.34-4-.33a25.57,25.57,0,0,0-9.7,1.67C530.52,1069.41,526.94,1066.59,523.86,1067.11Z"/><rect class="cls-7" width="1900" height="1080"/></svg>