<svg xmlns="http://www.w3.org/2000/svg" xmlns:xlink="http://www.w3.org/1999/xlink" width="640" height="163"><defs><path d="M254.33 77.39v83.59H3V77.39h251.33z" id="a"/><path d="M204.23 84.98l45.14 77.64h396.76v-26l-133.8-65.94-29.56 8.54-69.8-45.74-46.94 16.97-40.9-47.3-95.43 22.97-28.9-4.74-69.87 34.67L78 38.72 0 73.55v89.07l204.23-77.64z" id="b"/><path d="M310.6 137.12c.33.23.97 1 1.73 1.1 3.07.43 5.14-1.24 5.04-4.1-.04-.64-1-1.67-1.67-1.77-3.03-.47-5.03 1.2-5.1 4.77z" id="c"/><path d="M337.7 101.75c-.67-.43-1.37-.87-2-1.27-1.13.37-1.87.57-2.6.8.8.34 1.57.84 2.37.94.7.1 1.5-.3 2.23-.47z" id="d"/><path d="M455.77 84.52c-.2-.14-.9.3-3.1 1.06 1.63.67 2.53 1.17 3.5 1.37.36.07.9-.47 1.36-.7-.56-.6-1.1-1.27-1.76-1.73z" id="e"/><path d="M401.07 142.38c-.14-.33-.34-2.06-1.4-2.8-1.8-1.23-4.1-2.03-6.3-2.63-1.14-.3-3.04 3.3-2.1 4 2.03 1.53 4.2 3 6.46 4.2 2.57 1.37 3.34.87 3.34-2.77z" id="f"/><path d="M556.13 131.08c1.7.57 3.47 1.47 5.2 1.44 4.1-.07 6.97 1.73 10.3 3.46 5.14 2.67 10.97 4.27 16.5 6.34.1-.24.2-.47.3-.67.84 0 1.8.2 2.54-.07.56-.2 1.03-.93 1.26-1.5.14-.33-.23-1.03-.6-1.2-6.13-3.13-12.36-6.13-18.5-9.26-3.26-1.67-6.36-3.37-10.46-3.07-3.17.23-5.34-1.77-7.7-3.4-3.24-2.27-6.6-.97-7 2.57-.07.73.96 2.3 1.06 2.26 3.54-.93 4.64 2.3 7.1 3.1z" id="g"/><path d="M58.23 133.88c1.64-1.93 3.34-3.66 1.5-6.5-2.03-3.13-5.63-4.2-8.73-5.83-2.3-1.2-4.93 1.27-5.03 5.17.26.46.66 1.96 1.73 2.86 1.73 1.4 3.9 3.44 5.83 3.44 1.84-.04 2.8 3.16 4.7.86z" id="h"/><path d="M100.47 133.45c.13-.43-1.54-1.23-2.8-2.17-.94.9-2.2 1.8-2.07 2 .7 1.07 1.77 2 2.7 2.97.77-.93 1.87-1.77 2.17-2.8z" id="i"/><path d="M10.5 72.18c.77-.46 1.3-2.2.9-2.9-.5-.9-1.33-2.66-3.53-.8-1.6 1.37-4.24 1.7-6.24 2.77-.8.4-1.1 1.53-1.63 2.33 1.03.5 2.07 1.04 3.57 1.8 2.36-1.06 4.83-1.9 6.93-3.2z" id="j"/><path d="M23.43 103.35c1.34-.57 3.74-1.13 5.54-2.37 2.36-1.63 4.86-2.73 7.63-3.7 6.63-2.36 8.13-3.5 13.03-8.4.74-.73.8-2 1.17-3.03-1.57-.43-3.13-1.17-4.7-1.17-1.17 0-2.4.87-3.5 1.5-5.77 3.3-12.53 4.97-18.13 8.47-2.07 1.27-3.7 3.1-5.44 4.73-.63.6-1.1 1.4-1.63 2.1 1.13.57 2.23 1.3 3.4 1.84.47.2 1.1.03 2.63.03z" id="k"/><path d="M64.03 68.82c.34-.07.84-.77.8-1.1-.1-.64-.5-1.7-.9-1.74-1.63-.2-3.33-.1-5-.1-.83 0-1.7-.13-2.5.04-2.03.4-3.76 1.5-3.36 3.36.4 2.04 3.53 1.44 4 .97 2.1-2.07 4.63-1.07 6.96-1.43z" id="l"/><path d="M114.87 85.75c.6-.7.83-1.67 1.23-2.53-.97-.34-1.97-.67-3.53-1.2-2.14.9-4.64 1.66-6.84 2.86-3.83 2.14-7.53 4.47-11.2 6.84-.5.3-.8 1.43-.53 1.93.23.43 1.5.93 2.03.73 6.57-2.4 14.1-3.2 18.84-8.63z" id="m"/><path d="M191.57 61.95c.63-.2 1.03-1.03 1.7-1.77-.54-.6-1.1-1.6-1.44-1.56-3.63.56-7.5.83-10.33 3.3-.43.36-.4 1.33-.27 1.96.04.3.94.74 1.3.64 3.04-.77 6.07-1.6 9.04-2.57z" id="n"/><path d="M191.87 82.58c2.5.4 4.5-.46 6.3-2.33 5.33-5.5 12.96-8.37 19.46-12.57 1.04-.66 2.44-.93 3.44-1.63.53-.37.93-1.27.8-1.83-.1-.47-1.1-1.04-1.7-1.07-4.24-.07-8.67-.5-10.6 4.07-4.57 1.36-6.67 5.86-12.2 6.63-3.27.43-6.04 3.8-8.94 5.93-.5.37-.8 1.44-.53 1.94.23.5 1.3.66 2.03.83.54.13 1.14.03 1.94.03z" id="o"/><path d="M231.87 152.75c2.63-.1 7.96-4.03 8.1-6.27.06-1.03-.54-2.36-1.37-3.13-1.97-1.9-4.7-1.53-6.73-.43-1.44.76-5.14.33-3.8 3.6.16.43.1 1 0 1.46-.77 4.44-.37 4.97 3.8 4.77z" id="p"/><path d="M277.43 58.78c-1.46.44-2.8 1.3-4.1 2.07-3.53 2.07-7.43 3.8-10.5 6.33-3.76 3.1-6.83 6.87-10.16 10.34-.14.13-.04.46-.04 1.13.34.23.84.93 1.44 1 3.13.2 5.63-1 7.93-2.83 2.4-1.9 5.2-3.4 7.6-5.3 1.77-1.4 3.97-2.64 3.7-5.37-.07-.93 1.53-1.9 2.33-2.87 1.9-2.4 2.44-4.7 1.8-4.5z" id="q"/><path d="M361.83 88.02c.24-.4.3-1.17.04-1.44-3.04-2.83-5.84-5.76-8.57-8.83-2.57-2.9-6.73-4.67-10.2-7-1.53-1.03-3.47-1.9-4.37-3.27-4.3-6.46-10.7-10.96-17.43-15.2-.83-.53-1.9-.76-2.9-1.03-.53-.13-1.13 0-1.7 0 .07.53 0 1.1.17 1.57 1.16 3.5 4.7 5.3 7.13 7.9.37.4.4 1.53.03 1.93-.4.43-1.7.73-2.16.5-3.87-2.07-7.77-3.83-12.24-4.87-2.33-.53-4.2-2.6-7.06-2.13 1.56 1.6 3.33 3.07 4.66 4.8 2.8 3.57 7.44 4.8 11.37 6.7 5.6 2.7 12 4.13 16.33 8.67 6.1 1.03 9.9 6.26 16.54 6.66 2 .14 3.83 2.54 5.73 3.94 1 .73 2 1.5 2.87 2.16.93-.53 1.56-.7 1.76-1.06z" id="r"/><path d="M411.9 92.22c-.17.93-.73 2.03-.4 2.8 1.3 2.9 2.97 5.86 6.07 7.43 6.13 3.17 10.16 8.3 15.5 12.17 4.73 3.43 9.1 7.4 15.23 9.06 1.5.4 2.87 1.1 4.33 1.67 1.24-.47 2.87-.73 3-1.23.24-1.1.17-2.74-.6-3.4-4.26-3.8-8.03-8.14-13.6-10.64-4.86-2.2-8.86-5.36-13.03-8.4-4.4-3.23-9.03-6.1-13.63-9.03-.7-.43-1.9-.3-2.87-.43z" id="s"/><path d="M308.03 1.68c-4.96.07-9.4 1.57-13.96 3-7.74 2.4-15.07 5.77-23.6 6.24-2.77.13-6.04 1.16-8.8 3-4.4 2.96-10 4-15.17 5.7-1.97.66-4.47.56-6.03 1.6-3.34 2.3-7.57 2.16-10.34 1.1-3.36-1.3-6.46-.9-9.7-1.17-1.96-.17-4.3.53-5.9-.17-2.63-1.16-4.96-3.46-8-2.8-5.6 1.27-11.3 2.67-16.46 4.87-10 4.23-19.7 8.97-29.4 13.7-5.84 2.8-11.44 5.93-17.1 8.97-2.07 1.13-2.94 3.96-5.9 3.76-4.97-.3-10 .9-14.94-.9-7.3-2.63-14.7-5.06-22.06-7.46-5.2-1.7-10.34-3.57-15.67-4.74-7.5-1.63-15.17-.86-20.67 4.07-7.6 6.8-17.6 9.9-26.33 14.93-.67.37-1.43.6-2.17.84-2.83.86-5.13 2.23-6.36 4.76 3.23-.06 6.63.3 9.7-.36 3.26-.7 6.4-2.2 9.3-3.77 3.16-1.73 7.53-1.63 9.7-5.03.43-.7 2.43-.8 3.76-.84 4.9-.16 10.04.74 14.04-2.86.3-.27 1.06-.07 1.63-.14 2.23-.33 3.23.6 2.53 2.47-1.76 4.67-2.43 5.3-9.73 9.53-2.4 1.4-2.63 2.17-.63 3.4 2.2 1.37 4.23 2.34 7.5 1.27 5.43-1.73 9.56-4.63 13.16-8.3 1.8-1.87 3.87-2.43 6.6-2.4 5.24.07 10.37.13 14.84 3 .7.43 1.56.73 2.36 1.07-.83.66-1.53 1.73-2.5 1.96-16.86 4.14-32.6 10.6-47.86 17.97-.94.43-1.94.77-2.84 1.23-.46.24-.83.7-1.23 1.04.47.26.9.7 1.37.73 2.56.07 5.13.03 8.4.03 8.3 1.07 16.26-2.6 24.06-5.36 4.87-1.7 10.8-1.17 14.7-4.97 5.2.03 9.84-2.23 14.67-3.4 8.57-2.03 16.97-4.77 24.47-9.67 11.7-7.66 25.23-12.7 38.26-18.3 6.14-2.63 11.6-6.53 18.54-7.76 1.53-.27 2.93-1.1 4.5-1.3 2.56-.34 3.8.03 1.46 2.4-.7.73-.06 2.43-.13 3.66-.23 6.2-3.27 9.54-10.6 11.9-.97.3-1.8 1.34-2.73 1.4-2 .14-2.67 1.27-1.84 2.34.84 1.06 2.64 1.5 4 2.23 2.04-3.07 6.07-.77 9.07-2.73 2.47-1.6 4.97-3.3 6.73-5.27 3.57-4 9.7-4.57 13.2-8.37 3.3.84 6.67 1.44 9.8 2.54 2.2.76 4.04 2.23 6.1 3.36.64.37 1.37.57 2.07.84-.73.23-1.5.43-2.23.7-7.2 2.46-12.24 7.3-17.37 12.03-.53.53-.53 1.7-.37 2.5.07.27 1.6.6 2.24.4 7.03-2.33 15-1.03 21.83-4.37 4.13-2 8.8-3.16 12.87-5.26 5.53-2.87 10.7-6.27 16.06-9.44 6.9-4.1 14.04-7.9 20.57-12.4 3.4-2.3 6.2-5.53 8.5-8.76 2.37-3.37 5.87-5.07 9.57-6.74 1.63-.73 3.16-1.8 4.9-2.3 1.66-.46 2.9-1.96 5.33.27 8 7.33 14.57 15.43 20.4 24.17 5.83 8.8 10.87 18.1 19.73 25.13 1.77 1.4 2.8 3.5 4.3 5.17 2.54 2.83 5 5.8 7.87 8.36 2.7 2.37 5.73 4.57 8.9 6.37 3.8 2.13 7.53 4.5 12.57 4.2 1.96-.1 4 .73 5.96 1.13-.93-1.76-2.36-3.46-2.76-5.33-.8-3.67-3.8-5.77-6.4-8.2-7.84-7.4-15.67-14.8-23.5-22.23-.27-.27-.37-.7-.57-1.04.5-.16 1-.43 1.5-.43 1.7-.07 3.43.13 5.13-.03 6.27-.6 11.27 1.16 15.47 5.33 1.7 1.67 4.4 2.6 6.73 3.7 4.54 2.13 9.1 4.03 12.74 7.5 3.2 3 7.96 3.67 12.33 4.47 2.63.46 4.53.63 5.67 3.3.83 1.93 3.06 3.43 4.86 4.93.7.57 1.94.7 2.97.9.5.1 1.07-.1 1.6-.17-.2-.53-.2-1.2-.57-1.56-4.43-4.07-8.33-8.7-12.9-12.44-6.6-5.46-12.83-11.76-22.06-14.43-2.7-.77-4.9-2.87-7.27-4.43-.27-.17-.1-1.37.1-1.4 2.57-.6 5.17-1.17 7.83-1.54 1.7-.23 3.2-.23 3.34 2.14.03.83 2.43 1.56 3.76 2.33 4.5 2.63 9.24 4.9 13.2 8.27 4.07 3.43 9.4 5.16 14.67 6.8 1.97.6 4.5 1.06 5.63 2.36 5.84 6.54 15.14 9.74 20.17 17.24 2.13 3.16 6.93 5.3 11.03 6.93 7.24 2.87 13.1 7.43 19.27 11.47 5.2 3.43 10.2 7.06 16.17 9.3 4.63 1.76 8.26 5.16 13.43 5.93 1.87.27 3.7.63 5.57.83.23.04.86-1.06.8-1.16-4.84-4.14-9.77-8.2-14.64-12.34-4.2-3.56-10.2-5.1-13.06-10.36-1.67-3.04-5.27-5.54-9.7-6.24-.5-.06-1.14-1.06-1.1-1.56.03-.47.83-1.14 1.43-1.34 3.97-1.26 8.13-2.1 11.87-3.73 1.93-.83 2.66-.47 4.23.37 4.87 2.56 8.63 6.13 12.47 9.66 5.4 4.94 11.56 8 19.66 7.27 4.3-.4 7.64 1.27 11.34 3.2 5.43 2.8 10.06 7.1 16.86 7.63 1.67 2.5 3.44-1.66 5.4.14 1.44 1.33 3.57 2.1 5.24 3.26 1.33.94 1.63.74 1.86-.66.7-3.8-1.7-5.84-5.03-7.54-12.83-6.5-25.5-13.23-39-18.63-2.63-1.07-5-2.93-7.13-4.73-4.54-3.87-9.47-7.2-14.87-10.1-5.33-2.84-9.87-3.44-16.2-1.57-6.53 1.93-12.9 4.13-18.73 7.4-2.54 1.4-6.67.6-8.07-1.63-3.1-5-6.9-9.27-13.1-11.5-.47-.17-.83-.67-1.2-1.04-5.13-5.56-11.6-9.16-19.47-11.23-4.9-1.3-8.86-4.4-12.76-7.2-4.64-3.33-10.7-4.77-14.57-9.13-2.13-2.44-5.7-1.67-8.5-.9-4.77 1.3-9.3 3.2-14 4.63-4.73 1.43-9.5 3-14.4 3.77-3.33.53-6.33 1-8.87 3.06-.86.74-2.4 1.47-3.43 1.34-1.47-.24-2.97-1.1-4.1-2.04-4.6-3.83-9.47-7.63-11.93-12.9-2.84-6.06-8.14-10.53-12.24-15.8-1.43-1.83-3.43-3.36-5.06-5.1-1.54-1.56-3.14-3.1-4.37-4.83-3.9-5.5-9.7-4.5-15.27-4.33-1.83 2.4-4.63 1.33-7 1.36z" id="t"/><path d="M600.33 116.95c.74 1.07.94 1.9 1.54 2.17 7.7 3.43 15.4 6.9 23.26 10.03 2.84 1.13 6.1 1.57 9.24 1.93 1.03.14 2.36-.93 3.33-1.66.17-.14-.53-1.47-1.13-2-2.8-2.64-5.67-4.94-10.24-5.37-2.7-.27-5.73-1.53-7.7-3.2-3.4-2.9-8.1-1.97-11.83-3.9-1.2-.63-4.03 1.2-6.47 2z" id="u"/><path d="M81.67 162.68c.6-1.1 1.3-2.5 1.03-3.53-.43-1.5-2.27-2.8-2.5-4.27-.53-3.7-3.5-1.73-5.23-1.83-2.8-.13-1.27 2.1-1.74 3.3.04 3.9 1.94 6.1 6.34 7.03.63.14 1.86-.26 2.1-.7z" id="v"/><path d="M129.03 113.65c-2.96 1.67-3.63 3-3.56 6.63.06.17.33 1.34.66 1.37.94.03 2.14-.13 2.87-.67 3.67-2.7 4.2-4.16 2.33-6.6-.4-.5-1.86-1-2.3-.73z" id="w"/><path d="M641.13 143.18c-1.3 2.24-2.3 4.64-2.76 5.67 0 2.3-.34 3.23.06 3.73.54.6 1.9 1.37 2.44 1.17 2.4-1.03 4.9-8.03 3.8-10.13-.84-1.57-2.74-1.87-3.54-.44z" id="x"/><path d="M640 .14v162.84H0V.14h640z" id="y"/></defs><use xlink:href="#a" fill="#fff"/><use xlink:href="#a" fill-opacity="0" stroke="#000" stroke-opacity="0"/><use xlink:href="#b" fill="#fff"/><use xlink:href="#b" fill-opacity="0" stroke="#000" stroke-opacity="0"/><use xlink:href="#c" fill="#70cbd1"/><use xlink:href="#c" fill-opacity="0" stroke="#000" stroke-opacity="0"/><use xlink:href="#d" fill="#70cbd1"/><use xlink:href="#d" fill-opacity="0" stroke="#000" stroke-opacity="0"/><use xlink:href="#e" fill="#70cbd1"/><use xlink:href="#e" fill-opacity="0" stroke="#000" stroke-opacity="0"/><use xlink:href="#f" fill="#70cbd1"/><use xlink:href="#f" fill-opacity="0" stroke="#000" stroke-opacity="0"/><use xlink:href="#g" fill="#70cbd1"/><use xlink:href="#g" fill-opacity="0" stroke="#000" stroke-opacity="0"/><use xlink:href="#h" fill="#70cbd1"/><use xlink:href="#h" fill-opacity="0" stroke="#000" stroke-opacity="0"/><use xlink:href="#i" fill="#70cbd1"/><use xlink:href="#i" fill-opacity="0" stroke="#000" stroke-opacity="0"/><use xlink:href="#j" fill="#70cbd1"/><use xlink:href="#j" fill-opacity="0" stroke="#000" stroke-opacity="0"/><use xlink:href="#k" fill="#70cbd1"/><use xlink:href="#k" fill-opacity="0" stroke="#000" stroke-opacity="0"/><use xlink:href="#l" fill="#70cbd1"/><use xlink:href="#l" fill-opacity="0" stroke="#000" stroke-opacity="0"/><use xlink:href="#m" fill="#70cbd1"/><use xlink:href="#m" fill-opacity="0" stroke="#000" stroke-opacity="0"/><g><use xlink:href="#n" fill="#70cbd1"/><use xlink:href="#n" fill-opacity="0" stroke="#000" stroke-opacity="0"/></g><g><use xlink:href="#o" fill="#70cbd1"/><use xlink:href="#o" fill-opacity="0" stroke="#000" stroke-opacity="0"/></g><g><use xlink:href="#p" fill="#70cbd1"/><use xlink:href="#p" fill-opacity="0" stroke="#000" stroke-opacity="0"/></g><g><use xlink:href="#q" fill="#70cbd1"/><use xlink:href="#q" fill-opacity="0" stroke="#000" stroke-opacity="0"/></g><g><use xlink:href="#r" fill="#70cbd1"/><use xlink:href="#r" fill-opacity="0" stroke="#000" stroke-opacity="0"/></g><g><use xlink:href="#s" fill="#70cbd1"/><use xlink:href="#s" fill-opacity="0" stroke="#000" stroke-opacity="0"/></g><g><use xlink:href="#t" fill="#70cbd1"/><use xlink:href="#t" fill-opacity="0" stroke="#000" stroke-opacity="0"/></g><g><use xlink:href="#u" fill="#70cbd1"/><use xlink:href="#u" fill-opacity="0" stroke="#000" stroke-opacity="0"/></g><g><use xlink:href="#v" fill="#70cbd1"/><use xlink:href="#v" fill-opacity="0" stroke="#000" stroke-opacity="0"/></g><g><use xlink:href="#w" fill="#70cbd1"/><use xlink:href="#w" fill-opacity="0" stroke="#000" stroke-opacity="0"/></g><g><use xlink:href="#x" fill="#70cbd1"/><use xlink:href="#x" fill-opacity="0" stroke="#000" stroke-opacity="0"/></g><g><use xlink:href="#y" fill-opacity="0"/><use xlink:href="#y" fill-opacity="0" stroke="#000" stroke-opacity="0"/></g></svg>