<svg id="Layer_1" data-name="Layer 1" xmlns="http://www.w3.org/2000/svg" xmlns:xlink="http://www.w3.org/1999/xlink" viewBox="0 0 502.16 436.24"><defs><style>.cls-1{fill:#eac331;}.cls-2{fill:#ffefcf;}.cls-3{fill:#fff;}.cls-4{fill:#70cbd1;}.cls-5{fill:#eb5624;}</style></defs><title>mug</title><path d="M500,242.29c1.06,8.41,1.84,16.79.53,25.15a174.24,174.24,0,0,1-3.95,17.82c-.82,3-1.66,5.92-2.54,8.89l-2.42-.71c1.52-5.21,2.86-10.51,4.06-15.83,2.68-12,3.43-23.89.59-35.81-1.59-6.56-3.53-13.15-8.65-18.1,0,0,0,0,0-.06a12.79,12.79,0,0,0-1.56-2.75,46.94,46.94,0,0,0-20.91-13.62c-12.44-4-25.12-7.24-37.75-10.62-5.45-1.46-11-2.52-16.56-3.7a9.82,9.82,0,0,0-2.47.08c.67.26,1.34.52,2,.75,3.06.94,6.14,1.83,9.17,2.84,1.73.56,3.41,1.32,5.09,2-1.69,0-3.39.07-5.11.12l-1.24.08a6.16,6.16,0,0,0,1,.67c1.2.51,2.44,1,3.64,1.47a3.76,3.76,0,0,1,.92.79c-.48.13-1,.44-1.4.37-2.74-.31-5.46-.76-8.2-1.1a4,4,0,0,0-1.23.27c.2.26.35.63.61.74,4.88,1.81,9.73,3.84,14.71,5.33,2,.61,4.06,1.17,6.1,1.72L432.86,215c-3.24-.85-6.51-1.69-9.79-2.38-8.08-1.74-16.22-3.13-24.34-4.72-1.62-.32-2.44.35-2.87,1.82-.32,1.12-.67,2.22-1,3.35q-10.09,33.36-20.21,66.71l-4.84-1.47a62.09,62.09,0,0,0,1.88-11c.58-4.88.87-9.82,1.31-14.71.07-.87.14-1.75.16-2.61a1.54,1.54,0,0,0-.9-.07,16.25,16.25,0,0,0-1.62,1.49,7.21,7.21,0,0,1-.6-2.44c.45-3.29,1.23-6.55,1.59-9.87a23.88,23.88,0,0,0-.52-4.79c-.84,1.28-1.7,2.58-2.47,3.92s-1.46,2.47-2.19,3.72c.17-1.53.2-3.09.48-4.57.62-3.44,1.42-6.84,2-10.27.15-1-.42-2.07-.67-3.1a17.94,17.94,0,0,0-1.65,2.24c-1.11,2.35-2.09,4.77-3.14,7.17a12.29,12.29,0,0,1-.76,1.17,11.21,11.21,0,0,1,.05-1.29c1.12-5.83,2.26-11.67,3.37-17.5.41-2.14.95-4.29,1.14-6.42.08-.82-.75-1.73-1.15-2.58-.54.67-1.34,1.23-1.59,2-2.14,6.17-4.13,12.41-6.24,18.57a6.33,6.33,0,0,1-1.38,1.88c-.39-.82-1.25-1.73-1.14-2.49.48-3.31,1.23-6.57,1.91-9.85,1.16-5.67,2.37-11.35,3.42-17.06.17-1-.48-2.07-.73-3.1-.64.77-1.57,1.43-1.84,2.32-2.2,6.62-4.22,13.31-6.37,19.92a11.08,11.08,0,0,1-1.47,2.31,14.12,14.12,0,0,1-1-3,9.54,9.54,0,0,1,.37-3q1.94-8.26,3.93-16.53c.79-3.38,1.65-6.78,2.28-10.2.11-.73-.68-1.62-1-2.42-.5.53-1.26,1-1.49,1.64-2.07,5.75-4.06,11.51-6.08,17.27-.84,2.49-1.62,5-2.5,7.44-.1.32-.49.53-.75.78-.15-.38-.47-.73-.45-1.09a17.5,17.5,0,0,1,.35-2.13c.53-3,1.18-6,1.55-9a13.15,13.15,0,0,0-.5-3.54,20.91,20.91,0,0,0-1.83,2.62c-.85,1.68-1.54,3.46-2.33,5.16-.29.64-.67,1.24-1,1.87,0-.7-.05-1.42,0-2.12.43-3.45,1-6.88,1.29-10.34.06-.7-.67-1.49-1-2.2-.53.48-1.32.84-1.59,1.46-1.16,2.66-2.11,5.41-3.24,8.07-.22.55-.82.9-1.27,1.36-.37-.6-1-1.14-1-1.75a20.41,20.41,0,0,1,.21-3.9c.5-3.9,1.07-7.78,1.54-11.64a7.2,7.2,0,0,0-.41-2.27,9.25,9.25,0,0,0-1.35,2c-1.29,3.23-2.58,6.49-3.69,9.79-.66,1.88-1.41,1.86-2.67.57-2.66-2.69-5.15-5.59-8-8-7-5.69-14.28-11-21.2-16.73-8.83-7.3-17.36-15-26.19-22.31-5.7-4.7-11.67-9.09-17.61-13.5-4.06-3-8.47-5.59-12.46-8.72-8.08-6.36-15.85-13.17-24-19.43S200.47,95.13,192,89.05c-2.48-1.79-4.94-3.61-7.54-5.17-4.11-2.47-8.71-4.23-12.42-7.13C155.76,64,137,55.65,118.67,46.6c-8.57-4.21-17.43-7.81-26.19-11.67-.52-.22-1.08-.44-1.63-.63-4.71-1.6-4.71-1.6-6.19,3.24q-28.59,94.8-57.18,189.6c-6.42,21.3-12.66,42.65-19,64-.73,2.5-1.77,4.93-2.33,7.47-1.23,5.79,1.44,10.57,4.6,15,7.72,10.71,15.7,21.26,23.55,31.88.79,1.08,1.47,2.21,2.18,3.33-1.57-1.06-3.13-2.08-4.66-3.14l-.2-.23c-.51-.39-1-.81-1.55-1.22l-.13.07c.54.41,1.06.83,1.61,1.21a1.34,1.34,0,0,0,.27.17c1,1.36,2,2.78,3.17,4.08,2.75,3.15,5.56,6.24,8.36,9.34a25.45,25.45,0,0,1-3.4-2c-2.84-2.25-5.58-4.62-8.37-6.91a7.57,7.57,0,0,0-1.39-.79,12,12,0,0,0,.87,1.38,30.73,30.73,0,0,0,3.36,3.39c4.37,3.56,8.82,7,13.22,10.56a6.25,6.25,0,0,1,1,1.12c-.54-.11-1.1-.19-1.67-.29-.34,0-.66-.13-1-.17l-.19-.12c-.18-.15-.33-.3-.52-.45a3.54,3.54,0,0,1,.42.52l.29.05c5.68,3.53,11.15,7.49,17.11,10.52C72.53,380.57,82.29,384.73,92,389c4.87,2.17,9.74,4.42,14.73,6.24l-1.66,4.64c-8-2.82-16-6-23.73-9.54-11.11-5-22-10.55-32.78-16.16a49.66,49.66,0,0,1-9.94-7C28,357.84,17.81,348.09,10.33,336a62.92,62.92,0,0,1-8.6-21.73,55.53,55.53,0,0,1,2-26.55q19.37-63.58,38.56-127.29l.58.19Q62.45,95.68,82.11,30.8c1.84-6.05,1.77-6-3.51-9.42a48.54,48.54,0,0,1-6.45-5.17c-1.74-1.65-2.9-3.89-2-6.3,1.73-4.51,4.71-8.1,9.61-9.19a28.41,28.41,0,0,1,9.1-.58L97.43,1l-.27,2.68a48.12,48.12,0,0,0-10.43.42,5,5,0,0,0-4.08,7.69,14.43,14.43,0,0,0,4.73,5.55c4.51,2.82,9.18,5.71,14.19,7.45C116.65,30,132,34.64,147.18,39.52c.83.27,1.67.51,2.5.7a6.89,6.89,0,0,0,1.28.05c-.28-.27-.52-.72-.9-.84-2.3-.9-4.57-1.84-6.93-2.53-3.6-1.06-7.37-1.65-10.89-3-10.45-3.89-21-7.73-31.18-12.26-4.54-2-8.44-5.57-12.48-8.61-.88-.68-1.1-2.19-1.62-3.33a16.83,16.83,0,0,1,3.9-1.54c.82-.15,1.76.58,2.66.9,2.15.8,4.35,2.31,6.45,2.19,6.78-.44,13.31.88,19.88,1.86,5.75.87,11.67.95,17.21,2.43,16.7,4.44,33.44,8.73,49.57,15.1.76.3,1.52.67,2.31,1a9.9,9.9,0,0,1-2.9.26c-2.12-.35-4.22-1-6.37-1.47l-11.87-2.8a8.77,8.77,0,0,0-1.29-.1,4.45,4.45,0,0,0,1.07.85c2.85,1.11,5.67,2.25,8.55,3.27,4,1.38,8,2.63,12,4,.55.19,1,.81,1.45,1.23a7.56,7.56,0,0,1-2,.11c-3-.53-6-1.18-9-1.74a4.91,4.91,0,0,0-1.46.13,6.68,6.68,0,0,0,1.07.69c3.89,1.63,7.73,3.41,11.7,4.76,8.77,3,16.87,7.79,26.15,9.53,10.41,2,20.74,4.41,31.1,6.65a10.39,10.39,0,0,0,1.68.12,9,9,0,0,0-1.4-.85c-4.79-1.76-9.55-3.52-14.36-5.19-4.37-1.5-8.84-2.88-13.24-4.35a4.71,4.71,0,0,1-1.14-.74,10.68,10.68,0,0,1,1.29.11c9.2,2.09,18.4,4.14,27.58,6.28,2.26.54,4.47,1.35,6.68,2a9.26,9.26,0,0,0,1.28.22,6.34,6.34,0,0,0-1.17-.76c-2.23-1-4.44-2.16-6.76-3-8.48-3.09-17-6-25.43-9.08-.58-.19-1-.76-1.47-1.15a8.15,8.15,0,0,1,2-.06c3.3.59,6.55,1.29,9.83,1.93a6,6,0,0,0,1.27,0,9.65,9.65,0,0,0-1.06-.55c-1.63-.61-3.31-1.17-4.91-1.81a13,13,0,0,1-1.77-.94,11.41,11.41,0,0,1,2.13.18c15.09,3.69,30.15,7.39,42.21,10.36,14,5.21,25.08,9.17,36,13.49,5.94,2.33,11.61,5.27,17.39,8,.3.13.42.53.65.82a4.54,4.54,0,0,1-.82.14c-.28,0-.57-.13-.85-.13-1,0-1.95,0-2.9,0,.8.47,1.55,1,2.38,1.38,5,2.32,10,4.62,15,7,.53.25.93.88,1.37,1.33a10.72,10.72,0,0,1-1.68-.37L311.7,73c-1.54-.5-3.06-.94-4.61-1.39a2.94,2.94,0,0,0-.84,0c.22.23.39.55.65.66.82.33,1.68.54,2.49.84,9.24,3.44,18.51,6.91,27.73,10.41A8.62,8.62,0,0,1,339,84.93a10.08,10.08,0,0,1-2.4,0c-3.8-1-7.57-2.16-11.33-3.22-.55-.13-1.14-.18-1.71-.29a8.49,8.49,0,0,0,1.6,1.08c3.94,1.41,7.85,3,11.9,4.08,10.22,2.75,20.52,5.24,30.81,7.84,2.23.59,4.46,1.33,6.72,1.88a7.49,7.49,0,0,0,2.3-.11A13.22,13.22,0,0,0,375.23,95c-4.06-1.93-8.16-3.79-12.22-5.74-1.59-.77-3.07-1.81-4.59-2.73a44.83,44.83,0,0,1,5.08,1.14c5.36,1.81,10.67,3.76,16,5.6a16.43,16.43,0,0,0,2.74.56A20.4,20.4,0,0,0,379.84,92c-2.19-1.1-4.47-2.07-6.7-3.14-.79-.36-1.51-.81-2.25-1.2a9.15,9.15,0,0,1,2.83.19c7.61,2.76,15.35,5.31,22.78,8.53,7.82,3.44,15.35,7.54,23,11.33a3.07,3.07,0,0,0,1.15.12c-.18-.34-.29-.86-.58-1l1.16-1.89.9.57A60.85,60.85,0,0,1,432,114c2.28,2.28,1.63,4.45-1.49,5a35.32,35.32,0,0,1-9.51.65c-8.65-.66-17.32-1.72-26-2.58-1-.12-2-.12-3-.17A14.2,14.2,0,0,0,394.7,118c10,1.84,20,3.72,30,5.35a25,25,0,0,0,6.93-.34,8,8,0,0,0,6.84-5.93c1-3.09-1.47-4.77-3.41-6.48a87.46,87.46,0,0,0-20-13l.81-1.57c4.83,2.42,9.61,4.88,14.42,7.33a40,40,0,0,1,8.9,6.19c3.54,3.29,4.32,7.86,3.6,12.45-.53,3.34-3.52,4.51-6.56,4.7a91.53,91.53,0,0,1-12.17.08c-2.39-.15-3.36.65-4,2.81q-7.2,24.24-14.58,48.44c-.6,1.9-.54,2.95,1.72,4,11.55,5.22,23.73,8.6,35.75,12.51,12.92,4.24,26.13,7.81,37.61,15.74S498.32,228.6,500,242.29Zm-86.46-127a3,3,0,0,0-.22-.28s-.07.12-.09.17A1,1,0,0,1,413.56,115.28ZM403.62,114a13.82,13.82,0,0,0-1.7-.7q-13.38-3.6-26.77-7.13a10.77,10.77,0,0,0-2.55-.08l-.43-.12c-.43-.09-.83-.21-1.26-.33-2.57-.84-5.12-1.73-7.72-2.53a3.6,3.6,0,0,0-1.39,0,9.25,9.25,0,0,0,1.19.48c2.62.72,5.28,1.4,7.92,2.06l1.3.44h.39c2.1.55,4.19,1,6.28,1.6q11.53,3,23,6C402.49,113.85,403.05,113.9,403.62,114Zm-15.7,13.62a8.46,8.46,0,0,0-1.17-.48c-9.05-2-18.13-4-27.18-6-4.11-.92-8.31-1.6-12.3-2.89-10.24-3.25-20.39-6.82-30.59-10.18a127.19,127.19,0,0,0-12.89-3.74c-8.65-1.9-17.43-3.19-26.05-5.28-7.58-1.84-15-4.46-22.52-6.72l-.06.25c-3-.92-6.13-1.83-9.16-2.78-6-1.88-11.9-3.8-17.87-5.68a6.22,6.22,0,0,0-1.24-.11,3.87,3.87,0,0,0,.88.88,87.66,87.66,0,0,0,8.57,4.27c13.41,5.13,26.77,10.57,40.4,15,12.57,4.09,25.47,7.1,38.23,10.44,18,4.68,35.89,9.68,54.51,11.32,5.63.5,11.22,1.42,16.84,2.11A5.15,5.15,0,0,0,387.92,127.62Zm-17,63.69c0-.58,0-1.11,0-1.64-.25.28-.64.54-.72.86a7.35,7.35,0,0,0-.13,1.57C370.31,191.85,370.59,191.6,370.89,191.31Zm-1.37,7.09a5.9,5.9,0,0,0-.72-1.79,6.56,6.56,0,0,0-.95,1.22,4.94,4.94,0,0,0-.65,2,12.36,12.36,0,0,0,.69,2.49c.47-.55.94-1.13,1.09-1.29A11.33,11.33,0,0,0,369.52,198.4ZM373,230.73c-.15-.12-.31-.24-.49-.36a2.85,2.85,0,0,1,0,.31c.07.1.14.23.25.25S372.85,230.8,373,230.73Zm-8-48.52v-.28l-.17.24ZM354.16,101a8,8,0,0,0,1.15-.18c-.32-.39-.57-.92-1-1.09A23.29,23.29,0,0,0,351,98.71c-5.22-1.32-10.4-2.65-15.64-3.89-12.71-3.06-25.26-6.56-37.17-12.19a100.56,100.56,0,0,0-16.7-6.27c-8-2.17-16.2-3.35-24.2-5.4-8.28-2.1-16.42-4.69-24.62-7a6.26,6.26,0,0,0-1.51-.09c.38.41.69,1,1.15,1.13,4.6,1.81,9.16,3.73,13.82,5.28,7.72,2.58,15.5,4.91,23.23,7.37a4.2,4.2,0,0,1,1.12.8,4.76,4.76,0,0,1-1.25,0c-4.54-1-9.07-2.13-13.6-3.08-8.27-1.68-16.52-3.29-24.78-4.89a6.11,6.11,0,0,0-1.47.08,11.3,11.3,0,0,0,1.13.6,10.66,10.66,0,0,0,1.24.42c22,7,44,13.93,67,21.18C305,94.18,312.17,96,319.4,97.52c2.82.61,5.75.85,8.6,1.21a2.54,2.54,0,0,0,1-.25,6.07,6.07,0,0,0-.74-.45c-.7-.23-1.41-.37-2.07-.61l-33-11.17a16.24,16.24,0,0,1-1.61-.69,8.68,8.68,0,0,1,1.78.25c5.18,1.47,10.27,3.19,15.48,4.46,14.8,3.61,29.64,7.06,44.49,10.58A3.08,3.08,0,0,0,354.16,101ZM363.75,190c0-.42-.19-1.74-.31-3.06-.62,1.21-1.29,2.43-1.82,3.65a3.28,3.28,0,0,0-.24,1.67,1.43,1.43,0,0,0,.74.93c.15.06.69-.33.83-.62A18.23,18.23,0,0,0,363.75,190Zm-7.86-59.74a5.49,5.49,0,0,0-1.1-.63c-2.22-.68-4.44-1.35-6.71-1.94-4.76-1.23-9.62-2.17-14.32-3.64-13.07-4.08-26.13-8-39.8-10-9-1.3-17.74-4.21-26.55-6.59-3.77-1-7.37-2.62-11.07-3.91a5.63,5.63,0,0,0-1.6-.07,9.32,9.32,0,0,0,1.33,1,151.71,151.71,0,0,0,35.49,14.39c4,.59,10.51,3.89,18,4.12,6.85.23,13.63,2.6,20.48,3.83,8.15,1.42,16.31,2.61,24.49,3.86C355,130.68,355.46,130.37,355.89,130.24ZM359.1,179c0-.59-.08-1.75-.15-2.88-.62,1-1.29,2-1.82,3a3.24,3.24,0,0,0-.35,1.63,1.32,1.32,0,0,0,.63.93c.15.1.7-.24.86-.51A12.7,12.7,0,0,0,359.1,179ZM343,186.3c.05-.12-.2-.32-.47-.73-.3.81-.57,1.4-.75,2-.06.23.14.52.23.78C342.3,187.68,342.67,187,343,186.3ZM315.64,70.13a23.78,23.78,0,0,0-2.17-1,10.24,10.24,0,0,0-1.63-.33l1.61.94ZM221.38,61c1.78.44,3.53.89,5.27,1.31l-5.33-1.42c-.94-.17-1.86-.38-2.8-.58-2-.48-3.92-1-5.89-1.42-.43-.12-.84-.24-1.27-.33a4.93,4.93,0,0,0,.86.43l6.3,1.32ZM187.83,52.3a5.52,5.52,0,0,0-.88-.43c-5.53-1.7-11-3.41-16.58-5.09a6.84,6.84,0,0,0-1.13-.15,7.51,7.51,0,0,0,1.2.48c2.74.87,5.5,1.68,8.27,2.52v0c2.62.77,5.25,1.57,7.87,2.36C187,52.14,187.43,52.21,187.83,52.3Zm-28.94-8.61c.54.09,1.07.14,1.58.19a10.6,10.6,0,0,0-1.49-.61,9.33,9.33,0,0,0-1.55-.22C157.92,43.27,158.42,43.5,158.89,43.69Z"/><path class="cls-1" d="M487.64,223.7c5.12,5,7.06,11.54,8.65,18.1,2.84,11.92,2.09,23.85-.59,35.81-1.2,5.32-2.54,10.62-4.06,15.83s-3.29,10.34-5.33,15.41A138.06,138.06,0,0,1,473.47,333a99.05,99.05,0,0,1-15.93,18.88c-10.12,9.36-21.48,16.79-35.73,18.66-5.88.76-11.67,2.37-17.52,3.35-5.17.87-10.35,1.41-15.55,2a73.09,73.09,0,0,1-7.41.34c-10.69.08-21.4.17-32.11.12-.91,0-1.82-.83-2.73-1.26.72-1.33,1.14-3.11,2.25-3.87s2.8-.44,4.23-.32c9.58.67,19.17,1.52,28.7.25,6.73-.91,13.37-2.3,20-3.48l.56,0,.06-.2-.13.1c-.16,0-.33.06-.49.08-2.21,0-4.44-.13-6.67-.05-3,.11-6,.41-9,.57a8.52,8.52,0,0,1-2-.3,9,9,0,0,1,1.78-.76c4.52-.91,9-1.69,13.55-2.65a14.29,14.29,0,0,0,3-1.47h.28l.24-.11c.25,0,.48,0,.73,0-.09-.07-.2-.23-.22-.22a3.38,3.38,0,0,0-.51.19c-.09,0-.2,0-.28,0a.75.75,0,0,0-.24.14l-8.22-.05c6-1.6,11.92-3.34,18-4.73,7.74-1.79,14.8-5.27,21.49-9.32,3.79-2.31,7.06-5.51,10.41-8.5,3.65-3.24,7.17-6.72,10.73-10.09l-.06,0c1.35-1.43,2.73-2.84,4.1-4.27s2.7-2.88,3.92-4.44c2.39-3.08,4.36-6.5,6.54-9.74a6.49,6.49,0,0,1,.94-1,4.41,4.41,0,0,1-.25,1.26c-1.39,3-2.85,6.05-4.24,9.07a5.88,5.88,0,0,0-.27,1.65,6.65,6.65,0,0,0,1.27-1.12c1.47-2.16,2.9-4.36,4.21-6.62,5.6-9.67,11.05-19.4,13.39-30.55,1.23-5.79,3.17-11.47,4.32-17.28,2.8-14.1-1.48-25.94-10.53-37.07-6.89-8.44-15.69-12.71-25.35-15.94-6-2-12.14-3.49-18.22-5.11-2-.55-4.08-1.11-6.1-1.72-5-1.49-9.83-3.52-14.71-5.33-.26-.11-.41-.48-.61-.74a4,4,0,0,1,1.23-.27c2.74.34,5.46.79,8.2,1.1.45.07.92-.24,1.4-.37a3.76,3.76,0,0,0-.92-.79c-1.2-.51-2.44-1-3.64-1.47a6.16,6.16,0,0,1-1-.67l1.24-.08c1.72-.05,3.42-.07,5.11-.12-1.68-.65-3.36-1.41-5.09-2-3-1-6.11-1.9-9.17-2.84-.69-.23-1.36-.49-2-.75a9.82,9.82,0,0,1,2.47-.08c5.53,1.18,11.11,2.24,16.56,3.7,12.63,3.38,25.31,6.67,37.75,10.62a46.94,46.94,0,0,1,20.91,13.62,12.79,12.79,0,0,1,1.56,2.75S487.61,223.67,487.64,223.7Zm0,.1c-1.68-1.09-3.41-2.19-5.12-3.28l-.11-.21-.13.07.24.14c1.95,4.3,3.93,8.62,5.85,12.95,1,2.29,2.07,4.63,3.07,6.91v.08l0,0,0,0,.21.09-.24-.14v0s0-.05,0-.08c-.11-2.52.22-5.15-.38-7.53C490.31,229.73,488.82,226.8,487.68,223.8ZM453.92,352.13a14.86,14.86,0,0,0,1-1.31c-.66.07-1.3.06-1.93.18-.82.2-1.62.49-2.43.74.59-.76,1.15-1.52,1.73-2.28a.67.67,0,0,1,.2-.21h0l0-.08v-.23l0,.23,0,0a.12.12,0,0,0,0,.06,7.43,7.43,0,0,0-2.39.29c-5.57,2.59-11.07,5.31-16.6,8,0,0-.11,0-.17,0l-.05.25.06-.14c.06,0,.11,0,.16-.08a9.69,9.69,0,0,0,2.29.31c1.7-.07,3.39-.34,5.1-.53-1.35,1.12-2.68,2.24-4,3.36a9.32,9.32,0,0,0-.9.88,3.94,3.94,0,0,0,1.48.29C444.16,360.64,449.18,356.61,453.92,352.13Z"/><path d="M491.1,232.85c.6,2.38.27,5,.38,7.53-1-2.28-2-4.62-3.07-6.91-1.92-4.33-3.9-8.65-5.85-12.95,1.71,1.09,3.44,2.19,5.12,3.28C488.82,226.8,490.31,229.73,491.1,232.85Z"/><polygon points="491.76 240.63 491.55 240.54 491.52 240.49 491.76 240.63"/><path d="M491.48,240.38s0,.05,0,.08h0Z"/><polygon points="491.52 240.46 491.52 240.49 491.49 240.46 491.52 240.46"/><path d="M312.18,412.51c-1.74.35-3.53.58-5.23,1.07-5.86,1.68-11.65,3.45-17.51,5.21,1.35-.7,2.59-1.54,4-2.11,12.69-5.18,24.41-12.15,35.94-19.52a15.14,15.14,0,0,0,6.71-9.23c2.35-8.53,5.07-17,7.71-25.48,8.65-28.05,17.41-56.07,26-84.17l4.84,1.47c-.2.69-.43,1.41-.63,2.1l.43.12Q363.81,317,353.19,352c-.28,1-.53,2-.82,2.94-.5,1.72.27,2.42,1.92,2.52,4.32.27,8.67.77,13,.83,15.17.12,30.25-1.15,44.77-5.61a82.71,82.71,0,0,0,20.24-8.85c8.7-5.52,15.78-13.07,22.06-21.39l3.07,2.33.15.1,1.14,1.07c-1.37,1.43-2.75,2.84-4.1,4.27l-.08,0c-.06-.52-.12-1.05-.15-1.57l-1.09,1.2c.4.13.83.25,1.24.37v.11l.13-.07c-3.56,3.37-7.08,6.85-10.73,10.09-3.35,3-6.62,6.19-10.41,8.5-6.69,4-13.75,7.53-21.49,9.32-6,1.39-12,3.13-18,4.73-.17,0-.36,0-.53,0l-2.13.15-.53.48a4.87,4.87,0,0,1,.6-.37c.69-.05,1.41-.1,2.13-.13l.46-.13,8.22.05a14.29,14.29,0,0,1-3,1.47c-4.51,1-9,1.74-13.55,2.65a9,9,0,0,0-1.78.76,8.52,8.52,0,0,0,2,.3c3-.16,6-.46,9-.57,2.23-.08,4.46,0,6.67.05-6.67,1.18-13.31,2.57-20,3.48-9.53,1.27-19.12.42-28.7-.25-1.43-.12-3.19-.38-4.23.32s-1.53,2.54-2.25,3.87c.91.43,1.82,1.28,2.73,1.26,10.71,0,21.42,0,32.11-.12a73.09,73.09,0,0,0,7.41-.34c5.2-.57,10.38-1.11,15.55-2,5.85-1,11.64-2.59,17.52-3.35,14.25-1.87,25.61-9.3,35.73-18.66A99.05,99.05,0,0,0,473.47,333a138.06,138.06,0,0,0,12.84-24.11c2-5.07,3.79-10.2,5.33-15.41l2.42.71c-3.81,13-8.34,25.82-14.69,38a102.69,102.69,0,0,1-18.23,25.26c-.41.41-.8.84-1.24,1.22-17.15,14.78-37.11,22.85-59.56,25.17-11.27,1.18-22.47,2.94-33.73,4.15-4.57.47-9.23.2-13.85.21-1.17,0-2.32-.3-3.49-.31-8.19,0-6.3-1.26-8.61,5.87-3.55,11-10.84,19.25-20.23,25.37-11.88,7.74-25.28,11.58-39.27,13.34C273.11,433.45,265,435,257,435c-4.35,0-8.72-.22-13.08-.6l.42-5.32a124,124,0,0,0,35.45-2.18c2.18-.47,4.24-1.72,6.32-2.65l.3,0,.75,0c-.28,0-.56-.08-.84-.1l-.21.1c-3.08.2-6.17.4-9.22.54-.34,0-.68-.29-1-.45.27-.11.53-.22.8-.31,1.14-.26,2.25-.55,3.4-.73C291.4,421.61,302.26,418.53,312.18,412.51Z"/><path d="M478,230.1c9.05,11.13,13.33,23,10.53,37.07-1.15,5.81-3.09,11.49-4.32,17.28-2.34,11.15-7.79,20.88-13.39,30.55-1.31,2.26-2.74,4.46-4.21,6.62a6.65,6.65,0,0,1-1.27,1.12,5.88,5.88,0,0,1,.27-1.65c1.39-3,2.85-6,4.24-9.07a4.41,4.41,0,0,0,.25-1.26,6.49,6.49,0,0,0-.94,1c-2.18,3.24-4.15,6.66-6.54,9.74-1.22,1.56-2.57,3-3.92,4.44l-1.14-1.07.05-.28-.2.18-3.07-2.33a107.31,107.31,0,0,0,16.15-31.08c2.05-6.19,3.69-12.53,5.14-18.9a140.59,140.59,0,0,0,3.55-19.22c.92-10.36-3.54-18.51-11.9-24.64s-17.62-9.27-27.34-11.79c-2.38-.61-4.74-1.24-7.09-1.87l1.58-5.92c6.08,1.62,12.26,3.12,18.22,5.11C462.32,217.39,471.12,221.66,478,230.1Zm-18.89,92.73v-.33l-.19.27Z"/><path d="M482.56,220.52l-.24-.14.13-.07Z"/><path class="cls-2" d="M435,110.64c1.94,1.71,4.38,3.39,3.41,6.48a8,8,0,0,1-6.84,5.93,25,25,0,0,1-6.93.34c-10-1.63-20-3.51-30-5.35a14.2,14.2,0,0,1-2.66-1.12c1,0,2,0,3,.17,8.65.86,17.32,1.92,26,2.58a35.32,35.32,0,0,0,9.51-.65c3.12-.59,3.77-2.76,1.49-5a60.85,60.85,0,0,0-9.87-8.45l-.9-.57c-7.19-4.53-14.66-8.61-22-12.88-1.25-.73-2.45-1.54-3.65-2.33L399.42,91l2.47.9c4.43,1.83,8.85,3.71,13.14,5.78A87.46,87.46,0,0,1,435,110.64Z"/><polygon class="cls-3" points="459.11 322.5 459.12 322.83 458.92 322.77 459.11 322.5"/><polygon class="cls-3" points="457.62 324.62 457.57 324.9 457.42 324.81 457.62 324.62"/><path class="cls-3" d="M454.67,330.26l-.13.07.07-.09Z"/><path class="cls-3" d="M454.61,330.24l-.07.09v-.11Z"/><path class="cls-3" d="M454.38,328.65c0,.52.09,1.05.15,1.57-.41-.12-.84-.24-1.24-.37Z"/><path d="M455,350.82a14.86,14.86,0,0,1-1,1.31c-4.74,4.48-9.76,8.51-16.43,9.69a3.94,3.94,0,0,1-1.48-.29,9.32,9.32,0,0,1,.9-.88c1.33-1.12,2.66-2.24,4-3.36-1.71.19-3.4.46-5.1.53a9.69,9.69,0,0,1-2.29-.31c5.53-2.66,11-5.38,16.6-8a7.43,7.43,0,0,1,2.39-.29.67.67,0,0,0-.2.21c-.58.76-1.14,1.52-1.73,2.28.81-.25,1.61-.54,2.43-.74C453.65,350.88,454.29,350.89,455,350.82Z"/><polygon points="452.6 348.93 452.59 349.15 452.57 349.16 452.6 348.93"/><polygon points="452.59 349.15 452.55 349.24 452.54 349.19 452.57 349.16 452.59 349.15"/><path d="M452.52,349.25a.12.12,0,0,1,0-.06v.05Z"/><path d="M421.24,105l-1.16,1.89c-3.32-1.79-6.71-3.48-10-5.2A557.85,557.85,0,0,0,345.15,73c-18.26-6.72-36.59-13.32-55.06-19.4-16.13-5.34-32.47-10-48.79-14.77-14.65-4.24-29.37-8.17-44.05-12.21-5.61-1.56-11.17-3.29-16.85-4.48-15.62-3.25-31.28-6.52-47-9.28-10.85-1.9-21.85-2.92-32.8-4.37a13,13,0,0,1-2.27-.64,19.07,19.07,0,0,1,2.56-.28c4.81.08,9.6.14,14.37.37,6.1.25,12.19.64,18.27,1,.64,0,1.28,0,2,0-.69-.24-1.36-.52-2.05-.7a14.23,14.23,0,0,0-2.14-.43c-11.38-1.4-22.72-2.94-34.14-4.14L97.43,1C114.22,2.74,131,4.49,147.75,6.64c17.06,2.16,33.55,6.93,50,11.7,8.63,2.5,17.47,4.29,26.18,6.54,6.91,1.78,13.71,3.82,20.62,5.6C265.12,35.8,285,43.35,305.05,50c14.89,4.95,29.86,9.63,44.48,15.35,13.77,5.4,27.17,11.76,40.57,18.09,8.64,4.07,17.21,8.31,25.74,12.64L415,97.68c-4.29-2.07-8.71-4-13.14-5.78l-2.47-.9-3.81-1.25c1.2.79,2.4,1.6,3.65,2.33C406.58,96.35,414.05,100.43,421.24,105Z"/><path class="cls-1" d="M420.08,106.85c.29.13.4.65.58,1a3.07,3.07,0,0,1-1.15-.12c-7.66-3.79-15.19-7.89-23-11.33-7.43-3.22-15.17-5.77-22.78-8.53a9.15,9.15,0,0,0-2.83-.19c.74.39,1.46.84,2.25,1.2,2.23,1.07,4.51,2,6.7,3.14a20.4,20.4,0,0,1,2.42,1.79,16.43,16.43,0,0,1-2.74-.56c-5.35-1.84-10.66-3.79-16-5.6a44.83,44.83,0,0,0-5.08-1.14c1.52.92,3,2,4.59,2.73,4.06,2,8.16,3.81,12.22,5.74a13.22,13.22,0,0,1,1.63,1.18,7.49,7.49,0,0,1-2.3.11c-2.26-.55-4.49-1.29-6.72-1.88-10.29-2.6-20.59-5.09-30.81-7.84-4-1.09-8-2.67-11.9-4.08a8.49,8.49,0,0,1-1.6-1.08c.57.11,1.16.16,1.71.29,3.76,1.06,7.53,2.18,11.33,3.22a10.08,10.08,0,0,0,2.4,0,8.62,8.62,0,0,0-1.85-1.39c-9.22-3.5-18.49-7-27.73-10.41-.81-.3-1.67-.51-2.49-.84-.26-.11-.43-.43-.65-.66a2.94,2.94,0,0,1,.84,0c1.55.45,3.07.89,4.61,1.39l25.23,8.27a10.72,10.72,0,0,0,1.68.37c-.44-.45-.84-1.08-1.37-1.33-5-2.34-10-4.64-15-7-.83-.41-1.58-.91-2.38-1.38.95,0,1.92,0,2.9,0,.28,0,.57.13.85.13a4.54,4.54,0,0,0,.82-.14c-.23-.29-.35-.69-.65-.82-5.78-2.69-11.45-5.63-17.39-8-10.92-4.32-22-8.28-36-13.49-12.06-3-27.12-6.67-42.21-10.36a11.41,11.41,0,0,0-2.13-.18,13,13,0,0,0,1.77.94c1.6.64,3.28,1.2,4.91,1.81a9.65,9.65,0,0,1,1.06.55,6,6,0,0,1-1.27,0c-3.28-.64-6.53-1.34-9.83-1.93a8.15,8.15,0,0,0-2,.06c.49.39.89,1,1.47,1.15,8.47,3,17,6,25.43,9.08,2.32.83,4.53,2,6.76,3a6.34,6.34,0,0,1,1.17.76,9.26,9.26,0,0,1-1.28-.22c-2.21-.68-4.42-1.49-6.68-2-9.18-2.14-18.38-4.19-27.58-6.28a10.68,10.68,0,0,0-1.29-.11,4.71,4.71,0,0,0,1.14.74c4.4,1.47,8.87,2.85,13.24,4.35,4.81,1.67,9.57,3.43,14.36,5.19a9,9,0,0,1,1.4.85,10.39,10.39,0,0,1-1.68-.12c-10.36-2.24-20.69-4.67-31.1-6.65-9.28-1.74-17.38-6.51-26.15-9.53-4-1.35-7.81-3.13-11.7-4.76a6.68,6.68,0,0,1-1.07-.69,4.91,4.91,0,0,1,1.46-.13c3,.56,6,1.21,9,1.74a7.56,7.56,0,0,0,2-.11c-.47-.42-.9-1-1.45-1.23-4-1.41-8-2.66-12-4-2.88-1-5.7-2.16-8.55-3.27a4.45,4.45,0,0,1-1.07-.85,8.77,8.77,0,0,1,1.29.1l11.87,2.8c2.15.51,4.25,1.12,6.37,1.47a9.9,9.9,0,0,0,2.9-.26c-.79-.3-1.55-.67-2.31-1C170.5,24.31,153.76,20,137.06,15.58c-5.54-1.48-11.46-1.56-17.21-2.43-6.57-1-13.1-2.3-19.88-1.86-2.1.12-4.3-1.39-6.45-2.19-.9-.32-1.84-1-2.66-.9A16.83,16.83,0,0,0,87,9.74c.52,1.14.74,2.65,1.62,3.33,4,3,7.94,6.57,12.48,8.61,10.19,4.53,20.73,8.37,31.18,12.26,3.52,1.31,7.29,1.9,10.89,3,2.36.69,4.63,1.63,6.93,2.53.38.12.62.57.9.84a6.89,6.89,0,0,1-1.28-.05c-.83-.19-1.67-.43-2.5-.7C132,34.64,116.65,30,101.57,24.8c-5-1.74-9.68-4.63-14.19-7.45a14.43,14.43,0,0,1-4.73-5.55,5,5,0,0,1,4.08-7.69,48.12,48.12,0,0,1,10.43-.42c11.42,1.2,22.76,2.74,34.14,4.14a14.23,14.23,0,0,1,2.14.43c.69.18,1.36.46,2.05.7-.67,0-1.31,0-2,0-6.08-.34-12.17-.73-18.27-1-4.77-.23-9.56-.29-14.37-.37a19.07,19.07,0,0,0-2.56.28,13,13,0,0,0,2.27.64c11,1.45,22,2.47,32.8,4.37,15.71,2.76,31.37,6,47,9.28,5.68,1.19,11.24,2.92,16.85,4.48,14.68,4,29.4,8,44.05,12.21,16.32,4.76,32.66,9.43,48.79,14.77,18.47,6.08,36.8,12.68,55.06,19.4A557.85,557.85,0,0,1,410,101.65C413.37,103.37,416.76,105.06,420.08,106.85ZM95.53,8.1a1,1,0,0,0,.18-.16c-.09,0-.18-.12-.27-.16S95.49,8,95.53,8.1Z"/><path class="cls-3" d="M413.34,115a3,3,0,0,1,.22.28,1,1,0,0,0-.31-.11S413.32,115.05,413.34,115Z"/><path d="M433.53,357.51s-.1,0-.16.08v-.11C433.42,357.5,433.48,357.49,433.53,357.51Z"/><polygon points="433.36 357.48 433.37 357.59 433.31 357.73 433.36 357.48"/><path class="cls-3" d="M401.92,113.3a13.82,13.82,0,0,1,1.7.7c-.57-.1-1.13-.15-1.71-.29q-11.48-3-23-6c-2.09-.55-4.18-1-6.28-1.6a10.77,10.77,0,0,1,2.55.08Q388.53,109.68,401.92,113.3Z"/><path class="cls-4" d="M386.75,127.14a8.46,8.46,0,0,1,1.17.48,5.15,5.15,0,0,1-1.6.4c-5.62-.69-11.21-1.61-16.84-2.11-18.62-1.64-36.53-6.64-54.51-11.32-12.76-3.34-25.66-6.35-38.23-10.44-13.63-4.44-27-9.88-40.4-15a87.66,87.66,0,0,1-8.57-4.27,3.87,3.87,0,0,1-.88-.88,6.22,6.22,0,0,1,1.24.11C234.1,86,240,87.9,246,89.78c3,1,6.11,1.86,9.16,2.78l.06-.25c7.52,2.26,14.94,4.88,22.52,6.72,8.62,2.09,17.4,3.38,26.05,5.28a127.19,127.19,0,0,1,12.89,3.74c10.2,3.36,20.35,6.93,30.59,10.18,4,1.29,8.19,2,12.3,2.89C368.62,123.13,377.7,125.12,386.75,127.14Z"/><path d="M403.56,362.86c-.25,0-.48,0-.73,0a3.38,3.38,0,0,1,.51-.19S403.47,362.79,403.56,362.86Z"/><path d="M402.83,362.83l-.24.11,0-.13C402.63,362.83,402.74,362.81,402.83,362.83Z"/><path class="cls-3" d="M402.55,362.81l0,.13h-.28A.75.75,0,0,1,402.55,362.81Z"/><polygon points="402.33 367.43 402.27 367.63 402.2 367.53 402.33 367.43"/><path class="cls-3" d="M402.2,367.53l.07.1-.56,0C401.87,367.59,402,367.54,402.2,367.53Z"/><path class="cls-3" d="M372.17,106l.43.12h-.39Z"/><path class="cls-3" d="M372.17,106l0,.11-1.3-.44C371.34,105.76,371.74,105.88,372.17,106Z"/><path class="cls-3" d="M363.19,103.11c2.6.8,5.15,1.69,7.72,2.53-2.64-.66-5.3-1.34-7.92-2.06a9.25,9.25,0,0,1-1.19-.48A3.6,3.6,0,0,1,363.19,103.11Z"/><path class="cls-3" d="M394.09,362.9l-.46.13-.07-.13C393.73,362.91,393.92,362.89,394.09,362.9Z"/><path class="cls-3" d="M393.56,362.9l.07.13c-.72,0-1.44.08-2.13.13l-.07-.11Z"/><path class="cls-3" d="M391.43,363.05l.07.11a4.87,4.87,0,0,0-.6.37Z"/><path class="cls-3" d="M370.88,189.67c0,.53,0,1.06,0,1.64-.3.29-.58.54-.86.79a7.35,7.35,0,0,1,.13-1.57C370.24,190.21,370.63,190,370.88,189.67Z"/><path class="cls-3" d="M368.8,196.61a5.9,5.9,0,0,1,.72,1.79,11.33,11.33,0,0,1-.54,2.65c-.15.16-.62.74-1.09,1.29a12.36,12.36,0,0,1-.69-2.49,4.94,4.94,0,0,1,.65-2A6.56,6.56,0,0,1,368.8,196.61Z"/><path class="cls-3" d="M372.47,230.37c.18.12.34.24.49.36-.11.07-.2.22-.26.2s-.18-.15-.25-.25A2.85,2.85,0,0,0,372.47,230.37Z"/><path class="cls-1" d="M276.26,398.64c13.46-4.26,34.88-12.18,27.26-30.85-.91-8.26-15.28-12.25-24.14-16.85-3.05-2.45,2.15-5.81,1.85-8.56,40.65,15,41.36-54.69,55.16-81.28-8.26.91-10.1,9.47-18.36,10.37,4.38-25.67,14.86-48.53,22.84-72.13.2-1.56.4-3.13.55-4.71.06-.7-.67-1.49-1-2.2-.53.48-1.32.84-1.59,1.46-1.16,2.66-2.11,5.41-3.24,8.07-.22.55-.82.9-1.27,1.36-.37-.6-1-1.14-1-1.75a20.41,20.41,0,0,1,.21-3.9c.5-3.9,1.07-7.78,1.54-11.64a7.2,7.2,0,0,0-.41-2.27,9.25,9.25,0,0,0-1.35,2c-1.29,3.23-2.58,6.49-3.69,9.79-.66,1.88-1.41,1.86-2.67.57-2.66-2.69-5.15-5.59-8-8-7-5.69-14.28-11-21.2-16.73-8.83-7.3-17.36-15-26.19-22.31-5.7-4.7-11.67-9.09-17.61-13.5-4.06-3-8.47-5.59-12.46-8.72-8.08-6.36-15.85-13.17-24-19.43S200.47,95.13,192,89.05c-2.48-1.79-4.94-3.61-7.54-5.17-4.11-2.47-8.71-4.23-12.42-7.13-14.75-11.6-31.56-19.52-48.23-27.65-4,28.45-15.45,54.29-24.55,82,13.46-4.26,11.35-23.53,24.81-27.8-19,55-43.58,110.66-65.67,163.23-1.51-13.76,5.54-25.68,4-39.45-27.27,30.86-17.23,71.55,25.27,78-23.57,13.73-41.26-20.55-65.13-9.57C42.69,326.75,85.5,336,113,358c-25.08,0-46.16-14.43-71.84-20-2.15,5.81,4,10.71,7,13.17C85.34,365.87,120,380.8,152.6,399.34l.37.07a89.42,89.42,0,0,1,11.71,2.91C201.48,397.57,240.53,413.23,276.26,398.64Z"/><path class="cls-5" d="M196.57,411.37c13.22,2.64,26.53,4.83,39.81,7.25a6.82,6.82,0,0,1,1.41.65,7.05,7.05,0,0,1-1.69.41,78.46,78.46,0,0,1-8.26-.1c-10.66-1-21.34-2.08-32-3.09a42.36,42.36,0,0,0-5.28.19c1.72.65,3.36,1.64,5.15,1.95,13.43,2.28,26.87,4.46,40.32,6.69,1.14.18,2.26.48,3.37.74-1.06.18-2.13.38-3.2.55-.57.09-1.16.1-1.73.22-.25,0-.47.24-.71.35.19.18.35.44.56.5a16.23,16.23,0,0,0,2.14.46c2.63.38,5.23.71,7.84.92a124,124,0,0,0,35.45-2.18c2.18-.47,4.24-1.72,6.32-2.65-3.08.2-6.17.4-9.22.54-.34,0-.68-.29-1-.45.27-.11.53-.22.8-.31,1.14-.26,2.25-.55,3.4-.73,11.36-1.67,22.22-4.75,32.14-10.77-1.74.35-3.53.58-5.23,1.07-5.86,1.68-11.65,3.45-17.51,5.21l-.18.1-.25,0,.16,0c.08,0,.19-.05.27-.09,1.35-.7,2.59-1.54,4-2.11,12.69-5.18,24.41-12.15,35.94-19.52a15.14,15.14,0,0,0,6.71-9.23c2.35-8.53,5.07-17,7.71-25.48,8.65-28.05,17.41-56.07,26-84.17a62.09,62.09,0,0,0,1.88-11c.58-4.88.87-9.82,1.31-14.71.07-.87.14-1.75.16-2.61a1.54,1.54,0,0,0-.9-.07,16.25,16.25,0,0,0-1.62,1.49,7.21,7.21,0,0,1-.6-2.44c.45-3.29,1.23-6.55,1.59-9.87a23.88,23.88,0,0,0-.52-4.79c-.84,1.28-1.7,2.58-2.47,3.92s-1.46,2.47-2.19,3.72c.17-1.53.2-3.09.48-4.57.62-3.44,1.42-6.84,2-10.27.15-1-.42-2.07-.67-3.1a17.94,17.94,0,0,0-1.65,2.24c-1.11,2.35-2.09,4.77-3.14,7.17a12.29,12.29,0,0,1-.76,1.17,11.21,11.21,0,0,1,.05-1.29c1.12-5.83,2.26-11.67,3.37-17.5.41-2.14.95-4.29,1.14-6.42.08-.82-.75-1.73-1.15-2.58-.54.67-1.34,1.23-1.59,2-2.14,6.17-4.13,12.41-6.24,18.57a6.33,6.33,0,0,1-1.38,1.88c-.39-.82-1.25-1.73-1.14-2.49.48-3.31,1.23-6.57,1.91-9.85,1.16-5.67,2.37-11.35,3.42-17.06.17-1-.48-2.07-.73-3.1-.64.77-1.57,1.43-1.84,2.32-2.2,6.62-4.22,13.31-6.37,19.92a11.08,11.08,0,0,1-1.47,2.31,14.12,14.12,0,0,1-1-3,9.54,9.54,0,0,1,.37-3q1.94-8.26,3.93-16.53c.79-3.38,1.65-6.78,2.28-10.2.11-.73-.68-1.62-1-2.42-.5.53-1.26,1-1.49,1.64-2.07,5.75-4.06,11.51-6.08,17.27-.84,2.49-1.62,5-2.5,7.44-.1.32-.49.53-.75.78-.15-.38-.47-.73-.45-1.09a17.5,17.5,0,0,1,.35-2.13c.53-3,1.18-6,1.55-9a13.15,13.15,0,0,0-.5-3.54,20.91,20.91,0,0,0-1.83,2.62c-.85,1.68-1.54,3.46-2.33,5.16-.29.64-.67,1.24-1,1.87,0-.7-.05-1.42,0-2.12.23-1.88.49-3.75.74-5.63-8,23.6-18.46,46.46-22.84,72.13,8.26-.9,10.1-9.46,18.36-10.37-13.8,26.59-14.51,96.32-55.16,81.28.3,2.75-4.9,6.11-1.85,8.56,8.86,4.6,23.23,8.59,24.14,16.85,7.62,18.67-13.8,26.59-27.26,30.85-35.73,14.59-74.78-1.07-111.58,3.68,4.19,1.28,8.35,2.7,12.55,3.87C183.67,408,190.05,410.08,196.57,411.37Z"/><path class="cls-2" d="M41.15,338.06C66.83,343.61,87.91,358,113,358,85.5,336,42.69,326.75,22.55,295.53c23.87-11,41.56,23.3,65.13,9.57-42.5-6.48-52.54-47.17-25.27-78,1.51,13.77-5.54,25.69-4,39.45C80.47,214,105,158.32,124.05,103.29c-13.46,4.27-11.35,23.54-24.81,27.8,9.1-27.7,20.51-53.54,24.55-82l-5.12-2.5c-8.57-4.21-17.43-7.81-26.19-11.67-.52-.22-1.08-.44-1.63-.63-4.71-1.6-4.71-1.6-6.19,3.24q-28.59,94.8-57.18,189.6c-6.42,21.3-12.66,42.65-19,64-.73,2.5-1.77,4.93-2.33,7.47-1.23,5.79,1.44,10.57,4.6,15,7.72,10.71,15.7,21.26,23.55,31.88.79,1.08,1.47,2.21,2.18,3.33.09,0,.15.12.24.17l.57.38c-.23-.11-.47-.23-.71-.37l-.1-.18c-1.57-1.06-3.13-2.08-4.66-3.14,1,1.36,2,2.78,3.17,4.08,2.75,3.15,5.56,6.24,8.36,9.34l.29.16a6.09,6.09,0,0,1,.62.32l-.72-.28-.19-.2a25.45,25.45,0,0,1-3.4-2c-2.84-2.25-5.58-4.62-8.37-6.91a7.57,7.57,0,0,0-1.39-.79,12,12,0,0,0,.87,1.38,30.73,30.73,0,0,0,3.36,3.39c4.37,3.56,8.82,7,13.22,10.56a6.25,6.25,0,0,1,1,1.12c-.54-.11-1.1-.19-1.67-.29-.34,0-.66-.13-1-.17,5.68,3.53,11.15,7.49,17.11,10.52C72.53,380.57,82.29,384.73,92,389c4.87,2.17,9.74,4.42,14.73,6.24.7.26,1.42.49,2.14.74,5.35,1.78,11,2.75,16.47,4.07.43.09.85.16,1.28.22a12.08,12.08,0,0,0-1.19-1c-.77-.42-1.56-.75-2.35-1.11-13.68-6.36-27.36-12.66-41-19-3.53-1.65-7-3.41-10.49-5.23a33.68,33.68,0,0,1-3.79-2.73,42.8,42.8,0,0,1,4.45,1.21c10.73,4.06,21.22,8.76,32.15,12.16,16,5,31.47,11.93,48.26,14.74C120,380.8,85.34,365.87,48.16,351.23,45.11,348.77,39,343.87,41.15,338.06ZM93.23,82.94A16.86,16.86,0,0,1,93,85.39c-.1.38-.57.65-.85,1,0-.53.05-1.07.06-1.48C92.58,84.12,92.91,83.53,93.23,82.94ZM87.94,60.31c.39-1,.47-1.28.58-1.54.2-.44.41-.88.61-1.35-.07.43-.13.85-.2,1.25s-.16.82-.28,1.23c-.28.78-.59,1.54-.86,2.32C87.85,61.32,88,60.42,87.94,60.31Zm-47,187.2a32,32,0,0,1-2,4.07c.08-1.57.19-3.14.28-4.85l2.76-4A36.41,36.41,0,0,1,40.91,247.51ZM49,227.37a47.4,47.4,0,0,1-2.21,6.57c-.38.85-1.58,1.34-2.4,2a12.49,12.49,0,0,1-.12-2.66,19.77,19.77,0,0,1,.85-2.91l.06,0a22.86,22.86,0,0,1,1.33-4.1c.3-.56,1.43-.69,2.17-1A6.27,6.27,0,0,1,49,227.37ZM83.9,119.54c-2,9.39-4,18.75-6.34,28.05-2.49,10-5.28,19.92-8.46,31.78-2.17,5.16-5.14,12.09-8,19.09C58.87,204,56.78,209.53,54.54,215a9,9,0,0,1-1.89,3.35c-.74.67-2.07.65-3.16.93a10.45,10.45,0,0,1,.18-2.69c4.58-14.4,9.25-28.74,13.8-43.14,4.36-13.85,8.52-27.74,12.84-41.61,1.82-5.83,3.75-11.58,5.68-17.37a5.68,5.68,0,0,1,.93-1.38c.33.44.93.84,1,1.31A17.8,17.8,0,0,1,83.9,119.54ZM83.43,73A32.72,32.72,0,0,1,86,68.11c-.1,1.82-.21,3.61-.32,5.71l-2.29,3.49C83.35,75.89,83,74.33,83.43,73Zm2.41,31.41c.91-3.44,2-6.83,3.12-10.21.06-.17.62-.4.69-.32.25.25.65.65.6.93-.31,2.27-.73,4.51-1,6a36.73,36.73,0,0,1-1.13,3.66,19.41,19.41,0,0,1-1.37,2.24C86.46,106,85.69,105.08,85.84,104.45Zm-5.53-22c.08-.26.8-.59,1-.47.42.29,1.06.83,1,1.2-.17,1.75-.54,3.43-.73,4.57a17.84,17.84,0,0,1-1,3,6.84,6.84,0,0,1-1.53,1.56c-.44-.68-1.39-1.49-1.25-2A80.29,80.29,0,0,1,80.31,82.43ZM37,219.41c1.37-4,2.78-7.94,4-11.95,4.12-13.18,8.17-26.36,12.24-39.54,5.14-16.64,10.22-33.27,15.39-49.92,2-6.51,4.15-13,6.28-19.46a8.05,8.05,0,0,1,1.08-1.79c.55.61,1.42,1.18,1.55,1.89a8.73,8.73,0,0,1-.27,3.4q-6.26,24.88-12.62,49.81c-2.12,8.28-4.34,16.55-6.39,24.27-3.21,7.82-6.23,15-9.11,22.31-2.55,6.47-4.93,13-7.39,19.53-.56,1.49-1,3.1-3,3.26C37.37,221.32,36.43,221.17,37,219.41Zm-5.54,17c.72-2.81,1.67-5.53,2.54-8.33.47-1.56,1.66-2.13,3-1.44.5.25.37,1.65.56,2.55l-.59,0c-1,2.76-1.85,5.53-3,8.19-.32.7-1.44,1.11-2.19,1.63A6.69,6.69,0,0,1,31.48,236.43Zm-5.25,15.68c.86-2.3,1.53-4.38,2.46-6.32.27-.59,1.24-.86,1.92-1.27a4.85,4.85,0,0,1,.07,1.92c-.93,2.44-1.95,4.83-3,7.21-.24.55-.93.88-1.38,1.32a10.23,10.23,0,0,1-.32-1.89A3.09,3.09,0,0,1,26.23,252.11Zm-3.15,10.37c.24-.36.6-.87,1-1.39.08.44.36,1,.2,1.35a22.72,22.72,0,0,1-1.55,2.31C22.81,264.07,22.9,263.39,23.08,262.48Z"/><polygon class="cls-3" points="364.99 181.93 364.99 182.21 364.82 182.17 364.99 181.93"/><path class="cls-2" d="M355.31,100.86a8,8,0,0,1-1.15.18,3.08,3.08,0,0,1-.85-.19c-14.85-3.52-29.69-7-44.49-10.58-5.21-1.27-10.3-3-15.48-4.46a8.68,8.68,0,0,0-1.78-.25,16.24,16.24,0,0,0,1.61.69l33,11.17c.66.24,1.37.38,2.07.61a6.07,6.07,0,0,1,.74.45,2.54,2.54,0,0,1-1,.25c-2.85-.36-5.78-.6-8.6-1.21C312.17,96,305,94.18,298.73,92.71c-23-7.25-45-14.2-67-21.18a10.66,10.66,0,0,1-1.24-.42,11.3,11.3,0,0,1-1.13-.6,6.11,6.11,0,0,1,1.47-.08c8.26,1.6,16.51,3.21,24.78,4.89,4.53,1,9.06,2.07,13.6,3.08a4.76,4.76,0,0,0,1.25,0,4.2,4.2,0,0,0-1.12-.8c-7.73-2.46-15.51-4.79-23.23-7.37-4.66-1.55-9.22-3.47-13.82-5.28-.46-.17-.77-.72-1.15-1.13a6.26,6.26,0,0,1,1.51.09c8.2,2.36,16.34,5,24.62,7,8,2.05,16.24,3.23,24.2,5.4a100.56,100.56,0,0,1,16.7,6.27c11.91,5.63,24.46,9.13,37.17,12.19,5.24,1.24,10.42,2.57,15.64,3.89a23.29,23.29,0,0,1,3.32,1.06C354.74,99.94,355,100.47,355.31,100.86Z"/><path class="cls-3" d="M363.44,186.92c.12,1.32.27,2.64.31,3.06a18.23,18.23,0,0,1-.8,2.57c-.14.29-.68.68-.83.62a1.43,1.43,0,0,1-.74-.93,3.28,3.28,0,0,1,.24-1.67C362.15,189.35,362.82,188.13,363.44,186.92Z"/><path class="cls-4" d="M354.79,129.61a5.49,5.49,0,0,1,1.1.63c-.43.13-.93.44-1.33.37-8.18-1.25-16.34-2.44-24.49-3.86-6.85-1.23-13.63-3.6-20.48-3.83-7.52-.23-14-3.53-18-4.12a151.71,151.71,0,0,1-35.49-14.39,9.32,9.32,0,0,1-1.33-1,5.63,5.63,0,0,1,1.6.07c3.7,1.29,7.3,2.88,11.07,3.91,8.81,2.38,17.57,5.29,26.55,6.59,13.67,2,26.73,5.93,39.8,10,4.7,1.47,9.56,2.41,14.32,3.64C350.35,128.26,352.57,128.93,354.79,129.61Z"/><path class="cls-3" d="M359,176.16c.07,1.13.14,2.29.15,2.88a12.7,12.7,0,0,1-.83,2.15c-.16.27-.71.61-.86.51a1.32,1.32,0,0,1-.63-.93,3.24,3.24,0,0,1,.35-1.63C357.66,178.11,358.33,177.14,359,176.16Z"/><path class="cls-3" d="M342.48,185.57c.27.41.52.61.47.73-.28.7-.65,1.38-1,2.08-.09-.26-.29-.55-.23-.78C341.91,187,342.18,186.38,342.48,185.57Z"/><path class="cls-3" d="M313.47,69.12a23.78,23.78,0,0,1,2.17,1l-2.19-.4-1.61-.94A10.24,10.24,0,0,1,313.47,69.12Z"/><path class="cls-3" d="M289.44,418.79l-.18.1h-.09C289.25,418.84,289.36,418.83,289.44,418.79Z"/><polygon points="289.26 418.89 289.01 418.92 289.17 418.88 289.26 418.89"/><path class="cls-3" d="M287.11,424.23l-.75,0-.09-.07C286.55,424.15,286.83,424.2,287.11,424.23Z"/><path class="cls-3" d="M286.36,424.2l-.3,0,.21-.1Z"/><path class="cls-3" d="M226.65,62.28c-1.74-.42-3.49-.87-5.27-1.31l-.06-.11Z"/><path class="cls-3" d="M221.32,60.86l.06.11-2.86-.69C219.46,60.48,220.38,60.69,221.32,60.86Z"/><path class="cls-3" d="M218.52,60.28,212.22,59a4.93,4.93,0,0,1-.86-.43c.43.09.84.21,1.27.33C214.6,59.32,216.55,59.8,218.52,60.28Z"/><path d="M244.29,429.06l-.42,5.32c-4.61-.42-9.22-1-13.78-1.67-12.49-1.89-24.9-4.26-37.25-6.86-7.53-1.57-14.89-3.91-22.23-6.12-11.29-3.35-22.5-7-33.76-10.33-9.34-2.8-18.83-5-28-8.16-1.28-.42-2.52-.86-3.77-1.34l1.66-4.64c.7.26,1.42.49,2.14.74,5.35,1.78,11,2.75,16.47,4.07.43.09.85.16,1.28.22a12.08,12.08,0,0,0-1.19-1c-.77-.42-1.56-.75-2.35-1.11-13.68-6.36-27.36-12.66-41-19-3.53-1.65-7-3.41-10.49-5.23a33.68,33.68,0,0,1-3.79-2.73,42.8,42.8,0,0,1,4.45,1.21c10.73,4.06,21.22,8.76,32.15,12.16,16.16,5,31.69,12,48.63,14.81,8.23,1.35,16.18,4.52,24.26,6.78,6.44,1.8,12.82,3.89,19.34,5.18,13.22,2.64,26.53,4.83,39.81,7.25a6.82,6.82,0,0,1,1.41.65,7.05,7.05,0,0,1-1.69.41,78.46,78.46,0,0,1-8.26-.1c-10.66-1-21.34-2.08-32-3.09a42.36,42.36,0,0,0-5.28.19c1.72.65,3.36,1.64,5.15,1.95,13.43,2.28,26.87,4.46,40.32,6.69,1.14.18,2.26.48,3.37.74-1.06.18-2.13.38-3.2.55-.57.09-1.16.1-1.73.22-.25,0-.47.24-.71.35.19.18.35.44.56.5a16.23,16.23,0,0,0,2.14.46C239.08,428.52,241.68,428.85,244.29,429.06Z"/><path class="cls-3" d="M187,51.87a5.52,5.52,0,0,1,.88.43c-.4-.09-.82-.16-1.25-.28-2.62-.79-5.25-1.59-7.87-2.36v0c-2.77-.84-5.53-1.65-8.27-2.52a7.51,7.51,0,0,1-1.2-.48,6.84,6.84,0,0,1,1.13.15C175.91,48.46,181.42,50.17,187,51.87Z"/><path class="cls-3" d="M160.47,43.88c-.51-.05-1-.1-1.58-.19s-1-.42-1.46-.64a9.33,9.33,0,0,1,1.55.22A10.6,10.6,0,0,1,160.47,43.88Z"/><path d="M95.71,7.94a1,1,0,0,1-.18.16c0-.11,0-.22-.09-.32S95.62,7.9,95.71,7.94Z"/><path d="M93.23,82.94A16.86,16.86,0,0,1,93,85.39c-.1.38-.57.65-.85,1,0-.53.05-1.07.06-1.48C92.58,84.12,92.91,83.53,93.23,82.94Z"/><path d="M89.13,57.42c-.07.43-.13.85-.2,1.25s-.16.82-.28,1.23c-.28.78-.59,1.54-.86,2.32.06-.9.16-1.8.15-1.91.39-1,.47-1.28.58-1.54C88.72,58.33,88.93,57.89,89.13,57.42Z"/><path d="M89.65,93.92c.25.25.65.65.6.93-.31,2.27-.73,4.51-1,6a36.73,36.73,0,0,1-1.13,3.66,19.41,19.41,0,0,1-1.37,2.24c-.33-.74-1.1-1.63-1-2.26.91-3.44,2-6.83,3.12-10.21C89,94.07,89.58,93.84,89.65,93.92Z"/><path d="M86,68.11c-.1,1.82-.21,3.61-.32,5.71l-2.29,3.49c0-1.42-.33-3,.09-4.27A32.72,32.72,0,0,1,86,68.11Z"/><path d="M81.29,82c.42.29,1.06.83,1,1.2-.17,1.75-.54,3.43-.73,4.57a17.84,17.84,0,0,1-1,3,6.84,6.84,0,0,1-1.53,1.56c-.44-.68-1.39-1.49-1.25-2a80.29,80.29,0,0,1,2.48-7.85C80.39,82.17,81.11,81.84,81.29,82Z"/><path d="M82.92,113.13c.33.44.93.84,1,1.31a17.8,17.8,0,0,1,0,5.1c-2,9.39-4,18.75-6.34,28.05-2.49,10-5.28,19.92-8.46,31.78-2.17,5.16-5.14,12.09-8,19.09C58.87,204,56.78,209.53,54.54,215a9,9,0,0,1-1.89,3.35c-.74.67-2.07.65-3.16.93a10.45,10.45,0,0,1,.18-2.69c4.58-14.4,9.25-28.74,13.8-43.14,4.36-13.85,8.52-27.74,12.84-41.61,1.82-5.83,3.75-11.58,5.68-17.37A5.68,5.68,0,0,1,82.92,113.13Z"/><path d="M77.6,98.64a8.73,8.73,0,0,1-.27,3.4q-6.26,24.88-12.62,49.81c-2.12,8.28-4.34,16.55-6.39,24.27-3.21,7.82-6.23,15-9.11,22.31-2.55,6.47-4.93,13-7.39,19.53-.56,1.49-1,3.1-3,3.26-1.41.1-2.35-.05-1.76-1.81,1.37-4,2.78-7.94,4-11.95,4.12-13.18,8.17-26.36,12.24-39.54,5.14-16.64,10.22-33.27,15.39-49.92,2-6.51,4.15-13,6.28-19.46a8.05,8.05,0,0,1,1.08-1.79C76.6,97.36,77.47,97.93,77.6,98.64Z"/><path d="M48.69,225.26a6.27,6.27,0,0,1,.32,2.11,47.4,47.4,0,0,1-2.21,6.57c-.38.85-1.58,1.34-2.4,2a12.49,12.49,0,0,1-.12-2.66,19.77,19.77,0,0,1,.85-2.91l.06,0a22.86,22.86,0,0,1,1.33-4.1C46.82,225.72,48,225.59,48.69,225.26Z"/><path d="M39.18,246.73l2.76-4a36.41,36.41,0,0,1-1,4.79,32,32,0,0,1-2,4.07C39,250,39.09,248.44,39.18,246.73Z"/><path d="M37,226.66c.5.25.37,1.65.56,2.55l-.59,0c-1,2.76-1.85,5.53-3,8.19-.32.7-1.44,1.11-2.19,1.63a6.69,6.69,0,0,1-.31-2.58c.72-2.81,1.67-5.53,2.54-8.33C34.49,226.54,35.68,226,37,226.66Z"/><path class="cls-3" d="M45.76,365.17l.19.12-.29-.05Z"/><path class="cls-3" d="M45.24,364.72c.19.15.34.3.52.45l-.1.07A3.54,3.54,0,0,0,45.24,364.72Z"/><path d="M44.25,359.51l-.72-.28.1,0A6.09,6.09,0,0,1,44.25,359.51Z"/><path class="cls-3" d="M43.63,359.19l-.1,0-.19-.2Z"/><path d="M30.61,244.52a4.85,4.85,0,0,1,.07,1.92c-.93,2.44-1.95,4.83-3,7.21-.24.55-.93.88-1.38,1.32a10.23,10.23,0,0,1-.32-1.89,3.09,3.09,0,0,1,.28-1c.86-2.3,1.53-4.38,2.46-6.32C29,245.2,29.93,244.93,30.61,244.52Z"/><path d="M37.28,349.3c-.23-.11-.47-.23-.71-.37h.14Z"/><path class="cls-3" d="M36.71,348.92h-.14l-.1-.18C36.56,348.79,36.62,348.87,36.71,348.92Z"/><path d="M24,261.09c.08.44.36,1,.2,1.35a22.72,22.72,0,0,1-1.55,2.31c.12-.68.21-1.36.39-2.27C23.32,262.12,23.68,261.61,24,261.09Z"/><path class="cls-3" d="M31.81,345.61a1.34,1.34,0,0,1-.27-.17l.07-.06Z"/><path class="cls-3" d="M31.61,345.38l-.07.06c-.55-.38-1.07-.8-1.61-1.21l.13-.07C30.58,344.57,31.1,345,31.61,345.38Z"/><image width="241" height="250" transform="translate(137.71 137.5) rotate(18.91) scale(0.76)" xlink:href="../Logos/cropped-WP-SpaceNeedle-logo.png"/></svg>